<svg version="1.1" id="Layer_1" xmlns="http://www.w3.org/2000/svg" x="0" y="0" viewBox="0 0 400 400" style="enable-background:new 0 0 400 400" xml:space="preserve"><style>.st0{fill:#c8102e}.st1{fill:#fff}</style><path class="st0" d="M200.5 350.9c-82.9 0-150.4-67.5-150.4-150.4S117.6 50.1 200.5 50.1s150.4 67.5 150.4 150.4-67.5 150.4-150.4 150.4"/><path class="st1" d="M200.5 344C121.4 344 57 279.6 57 200.5S121.4 57 200.5 57 344 121.4 344 200.5 279.6 344 200.5 344"/><path class="st0" d="M200.5 337C125.2 337 64 275.8 64 200.5S125.2 64 200.5 64 337 125.2 337 200.5 275.8 337 200.5 337"/><path class="st1" d="M293.8 200.5c0 51.5-41.7 93.3-93.3 93.3-51.5 0-93.3-41.8-93.3-93.3s41.7-93.3 93.3-93.3c51.5 0 93.3 41.8 93.3 93.3"/><path class="st0" d="M200.5 114c-28.6 0-53.9 13.7-69.7 35 2.3.7 6.7 1.9 12.1 3.5 8.5 2.5 36.8 10.8 42.1 12.5 15.4 5 19.5 6.9 23.8 11.5 4.3 4.7 10.9 10 17.4 14.5 6.5 4.5 9.6 9.4 9.6 17.2 0 7.8-6 14.4-9.7 16.6 0 0 1.3-3.7-.5-5.4-1.8-1.7-7.5-4.8-22-3.8-14.5 1.1-34 8.1-47.2 15.2 0 0 6.3-9.9 15.7-14.4 0 0-7.8 0-51.3 19 13.4 30.8 44.1 52.4 79.8 52.4 48 0 87-38.9 87-87-.1-47.8-39-86.8-87.1-86.8m0 154.8c-19 0-36.1-7.8-48.4-20.4 35.1-18.1 57-13.4 57-9.9 0 3.6-5.4 12-5.4 12 28.6-4 49.5-21.3 49.5-44.5 0-23.3-21.8-34.5-27.3-37.9-5.9-3.7-3.1-8.7-22.6-16-11.9-4.5-28.5-8.9-35-10.5 9.6-5.2 20.6-8.2 32.3-8.2 37.4 0 67.8 30.4 67.8 67.8-.1 37.2-30.4 67.6-67.9 67.6"/><path class="st0" d="M199.8 178.4s-5 .4-10.1-2.1-12.9-8.2-19.6-2c0 0 5.7-.7 5.2.8s-1 10.2 6.7 13.5c7.9 3.3 16.9.8 17.8-10.2"/><path class="st1" d="m98.3 270 .9 1.2 12.5-9.6-.9-1.2 2.8-2.2 4 5.2c3 3.9 2.7 6.8-.3 9.1-2.1 1.6-4 1.7-5.9.7.8 2.6.1 4.3-2.4 6.2-3.3 2.5-6.6 1.5-9.4-2l-4.1-5.3 2.8-2.1zm4.3 5.6c1.1 1.4 2.6 1.7 4.4.3 1.8-1.4 1.8-2.8.6-4.2l-.8-1-5 3.9.8 1zm7.5-6.2c1.1 1.4 2.5 1.5 4.1.3 1.6-1.2 1.8-2.6.6-4.1l-.6-.8-4.8 3.7.7.9zm3.1 18.6.9.8 16.4-11.5 3.3 2.9-9.2 17.8.8.7-2.3 2.6-5.6-4.9 2.2-2.5 1.4 1.2 1.2-2.2-3.3-2.9-2 1.5 1.4 1.2-2.2 2.5-5.4-4.7 2.4-2.5zm10.8 2.3 3.8-6.7-6.2 4.6 2.4 2.1zm10.9 16.8-.8 1.5-2.6-1.5 3.8-6.6 2.9 1.7c-1.4 2.7-1.1 4.3.5 5.2 1.5.9 2.6.6 3.4-.8 1.9-3.3-5.4-8.3-1.9-14.1 1.9-3.3 5.2-3.9 7.9-2.3 1.6.9 2.5 2.1 2.3 3.6l.8-1.5 2.6 1.5-3.6 6.3-3-1.7c1.1-2.2 1.1-3.6-.3-4.4-1.4-.8-2.4-.4-3.1.7-1.8 3.1 5.3 8.2 1.9 14-2.1 3.6-5.4 3.9-8.4 2.2-1.4-1-2.5-2.2-2.4-3.8m20.3 8.5 1.4.5 4.9-15-1.4-.5 1-3.3 6.7 2.1-1 3.3-1.3-.4-2.2 7 6-5.8-.8-.3 1-3.3 6.1 2-1.1 3.4-1.4-.5-4.8 4.4.7 10.9 1.2.3-1.1 3.3-6.5-2.1 1-3.2 1.2.4-.5-6.6-2.8 2.7-.8 2.6 1.2.3-1 3.2-6.7-2.1zm27.4 7.2 1.5.2 1.4-15.7-1.5-.1.3-3.6 13.7 1.2-.7 7.2-3.9-.3.3-3.9-3.9-.4-.5 6.1 3.5.4-.3 3.5-3.5-.3-.6 6.4 4 .4.3-4.4 4 .4-.6 7.6-13.8-1.2zm30.2.6 1.9-.3-2.1-15.8-2.4.3.5 3.9-3.3.5-1-7.2 15.7-2.1 1 7.2-3.3.4-.5-3.9-2.4.3 2.1 15.9 1.9-.3.4 3.4-8.1 1.1zm24.8-4.9 1.4-.5-5.6-14.7-1.4.5-1.3-3.3 6.2-2.3c4.6-1.8 7.3-.6 8.6 2.9.9 2.4.5 4.3-1 5.8 2.7-.1 4.2 1.2 5.3 4.1 1.5 3.9-.5 6.8-4.7 8.4l-6.3 2.4-1.2-3.3zm2.8-11.5c1.7-.6 2.2-2 1.5-3.8-.7-1.9-1.9-2.4-3.7-1.8l-.9.3 2.1 5.6 1-.3zm3.7 9c1.7-.6 2.4-2 1.6-4.1-.8-2.1-2.1-2.5-3.9-1.8l-1.2.5 2.3 5.9 1.2-.5zm14-6 1-.6-6.1-19 3.8-2.3 14.3 14 .9-.6 1.8 2.9-6.3 3.9-1.8-2.8 1.6-1-1.7-1.8-3.8 2.3.8 2.4 1.6-1 1.8 2.8-6.1 3.7-1.8-2.9zm5.3-9.7-5.3-5.6 2.5 7.3 2.8-1.7zm16.3-4.9 1.1-1-10.8-11.5-1.1 1-2.4-2.6 5.5-5.1 2.4 2.6-1.2 1.1 10.8 11.6 2.7-2.5-3-3.1 2.9-2.8 5.2 5.6-9.8 9.2zm16-16.1.8-1.2-12.6-9.3-.9 1.1-2.8-2.1 4.4-6 2.9 2.1-1 1.4 12.8 9.4 2.1-2.9-3.5-2.6 2.4-3.2 6.1 4.6-8 10.8zM96 172.9l.4-1.2-16.8-10.9 1.5-4.2 19.9 1.9.4-1 3.2 1.1-2.4 7-3.2-1.1.6-1.7-2.5-.3-1.5 4.2 2.1 1.3.6-1.8 3.2 1.1-2.3 6.7-3.2-1.1zM94.1 162l-7.6-1 6.5 4 1.1-3zm11.6-13 1-1.6-13.7-8.2-1.3 2.1 3.4 2-1.7 2.9-6.2-3.7 8.1-13.7 6.2 3.7-1.7 2.9-3.4-2-1.2 2.1 13.7 8.2 1-1.7 3 1.8-4.2 7zm11.2-16.8 1-1.1-11.5-10.7-1 1-2.6-2.4 5.1-5.5 2.6 2.5-1.1 1.2L121 128l2.5-2.6-3.2-3 2.7-2.9 5.6 5.2-9.1 9.8zm14.8-15 1-.7-7.3-18.6 3.6-2.6 15.1 13.1.9-.6 2 2.8-6 4.3-1.9-2.7 1.5-1.1-1.8-1.7-3.6 2.5 1 2.3 1.5-1.1 1.9 2.7-5.8 4.1-2.1-2.7zm4.8-10-5.6-5.3 3 7.1 2.6-1.8zm15.7-3.4 1.3-.5-5.9-14.6-1.4.5-1.3-3.3 5.4-2.2 9.8 9.7-3.5-8.4-1.2.5-1.4-3.3 6.3-2.6 1.4 3.3-1.4.6 7.3 17.7-3.6 1.5-10.5-10.1 3.8 9.1 1.2-.5 1.3 3.2-6.3 2.6zm25.4-8.7 1.9-.3-2.8-15.8-2.4.4.7 3.9-3.3.6-1.3-7.1 15.7-2.8 1.2 7.1-3.3.6-.7-3.9-2.4.4 2.8 15.8 1.9-.3.6 3.3-8 1.5zm16.9-2.5h1.2l5.1-19.3 4.4.1 4.4 19.5h1.1l-.1 3.4-7.4-.1.1-3.3h1.8l-.4-2.5-4.4-.1-.6 2.4h1.9l-.1 3.3-7.1-.1.1-3.3zm9.7-5.2-1.4-7.6-1.8 7.5 3.2.1zm23 8.4 1.4.4 5.1-14.9-1.4-.4 1.2-3.4 7 2.4-1.2 3.2-1.4-.5-1.9 5.5 4.6 1.6 1.9-5.5-1.5-.5 1.1-3.3 7 2.4-1.1 3.4-1.5-.5-5 14.9 1.4.5-1.1 3.2-7-2.4 1.1-3.1 1.5.5 2-6-4.6-1.6-2.1 6 1.5.5-1.1 3.2-7-2.4zm23.1 8.8 1 .6 14.3-14 3.8 2.3-6.2 19 .9.6-1.8 2.9-6.3-3.9 1.8-2.8 1.6 1 .9-2.3-3.8-2.3-1.8 1.8 1.6 1-1.8 2.8-6.1-3.8 1.9-2.9zm11 .5 2.7-7.2-5.4 5.5 2.7 1.7zm18.9.6-1-1 2.5-2.5 5 4.9-2.4 2.5-1-1-6.1 8.3 11.3-8 2.6 2.6-7.8 11.5 8.2-6.3-.9-.9 2.4-2.5 4.7 4.7-2.5 2.5-1-1-15.9 11.4-2.8-2.8 8.1-11.9-11.8 8.3-2.8-2.8zm7.1 30.5.8 1.2 13.3-8.4-.8-1.2 3-2 3.8 6-3 1.8-.7-1.1-6.2 4 8.3-.6-.4-.8 2.9-1.8 3.4 5.4-3 1.9-.8-1.3-6.5.3-6.3 8.8.6 1.1-2.9 1.8-3.7-5.8 2.8-1.8.7 1.1 3.9-5.5-3.9.4-2.3 1.4.7 1.1-2.8 1.8-3.8-6zm10.9 23.1-1.6.6-1.1-2.8 7.1-2.7 1.2 3.1c-2.8 1.2-3.5 2.7-2.9 4.4.6 1.6 1.7 2.1 3.1 1.5 3.6-1.4 1-9.8 7.3-12.2 3.5-1.4 6.5.2 7.6 3.1.6 1.7.7 3.2-.4 4.2l1.6-.6 1.1 2.8-6.8 2.6-1.2-3.2c2.2-1 3.1-2.1 2.5-3.7-.6-1.5-1.7-1.8-2.8-1.4-3.3 1.3-1 9.7-7.2 12.1-3.9 1.5-6.7-.4-7.9-3.6-.5-1.4-.6-3.1.4-4.2"/></svg>