<svg version="1.1" id="Layer_2" xmlns="http://www.w3.org/2000/svg" x="0" y="0" viewBox="0 0 400 400" style="enable-background:new 0 0 400 400" xml:space="preserve"><style>.st0{fill:#fff}</style><path class="st0" d="M112.1 340.6c-.6-.5-1.7-1.3-3.3-1.8 1.9-1 3.2-2.6 3.9-4.6.5-1.6.5-3.6.5-4.3v-9.3c-.1-2.5-.4-5.4-2.3-7.6-1.7-1.9-4.3-2.9-7.8-2.9H90.6c-.5 0-1 .4-1 1v61.4c0 .5.4 1 1 1h12.8c1.3 0 5.4 0 8.7-2.8 2.9-2.7 3.3-5.9 3.4-9.5v-10.5c-.1-3.5-.1-7.4-3.4-10.1M95.9 342h3.3c4.4.2 8.1.6 9.5 4.4.4 1.3.5 2.6.5 3.9v8.7c0 4.1-.3 6.1-1.9 7.4-1 .7-2.1 1.1-5.1 1.2h-6.3V342zm11.2-12.8c0 1.9-.1 5.5-4.2 6.7-1.1.3-1.6.4-3.9.5h-3.2v-20.9h4.7c2.6.1 5.3.2 6.2 2.5.1.6.3 1.6.4 3.3v7.9m29.4 13.6c.6-.1.9-.3 1.3-.5 3.3-1.3 5.6-3.7 6.5-7 .4-1.4.4-3.7.4-4.1v-10.1c-.1-1.8-.2-6-3.7-8.8-2.9-2.2-6-2.3-9.3-2.4h-11.9c-.5 0-.9.4-.9 1v61.4c0 .5.4 1 .9 1h4.3c.5 0 .9-.4.9-1v-29h5.1l11 29.3c.1.4.5.6.9.6h4.5c.5 0 1-.4 1-1 0-.2-.1-.4-.2-.5l-10.8-28.9zm1.8-20.1v9.6c0 1.3 0 4-3.1 5-.6.2-1.7.5-3.3.5H125v-22.3h7.1c1.4 0 2.7.1 4 .7 2 1.2 2.1 3.9 2.2 6.5m32.1-11.1c-2.2-1.6-5-2.4-8.4-2.4h-.3c-6 0-10.7 3-12.4 8-.8 2.3-.9 5-1 6.5v35.4c.1 3.4.2 7.3 2.9 10.8 3.1 3.7 8.2 4.1 10.3 4.1 7.5 0 10.6-4 11.6-5.8 1.7-2.7 1.9-5.4 2-8.5v-33.9c.1-4.9.1-10.6-4.7-14.2m-15.9 11.9c0-3.5 1-6 3.1-7.4 1.2-.8 2.6-1.2 4.2-1.2 2 0 3.3.6 3.7.9 1.5.8 2.1 1.9 2.4 2.4 1.2 2.2 1.4 5.1 1.4 9.9V358c-.1 3.3-.2 6.8-3.1 8.9-1.1.9-2.6 1.3-4.2 1.3-5.1 0-6.6-3.7-6.7-4.1-.5-1.4-.6-3.2-.6-6.7l-.2-33.9zm46.4-11.9c-2.2-1.6-5-2.4-8.4-2.4h-.3c-6 0-10.7 3-12.4 8-.8 2.3-.9 5-1 6.5v35.5c.1 3.4.2 7.3 2.9 10.8 3.1 3.7 8.2 4.1 10.3 4.1 7.5 0 10.6-4 11.6-5.8 1.7-2.7 1.9-5.4 2-8.5V326c.1-5.1.1-10.8-4.7-14.4M185 323.5c0-3.6 1-6 3.1-7.4 1.2-.8 2.6-1.1 4.2-1.1 2.1 0 3.4.7 3.7.9 1.5.8 2.1 1.9 2.4 2.4 1.2 2.2 1.4 5.1 1.4 9.9v29.9c-.1 3.3-.2 6.8-3.1 8.9-1.1.9-2.6 1.3-4.2 1.3-5.1 0-6.6-3.7-6.8-4.1-.5-1.4-.6-3.2-.6-6.7l-.1-34zm37.4 11.5 12.9-24.1c.2-.3.2-.7 0-.9-.2-.3-.5-.5-.8-.5h-4.8c-.4 0-.7.2-.9.5l-13.5 26.5v-26.1c0-.5-.4-1-1-1H210c-.5 0-1 .4-1 1v61.4c0 .5.4 1 1 1h4.2c.5 0 1-.4 1-1v-23.1l3.4-6.4 10.5 29.8c.1.4.5.6.9.6h4.6c.5 0 1-.4 1-1 0-.2-.1-.4-.2-.5l-13-36.2zm36.9 32.5h-15.1v-56.6c0-.5-.4-1-1-1H239c-.5 0-1 .4-1 1v61.4c0 .5.4.9 1 .9h20.3c.5 0 1-.4 1-.9v-3.9c-.1-.5-.5-.9-1-.9m22.9-57.6h-4.7c-.4 0-.8.3-.9.6l-8.8 26.2-8.9-26.2c-.1-.4-.5-.6-.9-.6h-4.5c-.3 0-.6.1-.8.4s-.2.6-.1.9l12 34.1v27c0 .5.4 1 1 1h4.2c.5 0 1-.4 1-1v-27l12.5-34.1c.1-.3.1-.6-.1-.9-.4-.3-.7-.4-1-.4m28.2 0h-4.2c-.3 0-.5.1-.7.3-.2.2-.3.4-.3.7l.3 44.8c0 1.2.1 2.3.1 3.6v2.1l-12.7-50.8c-.1-.4-.5-.7-.9-.7h-6.3c-.5 0-1 .4-1 1v61.4c0 .5.4 1 1 1h4.1c.3 0 .5-.1.7-.3.2-.2.3-.4.3-.7l-.3-43.6v-5.8l12.3 49.7c.1.4.5.7.9.7h6.5c.5 0 1-.4 1-1V311c.2-.7-.2-1.1-.8-1.1"/><path d="M332.4 61.3v-7.8l-3.1-1.6c-2.2-1.1-54.5-27.1-127.1-27.1h-3.4c-72.6 0-124.9 26-127.1 27.1l-3.1 1.6v7.6C68 92 71.8 170.5 119.8 231.5c38.9 49.5 75.4 61 79.5 62.1l1.6.5 1.6-.4c1.6-.4 38.8-11.3 78.8-62.1 47.9-61 51.7-139.5 51.1-170.3"/><path class="st0" d="M277.7 228.9c47-59.7 50.7-136.6 50.1-166.9v-5.6l-1-.5c-2.1-1.1-53.4-26.5-124.7-26.5h-3.4C127.4 29.4 76.2 54.9 74 55.9l-1 .5v5.3c-.6 30.4 3.1 107.4 50.1 167.1 38 48.3 73.2 59.4 77.1 60.5l.5.1.5-.1c1.7-.4 37.5-10.9 76.5-60.4m-76.8 56.9c-3-.8-37.7-11.5-75-59-49.2-62.5-49.4-144.3-49-163.6V59s.1 0 .2-.1v-.2l1.1-.5c2.6-1.2 8.4-3.7 16.9-6.8 21-7.7 58.5-18.4 104-18.4h3.3C247.5 33 285 43.7 306 51.4c8.5 3.1 14.4 5.6 17 6.8l1.1.5v.2c.1.1.2.1.2.1v4.2c.4 19.3.2 101.1-49 163.6-37.5 47.5-71.6 58.2-74.4 59"/><path class="st0" d="M142.7 49.7c-3.3.7-4.9 1-8.1 1.7-.6.1-1.1.7-1.1 1.3l.7 59.8c0 4 .1 7.6.3 10.9-8.1-20.7-16.5-42.1-25.1-63.7-.3-.7-1-1-1.7-.8-4.8 1.6-7.1 2.4-11.8 4.2-.5.2-.9.7-.9 1.3v82.2c0 .5.2.9.6 1.1.2.2.5.2.8.2.2 0 .3 0 .5-.1 2.9-1.1 4.4-1.6 7.4-2.7.6-.2.9-.7.9-1.3l-.3-58.3c0-5.1-.1-8-.2-11.6 8.4 21.5 16.6 42.5 24.5 62.6.2.6.9 1 1.6.8 5-1.2 7.5-1.8 12.5-2.8.6-.1 1.1-.7 1.1-1.3V51c0-.4-.2-.8-.5-1.1-.4-.2-.8-.3-1.2-.2m54.5-5.9c-14.2.2-28.5 1.5-42.6 3.8-.7.1-1.2.7-1.2 1.3v82.2c0 .4.2.8.5 1 .2.2.6.3.9.3h.2c13.9-2.2 28-3.5 42-3.7.7 0 1.3-.6 1.3-1.4v-5.1c0-.4-.1-.7-.4-1-.3-.3-.6-.4-1-.4-13.1.2-20.2.7-32.7 2.4V90.7c10.4-1.4 15.9-1.8 26.8-2.2.7 0 1.3-.6 1.3-1.4v-5c0-.4-.2-.7-.4-1-.3-.3-.6-.4-1-.4-10.7.4-16.4.9-26.6 2.2V54c12.8-1.7 19.5-2.1 32.8-2.3.7 0 1.3-.6 1.3-1.4v-5.1c0-.4-.1-.7-.4-1-.1-.3-.5-.4-.8-.4m59.1 4.7c-16.7-3.1-33.8-4.7-50.7-4.9-.4 0-.7.1-1 .4-.3.3-.4.6-.4 1v5.2c0 .7.6 1.4 1.4 1.4 7.9.1 12 .3 19.6.9v75.8c0 .7.5 1.3 1.3 1.4 3.3.3 4.9.4 8.3.8h.1c.3 0 .7-.1.9-.4.3-.3.5-.6.5-1V53.5c7.5.8 11.7 1.5 19.6 2.9.4.1.8 0 1.1-.3s.5-.6.5-1.1v-5.2c-.1-.6-.6-1.2-1.2-1.3m35.2 49.1C274 79.5 272 76.6 272 69.1c0-7.4 3.2-8.4 6.4-8.4 1.6 0 3.7.3 6 1C297 65.4 297 72.3 297 77.4v7.3c0 .6.4 1.1.9 1.3 3.1 1 4.6 1.6 7.8 2.8.4.2.9.1 1.3-.2.4-.3.6-.7.6-1.1v-6.1c0-7.7 0-20.7-22.6-27.2-15.8-4.5-23.9.3-23.9 14 0 11.4 7 18.2 18.6 29.5l2.3 2.3c13.7 13.5 16.5 17.9 16.5 26.4 0 3.1-.5 5.2-1.4 6.5-1 1.4-2.5 2-4.9 2-1.8 0-4.1-.4-6.9-1.2-6-1.7-10.4-4.1-13-7-3.2-3.6-3.2-6.6-3.2-12.6v-6.5c0-.6-.4-1.2-1.1-1.3-3.4-.8-5-1.1-8.2-1.7-.4-.1-.8 0-1.1.3-.3.3-.5.7-.5 1.1v11.5c0 10.8 8.9 19.1 25.6 23.9 4.7 1.4 8.8 2 12.2 2 13.1 0 13.1-10.6 13.1-15.1.1-11.9-6-18.7-17.6-30.7m-39.8 97.5c.9-1 1.7-2 2.2-3.1 4.3-8.3.5-17.6-1.2-20.8-12-19.8-34.7-31.5-58.3-29.2 24.5 1.3 48.2 23.2 57.3 53.1m-80-24.3c5.9 2.5 13.6 6.6 21.8 11 12.9 6.9 26.3 14.1 35.3 16.4 8.1 2 14.7 1.8 19.3-.5 0-.1 0-.2-.1-.3-.1-.3-.1-.7-.2-1-3.9-16.5-24.6-52.6-60.3-52.6-1.5 0-3 .1-4.6.2-13.8 4-25.2 12.5-32.9 23.5 1.3-.4 3-.8 5.3-.8 4.6.1 10 1.5 16.4 4.1m-8.9 49.8c14.5 4.8 22.6 6.3 33.1 6.3 3.9 0 8.3-.2 13.8-.7 15.5-1.3 31.8-6.4 40.6-10.7 0-4.2-.4-8.6-1.2-12.9-2.6 1.6-5.5 2.3-9.2 2.3-3.6 0-8-.7-15.2-2.4-8.4-2-20.5-9.2-31.2-15.5-5.8-3.5-11.4-6.8-15.9-9-17.4-8.6-27.3-7.4-29.9-6.8-6.2 10.3-9.3 22.5-8.5 35 1.3 1.6 7.3 9 23.6 14.4m91.7-7.4c.2-.1.3-.2.4-.3 5.1-3.6 6.5-9.4 6.7-10.3 0-4.9-.6-9.8-1.9-14.7 0-.2-.1-.4-.2-.6-.5 4.5-2.7 8.7-6.6 12.5 1.1 4.4 1.6 8.9 1.6 13.4m1.5 3.3c-.2.2-.4.3-.6.5-.3.2-.7.5-1 .7-.3 3.9-1 7.7-2.1 11.4 1.9-.7 2.6.1 2.8.6 0 .1 0 .1.1.2 3.2-6.2 5.3-13 6.1-20-1.1 2.3-2.7 4.8-5.3 6.6m-2.4 15.2c-.1-.2-.1-.3-.2-.3-.2 0-.6.1-1.5.6-.2.1-.3.2-.5.3-.1.1-.3.2-.4.3-1.5 4-3.5 7.9-5.9 11.3 3.4-3.6 6.3-7.5 8.7-11.8h-.1l-.1-.4zm-62.7 25.8c7-.8 12.8-2.6 19.3-5.9 1-.5 1.9-1 2.8-1.5l2.4-1.2c5.6-2.9 11.6-6.1 18.8-10 2.6-1.4 5.1-2.8 7.6-4.2l2.9-1.6c1.1-.6 2.2-1.2 3.2-1.8.1-.1.2-.1.4-.2.9-3.4 1.5-7.1 1.8-11-7.1 3.6-17.8 6.7-33.5 9.9-20.1 4-39.8 2.2-57.3-5.2-11.8-5-17.4-11.9-19.7-15.6.3 2.7.8 5.4 1.5 8.1 3.9 15.3 13.3 27.8 25.6 35.9l-.1-.1 1.7 1c1.4.8 3.1 1.5 5.2 2.1 3.8 1.1 7.6 1.7 11.6 1.7 1.8-.1 3.8-.2 5.8-.4m55.7-21.7c-.8.6-1.6 1.1-2.5 1.7-2.3 1.6-4.6 3-6.9 4.4-1.1.7-2.3 1.4-3.4 2.1-8.2 5.1-18 10.7-28.5 13.9-3.1 1-5.9 1.6-8.6 2.1-2.5.4-4.9.6-7.3.6h-.5c-3.1 0-6.1-.3-9-.8 11 3.9 23.2 4.7 35.4 1.7 7-1.7 13.4-4.6 19-8.3 5.4-4.2 9.8-10.3 12.6-17.6-.1 0-.2.1-.3.2"/><path class="st0" d="M224.6 214.9c0-4.5 0-11.1-5.3-16.2.6-1 1.1-2.1 1.4-3.3.9-2.7 1-5.6.9-7.5v-12.5c-.1-4.6-.8-9.4-4.6-13.6-3.4-3.8-8.4-5.8-14.6-5.8h-16.6c-1.8 0-3.6.7-4.9 2-1.3 1.3-2 3.1-2 4.9l.2 80.6c0 2.4 1.2 4.6 3.3 5.9 1.1.7 2.4 1.1 3.8 1.1h16.9c6.1 0 11.2-1.8 15.2-5.2h.1c5.6-5 6.2-10.9 6.3-16.6v-.1l-.1-13.7z"/><path d="M220.3 215.4c0-4.5 0-10-4.7-13.9-1-.8-2.2-1.5-3.5-2.1 2.2-1.5 3.7-3.5 4.5-6 .7-2.3.7-5 .7-6.1v-12.8c-.1-3.5-.5-7.6-3.4-10.8-2.5-2.8-6.4-4.3-11.3-4.2h-17.4c-.5 0-1 .2-1.4.6-.4.4-.6.9-.6 1.4l.1 84.1c0 .7.4 1.3.9 1.7.3.2.7.3 1.1.3H203c1.9 0 7.6 0 12.4-4.1 4.2-3.9 4.7-8.4 4.8-13.5l.1-14.6zM208 236.8c-1.2.9-2.8 1.4-6.6 1.5h-7.2c-.6 0-.8-.4-.8-.9 0-4.9-.1-31.9-.1-32.1 0-.2.1-.6.6-.6h3.3c3.5.2 7.2.4 9.6 2 1.4.8 2.3 2 2.9 3.6.5 1.6.6 3.4.6 5.1v11.9c.1 5.3-.2 7.9-2.3 9.5m-5.8-41.8c-1.4.4-2.1.5-5.2.6h-3.1c-.5 0-.7-.2-.7-.6v-25.9c0-.4.2-.7.6-.7h5.2c2.3.1 4.8.2 6.5 1.2.8.5 1.2 1 1.5 1.8.2.8.4 2.1.6 4.4v10.8c-.2 2.5-.3 6.8-5.4 8.4"/></svg>