<svg version="1.1" id="Layer_2_1_" xmlns="http://www.w3.org/2000/svg" x="0" y="0" viewBox="0 0 400 400" style="enable-background:new 0 0 400 400" xml:space="preserve"><style>.st0{fill:#fff}.st1{fill:#008348}.st2{fill:#a73832}.st3{fill:#fab383}.st4{fill:#bb9753}</style><path class="st0" d="M347.7 200.7c0-39.2-15.3-76.2-43.1-104-23.9-23.9-54.1-38.4-87.4-42.2-.8-.7-1.6-1.4-2.4-1.8-11.9-7.7-22-2.6-28.8.7-.3.2-.8.3-1.1.6-.5.2-.9.5-1.4.7-12 1.4-23.7 4.3-34.9 8.6-1.2-1.7-2.6-3.3-4.1-4.7-7.3-7.3-17.2-11.4-27.6-11.4-21.6 0-39.1 17.5-39.1 39.1 0 8.5 2.6 16.5 7.7 23.3-20.6 25.9-31.9 58.2-31.9 91.3 0 39.2 15.3 76.2 43.1 104 13.1 13.1 28.3 23.5 45.1 30.9-.6 6.1.2 10.6 1.4 13.3-1.5 1.4-2.4 2.7-2.8 4.6-3.7 5.8 4.4 11.9 8.3 14.9l.6.5c5.2 4.1 8.9 4.7 12.4 4.7 1 0 2-.1 3.1-.1.6 0 1.1-.1 1.7-.1 5.4-.2 11.2-4.5 17.5-13.2 4-.5 5.4-.2 5.9 0l.3 1.4 1.8-.2c2.6-.3 5.9-1 10.1-2.8 4.9-2 7.7-4.7 8.1-7.9.2-1.1 0-2.1-.2-3.1 21.6-1.4 42-7.1 60.8-17.4.3.5.7.9.9 1.4 1.4 1.9 2.6 8.6 3.4 17.6.5 5.5 1.4 9.3 4 17.5.9 2.8 2 5.9 4.5 5.7 1.8-.2 2.8-2.3 3.1-6.1v-.5c.1-2.8.6-10.3.2-15.8-.3-5.9-.5-14 .6-17.1 1.4-4.2-.8-6.1-1.7-6.9l-.1-.1v-.1c-.1-.7-.2-1.8-1-4.2 7.1-5 13.8-10.6 19.9-16.7 27.9-28.2 43.1-65.1 43.1-104.4z"/><path class="st0" d="M345.8 200.7c0-38.8-15-75.2-42.5-102.6-23.6-23.6-54.1-38.1-86.8-41.6-.8-.8-1.6-1.5-2.6-2-11.6-7.6-21.3-2-28 1.2-.5.2-1 .6-1.7.8-12.7 1.5-24.8 4.5-36.3 9-1.4-2-2.9-4-4.6-5.7-7-7-16.3-10.9-26.2-10.9C96.6 48.9 80 65.5 80 86c0 8.6 2.9 16.7 8.3 23.3-20.2 25-32.5 56.8-32.5 91.3 0 38.8 15 75.2 42.5 102.6 13.3 13.3 28.9 23.9 45.8 31-.9 7.7.3 12.9 1.7 15-2.1 1.8-3.1 2.9-3.4 5-3.4 4.6 4.9 10.4 8.1 13 6.9 5.3 10.5 4.4 15.9 4.2 6.7-.2 12.9-8 16.5-13.1 7.1-1 8.5.1 8.7 1 2.3-.3 5.4-.9 9.6-2.7 9.7-4.1 6.9-9 6-10-.2-.2-.5-.6-.7-.9 23-.9 45-7.1 64.7-18.1.7.8 1.4 1.7 2.1 2.7 2.1 3.2 3.3 13.3 3.7 18.7.5 5.3 1.4 8.8 4 17.2 2.6 8.3 3.6 2.3 3.7 0 .1-2.3.6-10.3.2-16.2-.3-5.9-.5-14.2.7-17.9 1.1-3.6-.9-4.5-1.5-5.2-.6-.7 0-.9-1.5-5.5-.1-.2-.1-.6-.2-.8 7.3-5.1 14.4-10.9 20.8-17.3 27.6-27.4 42.6-63.8 42.6-102.6z"/><path d="M345.8 200.7c0-38.8-15-75.2-42.5-102.6-23.6-23.6-54.1-38.1-86.8-41.6-.8-.8-1.6-1.5-2.6-2-11.6-7.6-21.3-2-28 1.2-.5.2-1 .6-1.7.8-12.7 1.5-24.8 4.5-36.3 9-1.4-2-2.9-4-4.6-5.7-7-7-16.3-10.9-26.2-10.9C96.6 48.9 80 65.5 80 86c0 8.6 2.9 16.7 8.3 23.3-20.2 25-32.5 56.8-32.5 91.3 0 38.8 15 75.2 42.5 102.6 13.3 13.3 28.9 23.9 45.8 31-.9 7.7.3 12.9 1.7 15-2.1 1.8-3.1 2.9-3.4 5-3.4 4.6 4.9 10.4 8.1 13 6.9 5.3 10.5 4.4 15.9 4.2 6.7-.2 12.9-8 16.5-13.1 7.1-1 8.5.1 8.7 1 2.3-.3 5.4-.9 9.6-2.7 9.7-4.1 6.9-9 6-10-.2-.2-.5-.6-.7-.9 23-.9 45-7.1 64.7-18.1.7.8 1.4 1.7 2.1 2.7 2.1 3.2 3.3 13.3 3.7 18.7.5 5.3 1.4 8.8 4 17.2 2.6 8.3 3.6 2.3 3.7 0 .1-2.3.6-10.3.2-16.2-.3-5.9-.5-14.2.7-17.9 1.1-3.6-.9-4.5-1.5-5.2-.6-.7 0-.9-1.5-5.5-.1-.2-.1-.6-.2-.8 7.3-5.1 14.4-10.9 20.8-17.3 27.6-27.4 42.6-63.8 42.6-102.6z"/><path class="st1" d="M166.4 336.1c5.4-.2 12.9-1.9 16.3-3.4.5.1 1.1.6 2.3 1 .5-3.6-1.8-11.1-3.2-14.5-.9-2.3-1.7-3.8-2.7-6.2-3.1-.6-6.8-2.1-9.5-3.3 0 2.1.3 7.7.8 11.4-1.1.1-2.7.2-4.6.2.4 4.1.9 11.4.6 14.8zm101.5-11.8c-1-1 1.2-4.2 2.3-10 1-5.9 1.1-15.6-3.2-21-2-2.7-3.1-4.4-3.4-5.5-13.2 9.6-28.5 16.1-44.7 18.8-.2.3-.3.7-.6.9-2.4 3.1-6.9 7.3-10.3 9.2s-7.2 3.2-9.4 3.8c-.5 3.6-1 11.6-.1 14.4.3 1 4.5 3.5 6 6.2.1.2.3.6.5.8 22.8-.7 44.4-6.8 63.3-17.2-.2-.3-.3-.4-.4-.4zm32.4-223.2c-22-22.2-50.3-36-80.7-40 2.5 4.9 2.8 10.4 3.1 13.9 4.4-1.9 7.7-2.9 9.5-5.9 1.8-2.9 4.3-2.4 5.9-.2 1.6 2.1 1.6 4.9-2.6 7.3-4.2 2.6-7.1 3.8-8 4.3-.9.5-.1 1.2.9 2.9s3.6 5.9 4.1 14.6v.2c16.5 5.1 31.5 14.1 44.1 26.7 20.2 20.2 31.4 47.2 31.4 75.8 0 16.4-3.7 32.3-10.6 46.7.9.5 2.1 3.7 2.6 8 .2 2.3.1 4.7-.6 6.3s-6 9.5-8.6 11.9c-1 .9-3.4.8-4.4-.7-1-1.5-1.1-.7-1.9.1-.8.8-3.5 4.7-4.2 5.8-.7 1-2.9 2-1.5 6.1 1.5 4.1 3.2 7 2.6 9.3-.6 2.3-.8 2.9 2.3 5.5s2.9 5.8 1.6 7.7c-.8 1.2-2.1 4.6-2.7 8.1 35.8-25.6 59.3-67.5 59.3-114.8-.2-37.7-14.9-73.1-41.6-99.6zM138.5 304.8c-.3-3.8-1-10.6 1.7-15.6-5.4-3.7-10.5-7.9-15.3-12.7-20.2-20.2-31.4-47.2-31.4-75.8 0-30.6 12.9-58.3 33.7-77.9.2-.5.5-.8.8-1.2-3.5 1.1-7.2 1.7-11 1.7-9.8 0-19.1-3.8-26.1-10.7-20.1 25-31 55.7-31 88.2 0 37.7 14.7 73 41.3 99.7 12.8 12.8 27.6 22.7 43.6 29.7.7-3.1 1.6-6.3 2.9-9.8 1.2-3.3-.7-10.7-3.8-14.7-1.9-.5-4-.8-5.4-.9zm37.4-242.9c-8.9 1.6-17.5 4-25.9 7.2 2.7 5.2 4.1 11 4.1 17.1 0 8-2.5 15.6-7.1 21.9 7.8-4.5 16.2-8.1 25-10.5.6-.6 1.1-1.1 1.7-1.6-3.3-5.4-7.6-14-3.8-25.7 1-3.4 3.3-6.1 6-8.4z"/><path class="st0" d="M232.3 104.4c3.2 1.6 6.7 5 5.3 11.3-.6 2.6-2.7 5.1-2.9 6.1-.3 1.7-3.8 4.5-5 6.8-1.1 2.3-1.2 4.1-1 5.1 1.8 1.7 5.9 4 8 4.7 1.8.6 1.6 1.1.9 2.3 1.2.1 1.9.9 3.1 2.3 1.2 1.5 4.5.6 6.4-.5 2-1 4.6-1.4 6.7 1.1 2 2.5 5.1 7 6.6 11.3s3.1 7.7 3.5 8.4c.5.7-1.6 13-2.1 18-.6 5-1 7-1.1 7.8-.1.8 3.2-2.8 3.3 1.5.1 3.4 1.7 14.2 3.5 22.4.5 2 .9 4 1.5 5.4 1.4.2 2.5 2.9 3.3 7 .8 4.2 2.5 6.8 2.6 8.7.1 2 .7 2.4 1.4 2.7.7.3.5 1.4-1.6 3.7.5.3 1.1 1 1.6 1.5.6-.6 2.1-2.4 2.1-2.4s6.2 2.5 7.5 2.9c1.4.5 2.9-2.8 6.9-1.1 1.1.5 2.3 2 3.2 3.5 6.3-13.5 9.8-28.4 9.8-44.2 0-27.9-10.9-54.3-30.6-74.1-12.1-12.1-26.6-20.8-42.4-25.8-.5 1.6-.5 3.1-.5 3.6zm32.3 176.4c-1.6-.8-2.6.3-3.4-5.9-.2-1.8-1.7-4.2-2.8-5.3s-1.2-3.3-.7-5.1c.9-2.8 1.1-5.4 1-7.6-.1-2.3.3-5.1 3.5-6.4-1.1-1.2-1.7-2.8-2-4.1-4.6-1.5-5.5-1.7-6.4-3.8-1.6-3.7-2.5-9.2-3.1-12.2-.2-1.5-.3-2.8-.5-4.1-1.5-2.8-4.7-8.9-7.2-13.6-.9-1.7-1.8-3.3-2.4-4.3-2.3-4 0-9 1.1-12.1 1.1-3.1 2-5.8 1-8.7-1-3.1-1-3.7-1.2-5-.2-1.2-1.2-2.8-2.6 1.5-1.4 4.3-4 10.5-5.4 17.1-.8 3.7-1.4 7.7-1.2 11.6.1 2.9.8 5.9 2 8.5 2.9 6.1 6.4 11.6 6 15-.5 3.4-1.1 3.5-1.2 4.1-.6 6.6-3.4 19-4.9 22.5-1.5 3.6-7.1 16.6-8.4 22-.9 4.2-3.5 13.2-5.8 18.5 16.7-3.2 32.1-10.4 45.1-20.6.5-.6.5-1.5-.5-2zM140 133.6c1.2 1.6 2.8 3.1 5 4.2 5.5 2.8 6.7 4.9 6.7 9.6 0 4.9.9 14.7 2.5 16.4 1-1 2.1-2.5 2.4-2.9 1.6 2.9 4.7 8.3 9.7 11.6.3.2.2 1.5 1 1.7 1.7.5 12.6 2.1 12.9 4.4 2.3-2.3 5.9-7.8 6.6-9.7s4.6-7.9 7.5-11.3c0-1.4 0-2.1.1-2.5-.8.7-2 2.4-3.8 3.2s-8 3.5-12.6 5.8c-1.6.8-4.4 1.7-5.5-6.6-1.1-8.1 0-12.4.8-14.4.8-1.9 2.3-3.6 5.1-2.8s7.2 2.5 8.5 2.5c.2-.9 1-2.6-2-2.9-2.1-.2-7.8-1.8-11-6.2-1.2-1.7-2.1-4-2.3-6.7-6.4 1-21 2.9-24.3 3.7s-6 1.5-7-6c-.5-3.2-1.2-7.5 1-6 1.8-1.4 4.3-2.9 8.6-2.3.8.1 1.8.8 2.1 1.4.2 1.1-.2 2.8-.8 4.5-1 3.1-2.8 5.2 3.3 3.7 6.4-1.5 14.5-2.7 16.6-3.2.2-2.1 2-5.5 4.2-8 2.1-2.5 2.5-4.5 2.6-5.3.1-.8-.7-.9-1.7 0-1.2 1.1-5 3.4-8.4 2.5-1.4-.3-3.1-2.9-4-4.4.8-1.6 2.6-4.2 4.9-6.9-12 3.8-23.1 9.8-33 17.8-.1 1.2.1 4.2.9 7.3.5 2.4 1.5 5.3 3.4 7.8zm7.8 153.2c4.6-1.8 8.3-1.7 11.8 3.1 1 1.4 1.8 5.3 10.4 1.8-4.6-5.5-7.3-12-9.8-20.7-4-13.8-13-29.5-9.6-36.6-1.9-1.8-4.2-8.7-6.6-7.9-1.6.6-3.8.6-2-4.7.8-2.4 2.1-5.2 4.6-8.7 3.1-4.2 7.9-9.3 15.7-15.3.7-.6.8-1 .3-1.5-.8-.8-1.6-1.7-2.4-2.1-.8-.5-1.6-.2-2.3.5-.7.7-1.8 1.5-2.5 1.9s-6.1-4.9-8.8-8.6c-2.8-3.8-5.8-5.1-6.7-5.5 1.1-1.2 3.6-4 2.7-3.6-1.7.6-4.6.9-7.6-2.3-3.7-4-2.3-6-3.1-6.6s-4.9.3-7.8-4.4c-3.1-4.7-4.3-6.8-1.8-10.1 1.2-1.7 1.7-2.5 1.4-4.6-.3-2.1 0-3.5 2.8-6.2s4.5-5.2 5.8-5c1 .2-1.8-3.4-3.6-6.1-.5-.7-.8-1.4-1-1.9-.5-1.1-1.1-2.9-1.4-5-19.7 19.8-30.5 46-30.5 74s10.9 54.3 30.6 74.1c4.6 4.6 9.6 8.8 14.9 12.4 2.5-2.5 5.3-1.5 6.5-.4z"/><path class="st2" d="M88.2 65.7c9.2 2.4 16.1 9.8 19.1 13.9.8 1 1.6.9 1.9.1.7-1.7 2-7 2-11.2 0-9.4 1.2-13.1 3.6-17.5-10.9.6-20.6 6.3-26.6 14.7zm-5.5 28.9c17.3 1.6 22.6-8 23.7-9.5 1.1-1.5-.2-2.4-.8-3.2-2.9-4.2-9.7-11.5-18.9-13.9-3.3 5.3-5.1 11.5-5.1 18.2.1 2.9.4 5.7 1.1 8.4z"/><path class="st2" d="M151.2 93.9c-7.2-3.1-15.9-.2-22 5.2-6.2 5.4-9.3 9.5-11.4 22.3h-.8c-9.2 0-17.4-3.5-23.6-9.2 10.5-2.7 19.4-7.5 29.4-17 10-9.4 14.9-20.4 16.3-25.6 1.4-5.2-.6-2.1-1.6.2-1.6 3.6-6.8 13.5-17 23s-18.1 14.2-28.7 17.9c-3.5-3.6-6.3-8-8-13 3.6.2 14.9-1.1 20.6-5.8 7.5-6.1 8.3-13.3 9.3-23.6s2.5-13.3 5-17.3c18.7.9 33.6 16.3 33.6 35.2-.3 2.6-.5 5.2-1.1 7.7z"/><path class="st2" d="M150.2 97.4c-1.7-2.4-7.7-3.5-17.2 2.5-.9.6-1.5.9-.5 2 2 2 5.1 5.9 7.2 11 4.8-4 8.4-9.5 10.5-15.5zM137 115.1c-2-5-3.7-8.5-5.7-11-1-1.4-1.2-1.9-3.2-.2-5.3 4.6-7.3 11.8-8.5 17.4 6.5-.6 12.4-2.8 17.4-6.2z"/><path class="st3" d="M127.2 154.4c-1.5-.5-2.6 1.2-3.3 2.6-.7 1.4-1.5 2.8.7 5.9 2.1 3.1 3.5 4.9 7.1 4.6 1.8-.1 3.4-1.5 4-2.3.6-.8.7.6-.2 1.9-.9 1.4-1.6 4.5.1 6.7 1.7 2.1 5.2 4 9.7 1.2 4.6-2.7 6.6-6 7.2-7.3.8-1.5.8-2.1 0-3.1-.8-.9-3.4-5.2-4-13.6-.3-5.1.6-8.3-2.6-10.1-3.2-1.8-10.3-6-11.2-14.4-.3-3.2-.1-7.9-3.3-5.4-3.2 2.6-3.2 4.4-3.5 6.3-.3 1.9 1.2 4.5 2.6 6.3 1.4 1.8 2.9 5.8 4.2 6.8 1.2 1 2 1.8 3.1 1.9 1 .1 5.1.1 6.1.5s1.6 1.6-.9 1.6-6.3.7-7.9.9c-1.7.2-3.3.3-4.1 3.7-.8 3.4-1.9 7.2-2 8.5-.1 1.2-.8 1.9-.8 2.6 0 .7 1.4 4 4.4.7s4.3-6.6 4.9-8c.6-1.6 1.2-1.4.7 1.1-.6 2.5-.7 8.6.5 10.7 1.2 2.3 3.8 4.6 7 3.1.7-.3 1.8-.9 2.7-.8s-.1 1.7-.9 2.4-3.4 3.5-7.9-.6c-1.1-1-2.7-3.3-3.1-6.1-.1-.9-1.4-1.2-1.9-.5-.6.8-3.6 3.6-5.8 1.6-2.1-2-3.1-3.2-1.8-7.3.3-1.1.8-1.9.2-2.1z"/><path class="st3" d="M129.5 148.2c-.5 1.5-.9 3.4-1.1 4.1s-1.2 2.1-2.1.2c-.9-1.9-.9-3.4.6-4.9.5-.5 1.1-1.4 1.6-.9.3.5 1.1 1.2 1 1.5zm5.1-5.2c-.9.5-2.9.5-3.6 2-.5 1-2.3-.1-1.4-1.4s1.6-1.1 2.1-1.5c.6-.3.8-1.4 1.9-.8 1.2.7 1.4 1.5 1 1.7zm73.8-55.5c-3.2.3-6.1 2.3-8.9 4.3-2.9 2-13.5 10.9-15.9 12.7 2.6 1.4 3.3 4.1 2.4 8.5-.2 1 0 1.4.7.7s3.8-4.1 3.7-6.7c-.1-2.7-1.4-4.3-1.6-4.6-.2-.3.9-1.7 2.1 1.1 1.2 2.8.9 6.8-2.8 11.1-3.7 4.4-6.7 4.3-8.1 5.1-1.6.8-3.2 2-1.7 4.4 1.5 2.4 4.3 1.5 5.4.7 1.1-.8 2.7-1.7 6.3-1.4 3.6.3 4.7-1.9 2.4-4.4-.8-.8-2.8-2.6-.3-2.6 1.5 0 3.3 3.3 4.3 4.2 1 .9 3.3 1.2 6.3 1.5 3.1.2 7.7 1.4 7.7 4.3 0 1.8-1 2.3-2.3.9-.5-.6-1.2.3-1.8.9-1.9 1.9-6.8 7-10.3 7.9-3.5.9-4.7-.1-9.4-2.6-4.6-2.5-8.8-5-10.1-5.8-1.2-.8-3.8-2.6-2.6 1 1.2 3.6 4.3 7.2 10.3 9.3 6.1 2 6.9 2.7 8.3 3.4 1.4.7.6 1.4-1.2 1.1-1.6-.2-3.3-1.6-1.9 1.5s3.4 6.3 9.5 5.5c6.1-.8 6.3-2 10.2-8.5.7-1.1 1.4-.3.9 2.6 3.1-1.5 4.7-1.9 6.4-2.4 1.8-.5 6.4-2 9.5-7.7 1.6-2.9 2.4-4 2.1-6.9-.1-1.1 1.6-3.4 3.3-5 1.7-1.6 6.3-7.5 4-11.8-2.4-4.3-6.3-2.1-8.1 1-1.9 3.2-4.1 6.6-4.2 12-1.4-.5-2.7 0-3.4 1.1-.3.6-5.3-.1-7 .3-1.7.5-2.3-.6-.5-2.9 1.8-2.4 8.1-10.9 7.7-17.3-.1-1.9.1-2.3.5-3.7.3-1.8.6-1.9-1.7-3.2-1.5-.8-1.6-3.2-1.8-5-.2-1.9-.7-1.9-2.8-1.5-1.6.5-4.3-1.1-5.6-3.1z"/><path class="st3" d="M195.3 122.5c-.6 1.4-2.3 2.7-6.2 2.3-1.9-.2-3.8-.2-4.2 1.2-.2 1-1.1 1-2.4.9-1.2 0-2.7-.3-2.7.1 0 .5 5.5 3.7 7.3 4.6 1.8.8 4.5 2.8 6.7 2.6 2.9-.2 5.4-1.7 9.7-6.3 1.8-1.9 3.2-2.8 1.5-3.6-1.1-.6-2.3-.7-3.8-.7-1.4.2-4.7 0-5.9-1.1zm-20.9.1c-1.5-.1-1.7-1.1-.7-2.8s1.9-3.3 3.3-4.3c.2.7.7 1.6 1.4 2-.9.9-2 2.1-1.8 4.5l-2.2.6z"/><path d="M208.5 115.6c-1.9 0-4.7-.7-6.8-2-2-1.5-2.7-2.1-2.4-4.2.2-1.2.3-2 .5-2.5.1-.3.1-.6.1-.8.2-1 .1-1.6-.2-2-.1-.2-.3-.3-.7-.3-.5 0-1 .2-1.7.8-1.1-.9-2.3-1.9-3.2-2.6-.7-.6-1.1-1-1.4-1.1-.2-.1-.6-.5-.6-.7s.1-.5.3-.8c.1-.1.3-.2.7-.2h.2c.2 0 .6 0 .8-.3.2-.2.3-.8.2-1.5 0 0 .1-.1.6-.1h1c.3 0 .5 0 .6-.1.2-.1.3-.3.3-.6.1-.2.1-.3.5-.3.2 0 .5 0 .9.1h.2c.3 0 .6-.3.7-.5l.1-.1c.1-.2.2-.3.6-.3h.2c.3 0 .6.1.8.2.3.1.6.1.9.1.7 0 .9-.5 1-.9.2-.8.3-1 .7-1 .2 0 .7.1 1.2.5.5.3.9.5 1.2.5.6 0 .9-.3 1-.9h.1c.3 0 .9.2 1.6.6l.3.2c1 .6 3.3 1.8 5.8 4.7.6.7.7 1.1.7 1.2h-.1c-.3.1-.9.1-1 1.1-.1.6-.2.8-.3.9 0 0-.1-.1-.2-.3-.1-.3-.3-.6-.7-.6h-.2s-.1-.1-.1-.2-.2-.6-.7-.6c-.2 0-.3.1-.5.2h-.1c-.1-.1-.2-.6-.7-.6h-.3l-.1-.1c-.1-.2-.2-.2-.5-.2-.1 0-.3 0-.5.1s-.3.1-.5.1c-.1 0-.1 0-.1-.1-.1-.3-.3-.3-.6-.3s-.3.1-.6.2c-.1.1-.3.1-.5.1 0 0-.1 0-.2-.1s-.2-.3-.6-.3c-.2 0-.5.2-.6.3v.1c-.1.2-.2.2-.3.2h-.1c-.1 0-.2-.1-.3-.1-.3 0-.6.2-.7.5l-.1.1h-.2c-.1-.1-.2-.1-.3-.1-.5 0-.7.3-.8.7-.1.2-.2.3-.2.3h-.1c-.2 0-.3-.1-.5-.1-.7 0-.7.6-.8 1.1v.3c-.1.9-.6 4.6-.5 5.7 0 .9 1.2.9 1.7.9.8 0 1.9-.1 3.4-.3 2.7-.3 7.8-1.9 10.5-4.1.7-.6 1.2-.6 1.4-.6h.2c0 .1-.3.8-.9 1.4-.1 0-.1.1-.2.2-.8.7-2.7 2.4-6.6 3.2-3.7.7-7.1 1.4-8.3 1.4h-.4c-.2 0-.3.1-.5.2-.1.2 0 .5.3.7.3.3.9.5 1.4.5h.5c.1 0 .6.3.8.7.8.8 2 1.9 3.6 1.9 2 0 4.9-2.1 5.8-2.8.3-.3 1.2-.8 1.8-.9l-.5.5-.1.1c-1.8 1.8-3.7 3.7-5.7 3.8-.1-.2-.3-.2-.4-.2zm23.8-2.5c-1.2.9-2 1.2-2.1 2.8-.1 1.6-.5 4.3-1 4.5-.8.3-.7-1.5-.9-.9-.3.8-1.2.5-1.6-.2-.1-.3-2.9-.3-.7-3.5 2-2.9 3.6-4.5 5.1-5.2 1.4-.7 3.8.6 1.2 2.5z"/><path class="st3" d="M287.1 246.5c-.6-1.4.3-3.5 3.2-1.9 2.8 1.6 5 2.9 2.9 9-2 6.2-3.5 9.7-4.3 12.3-.8 2.6-3.8 5.9-2.8 1.5s1.6-9.6 1.1-12.3c-.8-5 .8-4.6.3-6.9 0-.8-.2-1.3-.4-1.7zm10.6 5.3c.8 2.4 1.7 7.9.3 10.2-1.4 2.3-5.5 8.4-7 10-1.6 1.6-2.8.9-1.8-.8 1-1.7 2.4-4 2.4-4.7 0-.8-.1-1.7 1.2-4.3 1.4-2.6 3.7-11.2 4-11.9.2-.7.7.8.9 1.5zm-28.9 20.7c-.7-2-1-5-2.1-6.7.9-2.5 3.8-9 8.8-11.1.6-.2.9-.8.7-1.2-.2-.5.7-.8 1.1.8.5 1.6 1.2 6.1 1.2 6.1.2 1-.2 1.8-.5 3.2-.2 1.4-.8 4.4-.5 6 .3 1.6.9 2.7 4.1 2 1.6-.3 1.5-.8 1.9-2.1.5-1.4 1.7-5.2 2.1-7.2.5-2.1.1-7.3-.3-8.7-.5-1.4.1-5.9-.1-6.8-.3-.9-.6-2.3-3.4-3.2s-3.6-1.1-5.5.8c-1.9 1.9-2.6 2.7-3.5 3.6-.9.9-3.2.1-1.2-1.7 1.9-1.8 3.7-3.6 4.3-4.2l-.6-1.5h-1c-3.1 3.1-7 4.9-9.7 5.4-1 .2-2.9.3-1.6 2.1.3.5.5 1.7 1.2 1.2.8-.5 2-2.5 3.2-1.6s-.2 3.1-1.6 4.1c-1.4 1-2.8 2-3.8 2.6s-1.6 1.1-1.5 2.9c.1 1.8.2 5.1-.8 7.5-1 2.5-.5 3.2.5 4.9s2.4 3.2 2.8 5.9c.5 2.7.7 3.4 2.5 3.2 1.8-.2 2.5-1 3.2-2.1l.1-4.2z"/><path class="st2" d="M269.5 277.7c-.8 1.4-2.1 3.5-2.1 5.4 0 1.9-1.9 4-1.7 4.9.2.9 2.7 3.3 4.2 5.8s3.4 6.2 3.4 12.3c0 6.2-2 14.6-2.3 15.7s-.8 2 .9 3.6c1.7 1.6 4.4 4.5 5.4 11.1 1 6.7 1.7 10.1 2.1 10.4s.3.9.3 2.1c0 1.2 1.1 8.3 1.9 9.6.8 1.4.7-7.6.6-10.2-.1-2.6.1-14.9.6-16.7.5-1.8.9-3.8-.7-6.1s-4.3-6.2-2.3-12.7c2-6.6 5.3-6.4 4.3-8.9-1-2.6-2.8-4.4-4.2-5.9-1.4-1.5-.2-5-.3-6.4-.1-2.7-2.3-3.2-2.5-6.2s-.5-5.5 1.8-8.5c2.3-3.1-.8-2.9-1.8-4.9-1-1.9-1.6-4.4-.7-8.4.5-2 .2-2.6-.3-2.8s-2.9-.7-2.9-.7l-3.5 6.9c.6 1.4.8 3.4.8 4.7l-1 5.9z"/><path class="st0" d="M237 141.2c-2.7 3.7-7 13-9 18.9-2 5.9-6.7 19.8-3.4 28.9s9.6 3.4 11.1-.1 3.7-9.4 4.4-11c.7-1.6 1-2.5 2.3 1.2 1.2 3.7 3.1 12.6 3.1 13.3s-1.2 3.1-2.6 6.6-2.1 6-.8 8c1.4 2.1 6.7 11.2 8.3 15.2 1 2.4 1.9 2.8 4.6 2.1 2.7-.7 9.2-2.9 11.1-3.8 1.9-.9 1-2.5.5-4.4-.9-2.9-4.3-19.1-4.3-21.1 0-2.1.6-5-2.3-1.8-1 1.1-2.4 0-2-1.6.3-1.6 3.7-23.4 4-26.1-1.9-4.2-7.5-17.3-9-19.7-1.6-2.4-2.1-2.5-4.5-1.2-2.4 1.2-7.6 3.2-9.5-1.4-.3-.8-.9-2.6.5-2.8l-1-.3c-.3 0-1.1.6-1.5 1.1zm29.4 80.6c-2 1.2-9.2 4.3-12.1 4.7-2.9.5-2.3 1.2-1.7 3.5s2.3 8.9 3.2 11.3c.9 2.4 2.1 2.3 4.5 2.3 3.6-.1 9.6-1.7 14-5.8-1.2-1.5-3.4-8.5-4.1-11.4-.6-3.1-.6-6.4-3.8-4.6zm-64.2-64.7c-.2.5-1 1.8-2.8 1.8-1.8 0-3.3-.6-4.4 1-1.1 1.6-7.2 9-8.6 13.7 1.4 2.8 3.2 7.8 4.5 11.4 4.4-3.7 18.3-17.3 20.9-20 1-1 1.1-1.9-.3-2.9-1.5-1-6.9-4.4-7.7-5-.9-.4-1.4-.4-1.6 0zm-35.4 19.7c-.9 3.5-2.6 9.5-5.4 14.2 1.1 1.8 2 3.4 3.4 4 3.2-2.3 9-7.7 10.7-9.7 1.7-2 3.8-5.1 3.8-5.8s-.8-.9-1.8-.7c-1 .2-5.2-1.5-9.2-2.3-1-.1-1.4-.1-1.5.3zm-2.4-3.3c-1.2-.2-5.5-4.9-7-7.2-1.5-2.5-1.7-2.3-2.3-.5-.6 1.8-2.7 5.8-4.2 7.6-1.5 1.9-5.3 6.8-6.3 7.9-1 1.1 0 1.6.9 2.5.9.9 5.5 6.6 6.6 7.7 1 1.2 2.1 3.5 4.9 1 2.7-2.5 6-6.9 7.3-11.5 1.5-4.6 1.6-7 2.8-6.8v-.9l-.3-.6-.7-.6c.1.3.1.7-.1 1.1-.1.7-1 .4-1.6.3zm68.7-103.2c-3.1 3.6-9 6.7-19.3 9.3-10.2 2.6-20 9.7-24.1 13.2-4.2 3.5-14.6 12-19.7 14.1-1.4.6-4.2 2.5-.6 2.9 2.7.3 4.6-1.2 10.4-5.5 5.9-4.3 10.4-7.3 14.8-11.6 4.2-4.1 11.6-7.8 19.8-10.1 8-2.3 18.7-5.8 21.7-9 1.5-1.6 1.6-2.4.2-3.7-1.3-1.4-2-1.1-3.2.4zm-51.6 35.3c-.9.5-1.2 1-2.3 4.3-1 3.3-.9 5.2 0 6 .6.6 1.5.6 1.9.6.3 0 .7.1.6-.8-.1-.9-.1-5 2.9-6.8.6-.3-.1-2.7-2-2.4-.6 0 0-1.5-1.1-.9zm-34.6 12.9c1.6 0 2.6 0 2.5 1.8-.1 1.8-.9 4.3-1 6-.1 1.7-.1 2.4.9 2.4s-1.5 1-2.8 1.2c-1.4.2-3.4 1-4.5-4.7-.3-1.8-.2-4.6-.5-5.3 1.4-.8 3.5-1.4 5.4-1.4zm29.9 4.7c.5 2.3 1 2.3.6 2.6s-.9-.9-2.7-.6c-1.7.2-15.8 2.5-16.8 2.6-3.2.3-3.3-.2-.3-.8 2.9-.6 13.6-2.6 16.7-3.2l2.5-.6zm-17.1 171.6c1.5.9 5 1.9 10.9-.6 6-2.5 12.6-.8 13.6 3.5s1 9.7-.8 12.1c-1.6 2-3.1 1.8-4.9 1.2-3.3-1-10.7-4.5-12.9-5.5-2.1-1-5.8-2.1-8.3-2.1-1-2.1-.9-5.9-.2-7.1.7-1.4.7-2.7 1.2-2.4.6.3 1.4.9 1.4.9zm23.5 19.7c1.5 0 4.1.6 5 3.3.7 2.1 5.1 2.7 6.9 2.6 1.9-.1 1.6.9 1.5 2-.1 1.1-.5 4.5-.5 5.9s.3 6.1.6 6.9c.2.9-.6 1.4-1.6 1.8s-4.7 1.6-7-.1c-1.2-.9-2.7-2.1-1.2-2.3 1.5-.1-1.8-12.8-2.7-15-1-2.2-3.6-5.1-1-5.1zm-38.6-26.4c.6.2.9.8 1.4 1.6.5.8.6 1.5-.1 2.3-1.2 1.4-2.7 7.5-2.5 11.9-.8-.2-2.5-.6-3.4-.3-.3-2.5-.1-10.2 1-12.7 1.2-2.6 2.3-3.3 3.6-2.8zm.3 68.4c2.8 3.2 8 7.9 12 9.6 4 1.7 6.6 2.3 10 1.9 2.8-.2 2.3.9 0 1.2-2.3.3-7.3.3-10.7-1.5-3.4-1.8-8.7-5.1-12.1-10-.9-1-.1-2.2.8-1.2zm58.4-7.8c-2.3 1-6.4 3.2-10.5 4.2.5 2 .6 2.9.6 3.5 2.5 0 7.2-1.7 11.1-4.2.9-.6 1.2-1.2.9-2-.4-.8-.8-2.1-2.1-1.5zm-26.5-9.3c-.6-.6 2.6-1.2 3.3-1.2.8.5 2.3 1.8 2.7 2.3.3.3.1.6-.2.8-.3.2-2.3.7-3.2.8-.9-.9-2.4-2.3-2.6-2.7zm5.8-46.6c-.9-.7-.8-1-.3-1.7s.9-1.1 1.4-1.4 1.1-.3 1.9.8c.8 1.1 5.1 8.1 6 10.1.9 1.9 2 .7 1.6-.5-.5-1.1-1.4-3.1-1.7-3.6 1.2-3.8 2.5-9.6 2.5-13.5 0-3.8-.9-7.6-1.6-8.9 3.1.1 9.6 0 12.2-.8 2.6-.8.5-1-.6-.9-1 .1-8.3.1-13.6-.6-9.2-1.1-18.2-6.3-21-9.8-.5-.6-3.2-.3-.9 1.5 2.3 1.8 7.9 7.1 16.4 8.6 1.9.3 5 .9 5.4 7.8.5 7-.2 11.4-.2 12.1s-.5.9-1 .1c-.6-.8-2.5-3.4-3.5-4-1-.6-1.7-.5-2.6.2-.9.7-2.3 2-2.8 2.7l2.4 1.8zm-17.9 22c-.8 0-5.9.3-6.9 0s-1.8-1.6-1-2.1c.9-.6 2.6.2 4.4.2 1.7 0 3.6-.5 4.1-.2.5.2 1 .2 1 2.3l-1.6-.2zm-12.3 30.7c-1.5-.9-3.2-5.1-3.5-13.3-.1-2.8 1-7.5 1.9-9.7s-.6-1.4-.9-.6c-.3.8-1.5 4-1.8 6.3-.3 2.4-.9 5.9 0 10.9.9 5.1 1.4 6.6 1.6 7.5l2.7-1.1z"/><path class="st1" d="M203.7 77.8c1.5.1 3.2.1 3.6-1 .3-1 0-1.7-.5-1.9-.5-.2-.7-.1-.5-1.1.2-1 .9-.9.9-2.5-.1-1.6-1.2-1.6-2.3-1.2-1 .3-1.5.8-2.5 2.1s-.6-.9-.3-1.2c.1-.3.6-2.9-.8-3.4-.8.3-1.6.8-2.3 1.1-.2.5-.5 1-.7 1.6-.6 1.5-1.2.3-1.7-.3-1.5.8-2.8 1.6-3.8 2.3-.1.1-.2.1-.3.2.1.9 1.2 2 1.8 2.4.7.5.2 1.5-.6 1.5-.9 0-2-.6-3.2.7-1.1 1.4-.3 2.6.7 2.6s1.9.3 2.4 1.6c.3 1.2.7 1.7 2.1 1.9 1.5.1 2.3-.9 2.7-1.6.3-.7.9-1.6 1.5-1.4.9.3.8 1.2.6 2.4 1-.6 2.1-1.2 3.3-1.8-.2-.9-.8-1.8-1.1-2.3-.7-.7-.5-1 1-.7zm12.5-16.3c-.6.1-1 .2-1.6.5.2 1.2.8 2.9.5 3.2s-1.6.5-2.6.8c-1 .3-3.4 2.5-2.1 4.2 1.2 1.6 1.6 2.6 1.8 3.4.2.8 2.3 1.8 3.6.1s2.5-3.5 2.8-2.4c.3 1 .2 3.4 0 4.6.3-.1.6-.1.9-.2.6-6.3-1-10.7-3.3-14.2zm-30.7 30.1c-.8-.6-1-1.6-.1-1.8.9-.2 2.3-.5 4.6-1.5 2.4-1 1.1-2.7.1-3.2s-1.1-1.5-1-2.5c.1-1-.1-2.6-2.3-1.8-2 .8-1.4 2.8-1.9 3.5-.6.7-.9.5-.8-.6.1-1-.8-1.7-1.2-1.9-.3-.2-1.2-.3-2-.5-2.1 1.9-4.1 4-5.5 6 .3.7 1.1 1.5 1.6 1.6.6.2 1.4.6 1.4 1.7 0 .9-2.1 1-3.6 1 1 2.7 2 4.6 3.4 6.1.3-.1.7-.2 1.4-.5 1.7-.7 2.3-3.4 2.6-4.2.2-.8 1-.6 1.5.3.3.7.5 1.4.6 2 1-1 1.9-1.9 2.9-2.8-.9-.2-1.3-.5-1.7-.9zm29.7 67c.3 0-.6-4.1.2-4.2.7-.1 1 2.1 2.6 1.9 1.6-.2 1.9-1.8 1.7-3.6-.2-1.7.8-.8 1.6-2s-.9-2.9-2.8-1.7c-1.9 1.1-1.6-.3-.6-1 1-.6.2-2.8-1.8-2.1-1.6.6-2.4-.5-3.1-.9-.6.2-1.1.5-1.7.7-.1.5 0 1 .1 1.6.1.7.5 2.6-.7 1.8-1-.7-2.4-1-2.8.2-.3 1.2.3 1.4.2 2.1s-2.1.9-1.1 2.6c.9 1.6 2.4.7 3.3.1.9-.6 1.8.1 1.5.9-.2.7-.8 2.8-.8 4.3.5.3.9.6 1.4.9.7-.5 1.7-1.5 2.8-1.6zm-30.5-3.8c.8-.2 2.5 1.5 4 .5s-.6-2-.3-2.8c.2-.8.9-2.5 0-3.3-1-.8-2 0-3.2 1.1-1 1.1-.7-1-.1-2 .7-1.2 0-2-1.2-2.3-1.2-.2-1.6 1.5-2.5.7-1.4-1.2-3.4-.7-2.9 1s1 2.3 0 2.5c-1 .2-2-2.6-3.3-.3-1.2 2.3.7 2.9.6 4.6-.2 1.7.5 3.5 1.5 3.6 1 .2 2-.9 2.6-1.6.6-.7 1.9-1.1 1.7.1-.1.9-.2 2.7-.2 3.8 2-1 4.3-2 5.4-2.5 0 0 .1 0 .1-.1-.6-.2-1.4-.6-2.1-1.1-1.1-.8-1-1.7-.1-1.9zm-24.9 51c2.6-.8 2.7 1.2 2.4 2.9-.3 1.7-.3 5.3-.2 7l4.3.2c-.2-1.1 0-4.4.1-6.3.1-1.9 2-4.9 2.7-1.9.7 2.9 3.6 3.1 5.7 1.8 2-1.2 3.5-4 5.7-7.7 2.1-3.8-.7-4.9-2.4-4.6-1.7.2-3.4.5.5-2.7 3.5-2.9-2.4-4.4-5.2-5-4.5 4.7-10.1 10.2-15 14.4-.7.6-1.2 1-1.8 1.6.4.4 1.5.8 3.2.3zm-4.5 28.2c2.1-.7 3.5 4 6.7 1.2 3.2-2.7.9-5 .8-7.1-.1-2.3 2.5-3.2 1.7-6-1.2-4.3-5.2-.2-7.6 2.1-2.5 2.4-2.6.5-.1-3.4s-1.6-5.1-4.1-4.1c-2.1.9-4.2 0-5.5-1.1-.9 1.5-1.7 2.9-2.4 4.4-2.1 4.4-.7 4.5.9 4.5s5 6.7 5.4 7.8c.1.5 1.4 2.1 2.8 4.3-.1-.9.1-2.1 1.4-2.6zm61.4-44.2c-2-.5-4.6-.8-5 3.4-.1 1.6 1.5 2.8 2.9 3.4 1.5.6 1.2 1.6-.3 1-1.6-.6-2.8-.9-4 2.4-1.1 3.3.9 3.7 1.9 4s1.8.5 1.6 1.8c-.2 1.4-.9 5.3 1.7 5.7s4.9-2.8 5.7-4.4c.8-1.6 1.7-3.2 1.9-1.4.2 1.8-.1 2.7-1 4.7s-.9 2.9.5 2.8 3.6 0 4.3-1.6c.7-1.6 1.7-4.6 1.8-6.7.1-1.4 1.2-1.5 2.1-1.4.2-2.3.6-4.5.9-6.4-4.4.7-8.1-4.7-9.5-9.4-1.6 1.4-3.8 2.6-5.5 2.1zm-21.1-.7c-.8 1.4-3.1 5.2-2 6.4 1 1.2 2.1-1.2 3.1-.3.9.9 2.9 1.9 2.9 1.2s.2-2 .6-3.8c.3-1.8 1.1-2.8 1.9-1.4.8 1.5 1.9 2.7 4.7 2 2.8-.7 2.5-3.6 1.9-5.8-.6-2.1 1.5-3.2 2.5-3.7 1-.6 3.6-2.6 1.7-4.4-1.9-1.8-3.6.8-5.3 1.1-1.7.3-1-1.1 2.5-3.8 3.1-2.4.5-4.6-1.4-5.4-4.9 4.9-13.3 12.8-15.3 14.6-.7.7-1.2 1.4-1.8 2.3 4.6-2 4.8-.3 4 1zm27.9 45c1.5 1.4 5 3.3 7.3 1 2.5-2.3-.6-4.7-.9-6.6-.3-1.8 1.8-2.9.7-5.9-1.9-5.1-4.9 1-6.6 2.7-1.7 1.7-1.4-1.1.1-2.7.8-.8 4.3-2.9 2.3-5.3s-5-1-6.4 0c-1.5 1-2.6 2.3-4.9 1.6-2.3-.7-4.2-.9-5.5 2.4-1.4 3.3 1.2 2.4 3.4 4.7 2.1 2.4.8 2.5-.9 1.9-1.7-.6-2.5-2.7-5-2.4-2.5.3-2.5 4.3-1.7 5.3s2.4 1.6 1.2 3.5c-1.1 1.9.6 4.2 2.6 5.1 2 .9 5.1-2.7 6.2-4.2 1.1-1.5 2.3-1.1 2 0-.2 1-.7 3.5-.8 5.7 1.7-.6 3.4-1 5-1.5 0-1.1-.2-3.1-.8-4.9-.3-2.4 1.2-1.7 2.7-.4zm-29.2 12c-2.7.8-3.2-.5-5-1.1-1.8-.7-1.9.9-.7 2.8s2.6 3.7 1.1 3.7-2.6.2-2.8 1.4c-.2 1.1-2.6-.2-3.2-2.6-.6-2.4-1.1-6.8-2.4-4.6-1.2 2.3-2.4 6-5.5 4.3-3.2-1.7-1-4-2.6-5.5-1.6-1.6-3.1-3.6-1.5-6.4 1.6-2.8 2.9-.5 4.4-.5 1.5 0 1.7-1.4.3-2.4s-3.1-5.9 3.2-5.5c2.4.1 5-.7 6.9-2.1 2-1.5 7.2-.7 5.2 3.1-2.1 3.7-1.5 4.5-.2 3.2 1.2-1.4 2.8-3.8 5.2-3.2 2.4.7 1.4 2.5-.1 4.5s-.6 3.4.6 4.2c1.3.7 3.3 4.9-2.9 6.7zm11.5-26.4c-2 .1-4.5-.5-4.5-.5-.2 2.1-2.3 5.2-4.4 8.3-.2.3-1.5.3-2-.1-.6-.5-2.1-1.2-.9-2.6 1.2-1.4 3.3-4.2 2.9-5.4s-1.2-2.4-2.6-.7c-1.4 1.7-3.5 5.2-5.9 5.3-2.4.1-4.7-2-3.6-4.2s1.5-3.3-.1-5.2c-1.6-1.9-1-4.3 2.4-5.9 1-.5 2.8 0 4.1 1 1.2 1 1.9 0 .2-1s-3.1-2.3-3.3-4.5c-.2-2.1 1.1-4.4 4.1-3.2 2.9 1.2 4.7.2 6-.8 1.2-1 6.4-2.3 5.8 2.4-.6 3.4-2.1 3.5-2.6 5.3-.5 1.8.9.7 1.7-.7s2.6-6.9 6.3-2.7c.9 1 .6 2.7-.6 4.6-1.1 1.9-.2 3.1.5 4.1.5 1.3 2.1 6.1-3.5 6.5z"/><path class="st0" d="m298.3 130.6 3.4-2.5 7.5 11.1 4.3-3.2-7.6-10.8 3.3-2.3 8.1 11.4 4.4-3.2-12.1-16.8-19.9 14 11 15.6 4.4-3.2zm14.4 38.2 6.4-3.1-4.4-9.6 15.2-6.4-2.8-6-21.4 9.3zm3.8 10.3.7 6 14.4-1.7.5 6.2 6.6-.5-1.8-20.9-6.5.5.6 8.7zm.7 20.4.1 7.2h21.3l-.1-7.3zm9.9 17.2c-3.5-.7-7.8-.1-10.7 2.1-2.6 2-3.8 4.1-4.5 7.7-.5 2.4-.1 5.3.7 8l5.7-1.9c-.6-1.2-.8-3.3-.2-5.2 1.1-3.8 4.3-5.5 8-5 4.1.6 6.3 4.3 5.7 8.7-.3 1.8-1.1 3.3-3.2 4.5l3.5 4.2c2.8-1.7 5-5.1 5.4-7.6.8-4.1-.2-6.8-2-10.1-1.9-3.1-5.1-4.7-8.4-5.4zm-3.8 29.7c-2.9-.8-7 2.5-8.9 4.4-1.1 1.1-5.1 5-6.9 4.4-1.6-.6-1.1-3.1-.6-4.6.8-2.4 2-4.3 4-5.7l-3.5-1.6c-1.7 1.5-3.6 3.7-4.4 6-.9 2.7-1.2 5.8-.9 7.8.5 2.6 1.4 4.2 4.3 4 2.3-.2 7.8-3.8 11.1-6.9 1.7-1.6 3.1-1.7 3.7-1.4 1.1.7 1.1 2.7.7 4-.6 1.7-1.4 4.3-2.7 5.2l4.7 3.2c1.9-1.9 2.9-5 3.5-7.7 1.4-6.5-2.2-10.6-4.1-11.1zm-26.6-140.8c-.5-3.3-2.3-7-4.1-8.7-2.8-2.5-6.2-3.2-9.8-2.7-3.6.5-7 2.8-8.9 5.5-2 2.9-3.3 7-2.5 10.6.8 3.3 2 5.2 5.1 7.3 1.9 1.4 4.9 2.3 7.6 2.7l.6-5.9c-1.4 0-3.3-.7-4.9-2-3.1-2.6-3.2-6.8-1.2-9.4 2.4-3.3 6.6-4 10.3-1.6 1.5 1 2 2.6 2.4 4.9l5.4-.7zm-217 122.2c.1-1.6.1-4.5 1.8-4.9s2.8 1.2 3.2 2.9c.6 2.5 1.2 4.3.2 6.4l4.5-.5c.8-2.1.6-4.9 0-7.2-.6-2.7-1.5-4.7-3.5-6.6-1.9-1.7-3.4-2.1-6.3-1.6-1.7.3-4.9 3.5-5 9.7 0 1.1-.3 3.5-1.4 3.5-1.4.1-2.4-1.6-2.6-2.8-.3-1.7.1-5.5.8-7.1h-4.7c-.7 2.7-.9 6.4-.3 9.2 1.2 6.1 5 8 8 7.8 3.2-.3 4.9-3.6 5.3-8.8zm-9.5-25.7 16.8-.2v-5.2l-16.8.1-.1-7.1-5.3.1.2 20 5.3-.1zm30.3-52.5-12.8-7.5 17-.3 4.1-6.4-21-12.1-3.2 5 14.4 8.9-19.7.6-2.7 5.3 20.8 12.1zm-20.9 32c7.1 0 13-5.8 13-13 0-7.1-5.8-13-13-13-7.1 0-13 5.8-13 13 0 7.1 5.8 13 13 13zm0-19.8c3.7 0 6.8 3.1 6.8 6.8s-3.1 6.8-6.8 6.8-6.8-3.1-6.8-6.8 3.1-6.8 6.8-6.8zm21.3 92c0-7.1-5.8-13-13-13-7.1 0-13 5.8-13 13 0 7.1 5.8 13 13 13s13-5.9 13-13zM88 260.6c-3.7 0-6.8-3.1-6.8-6.8s3.1-6.8 6.8-6.8c3.7 0 6.8 3.1 6.8 6.8-.1 3.7-3.1 6.8-6.8 6.8zm15.5 8c-2 1.8-2.9 6-1.1 8.8-2-1-6.2-1.4-8 .3-4.6 4.1 1 10 5.7 14.6l6.4 6.4 17.2-14.2-7-8.1c-2.4-3.1-9.1-11.3-13.2-7.8zm.8 22.6c-1.7-2-6.8-6.1-4.6-8.1 2-1.9 7.2 4.3 7.8 5.1l-3.2 3zm8-7.2-.5-.6c-1.5-1.7-6.2-6.8-4.3-8.7 1.8-1.7 6.4 4.1 7.7 5.7l.6.7-3.5 2.9z"/><path class="st4" d="M180.1 335.7c.7-.3 1.7-.8 2.1-.5.5.3 3.2 2.3 4.9 3.7 1.7 1.5 2.3 1.9.9 2.7-1.4.8-2.6 1.6-2.4.9s.6-1.7-.3-2.6-3.1-2.6-4.1-3.4c-.5-.5-1.1-.8-1.1-.8zm-6.3 1.8c-.6.5-.7 1.4 0 2 .7.7 4.4 3.8 5.1 4.4.6.6 1.5.8 2.5.6s-1.1 1.2-2 1.4c-.8.1-1.8.1-2.7-.7-.9-.8-6-5.7-7-6.6-1-.9.2-.9 1.1-1 1 0 1.8 0 3-.1zm24.6-267.4c.2-.6.3-1.1.7-1.6-.8.5-1.6.9-2.4 1.2.4.7 1.1 1.8 1.7.4zm20.2 1.1c-.3-1.1-1.4.7-2.8 2.4s-3.4.7-3.6-.1c-.2-.8-.6-1.8-1.8-3.4-1.2-1.6 1.1-3.8 2.1-4.2 1-.2 2.3-.5 2.6-.8.3-.2-.2-1.9-.5-3.2-4.1 1.1-8.9 3.3-13.3 5.4 1.4.5.9 3.1.8 3.4s-.6 2.6.3 1.2c1-1.4 1.4-1.8 2.5-2.1 1-.3 2.3-.3 2.3 1.2s-.7 1.5-.9 2.5c-.2 1 0 .9.5 1.1.5.2.8.9.5 1.9s-2 1.1-3.6 1c-1.5-.1-1.7.1-1.1.6.5.5 1 1.4 1.1 2.3 3.6-1.8 8-3.3 14.9-4.6.2-1.2.2-3.6 0-4.6zm-35.5 22.2c-.5-1-1.2-1.1-1.5-.3-.3.8-.8 3.4-2.6 4.2-.6.2-1 .3-1.4.5.6.7 1.2 1.2 2 1.8 1.4-1.5 2.7-2.7 3.8-4 .1-.9 0-1.6-.3-2.2zM199.9 80c-.6-.2-1.1.7-1.5 1.4-.3.7-1.2 1.8-2.7 1.6-1.5-.1-1.8-.7-2.1-1.9s-1.2-1.6-2.4-1.6c-1 0-1.8-1.2-.7-2.6 1.1-1.4 2.3-.7 3.2-.7.9 0 1.4-.9.6-1.5-.6-.5-1.6-1.6-1.8-2.4-3.2 2.1-7.8 5.3-11.8 8.9.7.1 1.6.3 1.9.5.5.2 1.4.9 1.2 1.9-.1 1 .2 1.2.8.6.6-.7-.1-2.7 1.9-3.5 2-.8 2.4.8 2.3 1.8-.1 1 0 2 1 2.5s2.3 2.1-.1 3.2c-2.4 1-3.6 1.2-4.6 1.5-.9.2-.7 1.2.1 1.8.5.3.8.8 1.1 1 2.9-2.7 5.8-5 8.9-7.1 1.7-1.1 3.3-2.3 5-3.2.5-.9.6-2-.3-2.2zm-22 10.4c.1-1.1-.8-1.5-1.4-1.7-.5-.1-1.1-.9-1.5-1.6-.6.8-1 1.5-1.5 2.3.2.8.5 1.5.7 2.1 1.5-.1 3.7-.1 3.7-1.1zm47.4 52.4c-3.6-.2-8 .6-12.2 2.1.7.5 1.5 1.5 3.1.9 2.1-.7 2.8 1.5 1.8 2.1-1 .6-1.4 2.1.6 1 1.9-1.1 3.6.5 2.8 1.7-.8 1.2-1.8.2-1.6 2 .2 1.7-.1 3.3-1.7 3.6-1.6.2-1.9-2-2.6-1.9s.1 4.2-.2 4.2c-1.1.2-2.1 1.1-2.7 1.7l.1.1c6.2 4.4 7.7 2 8.6-.1.9-2.1 2.9-8.5 3.5-11.8.2-1.8.7-3.8.5-5.6zM211.9 155c.3-.8-.6-1.6-1.5-.9-.9.6-2.4 1.5-3.3-.1-.9-1.6 1-1.8 1.1-2.6s-.7-.9-.2-2.1c.3-1.2 1.8-.9 2.8-.2 1.1.8.8-1.1.7-1.8-.1-.6-.2-1.1-.1-1.5-1.2.6-2.4 1.1-3.5 1.8-5.8 3.5-6 6.6-4.6 7.6 1.2 1 3.6 1.5 7.9 4.2-.1-1.6.4-3.7.7-4.4zm-18.3-3.4c-2.4-1.2-4.7-3.8-6.3-6.8 0 0 .1-.5-.6-.5s-3.2-.2-7.2-1.7c-4.2-1.5-4.7-.6-5.3 1.2-.6 1.8-1 5.1-1.1 10.4-.1 5.4 2.3 8.7 3.7 8.1.7-.2 2.5-1.1 4.5-2.1 0-1 .1-2.9.2-3.8.2-1.2-1.1-.8-1.7-.1-.6.7-1.6 1.8-2.6 1.6-1-.1-1.7-1.9-1.5-3.6.1-1.7-1.8-2.4-.6-4.6 1.2-2.3 2.3.6 3.3.3 1-.2.5-.8 0-2.5s1.6-2.3 2.9-1c.8.8 1.2-.9 2.5-.7 1.2.2 1.9 1 1.2 2.3-.6.9-.9 3.2.1 2 1-1.1 2.1-1.9 3.2-1.1 1 .8.3 2.4 0 3.3-.2.8 1.8 1.8.3 2.8-1.5 1-3.1-.7-4-.5-.8.2-1 1.2.1 2 .7.6 1.5.9 2 1.1 2.4-.8 5.1-2.4 6-2.8l1.5.1c.1-1.8 0-3.1-.6-3.4zm-8.4 24.6c-.9-2-1.2-.5-3.7 3.5-1.2 2-4.4 5.7-8.4 9.8 2.7.6 8.7 2 5.2 5-3.8 3.2-2.1 2.9-.5 2.7 1.7-.2 4.5.8 2.4 4.6s-3.6 6.6-5.7 7.7c-2 1.2-5 1.1-5.7-1.8-.7-2.9-2.6 0-2.7 1.9-.1 1.9-.3 5.2-.1 6.3l-4.3-.2c-.1-1.8-.1-5.4.2-7 .3-1.7.2-3.7-2.4-2.9-1.7.6-2.8.1-3.4-.2-5 4.4-7.6 7.6-9.3 10.3 1.2 1.1 3.3 2 5.5 1.1 2.5-1 6.6.2 4.1 4.1-2.5 3.8-2.4 5.8.1 3.4s6.4-6.4 7.6-2.1c.8 2.8-1.8 3.7-1.7 6 .1 2.3 2.4 4.5-.8 7.1-3.2 2.7-4.5-1.9-6.7-1.2-1.2.5-1.6 1.6-1.5 2.6 2.8 4 6.9 9.5 8.4 12 2.3 3.7 2.3 8.1 3.2 7.5.9-.7 3.1-2.7 3.7-3.3s1.4-1.2 1-2.5c-.3-1.2-1.6-7.8-1.2-12.4.5-5.3 2.9-11.1 4.7-14.4 1.7-3.2 6.9-13.3 8.1-16.1 1.2-2.7 3.5-5.9 4.1-8.3.6-2.5 2.7-8.1 3.6-10.9.1-2.3-1.4-6.8-3.8-12.3zm16.9-24.9c-.7 1.8-1.6 4.1-2 5.2-.5 1.1-2.5.7-2.4-.1.3-1.7-2-.6-1.8-1.9.2-1.1-.2-2.9 1-2.9 1.2-.1 3.6-.3 5.2-.3z"/><path class="st4" d="M198.4 70.1c.2-.6.3-1.1.7-1.6-.8.5-1.6.9-2.4 1.2.4.7 1.1 1.8 1.7.4zm35.7 156c-2.9-4.9-3.5-6.7-4-11.6-.2-3.2 0-7.1.5-11.1-.9-.1-2 .1-2.1 1.4-.1 2.1-1.1 5.2-1.8 6.7-.7 1.6-2.9 1.5-4.3 1.6-1.4.1-1.4-.8-.5-2.8.9-2 1.2-2.9 1-4.7-.2-1.8-1.1-.2-1.9 1.4-.8 1.6-3.1 4.7-5.7 4.4s-1.9-4.3-1.7-5.7c.2-1.4-.6-1.6-1.6-1.8-1-.2-3.1-.7-1.9-4 1.1-3.3 2.4-2.9 4-2.4 1.6.6 1.8-.5.3-1-1.5-.6-3.1-1.8-2.9-3.4.3-4.2 2.9-3.8 5-3.4 1.8.3 4-.7 5.4-2.3 0-.1-.1-.2-.1-.3-2.9-11.4 2.7-25.4 4.3-29.4 1.6-4 7.6-14.9 9.7-18.3-1.1-.6-4.1-2-5.8-2.9-1.6-.8-2.5-1.2-2.9-.6-.5.6-1 .9-1.8 2-1.6 2.3-.2 1.9.2 1.9s2.4 2.5 2.7 3.1c.3.6 0 1-.8 2.8-1 2.4-1.7 7.7-2.6 11-2.7 9.8-6.9 8.8-8.8 7.6-1.9-1.2-2.5.7-4.4 3.4-.5.7-1.6 1.8-3.1 3.4 1.8.8 4.3 3.2 1.4 5.4-3.5 2.7-4.2 4.2-2.5 3.8 1.7-.3 3.4-2.9 5.3-1.1 1.9 1.8-.7 3.8-1.7 4.4s-3.1 1.6-2.5 3.7c.6 2.1.9 5.1-1.9 5.8-2.8.7-4-.6-4.7-2-.8-1.5-1.6-.5-1.9 1.4-.3 1.8-.6 3.2-.6 3.8s-2-.3-2.9-1.2c-.9-.9-2 1.6-3.1.3-1-1.2 1.2-5.1 2-6.4.8-1.2.5-3.1-4.1-1-1.5 2.4-2.6 5.9-4.4 11.4-2.5 7.5-8 17.8-10.4 21.5-6 9.7-7.1 18.9-6.2 24.7.9 5.7 1.7 5.3 2.9 5.3s4.3 3.8 6.3 6.2c2 2.4 2.8 1.4 3.8.6 3.3-2.5 9.7-6.8 19-11.1 4-1.8 9.2-3.8 14.2-5.4.1-2.1.6-4.6.8-5.7.2-1.1-.9-1.5-2 0s-4.2 5.1-6.2 4.2c-2-.9-3.7-3.2-2.6-5.1 1.1-1.9-.5-2.5-1.2-3.5-.8-1-.8-5 1.7-5.3 2.5-.3 3.3 1.8 5 2.4 1.7.6 3.1.5.9-1.9-2.1-2.4-4.7-1.5-3.4-4.7 1.4-3.3 3.3-3.1 5.5-2.4 2.3.7 3.4-.6 4.9-1.6 1.5-1 4.4-2.4 6.4 0s-1.5 4.5-2.3 5.3c-1.5 1.5-1.8 4.4-.1 2.7 1.7-1.7 4.5-7.8 6.6-2.7 1.1 2.9-1 4.1-.7 5.9.3 1.8 3.4 4.3.9 6.6s-6 .3-7.3-1c-1.5-1.4-3.1-2-2.4.5.5 1.8.8 3.7.8 4.9 4.9-1.4 9.2-2.1 11.3-2 3.2.3 5.7 1.2 5.5-1.7 0-3.2-1.6-5.2-4.5-10zm-39.8 20c-2.7.8-3.2-.5-5-1.1-1.8-.7-1.9.9-.7 2.8s2.6 3.7 1.1 3.7-2.6.2-2.8 1.4c-.2 1.1-2.6-.2-3.2-2.6-.6-2.4-1.1-6.8-2.4-4.6-1.2 2.3-2.4 6-5.5 4.3-3.2-1.7-1-4-2.6-5.5-1.6-1.6-3.1-3.6-1.5-6.4 1.6-2.8 2.9-.5 4.4-.5 1.5 0 1.7-1.4.3-2.4s-3.1-5.9 3.2-5.5c2.4.1 5-.7 6.9-2.1 2-1.5 7.2-.7 5.2 3.1-2.1 3.7-1.5 4.5-.2 3.2 1.2-1.4 2.8-3.8 5.2-3.2 2.4.7 1.4 2.5-.1 4.5s-.6 3.4.6 4.2c1.3.7 3.3 4.9-2.9 6.7zm11.5-26.4c-2 .1-4.5-.5-4.5-.5-.2 2.1-2.3 5.2-4.4 8.3-.2.3-1.5.3-2-.1-.6-.5-2.1-1.2-.9-2.6 1.2-1.4 3.3-4.2 2.9-5.4s-1.2-2.4-2.6-.7c-1.4 1.7-3.5 5.2-5.9 5.3-2.4.1-4.7-2-3.6-4.2s1.5-3.3-.1-5.2c-1.6-1.9-1-4.3 2.4-5.9 1-.5 2.8 0 4.1 1 1.2 1 1.9 0 .2-1s-3.1-2.3-3.3-4.5c-.2-2.1 1.1-4.4 4.1-3.2 2.9 1.2 4.7.2 6-.8 1.2-1 6.4-2.3 5.8 2.4-.6 3.4-2.1 3.5-2.6 5.3-.5 1.8.9.7 1.7-.7s2.6-6.9 6.3-2.7c.9 1 .6 2.7-.6 4.6-1.1 1.9-.2 3.1.5 4.1.5 1.3 2.1 6.1-3.5 6.5zm-38.1 95.9c-.5 0-1.6-.2-1.6-.7l-1.2-.1c.8.1 1.5 1 .7 1.6-.9.7-3.7 1-6.8.8-3.1-.1-3.7-1.8-3.8-3.1v-2.6c0-1.1-.2-2.1.5-2.6s.5.7.9.7c1.9 0 8.5.7 10.1.9 1.6.2 1.5-.7 1.1-1.8-.1-.3-.6-.2-.7.2-.2.5-1.6.3-1.6.3s-2.9-.3-4.9-.5c-1.9-.1-3.4-.3-4.5-.6-1.1-.2-2.6-.2-2.5.3.1.6.5 7.7.5 8.7 0 1 .1 1.5.6 1.5 1.2 0 10 .1 12 .1s1.9-.2 1.9-1.4c0-.8-.2-1.7-.7-1.7z"/></svg>