<svg version="1.1" id="Layer_2" xmlns="http://www.w3.org/2000/svg" x="0" y="0" viewBox="0 0 400 400" style="enable-background:new 0 0 400 400" xml:space="preserve"><style>.st1{fill:#00788c}</style><g id="Layer_2_1_"><path d="M111.8 192.5H87.1v26.7l-14.8 7.3 14.8 7.7V258l16.4 10.1c6-.8 13.7-1.8 22.7-2.7l63.3 36.5L201 355c.1-.1 11.6-53.1 11.6-53.1l63.2-36.5c8.9.9 16.6 1.8 22.7 2.7l16.3-10.1v-23.8l14.8-7.6-14.8-7.5v-26.7h-24.6s3.8-3.7 8.7-12c2-3.5 4-7.8 6.3-12.9 18-5.4 31.3-17 36.9-28.1 15.4-28.2 27-62.6 27-62.6s-6.6 3.2-14.7 7.2c6.5-19.8 10.4-36.7 10.4-36.7s-71 46.9-126.2 91.1l-4.8-2.9c0-.5.2-4.5.2-4.8 0 0 .6-4.7-7.7-7.5-.6-.2-1-.4-1.5-.5 4-3 10.2-7.6 14.8-10.7 7.2-5 6.4-10.4 6.4-10.4l-26.2 19.5c-20.3-6.5-37.2 0-37.2 0l-26.2-19.5s-.8 5.4 6.4 10.4c4.5 3.1 10.8 7.7 14.8 10.7-.5.2-.9.4-1.5.5-8.3 2.8-7.7 7.5-7.7 7.5 0 .4.1 4.3.2 4.8l-4.8 2.9c-55.6-44-126.5-91-126.5-91S41.2 64.1 47.7 84C39.1 79.8 33 76.8 33 76.8s11.6 34.5 27 62.6c5.7 11.2 18.9 22.7 36.9 28.1 0 0 3 6.9 5.6 12 3.2 6.2 9.3 13 9.3 13" style="fill:#1d1160"/><path class="st1" d="M230.8 152.4c-.3.7-.6 1.6-.7 2.3 24.8-16.2 68.2-44.5 116.9-76.2 0 0 .1 1 4.3-11.4-51.5 31-96.9 66.2-120.5 85.3m-59.6 0c-23.6-19.1-69.1-54.3-120.5-85.3C55 79.7 55 78.6 55 78.6c48.7 31.6 92 59.9 116.9 76.2-.1-.8-.4-1.6-.7-2.4m29.8 25.1c-4.2-1.7-14.9-7-21.4-20.9 5.3 4.5 12 6 17.4.7-6.5-2.9-7.4-14.6-8.7-17.6-2.6-6.3-6.6-9.4-9.9-10.7 1.6-.6 3-1 4.5-1.5 3 1.7 8.2 5.5 9.9 13.2 0 0 .6-8.8-3.7-14.8 8.4-2 16.9-1.8 23.8 0-4.3 6.1-3.7 14.8-3.7 14.8 1.7-7.7 6.7-11.5 9.9-13.2 1.4.5 2.9.9 4.5 1.5-3.2 1.3-7.3 4.5-9.9 10.7-1.3 3-2.1 14.8-8.7 17.6 1.5 9-.3 17.3-4 20.2m-74.9 16.4s-12.2-8.8-19.1-24.7l4.9 1.5c15.9 4.2 46.3 8.4 46.3 8.4-14.7.4-27 1.5-34.1 2.2-1.5-1.8-3.1-4.1-3.8-5.9 0 0 .6 5.5 1.8 9 1.6 5.3 4 9.5 4 9.5m153.7-9.4c1.3-3.5 1.8-9 1.8-9-.6 1.8-2.3 4.1-3.8 5.9-7.1-.8-19.5-1.9-34.1-2.3 0 0 30.4-4.1 46.3-8.4l4.9-1.5c-6.9 16-19.1 24.6-19.1 24.7.1 0 2.5-4.2 4-9.4m-116.7 84.9-31-17.9c-2.2.2-4.4.5-6.5.6l43 24.8c-2.1-2.2-3.9-4.8-5.5-7.5m75.8 0 31-17.9c2.2.2 4.4.5 6.5.6l-43 24.8c2.1-2.2 3.9-4.8 5.5-7.5m-51.6 4.2c-13.6-3-19.4-9.7-19.4-9.7 2.8 5.7 7 10.6 12.3 14.2-.1-.1 5.7-1.7 7.1-4.5m-8.4-14.7-3-3c-4.3 1.5-6.8 3.2-8.1 4.3 3 2.9 8.8 6.7 19.2 8.9-1.3-3.3-4.5-6.6-8.1-10.2"/><path class="st1" d="M200.7 291.2c-4.5.1-7.7 1.8-8.9 2.2-1.1-2.1-2.5-4.3-3.7-6.3 3.9.5 7.3-.3 7.3-.3-1.7-.6-5.8-1.9-11.3-5.6.5-.2.9-.5 1.5-.6 1.5-.7 3-1.7 4.1-2.9 1.4-1.4 2.3-3.2 2.3-5.3 0-6.8-4.6-9.1-9.7-14.2-1-1-2.1-2-3.2-3.1 4.7-1.3 11.2-2.2 19.7-2.4l2 28.9h.3l2.1-28.9c8.7.2 15 1.1 19.7 2.4-1.1 1.1-2.2 2.1-3.2 3.1-5.2 5.1-9.7 7.4-9.7 14.2 0 2.2.9 4 2.3 5.3 1.2 1.2 2.6 2.1 4.1 2.9.5.3 1 .5 1.5.6-5.5 3.7-9.8 5.1-11.3 5.6 0 0 3.4.7 7.3.3a54.9 54.9 0 0 0-3.7 6.3c-1.1-.4-4.3-2.1-8.9-2.2h-.6z"/><path class="st1" d="M221.8 278c5.2-3.6 9.4-8.5 12.3-14.2 0 0-5.6 6.7-19.4 9.7 1.4 2.9 7.1 4.5 7.1 4.5m-6.8-8.7c10.3-2.1 16.1-6 19.2-8.9-1.3-1.2-3.8-2.9-8.1-4.3-.9 1-1.9 2-3 3-3.6 3.4-6.8 6.7-8.1 10.2"/><path d="M191.7 158.1s-5-3.3-5.8-10.3c0 0-6.5 10.9 5.8 10.3m18.9 0s5-3.3 5.8-10.3c.1 0 6.5 10.9-5.8 10.3m-3.7 143.7c-.9-.9-2.2-2-6.2-2-3.8 0-5.1.9-6.2 1.8L201 327l5.9-25.2zm42.7-112v9.3h-3.1v-9.3h-2.6v-2.7h8.3v2.7zm-14.7 0v9.3h-3.1v-9.3h-2.6v-2.7h8.4v2.7zm-44 5h1.1v-6.5l-1.3-1.3h-7.9v12h3v-4.2h2.2l1.8 4.2h3l-1.9-4.2zm-1.9-2.6h-3.3v-2.4h3.3v2.4zm78.7-2.4v-2.7h-8.9v12h8.9v-2.7h-5.8v-1.9h5.8v-2.7h-5.8v-2zm-65 6.6v-9.3h-3.2v12h7.6v-2.7zm18.1-9.3h-7.9v10.7l1.4 1.4h7.9v-10.7l-1.4-1.4zm-1.5 9.3h-3.4v-6.6h3.4v6.6zm-43.7 2.7v-10.7l-1.3-1.4h-8.1v12h3v-3.9h3.4v3.9l3 .1zm-6.4-9.3h3.4v2.8h-3.4v-2.8zm-12.6-2.7v5.4h-3.4v-5.4h-3v12h3v-3.9h3.4v3.9h3v-12zm180-85.1c5.8-13.7 10.2-23.4 10.2-23.4-48.7 31.6-92 59.9-116.9 76.2-.9 2.7-2 5.1-3.2 7.3l98-53.4-76.5 55.2 3.5-.6 40.4-3.9s27.3-2.7 42.5-23.1c7.2-11 19.4-43.1 19.4-43.1l-17.4 8.8zM102.5 229.8l9.4-4.1v21.4c2.7-.4 5.4-.7 8.3-1v-46.9h-8.3v16.9l-9.4 4v-20.8h-8.3v24.3l-6.8 3.3 6.8 3.4V250c2.7-.5 5.5-.9 8.3-1.4v-18.8zm64.7-.1c2-.1 4.1-.1 6.2-.2 1.6 4 3.1 8.5 4.6 12.4 2.8-.1 5.5-.2 8.3-.2-1.6-4-3-8.5-4.6-12.4 1 0 2.1 0 3.1-.1V210l-3.7-3.6h-25.4l3.1 3.8v32.6c2.8-.2 5.5-.3 8.3-.5l.1-12.6zm0-15.7h9.4v7.4c-3.1 0-6.3.1-9.4.2V214zm32.3 0h9.5v27.6c2.9 0 5.8.1 8.7.1v-31.5l-3.8-3.8h-26l3.1 3.8v31.5c2.9 0 5.6-.1 8.5-.1V214zm49.3 21c-5.3-.3-10.7-.6-16-.7v-5.9c5.3.2 10.7.4 16 .6v-8.3c-5.3-.2-10.7-.3-16-.4V214h16v-7.7h-27.9l3.1 3.7v31.8c8.5.3 16.8.6 24.8 1.1V235zm20.9-21h7.2v-7.7h-23.4v7.7h7.3v29.9c3 .3 6.1.5 9 .7l-.1-30.6zm-117-3.8-3.8-3.8h-25.5l3 3.6v31l3.3 4c7.3-.7 15-1.4 23-1.8v-33zm-8.3 25.2c-3.2.2-6.4.4-9.5.6v-22h9.5v21.4zm162.5-5.3c2.6-1.1 5.2-2.3 7.7-3.5-8.3-3.9-16.6-7.3-24.8-10.5v-9.4h8.8v3.4h8.4v-10.9h-28.6l3.1 3.7v19.4l17.1 7.4v10.9l-8.8-1.1V236l-8.3-1v11.1c9 1 17.6 2.3 25.4 3.7v-19.7m-166.5-34.7v1h-2.7v-6.6h2.7v1h3.1v-3.7h-8.7v10.7l1.4 1.3h7.3v-3.7zm-75-93.4c-5.8-13.7-10.2-23.4-10.2-23.4 48.7 31.6 92 59.9 116.9 76.2.9 2.7 2 5.1 3.2 7.3l-98-53.5 76.5 55.2-3.5-.6-40.4-3.9s-27.3-2.7-42.5-23.1C60.2 125.2 48 93.1 48 93.1l17.4 8.9z" style="fill:#fff"/><path d="M367.1 92.5c-7.7 20.7-18.1 42.1-23.2 51-8.7 14.8-26 23.7-36.1 27 0 0-4.9 11.9-10.1 18.4h20.7v28.2l19.7 9.4-19.7 10v23.6l-19.1 11.7s-15.2-1.8-22.7-2.7l-60.6 35c-12.2 54.9-15 70.8-15 70.8s-2.9-15-15-70.8l-60.6-34.9c-7.4.7-22.7 2.7-22.7 2.7l-19.1-11.7v-23.6l-19.7-10 19.6-9.4V189h20.7c-5-6.3-10.1-18.4-10.1-18.4-6.1-2-11.9-4.8-17.1-8.1-8.2-5.3-14.8-11.8-19.1-18.9-8.2-14.6-18-36.4-23.2-51-3.4-9-7.7-22.5-7.7-22.5s11.2 5.3 14.8 7.1c-5.4-16.1-10-37.7-10-37.7s77.5 51 132 94.6l.8-.6v-2.8c0-.6 0-1.7.5-3 .6-1.8 2-4.1 5.2-6-4-3-11.2-7.9-11.8-8.6-5.3-4.6-6.2-9.7-5.7-12.3l.9-5.8 29.5 21.9c16-4.6 27.4-2.3 35.8 0L248.5 95l.9 5.8c.4 2.5-.5 7.7-5.7 12.3-.6.6-7.8 5.6-11.8 8.6 3.1 1.9 4.5 4.1 5.2 6 .5 1.3.5 2.4.5 3v2.8l.8.6C294 89.5 370.3 39.5 370.3 39.5s-3.8 17.7-10 37.7c3-1.5 14.8-7.1 14.8-7.1-3.5 10.7-8 22.4-8 22.4m-255.3 100H87.1v26.7l-14.8 7.3 14.8 7.7V258l16.4 10.1c6-.8 13.7-1.8 22.7-2.7l63.3 36.5L201 355c.1-.1 11.6-53.1 11.6-53.1l63.2-36.5c8.9.9 16.6 1.8 22.7 2.7l16.3-10.1v-23.8l14.8-7.6-14.8-7.5v-26.7h-24.6s3.8-3.7 8.7-12c2-3.5 4-7.8 6.3-12.9 18-5.4 31.3-17 36.9-28.1 15.4-28.2 27-62.6 27-62.6s-6.6 3.2-14.7 7.2c6.5-19.8 10.4-36.7 10.4-36.7s-71 46.9-126.2 91.1l-4.8-2.9c0-.5.2-4.5.2-4.8 0 0 .6-4.7-7.7-7.5-.6-.2-1-.4-1.5-.5 4-3 10.2-7.6 14.8-10.7 7.2-5 6.4-10.4 6.4-10.4l-26.2 19.5c-20.3-6.5-37.2 0-37.2 0l-26.2-19.5s-.8 5.4 6.4 10.4c4.5 3.1 10.8 7.7 14.8 10.7-.5.2-.9.4-1.5.5-8.3 2.8-7.7 7.5-7.7 7.5 0 .4.1 4.3.2 4.8l-4.8 2.9c-55.6-44-126.5-91-126.5-91S41.2 64.1 47.7 84C39.1 79.8 33 76.8 33 76.8s11.6 34.5 27 62.6c5.7 11.2 18.9 22.7 36.9 28.1 0 0 3 6.9 5.6 12 3.2 6.2 9.3 13 9.3 13" style="fill:#a1a1a4"/></g></svg>