<svg version="1.1" id="Layer_1" xmlns="http://www.w3.org/2000/svg" x="0" y="0" viewBox="0 0 400 400" style="enable-background:new 0 0 400 400" xml:space="preserve"><style>.st0{fill:#fff}.st2{fill:#ce1141}.st3{fill:none;stroke:#ce1141;stroke-width:.4433}</style><path class="st0" d="M333.5 163.1c-1.1-19.4-9.8-36.7-14.9-47.1l-.6-1.2-2.3-4.5.5 5c.6 6.9 2.2 30.6-4.9 44.1-8.8 18.2-34.5 16.4-43 15.9h-.6c-13.9-.9-59.1-2.5-73-2.5-18.3.1-38.5 1.6-54.8 2.8-8 .6-14.8 1.1-19.5 1.3-.4 0-.9.1-1.7.1-22.8 2.1-37.2-4.6-42.8-20-3.4-9.4-3.4-28.1-3.3-37v-6.5l-1.8 3.3c-4.3 7.9-12.2 22.7-14.9 47.1-1.5 28.8 13.5 39.2 24.9 44.4 11.9 5.5 24.1 6.3 28.1 6.6h.3-.1c.8.2 1.8.2 2.7.2 1.2.1 2.6.1 3.9.4-2.2.4-5 .9-7.5 1.3-2.7.5-5.2.9-6.5 1.2-2.7.6-14.2 3.2-20.3 5.4-5.2 1.8-10.9 4.5-11 4.5l-1 .5.7.9c.1.1 2 2.7 3.9 4.7 4 4 15.3 11.1 28.8 9.4 10.8-1.3 16.7-3.9 18.9-5 .7 2.3 2.4 7.7 4.1 11.9 4.9 12.1 16 35.3 20.2 43.3 3.4 6.5 6.7 12.3 9 16.1l.8 1.4c-.7 2.5-2.5 4-3.8 5.2-.4.3-.6.6-.9.8l-.2.3v.4c-.1 2.2-.6 22.4 13.1 37.1l.1.2.2.1c6.8 2.6 15.7 5.3 30 5.3 14.6 0 26.9-3.5 31.2-5.6l.2-.1.1-.1c9.5-11.3 13.9-28.3 14-34.4v-.4l-.3-.3-.7-.7c-1.5-1.4-3.3-3.2-4.4-7.4 1.2-2 3.4-6.8 5.3-10.6 1-2.2 1.9-4 2.4-5 4-7.9 15.8-33.2 20.5-45.1 3-7.6 4.6-11.3 5.3-12.9 2.1 1.1 7.7 3.6 18.2 4.7 13.7 1.4 26.7-7.7 30.3-12.7.6-.8 1.6-2 1.7-2.1l.8-1-1.1-.5c-.1 0-.5-.2-2.6-.9l-7.6-2.5-7.5-2.5c-2.1-.7-11.3-2.7-18-4.2l-5.1-1.1 1.7-.3c15.7-3.3 57.2-10.6 54.8-51.7"/><path d="M333.5 163.1c-1.1-19.4-9.8-36.7-14.9-47.1l-.6-1.2-2.3-4.5.5 5c.6 6.9 2.2 30.6-4.9 44.1-8.8 18.2-34.5 16.4-43 15.9h-.6c-13.9-.9-59.1-2.5-73-2.5-18.3.1-38.5 1.6-54.8 2.8-8 .6-14.8 1.1-19.5 1.3-.4 0-.9.1-1.7.1-22.8 2.1-37.2-4.6-42.8-20-3.4-9.4-3.4-28.1-3.3-37v-6.5l-1.8 3.3c-4.3 7.9-12.2 22.7-14.9 47.1-1.5 28.8 13.5 39.2 24.9 44.4 11.9 5.5 24.1 6.3 28.1 6.6h.3-.1c.8.2 1.8.2 2.7.2 1.2.1 2.6.1 3.9.4-2.2.4-5 .9-7.5 1.3-2.7.5-5.2.9-6.5 1.2-2.7.6-14.2 3.2-20.3 5.4-5.2 1.8-10.9 4.5-11 4.5l-1 .5.7.9c.1.1 2 2.7 3.9 4.7 4 4 15.3 11.1 28.8 9.4 10.8-1.3 16.7-3.9 18.9-5 .7 2.3 2.4 7.7 4.1 11.9 4.9 12.1 16 35.3 20.2 43.3 3.4 6.5 6.7 12.3 9 16.1l.8 1.4c-.7 2.5-2.5 4-3.8 5.2-.4.3-.6.6-.9.8l-.2.3v.4c-.1 2.2-.6 22.4 13.1 37.1l.1.2.2.1c6.8 2.6 15.7 5.3 30 5.3 14.6 0 26.9-3.5 31.2-5.6l.2-.1.1-.1c9.5-11.3 13.9-28.3 14-34.4v-.4l-.3-.3-.7-.7c-1.5-1.4-3.3-3.2-4.4-7.4 1.2-2 3.4-6.8 5.3-10.6 1-2.2 1.9-4 2.4-5 4-7.9 15.8-33.2 20.5-45.1 3-7.6 4.6-11.3 5.3-12.9 2.1 1.1 7.7 3.6 18.2 4.7 13.7 1.4 26.7-7.7 30.3-12.7.6-.8 1.6-2 1.7-2.1l.8-1-1.1-.5c-.1 0-.5-.2-2.6-.9l-7.6-2.5-7.5-2.5c-2.1-.7-11.3-2.7-18-4.2l-5.1-1.1 1.7-.3c15.7-3.3 57.2-10.6 54.8-51.7z" style="fill:none;stroke:#fff;stroke-width:1.7706;stroke-miterlimit:40"/><path d="M333.5 163.1c-1.1-19.4-9.8-36.7-14.9-47.1l-.6-1.2-2.3-4.5.5 5c.6 6.9 2.2 30.6-4.9 44.1-8.8 18.2-34.5 16.4-43 15.9h-.6c-13.9-.9-59.1-2.5-73-2.5-18.3.1-38.5 1.6-54.8 2.8-8 .6-14.8 1.1-19.5 1.3-.4 0-.9.1-1.7.1-22.8 2.1-37.2-4.6-42.8-20-3.4-9.4-3.4-28.1-3.3-37v-6.5l-1.8 3.3c-4.3 7.9-12.2 22.7-14.9 47.1-1.5 28.8 13.5 39.2 24.9 44.4 11.9 5.5 24.1 6.3 28.1 6.6h.3-.1c.8.2 1.8.2 2.7.2 1.2.1 2.6.1 3.9.4-2.2.4-5 .9-7.5 1.3-2.7.5-5.2.9-6.5 1.2-2.7.6-14.2 3.2-20.3 5.4-5.2 1.8-10.9 4.5-11 4.5l-1 .5.7.9c.1.1 2 2.7 3.9 4.7 4 4 15.3 11.1 28.8 9.4 10.8-1.3 16.7-3.9 18.9-5 .7 2.3 2.4 7.7 4.1 11.9 4.9 12.1 16 35.3 20.2 43.3 3.4 6.5 6.7 12.3 9 16.1l.8 1.4c-.7 2.5-2.5 4-3.8 5.2-.4.3-.6.6-.9.8l-.2.3v.4c-.1 2.2-.6 22.4 13.1 37.1l.1.2.2.1c6.8 2.6 15.7 5.3 30 5.3 14.6 0 26.9-3.5 31.2-5.6l.2-.1.1-.1c9.5-11.3 13.9-28.3 14-34.4v-.4l-.3-.3-.7-.7c-1.5-1.4-3.3-3.2-4.4-7.4 1.2-2 3.4-6.8 5.3-10.6 1-2.2 1.9-4 2.4-5 4-7.9 15.8-33.2 20.5-45.1 3-7.6 4.6-11.3 5.3-12.9 2.1 1.1 7.7 3.6 18.2 4.7 13.7 1.4 26.7-7.7 30.3-12.7.6-.8 1.6-2 1.7-2.1l.8-1-1.1-.5c-.1 0-.5-.2-2.6-.9l-7.6-2.5-7.5-2.5c-2.1-.7-11.3-2.7-18-4.2l-5.1-1.1 1.7-.3c15.7-3.3 57.2-10.6 54.8-51.7"/><path class="st2" d="M71 121.5c-.5 10.7-.4 22.4 2.1 32.6-2.3-2.1-4.6-4.5-7-6.5-2.1 2.4-4.1 4.9-6.3 7.2 2.3-11.8 6-22.7 11.2-33.3z"/><path class="st3" d="M71 121.5c-.5 10.7-.4 22.4 2.1 32.6-2.3-2.1-4.6-4.5-7-6.5-2.1 2.4-4.1 4.9-6.3 7.2 2.3-11.8 6-22.7 11.2-33.3z"/><path class="st2" d="m329.3 150 .7 2.9-5.6-4c-2.5 1.1-4.9 2.7-7.3 3.8 1.7-10.2 2.2-20.9 1.5-31.8 5 9.1 7.7 19.1 10.7 29.1"/><path class="st3" d="m329.3 150 .7 2.9-5.6-4c-2.5 1.1-4.9 2.7-7.3 3.8 1.7-10.2 2.2-20.9 1.5-31.8 5 9.1 7.7 19.1 10.7 29.1z"/><path class="st2" d="M194.9 251.4c5.9 9 16.5 11.5 26.4 9 3.7-.7 7.2-2.2 10.6-3.7-3.1 9.4-5.3 19.8-5 30.4 0 9.3 1.6 18.1 4.4 26.5-1.4-.4-2.8-1.5-4.4-2.2-19.6-9.9-47.3-9.5-66.6.7.9-3.1 1.9-6.5 2.6-9.7 3-14.9.8-30.5-4.3-44.1 10.5 4.4 25.7 5.3 34.1-4.3.8-.9 1.4-1.9 2.2-2.6"/><path class="st3" d="M194.9 251.4c5.9 9 16.5 11.5 26.4 9 3.7-.7 7.2-2.2 10.6-3.7-3.1 9.4-5.3 19.8-5 30.4 0 9.3 1.6 18.1 4.4 26.5-1.4-.4-2.8-1.5-4.4-2.2-19.6-9.9-47.3-9.5-66.6.7.9-3.1 1.9-6.5 2.6-9.7 3-14.9.8-30.5-4.3-44.1 10.5 4.4 25.7 5.3 34.1-4.3.8-.9 1.4-1.9 2.2-2.6z"/><path class="st2" d="M151.1 258.8c-.4 4.2-1.9 8.9-6.3 10.5-3.7 1-7-1-9.4-3.6-1-1.3-1.9-2.7-2.2-4.3 5.6 3.6 12.9.7 17.8-2.7l.1.1z"/><path class="st3" d="M151.1 258.8c-.4 4.2-1.9 8.9-6.3 10.5-3.7 1-7-1-9.4-3.6-1-1.3-1.9-2.7-2.2-4.3 5.6 3.6 12.9.7 17.8-2.7l.1.1z"/><path class="st2" d="M256.6 259.3c-1.3 3.8-4.6 7.6-8.5 8.5-3 .4-5.7-1-7.4-3.6-.9-1.4-1.5-2.9-1.8-4.7 5.1 3.9 12.8 3 17.7-.2"/><path class="st3" d="M256.6 259.3c-1.3 3.8-4.6 7.6-8.5 8.5-3 .4-5.7-1-7.4-3.6-.9-1.4-1.5-2.9-1.8-4.7 5.1 3.9 12.8 3 17.7-.2z"/><path class="st2" d="M245.7 270.1c2.1.4 4.2-.1 6.2-.7-5.6 13.9-12.3 27.4-19.2 40.7-2.4-6.6-1.8-13.9-1.4-21.3 1-9 3.2-17.6 5.8-25.9 1.8 3.3 4.9 6.7 8.6 7.2"/><path class="st3" d="M245.7 270.1c2.1.4 4.2-.1 6.2-.7-5.6 13.9-12.3 27.4-19.2 40.7-2.4-6.6-1.8-13.9-1.4-21.3 1-9 3.2-17.6 5.8-25.9 1.8 3.3 4.9 6.7 8.6 7.2z"/><path class="st2" d="m158.2 310-.1.1c-8.4-12.8-14.8-26.3-20.9-40 2.8 1.5 7.3 2.5 10.2.5 2.8-1.9 4.4-4.9 5.4-8 6.8 13.8 8.4 31.8 5.4 47.4"/><path class="st3" d="m158.2 310-.1.1c-8.4-12.8-14.8-26.3-20.9-40 2.8 1.5 7.3 2.5 10.2.5 2.8-1.9 4.4-4.9 5.4-8 6.8 13.8 8.4 31.8 5.4 47.4z"/><path class="st2" d="M237.1 320.9c-1.4 12-5.7 22.6-13.3 31.9-17.5 6.8-41 7.5-58.5.1-8.5-9.3-11.7-21.3-12.2-34.1 18.5-13.5 47.5-16.5 68.7-6.8 5.4 2.5 10.6 5.1 15.3 8.9"/><path class="st3" d="M237.1 320.9c-1.4 12-5.7 22.6-13.3 31.9-17.5 6.8-41 7.5-58.5.1-8.5-9.3-11.7-21.3-12.2-34.1 18.5-13.5 47.5-16.5 68.7-6.8 5.4 2.5 10.6 5.1 15.3 8.9z"/><path class="st2" d="M308.9 224.6c-14.5-5.5-33.2-8.8-49.1-9.2-1.5-17.7-3.5-28.8-7-38.8-8.2-.5-44.4-1.9-58.4-1.9s-49.6 2.2-57.7 2.7c-3.3 9.5-7 21.4-8.8 38.9-16 .9-37.6 5.5-52.2 11-2.2.8-3.1 1.6-3.2 1.5 2.2 2.5 10.3 12.2 25.4 12.6 4.8.1 13.8-.8 19.6-3.4 1.6-.7 4.9-2.1 4.9-2.1s1.1 2 1.6 3.4c1.6 4.5 3.6 11 5 13.8 2.1 4.2 5.5 7.5 10.9 7.6 5 .1 8.6-4 9.1-4.8-14.1-.7-20-8.3-20.9-19.6-3.3-.6-4.3-.9-4.7-2.7-.4-1.8.1-3.7 1.5-5.9 1.6-2.1 4.3-4.2 11-2.1 4.4 1.4 7.9 4.2 10.4 6.4 2.9 2.6 11.4 11.4 16.5 14.4 5.4 3.2 15.8 6.1 22.5-.5 6.5-6.4 7.2-11.8 8.1-15.2-11.3-.3-21.9-1.4-31.7-2.8-2.9-.4-1.6-3.1.6-2.5 0 0 18.5 2.4 31.5 2.5.1-1.5.1-4.2.2-7.1-7.7-.2-20.6-1-32.9-3.5-2.5-.5-2-3.3.3-2.7 1.8.5 21.9 3.3 32.6 3.3 0-2.3.1-5.6.1-8.7-7.1 0-17.4-.6-32.3-2.9-2.6-.4-2.1-2.8 0-2.6 0 0 18.4 2.7 32.3 2.6v-7.1c0-2.8 2.4-2.9 2.4-.2 0 1 .1 3.7.1 7.2 13.3-.4 25-2 30.4-2.9 3.2-.6 2.9 2 1.4 2.3-1.8.3-17.2 3.3-31.9 3.6 0 2.6.1 5.9.1 8.7 9.8-.4 21.2-.7 31-2.9 3.7-.8 4 2 .9 2.5-9.6 1.6-23.4 3.2-31.8 3.3.1 2.4.1 5.3.2 7.2 15.7-.4 30.6-2.6 33.1-3 2.6-.4 3.1 2.3.4 2.7-2.8.4-21.2 2.8-33 3.1 1.2 4 1.4 9.8 7.1 14.7 5.5 4.8 14.9 4.3 21.5.5 5.1-3 13.3-11.9 16.2-14.5 2.4-2.1 8.1-7.4 15.8-7.3 7.6.2 7.7 4.1 8.1 5.2.4 1.2.7 3.3-1 4.4-1.4.8-2.6.6-3.9 1.2-1 6.2-2.9 13.2-7.8 16.9-5.3 4-13.5 4.5-13.5 4.5s1.1 1.3 1.5 1.6c.9.8 3.7 2.2 7.3 1.9 3.4-.3 7.4-2.9 9-4.6 2.5-3.3 4.9-10.2 6.7-14.7.7-1.7 2.2-4.7 2.7-6 1.6.7 2.3 1.2 5.2 2.3 5.9 2.4 13.6 3.4 18.4 3.2 7.8-.2 16.7-4.9 22-9.9.9-.9 2.7-3 2.7-3s-5.1-2.1-6.5-2.6"/><path class="st3" d="M308.9 224.6c-14.5-5.5-33.2-8.8-49.1-9.2-1.5-17.7-3.5-28.8-7-38.8-8.2-.5-44.4-1.9-58.4-1.9s-49.6 2.2-57.7 2.7c-3.3 9.5-7 21.4-8.8 38.9-16 .9-37.6 5.5-52.2 11-2.2.8-3.1 1.6-3.2 1.5 2.2 2.5 10.3 12.2 25.4 12.6 4.8.1 13.8-.8 19.6-3.4 1.6-.7 4.9-2.1 4.9-2.1s1.1 2 1.6 3.4c1.6 4.5 3.6 11 5 13.8 2.1 4.2 5.5 7.5 10.9 7.6 5 .1 8.6-4 9.1-4.8-14.1-.7-20-8.3-20.9-19.6-3.3-.6-4.3-.9-4.7-2.7-.4-1.8.1-3.7 1.5-5.9 1.6-2.1 4.3-4.2 11-2.1 4.4 1.4 7.9 4.2 10.4 6.4 2.9 2.6 11.4 11.4 16.5 14.4 5.4 3.2 15.8 6.1 22.5-.5 6.5-6.4 7.2-11.8 8.1-15.2-11.3-.3-21.9-1.4-31.7-2.8-2.9-.4-1.6-3.1.6-2.5 0 0 18.5 2.4 31.5 2.5.1-1.5.1-4.2.2-7.1-7.7-.2-20.6-1-32.9-3.5-2.5-.5-2-3.3.3-2.7 1.8.5 21.9 3.3 32.6 3.3 0-2.3.1-5.6.1-8.7-7.1 0-17.4-.6-32.3-2.9-2.6-.4-2.1-2.8 0-2.6 0 0 18.4 2.7 32.3 2.6v-7.1c0-2.8 2.4-2.9 2.4-.2 0 1 .1 3.7.1 7.2 13.3-.4 25-2 30.4-2.9 3.2-.6 2.9 2 1.4 2.3-1.8.3-17.2 3.3-31.9 3.6 0 2.6.1 5.9.1 8.7 9.8-.4 21.2-.7 31-2.9 3.7-.8 4 2 .9 2.5-9.6 1.6-23.4 3.2-31.8 3.3.1 2.4.1 5.3.2 7.2 15.7-.4 30.6-2.6 33.1-3 2.6-.4 3.1 2.3.4 2.7-2.8.4-21.2 2.8-33 3.1 1.2 4 1.4 9.8 7.1 14.7 5.5 4.8 14.9 4.3 21.5.5 5.1-3 13.3-11.9 16.2-14.5 2.4-2.1 8.1-7.4 15.8-7.3 7.6.2 7.7 4.1 8.1 5.2.4 1.2.7 3.3-1 4.4-1.4.8-2.6.6-3.9 1.2-1 6.2-2.9 13.2-7.8 16.9-5.3 4-13.5 4.5-13.5 4.5s1.1 1.3 1.5 1.6c.9.8 3.7 2.2 7.3 1.9 3.4-.3 7.4-2.9 9-4.6 2.5-3.3 4.9-10.2 6.7-14.7.7-1.7 2.2-4.7 2.7-6 1.6.7 2.3 1.2 5.2 2.3 5.9 2.4 13.6 3.4 18.4 3.2 7.8-.2 16.7-4.9 22-9.9.9-.9 2.7-3 2.7-3s-5.1-2.1-6.5-2.6z"/><path d="M224.6 322.8c1.4 2.7.3 5.8-1.3 8.1-3 3.7-7.5 5.2-12.2 4-2.6-.9-5.2-2.5-6.7-5.1-.7 2.3.9 3.9.8 6-.3.4-1 .5-1.3.1-2.5-3.3-3.5-8.4-1.3-12.2 2.7-5.1 8.1-7.2 13.6-6.6 3.4.6 6.8 2.4 8.4 5.7"/><path class="st3" d="M224.6 322.8c1.4 2.7.3 5.8-1.3 8.1-3 3.7-7.5 5.2-12.2 4-2.6-.9-5.2-2.5-6.7-5.1-.7 2.3.9 3.9.8 6-.3.4-1 .5-1.3.1-2.5-3.3-3.5-8.4-1.3-12.2 2.7-5.1 8.1-7.2 13.6-6.6 3.4.6 6.8 2.4 8.4 5.7z"/><path d="M186 324.5c2.2 3.7 1.2 8.6-.9 12-.3.5-.8 1.1-1.5.6-.9-1.2.4-2.2.5-3.3.1-.9.4-1.9.1-2.8-3 4.1-7.4 6.1-12.4 5.2-3.5-.7-6.7-3.4-8-6.8-.7-2.2-.4-4.8 1-6.6 3.3-4.4 9.3-5.5 14.4-3.8 2.7.9 5.4 2.9 6.8 5.5"/><path class="st3" d="M186 324.5c2.2 3.7 1.2 8.6-.9 12-.3.5-.8 1.1-1.5.6-.9-1.2.4-2.2.5-3.3.1-.9.4-1.9.1-2.8-3 4.1-7.4 6.1-12.4 5.2-3.5-.7-6.7-3.4-8-6.8-.7-2.2-.4-4.8 1-6.6 3.3-4.4 9.3-5.5 14.4-3.8 2.7.9 5.4 2.9 6.8 5.5z"/><path d="M224.3 348.8c-.4.8-.6.8-1.2 1.6-1.8-.5-3.7-1.2-5.5-1.9-16-6.1-36.4-4.4-51.5 1.9-.4-.4-.7-.8-.9-1.5 17.5-7.9 41.5-8.8 59.1-.1"/><path class="st3" d="M224.3 348.8c-.4.8-.6.8-1.2 1.6-1.8-.5-3.7-1.2-5.5-1.9-16-6.1-36.4-4.4-51.5 1.9-.4-.4-.7-.8-.9-1.5 17.5-7.9 41.5-8.8 59.1-.1z"/><path d="M227.2 263.8c-2.7 12.6-10.7 27.1-24 30.8-10.6 2.8-22.5.6-29.6-8.2-5.2-6.4-7.7-13.8-8.5-22.1.5-.4 1-.4 1.6-.4 1.1 12 7.3 25.2 19.3 28.9 10.3 3.3 22.6.3 30.1-8.8 4.7-6.1 7.8-13.4 9.5-20.9.6.1 1 .2 1.6.7"/><path class="st3" d="M227.2 263.8c-2.7 12.6-10.7 27.1-24 30.8-10.6 2.8-22.5.6-29.6-8.2-5.2-6.4-7.7-13.8-8.5-22.1.5-.4 1-.4 1.6-.4 1.1 12 7.3 25.2 19.3 28.9 10.3 3.3 22.6.3 30.1-8.8 4.7-6.1 7.8-13.4 9.5-20.9.6.1 1 .2 1.6.7z"/><path class="st0" d="M69.8 43c-2.3-2-5.6-3.4-9.1-3.2-3.6.1-17.3 4.7-17.3 25s12.3 26.8 19.7 26.8S78 86 80.4 76.1c.4-1.4.1-1.6-1.3-2.3L74.3 72c-1.1-.4-1.2-.4-1.9 1.6-.5 1.3-2.6 7.2-7.5 7.2s-7.1-7.3-7.1-14.9 1.3-14.8 7.4-14.8 7.4 6.5 7.8 8.9c.2 1 .3 1.1 1.5 1.1H79c.9 0 .9-.1.9-2.2V42.4c0-1.1-.2-1.1-2-1.1h-4c-.8 0-.8.2-1.4 1.3-.4.7-1.3 1.6-2.7.4m182.6 8.1 9.3 29.3c.5 1.3.5 1.4 1.2 1.4h1.4c1.5 0 1.5.1 1.5 1.3v5.6c0 1.9-.1 1.9-1.1 1.9h-18.4c-1.5 0-1.5-.1-1.5-1.2v-5.8c-.1-1.7.1-1.8 1.3-1.8h1.8c1 0 1-.2.6-1.4l-1.4-4.4c-.4-.9-.6-.9-1.7-.9h-11.2l2.4-6.7h6.8c1.2 0 1.3-.1 1-1l-4.1-12.9c-.2-.8-.5-.8-.7-.1l-4.2 13c-.3 1-.2 1 1.3 1l-2.4 6.7c-1.3 0-1.3 0-1.6.9l-1.4 4.4c-.4 1.3-.4 1.4.4 1.4h1.9c1.3 0 1.3.2 1.3 1.8v5.8c0 1.1-.1 1.2-1.5 1.2h-12.7c-1.1 0-1.1-.1-1.1-1.9v-5.5c0-1.2.1-1.3 1.5-1.3h1.2c.8 0 1.1-.4 1.3-1l9.5-29.6c.3-.8.3-1-1.2-1h-1.7c-1.4 0-1.5-.1-1.5-1.3v-5.9c0-1.7.1-1.7 2.1-1.7h24.5c1.4 0 1.5.2 1.5 1.8v5.5c0 1.3-.1 1.3-1.9 1.3H253c-.9-.1-.9.2-.6 1.1m44.3 22.2h3.2c1.5 0 1.5.2 1.5 1.1 0 2.8-2.1 6.4-7.4 6.4-4.9 0-7.1-7.3-7.1-14.9s1.3-14.8 7.4-14.8c5.1 0 7.2 3.7 7.8 6 .2 1 .2 1.1 1.5 1.1h4.5c.9 0 .9-.1.9-2.2V42.4c0-1.1-.1-1.1-2-1.1h-4c-.8 0-.9.1-1.4 1.3-.3.7-1.3 1.6-2.7.4-2.3-2-5.7-3.4-9.1-3.2-3.6.1-17.3 4.7-17.3 25s12.2 26.8 19.7 26.8c11.2 0 19.9-8.4 19.9-24.5 0-1.6-.2-1.7-2.4-1.7h-13.3c-1.3 0-1.4.1-1.4 1.6v5.3c0 1 .1 1 1.7 1m43-32.2c-12.1 0-21.9 11.4-21.9 25.4s9.8 25.3 21.9 25.3 21.9-11.3 21.9-25.3-9.8-25.4-21.9-25.4l-.1 9.1c4.5 0 8.2 7.3 8.2 16.3s-3.6 16.3-8.2 16.3c-4.5 0-8.2-7.3-8.2-16.3s3.7-16.3 8.2-16.3l.1-9.1zM94.1 80.7V51.4c0-1-.1-1.2-1.2-1.2h-1.4c-1.5 0-1.5-.2-1.5-1.1v-6.5c0-1.1.1-1.3 1.8-1.3H109c1.3 0 1.5.1 1.5 1.4v5.9c0 1.3-.2 1.3-1.5 1.3h-.9c-.8 0-.9 0-.8 1.1v8.4c0 2.1 0 2.3 1.8 2.3h9.2c1.8 0 1.8-.1 1.8-2.3V51c0-1.1-.1-1.1-.8-1.1h-.9c-1.5 0-1.6-.1-1.6-1.3v-5.9c0-1.3.2-1.4 1.5-1.4h17.2c1.8 0 1.8.1 1.8 1.3v6.5c0 1-.1 1.1-1.5 1.1h-1.5c-1.1 0-1.1.1-1.1 1.2v29.3c0 1.1.1 1.1 1.4 1.1h1.5c1.2 0 1.2.1 1.2 1.8v5.8c0 1 0 1.2-1.5 1.2h-18.2c-1.2 0-1.2 0-1.2-1.9v-5.6c-.1-1.3 0-1.3 1.5-1.3h.9c1.1 0 1.1-.1 1.1-1.3v-9c0-2.2-.1-2.3-1.6-2.3h-9.2c-1.5 0-1.6.2-1.6 2.3v9c0 1.3 0 1.3 1.1 1.3h.9c1.5 0 1.5.1 1.5 1.3v5.6c0 1.9 0 1.9-1.2 1.9H91.5c-1.5 0-1.5 0-1.5-1.2v-5.8c0-1.7.1-1.8 1.2-1.8h1.5c1.4 0 1.4 0 1.4-1.1m56.1-29.6c0-1.1-.1-1.1-.8-1.1h-1.7c-1.5 0-1.6-.1-1.6-1.3v-6c0-1.3.2-1.4 1.5-1.4h17.2c1.8 0 1.8.1 1.8 1.3v6.5c0 1-.1 1.1-1.5 1.1h-.8c-1.1 0-1.1.1-1.1 1.2v29.3c0 1.1.1 1.1 1.4 1.1h1.2c1.2 0 1.2.1 1.2 1.8v5.8c0 1 0 1.2-1.5 1.2h-18.2c-1.2 0-1.2 0-1.2-1.9v-5.6c-.1-1.3 0-1.3 1.5-1.3h1.4c1.1 0 1.2 0 1.2-1.2V51.1zm50-8.1c-2.3-2-5.7-3.4-9.1-3.2-3.6.1-17.3 4.7-17.3 25s12.2 26.8 19.7 26.8c7.4 0 14.9-5.6 17.3-15.5.4-1.4.1-1.6-1.3-2.3l-4.8-1.8c-1.1-.4-1.2-.4-1.9 1.6-.5 1.3-2.6 7.2-7.5 7.2s-7.1-7.3-7.1-14.9 1.3-14.8 7.4-14.8c6.1 0 7.4 6.5 7.8 8.9.2 1 .3 1.1 1.5 1.1h4.5c.9 0 .9-.1.9-2.2V42.4c0-1.1-.2-1.1-2-1.1h-4c-.8 0-.8.2-1.4 1.3-.4.7-1.3 1.6-2.7.4M91.3 113.9v29c0 1-.2 1.1-1.2 1.1h-1.6c-1.2 0-1.4.2-1.3 1.6v6c0 1.1.2 1.2 1.5 1.2h26.8l-9.1-9.3c-1.9 0-2 0-2-1.9v-8.4c0-1.6.1-1.7 2-1.7v-7.6c-2 0-2-.1-2-1.7v-8.5c0-1.7.1-1.8 1.8-1.8 1.8 0 8.8.2 8.8 6.3s-6.5 5.8-8.6 5.8v7.6c1.8 0 8.6.2 8.6 6.3 0 6-6.5 5.8-8.6 5.8l9.1 9.3c6.7 0 11.7-6 11.7-12.9s-4.4-9.6-7.9-12.1c2.5-2 6.9-4.8 6.9-11.8 0-7.6-7.6-12.5-12.2-12.5H89.3c-2 0-2.1.1-2.1 1.6v6.3c0 1 .1 1.1 1.5 1.1h1.6c1-.3 1-.1 1 1.2m81.7-.5v25.1c0 6.4-3.3 15.8-16 15.8s-18.8-9.4-18.8-15.8v-25.1c0-1.1-.2-1.1-1.1-1.1h-1.5c-1.5 0-1.5-.1-1.5-1.3v-5.7c0-1.9.2-1.9 1.9-1.9h17.1c1.3 0 1.5.1 1.5 1.6v5.7c0 1.3-.1 1.3-1.9 1.3h-1.4c-.8 0-.9.1-.9 1.1v24.4c0 2.8 2.1 7.2 7.4 7.2 6.1 0 7.4-4.7 7.4-7.2v-24.2c0-1.3-.1-1.3-1.3-1.3h-1.2c-1.5 0-1.7-.1-1.7-1.3V105c0-1.4 0-1.6 1.5-1.6h12.7c2.1 0 2.1 0 2.1 1.7v5.9c0 1.3 0 1.3-1.5 1.3h-1.7c-1 .1-1.1.1-1.1 1.1m59.7 30.6H231c-1.2 0-1.3.2-1.3 1.8v5.8c0 1.2.1 1.2 1.5 1.2h31.5c1.4 0 1.5 0 1.5-1.9v-14.2c0-1.3-.1-1.3-1.5-1.3h-4.6c-1.4 0-1.5.1-1.5 1.8v5c0 1.9-.2 2-1.5 2h-7c-2.1 0-2.2-.2-2.2-1.5v-28.5c0-1.9 0-2 1.1-2h1.7c1.4 0 1.4-.1 1.4-1.3v-5.5c0-1.7 0-1.8-1.5-1.8h-16.9c-2.1 0-2.1.1-2.1 1.7v5.9c0 1.2.1 1.3 1.5 1.3h1.4c1.2 0 1.2.1 1.2 1.8v28.4c.1 1.2 0 1.3-1 1.3m73.1-4.9c0 10.5-9.8 14.9-14 14.9-3.1 0-6.7-1.3-9.1-3.2-1.4-1.2-2.8.2-3.2.8-.7 1.2-.8 1.3-1.4 1.3h-2c-2.1 0-2 0-2-1.1v-13.6c0-2.2.1-2.2.9-2.2h3.1c1.2 0 1.2.1 1.5 1.1.8 2.7 3.8 6.7 8.9 6.7 2.4 0 4.4-.6 4.4-2.8 0-4.6-2.7-5.7-7.5-8.2s-12.1-5.4-12.1-15.9 9.5-14.8 13.8-14.8c3.1 0 6.4 1.3 8.7 3.3 1.4 1.2 2.8-.2 3.2-.8.8-1.3.8-1.3 1.4-1.3h2.1c1.9 0 2 0 2 1.1V118c0 2.1 0 2.2-.9 2.2h-3.1c-1.2 0-1.2-.1-1.5-1.1-.8-2.7-4.3-6.7-9.4-6.7-2.1 0-3.3 1.3-3.3 3.2 0 2.9 3.2 5.4 8.7 8.1 5.4 2.6 10.8 6.7 10.8 15.4M188.9 144h-1.7c-1.2 0-1.3.2-1.3 1.8v5.8c0 1.2.1 1.2 1.5 1.2h31.5c1.4 0 1.5 0 1.5-1.9v-14.2c0-1.3-.1-1.3-1.5-1.3h-4.6c-1.4 0-1.5.1-1.5 1.8v5c0 1.9-.2 2-1.5 2h-7c-2.1 0-2.2-.2-2.2-1.5v-28.5c0-1.9 0-2 1.1-2h1.7c1.4 0 1.4-.1 1.4-1.3v-5.5c0-1.7 0-1.8-1.5-1.8h-16.9c-2.1 0-2.1.1-2.1 1.7v5.9c0 1.2.1 1.3 1.5 1.3h1.4c1.2 0 1.2.1 1.2 1.8v28.4c.1 1.2 0 1.3-1 1.3M75.8 162.3c6.9 13.3 20.8 17.6 35 16.9 7.9-.1 15.5-.9 23.3-1.4v.5c-4 11.2-6.6 22.6-8.2 34.4-20.5.8-41.5-.9-56.6-14.6-10.3-10.4-12.9-24.7-10.6-38.9 2.4-2.9 5-5.3 7.5-8.2 3.4 3.6 8.7 6.5 9.6 11.3m254.8-5.9c.5 2.1.6 4 .8 6.2 1 15.8-5.8 30.3-19.3 38.3-14.7 8.9-31.7 11.9-49.8 12.4-.3-1.6-.5-3.7-.7-5.5-1.4-10.4-3.4-20.8-6.3-30.8 19.3-.2 42.8 4.9 55.6-12.9 1.7-2.5 3.4-4.7 4.9-7.4 2.9-1.3 5.6-3.1 8.4-4.6 2.4 1.1 4.1 3 6.4 4.3m-73.4 79.8c.1 6.1-1.9 12.3-7.3 15.2-2.5 1.4-5.5 1.9-8.3 1.8-.1-.5-.3-1.2-.1-1.8 4.4.1 8.7-1.5 11-5.1 1.6-2.7 2.2-5.7 2.3-9.1.7-.5 1.5-.8 2.4-1m-109.1 16.4c-.8.1-1.2.3-2.7 0-7.1 0-14.6-5.7-14.1-15.3.8-.3 1.8-.2 2.7.1 0 5.5 2.2 13 13.8 13 .8 1.2 0 1.3.3 2.2"/></svg>