<svg version="1.1" id="Layer_2" xmlns="http://www.w3.org/2000/svg" x="0" y="0" viewBox="0 0 400 400" style="enable-background:new 0 0 400 400" xml:space="preserve"><style>.st0{fill:#bc945c}.st1{fill:#860038}</style><path d="M299.8 175.5c0-1.8 0-3.9-.1-6.2v-7.7c-.1-14.4-.8-43.1-2.1-58.8-.1-1.4-.2-2.6-.3-3.8l-.3-3-2.5-1.9c-1.9-1.5-4.1-3-6.6-4.5-4.9-3-11-6.2-18.2-9.3-29.1-14.2-67.5-27.3-67.8-27.4l-1.7-.6-1.7.6c-.3.1-34.7 12.2-62.9 25.6-5.5 2.4-10.5 4.7-14.8 6.9-6 3.1-11 6.2-14.8 9.2l-2.5 1.9-.3 3.1c-.2 2.3-.4 5.1-.6 8.5-1 16.5-1.4 41.3-1.5 54v14c.1 59.7 26.2 102.7 48.1 128.3 23.6 27.7 47.1 41.2 48.1 41.7l3.6 2.1 3.6-2.1c1-.6 24.4-14.2 47.8-41.9 21.7-25.8 47.6-69 47.5-128.7"/><path class="st0" d="M254.8 306.2c22.1-26.1 48.3-69.9 48.2-130.6v-13.9c-.1-14.5-.8-43.3-2.1-59-.1-1.5-.2-2.7-.3-3.8l-.3-3.1-.1-1.4-1.1-.8-2.5-1.9c-2-1.5-4.3-3.1-6.9-4.7-5-3.1-11.3-6.3-18.5-9.5-29.1-14.2-67.8-27.4-68.2-27.6l-1.7-.6-1-.4-1.1.4-1.7.6c-.3.1-34.7 12.2-63.1 25.8-5.6 2.4-10.6 4.7-15 7-6.2 3.2-11.3 6.4-15.3 9.5l-2.5 1.9-1.1.9-.1 1.4-.3 3.1c-.2 2.3-.4 5.2-.6 8.6-1 16.5-1.4 41.4-1.5 54.2v13.8c.2 60.7 26.6 104.4 48.8 130.4 24 28.1 47.9 41.9 48.9 42.4l3.6 2.1 1.6.9 1.6-.9 3.6-2.1c1-.7 24.9-14.5 48.7-42.7M204.4 346l-3.6 2.1-3.6-2.1c-1-.6-24.4-14.1-48.1-41.7-21.8-25.6-47.9-68.6-48.1-128.3v-14c.1-12.7.5-37.6 1.5-54 .2-3.4.4-6.2.6-8.5l.3-3.1 2.5-1.9c3.8-2.9 8.8-6 14.8-9.2 4.3-2.2 9.3-4.6 14.8-6.9C163.7 65 198 52.9 198.3 52.8l1.7-.6 1.7.6c.4.1 38.8 13.2 67.8 27.4 7.2 3.2 13.3 6.3 18.2 9.3 2.5 1.5 4.7 3 6.6 4.5l2.5 1.9.3 3.1c.1 1.1.2 2.4.3 3.7 1.3 15.6 1.9 44.3 2.1 58.8v7.7c0 2.3.1 4.4.1 6.2.1 59.7-25.7 102.9-47.4 128.5-23.5 27.9-46.8 41.6-47.8 42.1"/><path class="st1" d="M306.9 168.7v-7.2c-.1-14.5-.8-43.5-2.1-59.3-.1-1.5-.2-2.8-.4-3.9l-.3-3.1-.1-1.4-.2-1.7-1.3-1-1.1-.8-2.5-1.9c-2.1-1.6-4.5-3.3-7.2-4.9-5.2-3.2-11.6-6.4-19-9.8-29-14.2-66.9-27.1-68.5-27.7l-1.7-.6-1-.4-1.3-.4-1.3.4-1 .4-1.7.6c-.3.1-35 12.3-63.5 25.9-5.5 2.4-10.6 4.7-15.1 7.1-6.4 3.3-11.7 6.6-15.9 9.9l-2.5 1.9-1.2.9-1.3 1-.2 1.7-.1 1.4-.3 3.1c-.2 2.4-.5 5.3-.7 8.8-1 16.6-1.4 41.6-1.5 54.4V176c.2 61.9 27.2 106.4 49.8 132.9 24.4 28.6 48.9 42.7 49.9 43.3l3.6 2.1 1.6.9 1.9 1.1 1.9-1.1 1.6-.9 3.6-2.1c1-.6 25.4-14.7 49.7-43.5 22.5-26.6 49.3-71.3 49.1-133.2V169l.3-.3zM202.5 350.9l-1.6.9-1.6-.9-3.6-2.1c-1-.6-24.9-14.4-48.9-42.4-22.2-26-48.7-69.7-48.8-130.4v-13.9c.1-12.7.5-37.7 1.5-54.2.2-3.4.4-6.3.6-8.6l.3-3.1.1-1.4 1.1-.9L104 92c3.9-3.1 9.1-6.3 15.3-9.5 4.4-2.3 9.4-4.6 15-7 28.4-13.6 62.8-25.6 63.1-25.8l1.7-.6 1.1-.4 1 .4 1.7.6c.4.1 39.1 13.3 68.2 27.6 7.3 3.2 13.5 6.4 18.5 9.5 2.6 1.6 4.9 3.2 6.9 4.7l2.5 1.9 1.1.8.1 1.4.3 3.1c.1 1.1.2 2.3.3 3.8 1.3 15.7 1.9 44.5 2.1 59v14c.2 60.7-26.1 104.5-48.2 130.6-23.8 28.2-47.7 42.1-48.7 42.7l-3.5 2.1z"/><path class="st0" d="M253 208.1v-7.7l-1.9-1.9c-24.2-22.9-76 7.4-93.5 22l-8.7 13.5 10.8-2.7c-16.5 20.9-10.6 34.5-9.9 35.9 1.8 4.9 5.8 8.8 12.2 11.4 4.9 1.9 10.5 2.2 15.3 1.9 20.6-1 45-13.9 60.7-27.7l.4-.3 3.1-15.8-6.1 3.4c-21.2 9.4-38.3 14.6-38.3 14.6-11.2 3.5-16.3 4.1-20 3.3l-.4-.1c-1-.4-1.2-1.3-1.2-1.6-.2-7 11.8-22.1 17.9-28.6 5.6-6.1 14.5-12.8 22-16 5-2.1 8.3-3 9.8-2.8-.4 1.3-1.1 2.9-2.1 4.9 0 0-8 15.9-8.4 16.6l38.3-22.3z"/><path class="st1" d="M205.2 207.1c-6.9 3.7-14.9 11.1-17.3 13.7-20.2 21.7-34.4 50.6 10 36.6 0 0 17.3-5.3 38.7-14.7-60.6 51.4-117.9 30.1-61.7-23.9-5.1 1.2-10.3 2.3-15.4 3.7 18-15 67.4-43 89.6-22L225.5 215c10.1-19.8-8.1-15.1-20.3-7.9"/><path class="st0" d="m160.7 100.3 2.9 2.9v2.1l-3.2 3.3V104l-.5-.4h-1.8l-.4.5v12.3l.4.4h1.9l.4-.4v-1.9l3.3-3.3v6l-2.9 2.9h-3.5l-2.9-2.9v-14l2.9-2.8zm7.9 0v16.5h5l-.6 3.3h-7.6l-.1-18.8-.2-1zm13.7 0v3.3h-4.1v4.3h3.3v2.9h-3.3v6h4.2v3.3H175l-.1-18.6-.2-1.2zm11.9 0-2.9 19.7h-3.6l-1.9-2.4-2.3-17.3h3.2l2.2 16.2 2-16.2zm8.7-.1v3.3h-4.1v4.4h3.3v2.8l-3.3.1v5.9h4.1v3.3h-7.4v-18.5l-.2-1.2zm4.9 0 .1 16.5h4.9l-.6 3.3h-7.6v-18.8l-.2-1zm13.7 0 2.9 19.8h-3.3l-.5-3.9h-3.1l-.5 3.9h-3.3l2.6-18.5-.2-1.2 5.4-.1zm-3.6 12.6h2.3l-1.2-9.1-1.1 9.1zm17.1 7.1h-3.1l-3.1-10.7v10.7l-3.3.1v-18.6l-.3-1.2h3.4l3.1 10-.1-10h3.3zm11.1-16.9v14.2l-2.7 2.7h-6.8v-18.6l-.2-1.2h6.8l2.9 2.9zm-3.3.8-.4-.4h-2.5v13.2h2.5l.4-.4v-12.4zm-120 23.6 6.2 6.1v4.4l-6.9 6.9-.1-9.5-.9-.9h-3.9l-.9.9.1 26.1.9.9h3.9l.9-.9v-4.1l6.9-6.9v12.7l-6 6.1h-7.4l-6.1-6.1-.1-29.6 6.1-6zm24.4 0 6.2 41.7h-7l-1.1-8.2h-6.6l-1 8.2h-6.9l5.5-39.2-.4-2.6 11.3.1zm-7.6 26.5h4.9l-2.4-19.1-2.5 19.1zm34.6-26.6-5.9 41.8h-7.7l-3.9-5.2-5.1-36.5h6.9l4.5 34.3 4.3-34.4zm15 0 6.2 41.7h-7l-1.1-8.2h-6.6l-1 8.2h-6.9l5.5-39.2-.4-2.6 11.3.1zm-7.6 26.5h4.9l-2.4-19.1-2.5 19.1zm23.1-26.6.1 34.8h10.5l-1.3 7h-16.1l-.1-39.6-.4-2.1zm20.3 0 .1 41.7-7 .1-.1-39.2-.4-2.6zm19.2-.1v7h-8.7v9.1h7v6.1h-7l.1 12.7 8.7-.1v7h-15.7l-.1-39.1-.4-2.6zm17.5 0 6.1 6v10.4l-5.7 3.9 5.8 7.4v13.9H261v-11.3l-4.3-6.4-1.8 1.2v16.5H248l-.1-39.1-.4-2.6 14.2.1zm-7 18.3 6.1-4.4v-6.1l-.9-.9h-5.2v11.4zm29.6-5.3v-5.2l-.9-.9h-4.3l-.9.9v5.2l13.1 10.4v12.2l-6 6.1h-7.8l-6.1-6.1-.1-12.1 7 4.3v6.1l.9.9 4.3-.1.9-.8v-7l-13.1-10.4v-10.5l6.1-6 7.8-.1 6.1 6.1v11.3z"/></svg>