<svg version="1.1" id="Layer_1" xmlns="http://www.w3.org/2000/svg" x="0" y="0" viewBox="0 0 400 400" style="enable-background:new 0 0 400 400" xml:space="preserve"><style>.st0{fill:#ffc627}.st1{fill:#8b2332}.st2{fill:#0d2240}.st3{fill:#fff}</style><path class="st0" d="M200.6 349.9c-82.4 0-149.4-67-149.4-149.4s67-149.4 149.4-149.4S350 118.1 350 200.5s-67 149.4-149.4 149.4"/><path class="st1" d="M200.6 58.8c78.2 0 141.8 63.5 141.8 141.7s-63.6 141.7-141.8 141.7S58.9 278.6 58.9 200.5c0-78.2 63.6-141.7 141.7-141.7"/><path class="st2" d="M335.1 200.9c0 74.5-60.4 134.9-134.9 134.9S65.4 275.4 65.4 200.9 125.7 66 200.2 66s134.9 60.4 134.9 134.9"/><path class="st1" d="M200.2 300.2c54.1 0 98-44 98-98.1 0-54-44-98-98-98s-98 44.1-98 98c-.1 54.1 43.9 98.1 98 98.1"/><path class="st2" d="M108.6 202.1c0-50.5 41-91.5 91.5-91.5s91.5 41 91.5 91.5-41 91.5-91.5 91.5c-50.3 0-91.5-41-91.5-91.5"/><path class="st0" d="M280.7 222.7c.1-15.7-8.4-37.2-15.9-51.5l-11.1 6.2-1.1-1.8-2.8 1.8-110.4 69.4v.1l-5.1 6.1-.1-.2c-1.6-.3-3.6-1.9-5.2-4.6-1.7-2.5-2.3-5.2-1.9-6.5l-.1-.2 7.6-2 .1.1 56.8-37-38.3-24.1-4.8-3-1.2 1.8-11.1-6.2c-7.6 14.4-15.9 35.9-15.9 51.5-5.8-18.2.2-43 8.4-59l.1-.1-2-1.2 6.6-10.2 1.9 1.4c11.1-14.1 30.9-29.8 49.8-32.2-14.2 6.5-30.2 23-40.1 35.9l10.3 7.5-1.3 1.8 2.6 1.8 43.7 28.4 43.1-28 3.3-2.1-1.3-1.8 10.3-7.5c-9.8-12.7-25.8-29.4-40-35.9 18.9 2.4 38.7 18.1 49.9 32.2l1.8-1.4 6.6 10.2-2 1.2c8.6 16.3 14.6 41.1 8.8 59.1m-14.3 16.9L214 205.7l-9.1 5.4 56.8 35.8-.1.1 5.1 6.1.2-.2c1.6-.3 3.6-1.9 5.2-4.6 1.6-2.5 2.3-5.2 1.9-6.5l.1-.2-7.7-2z"/><path class="st0" d="m209.5 130.6-3.9 5.2-5.5-12.9v59.9l18.3-23.4 18.4 4.8z"/><path class="st3" d="M209.5 144.8v-14.1l-3.9 5.1zm-9.4-21.9L167 163.2l14.6-3.7 18.5 23.3z"/><path class="st0" d="M179.8 275.3c4.8-4.6 10.9-7.4 17.5-8.1V258H172c.6 6.8 3.4 12.7 7.8 17.3m17.5 8.5v-10.9c-5 .6-9.4 2.6-13.2 6 3.9 2.7 8.5 4.3 13.2 4.9"/><path class="st3" d="M203 227.5v10.8c4.9-.6 9.5-2.6 13.1-6-3.8-2.6-8.3-4.3-13.1-4.8m17.5 8.6c-4.8 4.6-10.9 7.4-17.5 8v8.4h25.3c-.8-6.4-3.7-12.2-7.8-16.4m-23.2 2.2v-10.8c-4.9.5-9.3 2.2-13.1 4.9 3.7 3.3 8.3 5.3 13.1 5.9"/><path class="st0" d="M203 258v9.1c6.6.6 12.7 3.4 17.5 8.1 4.4-4.6 7.3-10.5 7.9-17.2H203z"/><path class="st3" d="M172.1 252.4h25.3V244c-6.6-.6-12.6-3.5-17.5-8-4.3 4.3-7.1 10.1-7.8 16.4"/><path class="st0" d="M203 283.8c4.9-.5 9.3-2.2 13.1-4.8-3.7-3.4-8.3-5.4-13.1-6v10.8zm106-95.1 3.6 6.1-8.9 8.3 11.5-4.3 3.6 6.2.6-7 7.6-.4-6.2-3.8 7.7-12.2-12.7 10.3zm-217.5-.1-3.5 6.1 8.8 8.3-11.5-4.3-3.6 6.2-.6-7-7.7-.4 6.3-3.8-7.7-12.2 12.7 10.3z"/><path class="st3" d="m111.1 145.1-17.8-12.6 4-5.6c.7-.9 1.5-1.8 2.3-2.5.5-.5 1.1-.9 1.7-1.2.1-.1.2-.2.3-.4.1-.1.1-.2.2-.3l.2-.4 15.7 11.1c-.1 1.1-.4 2.1-.8 3.2-.4 1-.9 1.9-1.6 2.8l-.1.1-4.1 5.8zM99.9 129c-.4.6-.4 1.3-.1 1.7l.3.3 10.9 7.8c.6.1 1.2-.1 1.5-.6l.1-.1c.5-.7.4-1.6-.1-1.9l-10.6-7.6c-.7-.6-1.5-.4-2 .4zm37.6-12.5L127.3 101l-1 .7-1.8-2.9 11.3-7.4 1.8 2.8-5.5 3.7 3.1 4.6 4.3-2.8 1 3-3.7 2.4 3.6 5.3 5.6-3.6 1.8 2.8zM179.9 98l-4.4-7.3-.5.1 1.7 7.9-5.2 1-3.7-18.1-1.1.2-.7-3.3 5.5-1 5.1 7.2.4-.1-1.7-7.9 5.2-1.1 4.5 21.3zm34.8-1.3.5-22.1 4.9.8-.7 13.5.5.1 4-13 4.9.8c-1.9 5.8-6.7 19.3-7.3 20.9l-6.8-1zm77.3 37.5-1.2-1.6-6.2 4.9-3.1-4.1 17.3-13.3 4.2 5.4c.7.9 1.3 1.8 1.8 2.9.3.6.6 1.3.8 1.8.1.2.2.3.3.4l.2.2.3.3-9.2 7.1c-.5-.3-1.1-.6-1.6-.9l-.2-.1-5 7.6-3-3.8 4.6-6.8zm8.1-6.7c-.4-.5-1-.8-1.5-.7-.1 0-.2.1-.3.2l-4.1 3.2c-.6.5-.5 1.3-.1 1.8v.1c.5.7 1.3.9 1.8.6l4.2-3.1c.6-.5.6-1.4 0-2.1zm-49.3-18.8 9.6-15.9-1-.6 1.7-2.9 11.6 7.1-1.8 2.8-5.6-3.5-2.8 4.7 4.4 2.7-2.5 2.6-3.7-2.4-3.3 5.4 5.8 3.5-1.8 2.9zm-87.3 215.4c-1.2-.3-2.2-.8-3.3-1.5-1.1-.6-1.9-1.3-2.7-2l5.6-18.6c1.1-.3 2.2-.3 3.4-.3 1.3.1 2.4.3 3.6.7 1.2.3 2.2.8 3.3 1.5.5.3 1 .6 1.4.9.2.2.5.3.8.4.1 0 .2.1.3.1l.5.1-.2.5-1.7 5.3-5-1.5.7-2.3c.2-.6-.2-1.3-.9-1.6-.1 0-.2-.1-.3-.1-.8-.3-1.7.1-1.8.8l-4.1 13.3c-.1.3 0 .6.1.9.2.4.6.7 1.1.8.8.3 1.7-.1 1.8-.8l1.8-5.6-1.6-.9 1.7-2.7 5.9 1.8-3.4 11.3c-1.1.3-2.2.3-3.4.3-1.3-.3-2.6-.5-3.6-.8M207 329c-1.2.1-2.4 0-3.6-.2-1.2-.2-2.2-.6-3.2-1.1l-1.1-19.4c.9-.6 1.9-1.1 3.1-1.4 1.2-.3 2.4-.6 3.6-.6 1.2-.1 2.4 0 3.6.2.6.1 1.1.2 1.7.4.3.1.6.1.8.1h.3l.5-.1v.5l.3 5.5-5.2.3-.1-2.4c0-.6-.6-1.2-1.4-1.2h-.3c-.9.1-1.6.7-1.5 1.4l.7 13.9c0 .3.2.6.4.8.3.3.8.4 1.3.4.9 0 1.6-.7 1.5-1.4l-.3-5.9-1.8-.2.6-3.1 6.1-.3.7 11.8c-.9.6-1.9 1.1-3.1 1.4-1.1.3-2.4.5-3.6.6m-82.8-25c-1-.7-1.8-1.6-2.6-2.5-.8-.9-1.4-1.9-1.8-2.9l10.6-13.6-.9-.7 2-2.6 5.1 3.9-11.1 14.4c-.4.6-.2 1.5.5 1.9.7.5 1.6.5 2-.1l11.2-14.4 4.1 3.2-12.7 16.4c-1.1-.1-2.1-.5-3.2-1-1.3-.6-2.3-1.2-3.2-2m156.9-4-12-14.1-3.2 2.8-2.3-2.6 10.5-9 2.3 2.6-3.2 2.8 11.9 14zm27-30.3c-.6 1-1.4 1.9-2.2 2.8-.8.8-1.8 1.5-2.7 1.9l-4.5-2.8 2.7-4.4 2.3 1.5c.3.2.7.2 1 .1.4-.1.7-.4.9-.7v-.1c.4-.7.3-1.6-.3-1.9l-5.1-3.1-3 4.7c-.8 1.3-2.2 1.8-3.2 1.2-.2-.1-.4-.2-.5-.3l-7.1-4.5c0-1.1.3-2.1.7-3.3.4-1.2.9-2.2 1.6-3.2.6-1 1.4-1.9 2.2-2.8.5-.5 1-.9 1.5-1.3.2-.2.3-.3.4-.5.1-.1.1-.2.1-.3l.2-.4 5.2 3.2-2.7 4.4-2.1-1.4c-.1-.1-.2-.1-.3-.1-.6-.1-1.2.2-1.6.8v.1c-.4.7-.3 1.6.3 1.9l3.6 2.2.1.1.2.1 2.9-4.6c.9-1.4 2.3-1.8 3.4-1.3l.9.6.2.1 7 4.4c0 1.1-.3 2.1-.7 3.3-.2 1.5-.8 2.6-1.4 3.6M237.2 304l-1.1.5-1.2-3 12.5-5.2 1.3 3.1-6.2 2.5 2.1 5.1 4.7-2.1.6 3.5-4.1 1.7 2.5 5.7 6.1-2.5 1.4 3.1-11.4 4.8zm-142-30.7 5.2-6.8-.3-.4-6.7 4.5-3-4.4 15.4-10.3-.7-1 2.8-1.8 3.2 4.7-4.9 7.4.4.3 6.7-4.4 2.9 4.3-18.1 12.2z"/></svg>