<svg version="1.1" id="Layer_2" xmlns="http://www.w3.org/2000/svg" x="0" y="0" viewBox="0 0 400 400" style="enable-background:new 0 0 400 400" xml:space="preserve"><style>.st0{fill:#fdb927}</style><path class="st0" d="m205.1 43.2-10.4-13.8h-7.1v1.3l1.7 1.2v20.3h5.4V38.4l10.4 13.8h5.4V29.4h-5.4zM167 55.6l15.6-2.8-.8-4.6-10 1.7-.7-4.3 8.1-1.5-.3-2-.5-2.6-8.1 1.4-.8-4.1 9.1-1.6.4-4.9-14.7 2.6-1.2.2-1.6.3.2 1.4 1.8.8zm-25.9 8.5 8-2.9c7.4-2.7 10.3-8.8 8-15-2.3-6.3-8.4-9.1-15.8-6.4l-7.1 2.6-.9.3-1.8.7.5 1.3 2.3.6 6.8 18.8zm-.8-19 2.9-1c2.9-1.1 6.9-.6 8.6 4 1.7 4.6-1.1 7.5-4 8.6l-2.9 1-4.6-12.6zm-19.7 30.3 14.1-8.2-1.4-4.9-10.3 5.9-8.9-15.4-3.7 2.1-1.2.7-1.3.8.7 1.1 1.7.2zm-13.9-5.1c-4.3-4.9-11.4-5.7-17-.9-5.6 4.9-5.8 12.1-1.5 17s11.4 5.8 17.1.9c5.5-4.9 5.7-12.1 1.4-17M92.5 82.5c-2.6-3-2.6-6.8.4-9.4 2.9-2.6 6.7-2.1 9.4 1 2.6 3 2.6 6.9-.3 9.4-3.1 2.6-6.9 2-9.5-1m-8.9 7-4.5 5.8-1.2 1.5-1.9 2.5 3.6 2.8 3.6-4.6c1 2.1.9 4.5-.8 6.6-2.4 3.1-6.3 3.3-9.4.8-3.2-2.5-3.9-6.2-1.4-9.3.4-.5.8-.9 1.3-1.3.7-.5 1.4-.9 2.1-1.1l1.9-2.4 2.4-3 .1-.1c-.1 0-.2 0-.4-.1-3.8-.6-7.7.8-10.7 4.2-.2.2-.4.4-.5.6-4.6 5.9-3.4 13 1.7 17s12.3 3.5 16.9-2.4c.2-.2.3-.4.5-.6 3-4.2 3-9 .9-12.8-.2-.4-.4-.7-.7-1.1-.7-.9-1.5-1.8-2.4-2.5-.5 0-.8-.3-1.1-.5M238 46.6l2 1.8c1.7 1.6 2.5 2.3 2.2 3.5-.3.9-1.4 1.5-3.1 1-2.1-.6-4.1-2.3-5.6-4.6l-1.7 5.8c1.4 1.3 3.1 2.5 6.5 3.5 4.3 1.2 8.6-.3 9.8-4.6 1-3.3-.8-5.6-3.3-7.9l-2.3-2.2c-1.1-1-1.3-1.7-1.1-2.4.3-.9 1.4-1.3 2.8-.9 1.5.4 3.5 1.6 5.4 3.9l1.5-5.2c-.8-.8-2.8-2.3-5.9-3.2-4.7-1.4-8.5.7-9.6 4.4-.7 2.5 0 4.9 2.4 7.1m18.9 17.8 5.3 2.5 7.6-16.4 6.5 3 2-4.3-18.3-8.5-2 4.3 6.6 3zm14.7 4.2-1.4 2 3.9 2.7 1.6-1.9 2.5-1.3 3.5 2.4 3.5 2.4-.2 2.8-1.1 2.2 3.9 2.7 1.4-2 5.2-21-2.7-1.8-2.1-1.4-.6-.4-1.8-1.2-.7 1.1.6 1.5-15.5 11.2zm17-6.1-2.1 7.8-2.2-1.5-2.2-1.5 6.5-4.8zm13 8.1 5.3 4.9-12.4 13.2 4.3 3.9 12.3-13.2 5.2 4.9 3.2-3.4-14.7-13.8zm16.6 29.8 5.1 6.5 3.7-2.9-5.1-6.5 3.3-2.6 5.7 7.3 4.4-1.9-9.3-11.9.1-.1-1.8-2.3-1.1.9.1 2.2-15.9 12.4 9.8 12.5 3.7-2.9-6.3-8z"/><path d="M335.8 195.3c0 75.5-61.2 136.7-136.7 136.7S62.3 270.8 62.3 195.3 123.6 58.6 199.1 58.6s136.7 61.2 136.7 136.7" style="fill:#1d428a"/><path class="st0" d="M288.5 105.9c-23.9-23.9-55.7-37-89.4-37s-65.5 13.2-89.4 37c-23.9 23.9-37 55.7-37 89.4s13.2 65.5 37 89.4c23.9 23.9 55.7 37 89.4 37s65.5-13.2 89.4-37c23.9-23.9 37-55.7 37-89.4s-13.1-65.5-37-89.4m-174 4.8c22.6-22.6 52.6-35 84.6-35 32 0 62 12.4 84.6 35 22.6 22.6 35 52.6 35 84.6 0 17.2-3.6 33.8-10.5 49-14.5-4.9-28.8-10.4-42.8-16.6-1.8-.8-3.7-1.6-5.5-2.5l-5.5-2.6-2.7-1.3-2.7-1.3-5.4-2.7c-1.8-.9-3.6-1.9-5.3-2.8l-2.7-1.4c-.9-.5-1.8-1-2.6-1.5l-5.3-2.9-5.2-3c-13.9-8.1-27.2-17.2-39.9-27.2-6.3-5-12.4-10.2-18.2-15.8-2.9-2.8-5.7-5.6-8.5-8.5-.7-.7-1.4-1.5-2-2.2-.7-.7-1.3-1.5-2-2.2-.7-.8-1.3-1.5-1.9-2.3l-.1-.1c-.2-8.8-.4-14-.4-14l-6-1.4v8h-5.1v-8.4l-6.4 1.5v3.1l-3 1.6c.1 2.5.1 5.8.2 9.7-2.4 4.2-28.9 50-48.8 64.1-.7-5.4-1.1-10.8-1.1-16.3.1-31.9 12.6-62 35.2-84.6M271.6 254l-12.3.4-10-26 2 1 5.5 2.7c1.8.9 3.7 1.8 5.5 2.6.5.2 1.1.5 1.6.7l7.7 18.6zm-3-16.3c5 2.3 10 4.4 15 6.5l4.1 9.2-12.4.4-6.7-16.1zm-13.1 16.8-12.6.4-13.1-37.2c.8.5 1.7 1 2.5 1.4l2.7 1.5 5.4 3 4.2 2.2 10.9 28.7zm-16.3.6-11.3.4-16.4-48.9c2.5 1.6 5 3.2 7.6 4.8l5.2 3.2.7.4 14.2 40.1zm-15 .5-11.8.4-19.4-62.4c4.5 3.4 9.1 6.6 13.7 9.7l17.5 52.3zm-15.4.5-11.4.4-23.1-77.9c1.6 1.4 3.3 2.8 4.9 4.2 2.9 2.4 5.9 4.8 8.9 7.1l20.7 66.2zm-15.1.5-12.5.4-27.6-98.5c2.4 2.7 4.9 5.3 7.4 7.8 2.7 2.7 5.4 5.3 8.2 7.8l24.5 82.5zm-16.2.5-10.9.4-15.2-57.9c-.5-14.9-.9-28.7-1.2-39.8l27.3 97.3zm-14.5.5-9.4.3c-.6-13.8-1.1-28.2-1.6-42.2l11 41.9zm132.7 8.3c-.8 1.1-1.6 2.2-2.5 3.3l-139.1-2.7-.1-1.3 141.7.7zm-4.1-12.6-3.2-7.1c5.3 2.1 10.6 4.2 15.9 6.1l-.3.6-12.4.4zm-148-87.5v7.4H138v6.8h5.6v7.4H138v6.8h5.6V208H138v6.8h5.6V229H138v6.8h5.6v22.4l-5.1.2V154.3h5.1v4.6H138v6.8h5.6zm-53.7 78.6 15.6-52.5c6.3-8.4 13.3-18.9 20.6-32.1l-27.9 99.8c-3.2-4.9-5.9-9.9-8.3-15.2m-2.2-5.1c-2.8-7-4.8-14.2-6.2-21.7 4.4-3.5 10.6-9.2 18.1-18.2l-11.9 39.9zm41.7-78.2c0 10.6-.2 23.3-.4 36.9l-16.1 61.3-11.1.4 27.6-98.6zm-.8 52.3c-.4 15.2-1 30.9-1.7 45.4l-10.3.3 12-45.7zm-21.3 58.7 18.8.7c-.4 5.8-.8 11.3-1.2 16.4-3.6-2.9-7.1-5.9-10.4-9.2-2.6-2.6-4.9-5.2-7.2-7.9m91.8 42.9c-14.9 0-29.4-2.7-42.9-7.9-.6-8.2-1.1-18-1.6-28.7l-10.9-3.7v26.7c-1.7-.9-3.5-1.9-5.2-2.9v-25.4l5.1.2v.2h5.6l10.1.4 125.9 4.5c-.5.5-1 1-1.5 1.6-22.6 22.5-52.7 35-84.6 35m40.7 26-1.4-7-7.6 1.4-8.6 1.7-7.6 1.5 1.4 7 7.5-1.4 3.9 19.8-7.6 1.5 1.4 7 7.6-1.5 8.6-1.6 7.6-1.5-1.4-7-7.5 1.4-3.9-19.8zm43.9-8.4c4.2 9 .9 19.4-9.3 24.2-10.2 4.8-20.3.5-24.5-8.4-4.2-9-.9-19.3 9.3-24.1 10.2-4.8 20.3-.6 24.5 8.3m-8.1 3.8c-2.6-5.5-7.9-7.8-13.3-5.3s-7 8.1-4.5 13.6 7.8 7.9 13.3 5.4c5.5-2.6 7.1-8.3 4.5-13.7m33.1-32.1c-4.3-5-11.1-4.6-16.2-.3l-9.6 8.2-1.5 1.3-1.8 1.5 1.3 1.5 2.9-.3 20 23.5 6.6-5.7-8.2-9.6 1.9-1.6 14.8 3.9 8-6.8-17.1-4c2-3.8 1.7-8.3-1.1-11.6m-7.8 12.2-3.1 2.6-5.1-5.9 3.2-2.8c1.8-1.6 4.2-1.9 5.9.1 1.8 2 1.1 4.3-.9 6M341 303c-3.2 4.3-5.9 6-8.5 7.3l-7.3-5.5c4-.9 7.5-2.9 9.5-5.5 1.6-2.1 1.5-4.1.3-5-1.5-1.1-3-.4-6.2 1.1l-3.7 1.8c-4.5 2.2-8.3 2-11.5-.5-4.6-3.5-5.4-10-1-15.9 2.9-3.8 6.2-5.9 7.7-6.6l6.6 5c-4.3 1.5-6.9 3.6-8.4 5.6-1.3 1.7-1.4 3.6-.2 4.4.9.7 2 .7 4.1-.2l4.3-2.1c4.6-2.2 8.8-3.5 13-.3 5.6 4 5.5 10.9 1.3 16.4m-134.7 46.7c.2-6.6-5-10.9-11.7-11.1l-12.6-.4-2-.2-2.4-.1-.1 2 2.3 1.8-1.1 30.8 8.7.3.4-12.6 2.5.1 8.2 12.9 10.5.4-9.9-14.5c4.2-1.5 7-5.1 7.2-9.4m-14 3.7-4.1-.1.3-7.8 4.3.1c2.4.1 4.4 1.4 4.3 4-.1 2.7-2.2 3.9-4.8 3.8m-24.9-6.8c1.9-6.3-2.1-11.8-8.6-13.7l-12.1-3.6-1.9-.5-2.3-.7-.6 1.9 1.8 2.3-8.8 29.6 8.4 2.5 3.6-12.1 2.4.7 4.7 14.5 10.1 3-6-16.5c4.5-.5 8.1-3.2 9.3-7.4m-14.4.1-3.9-1.2 2.2-7.5 4.1 1.2c2.3.7 3.9 2.4 3.1 4.9-.7 2.7-3 3.4-5.5 2.6m-26.7-27.9-3.1-1.8-1.2-.7-2.5-1.5-1 1.7.9 1.9-22.7 18.7-1.9 3.2 6.2 3.7 2.3-3 3.7-2.2 5.5 3.2 5.5 3.2-.1 4.3-1.5 3.5 6.2 3.7 1.9-3.2 6-32.3-4.2-2.4zM116 336.3l-3.5-2 9.4-8-2.5 12.1-3.4-2.1zm-10.3-30.8-2.2-2.4-1.5 1.4.3 2.4-18.6 8.1 12-20.4-3.7-4.1-21.2 10.4 11.3-21.1-6.5-7.2-.9-.9-1.5 1.4.5 3.3-14.8 29.2 5.9 6.4 14.3-5.8-7.2 13.6 5.9 6.5 34.3-13.8z"/></svg>