<svg version="1.1" id="Layer_1" xmlns="http://www.w3.org/2000/svg" x="0" y="0" viewBox="0 0 400 400" style="enable-background:new 0 0 400 400" xml:space="preserve"><style>.st0{fill:#fff}.st1{fill:#9ea2a2}</style><path class="st0" d="M329.9 142.1c-10.8-24.7-28.3-45.6-50.8-60.9-23.6-16-51.2-24.5-79.8-24.5-28.6 0-56.2 8.5-79.8 24.5-22.3 15.2-39.9 36.3-50.8 60.9-48.4 12.7-58.6 28.5-58.6 39.6l.1 60.3c.7 10.2 11.3 29 74.9 42.2 12.9 17.1 29.6 31.4 48.5 41.3 20.1 10.5 42.8 16 65.6 16s45.5-5.5 65.6-16c18.9-9.9 35.7-24.2 48.5-41.3 63.6-13.2 74.2-32.1 74.9-42.3v-60.2c.3-11-9.9-26.9-58.3-39.6z"/><path class="st1" d="M326.5 146c-20.9-49.7-70-84.6-127.1-84.6S93.2 96.3 72.3 146C37 155 15 167.7 15 181.8v60c0-12.7 17.8-23.2 47-31.9 5.4 71.1 65 127.2 137.5 127.2 72.4 0 132-56.2 137.5-127.2 29.2 8.7 47 19.2 47 31.9v-60c-.1-14.1-22.1-26.8-57.5-35.8z"/><path d="M383.7 240.1c0-.2-.1-.4-.1-.7 0-.3-.1-.5-.2-.8 0-.1-.1-.3-.1-.4l-.3-.9c0-.1-.1-.2-.1-.3-.1-.4-.3-.7-.4-1.1v-.1c-1.9-4.3-5.9-8.2-11.6-11.9-9.2 6.1-23.1 11.8-40 16.3-2.2 7.2-5.1 14.1-8.4 20.8-3.4 6.7-7.3 13-11.6 18.9 43.5-8.8 71.9-22.7 72.9-38.4 0-.4 0-.8-.1-1.2.1.1.1 0 0-.2zm-368.6 0c0-.2.1-.4.1-.7 0-.3.1-.5.2-.8 0-.1.1-.3.1-.4l.3-.9c0-.1.1-.2.1-.3.1-.4.3-.7.4-1.1v-.1c1.9-4.3 5.9-8.2 11.6-11.9 9.2 6.1 23.1 11.8 40 16.3 2.2 7.2 5.1 14.1 8.4 20.8 3.4 6.7 7.3 13 11.6 18.9-43.5-8.6-71.9-22.5-72.9-38.2 0-.4 0-.8.1-1.2-.1-.1 0-.2 0-.4z" style="fill:#707271"/><circle cx="199.4" cy="199.2" r="130.7" style="fill:#373a36"/><path d="M366.4 167.4c-8.7-5.5-21.8-10.6-38-15-2.5-.7-5.1-1.4-7.7-1.9-19.3-48-66.3-81.9-121.2-81.9s-102 33.8-121.3 81.9c-2.6.6-5.2 1.3-7.7 1.9-16.1 4.4-29.3 9.5-38 15-5.4 3.4-11.8 8.7-11.8 14.4v41.1c9.8-7.9 25.5-14.8 46.9-20.5.4-.1.9-.2 1.3-.3 1.5 70.9 59.5 127.8 130.6 127.8 71.2 0 129.2-56.9 130.6-127.8.4.1.9.2 1.3.3 21.4 5.7 37.1 12.6 46.9 20.5v-41.1c-.1-5.8-6.5-11-11.9-14.4zm-84.1-50.3c.5-1 1.7-1.3 2.5-.5 8.7 9 16 19.3 21.5 30.6l-3.3-.6c-7.1-8-15.1-15.3-23.8-21.5.8-2.7 1.8-5.4 3.1-8zm-30.4-24.4c8 4 15.6 8.8 22.4 14.4 1.5 1.2 1.9 3.3 1.1 4.9-1.4 2.7-2.5 5.4-3.5 8.3-6.3-4-12.9-7.4-19.8-10.4-1-4.9-2-9.9-3.3-14.7-.5-1.9 1.5-3.4 3.1-2.5zm-35.2-11.1c6 .9 11.8 2.2 17.5 3.9 2.1.7 3.8 2.3 4.4 4.4 1.6 5.3 3.1 10.7 4.3 16.2-6.9-2.4-14-4.3-21.3-5.6-1-3.1-2-6.1-3.4-9-1.1-2.3-2.3-4.5-3.6-6.8-1-1.3.3-3.3 2.1-3.1zm101.5 117.6c0 21.1-5.5 40.9-15.2 58.1-.6 1.1-2.1.4-1.8-.7v-.1c4.6-20.6 3.6-41.6-2.7-61.2-.6-1.7-1.2-3.5-1.7-5.1-.3-.8-1-1.4-1.8-1.5l-5.3-.9c-1.4-.2-2.3 1.1-1.8 2.3.5 1.3 1 2.4 1.5 3.7 7.1 19.3 8.4 40.2 3.9 60.8l-.9 3.6c-4.8 18.8-18.2 34-35.9 41.8-14.9 6.6-31.4 10.2-48.6 10.3-7.4 0-14.8-.6-21.8-1.8-2.9-.5-4-4.3-1.6-6.2 4.2-3.5 8.1-7.2 12-11 2.8-2.8 5.4-5.6 8-8.5 1.1-1.3 1.6-2.8 1.6-4.5l-.2-7.2c0-1.1-1.4-1.5-2-.7-9.1 11.1-19.3 21.2-30.5 30.1-2.8 2.2-6.7 2.8-10.1 1.5-16-6.3-30.5-16-42.2-28-2.4-2.4-3.5-5.9-2.7-9.3 3.2-14.5 9-28.3 17.1-40.7.7-1.1.2-2.5-1.1-2.9-1.5-.5-3-1-4.4-1.5-.8-.3-1.7 0-2.2.7-6.8 10.5-12 22-15.6 34-.9 2.9-4.6 3.5-6.3 1-11.1-16.6-18.2-36.2-19.8-57.2-.3-3.3-.4-6.6-.4-9.9v-1.1c.1-15.4 5.9-30.1 16-41.4 1.6-1.9 3.5-3.7 5.4-5.4 17.5-15.5 39.2-26.4 62.9-31 .7-2.9 1.5-5.8 2.4-9-23.4 3.9-45 13.5-63 27.3-1.7 1.3-3.9-.9-2.5-2.5 22-27.6 56-45.1 94.1-44.7 4 4.4 7.3 9.3 9.9 14.8.6 1.4 1.2 2.7 1.7 4.1-5.4-.6-10.9-1-16.4-1-2.6 0-5.2.1-7.7.2.8 2.7 1.5 5.4 2 8.3 1.9-.1 3.8-.1 5.7-.1 6.5 0 12.8.5 19 1.4.5 2.4.9 4.9 1.1 7.4.1.7.6 1.3 1.3 1.5 2.7.7 5.1 1.6 7.3 2.7 0-3.4-.3-6.8-.8-10.1 7.3 1.5 14.3 3.7 21.1 6.3 1.1 6.8 1.8 13.6 2.2 20.6.1 1.1.9 2 1.9 2.2l5 .8c.8.1 1.5-.5 1.5-1.4-.3-6.2-.9-12.3-1.6-18.4 5.6 2.7 10.9 5.7 16 9.1-.7 3.7-1 7.3-1 10.9 0 .9.4 1.5 1.1 2 .3.2.7.4 1.1.5l5.1.9c.4.1.8-.1 1.1-.4.1-.2.2-.4.2-.7-.1-2.5-.1-5.1.2-7.6 4.1 3.1 8 6.5 11.7 10.1 11.4 10.9 20.9 23.9 27.8 38.2.3 5.3.7 10.8.7 16.5z" style="fill:#061922"/><path class="st1" d="m226.6 191.8.2-18.8c0-8.8-9.2-10.3-16-10.2 4.5-1.5 10.1-4.1 13.9-8.3 4.2-3.9 7.2-9.2 6.6-16.8-.9-12.8-16.8-19.1-43.2-16.5-.4 0-.9.1-1.3.1-1.3-9.4-3.2-18.6-6.1-27l-1.4 1.3c-3.5 10.9-5.6 19.6-6.9 27.6-15.8 2.7-26.8 6.4-26.8 6.4l-1.3 1.3s12.8-1.2 27.3-1c-1.6 16.5 0 32.2 0 61.9-23.5-.7-44.1 3.3-49.1 9.5-1.6 1.4-2.5 2.9-2.5 4.4.3 7.2 21.7 13.8 51.6 16.3l1.3 40.8 1.3-1.3 2.1-27.6c0-.5.1-.9.2-1.2.7.1 1.3.9 1.3 2.3l1 36.4 1.4-1.3 2.2-29.6c0-.7.1-1.2.2-1.6.7.1 1.3 1.1 1.2 2.7l1.1 38 1.3-1.3 1.8-55.2c3.5.1 7 .2 10.5.2 3.8 0 7.5-.1 11.2-.2l1.8 57.6 1.3-1.3 1.5-30.2c0-.6.1-1.1.2-1.5.6.1 1.2 1.1 1.2 2.6l1.5 42.2 1.3-1.3L220 255c0-.5.1-1 .2-1.4.8 0 1.5.9 1.5 2.6l1.3 48.4 1.3-1.4 1.9-81c25.6-2.2 45.1-7.4 50-13.3 1.6-1.4 2.4-2.7 2.4-4.2-.3-8.2-24.1-14.3-52-12.9m-55 21.6c-20.6-2-34.4-6.2-34.4-11.4 0-.4.1-.8.3-1.1 4.8-3.4 19.6-5.5 34.4-7.7 0 5.8-.1 12.1-.3 19v1.2zm41.8-70.8c.8 5.8-.9 10.2-3.9 13.5-5.4 4.8-13.7 7.1-20.6 8.1.1-11 0-22.3-1-33.5 13.2 1.4 24.6 4.8 25.5 11.9m-3.8 72c-3.2.1-6.5.2-9.9.2-4 0-7.8-.1-11.6-.2l.2-4.6c-.4-11.9.4-26.8.6-42.6 9.7 1.2 21.3 3.9 21.1 10.6l-.4 36.6zm51.1-9.2c-4.8 3.8-17.5 6.7-34.3 8.2l.2-20.2c19.2 2.5 34.9 5.3 34.9 10 0 .6-.3 1.3-.8 2"/><path d="M278.7 204.4c-.4-7.9-24.1-14-52-12.7l.2-18.8c0-11.6-16-10.5-21.4-9.8 6.3-1.2 27.3-6.4 25.9-25.5-.9-12.8-16.8-19.1-43.2-16.5-.4 0-.9.1-1.3.1-1.3-9.4-3.2-18.6-6.1-27-3.7 11.4-5.8 20.4-7 28.7-16.3 2.7-27.9 6.6-27.9 6.6s12.8-1.2 27.3-1c-1.6 16.7.1 32.7 0 63.2-27.7-1-51.9 4.4-51.6 12.7.3 7.2 21.6 13.8 51.6 16.3l1.3 40.8 2.1-27.6c.1-3.4 2.7-3.1 2.7-.2l1 36.4 2.2-29.6c0-4 2.8-3.8 2.7-.2l1.1 38 1.8-56.6c3.9.1 7.8.2 11.8.2 3.8 0 7.5-.1 11.2-.2l1.8 57.6 1.5-30.2c0-3.9 2.6-3.7 2.6-.2l1.5 42.2 1.5-36.5c.1-3.6 3-3.4 3.1 0l1.3 48.4 1.9-82.2v.2c30.3-2.8 52.4-9.4 52.4-16.6m-64-63c2.1 16-14.1 21.2-25.8 22.9.1-11.4-.1-23.4-1.2-35 13.9 1.3 26 4.6 27 12.1M137.1 202c0-4.8 18-7.4 36-10.2 0 5.8-.1 12.1-.3 19l.1 2.6c-21.3-1.7-35.8-6-35.8-11.4m51 12.5.2-4.6c-.4-12.2.4-27.6.7-44.1 9.9 1 22.5 3.7 22.3 10.7l-.4 38c-3.6.1-7.3.2-11.2.2-4 0-7.8 0-11.6-.2m38.3-.9.3-21.7c19.8 2.5 36.2 5.4 36.2 10.2-.2 5.3-15 9.6-36.5 11.5" style="fill:#ce1141"/><path class="st0" d="M61.5 164c-2.5.9-4.9 1.6-7.3 2.5-1.5.6-2.9 2.3-2.9 4v25.4c0 1.6 1.3 2.5 2.9 1.9 2.4-.9 4.9-1.7 7.3-2.5 1.5-.5 2.9-2.3 2.9-3.9V166c-.1-1.7-1.3-2.6-2.9-2zm-1.9 27.1c-1.2.4-2.4.9-3.6 1.3v-21.6c1.2-.4 2.4-.9 3.6-1.3v21.6zm76.3-44.9c-2.5.4-5.1.8-7.6 1.2-1.6.3-3 1.8-3 3.5v25.4c0 1.6 1.4 2.7 3 2.4 2.5-.4 5.1-.9 7.6-1.2 1.6-.2 3-1.7 3-3.4v-25.4c-.1-1.6-1.4-2.8-3-2.5zm-1.9 26.7c-1.3.2-2.5.4-3.8.6v-21.6c1.3-.2 2.5-.4 3.8-.6v21.6zm-55.5-14.2c1.6-.5 3.2-1 4.8-1.4v28.3c0 1.6-1.4 3.3-2.9 3.8-2.5.7-5 1.5-7.4 2.2-1.5.5-2.9-.4-2.9-2v-28.3l4.8-1.5v26.4c1.3-.4 2.4-.7 3.7-1.1-.1-8.8-.1-17.6-.1-26.4zM41 171.4c1.5-.6 3.1-1.3 4.7-1.8v31.3c-1.5.6-3.2 1.2-4.7 1.8v-13.2c-1.1.4-2.2.9-3.3 1.3V204c-1.5.6-3.1 1.3-4.6 1.9v-31.3c1.5-.7 3.1-1.3 4.6-1.9v13.2c1.1-.5 2.2-.9 3.3-1.3v-13.2zm66.1-20c4.4-1 9-1.8 13.4-2.7v4.8c-1.5.3-2.9.6-4.3.8v26.4c-1.6.3-3.3.7-4.9 1v-26.4c-1.5.3-2.8.6-4.3.9.1-1.5.1-3.1.1-4.8zm50.4-7.9v31.3c-1.6.2-3.3.3-4.9.5v-5.5c-1.2-3.3-2.3-6.5-3.5-9.8v15.7c-1.6.2-3.3.4-4.9.6V145l4.8-.6c1.2 3.4 2.3 6.7 3.6 10.1v-10.4c1.7-.2 3.3-.4 4.9-.6zm-55.2 11.9v3.7c-1.6.4-3.3.8-4.8 1.2v-1.7c-1.3.3-2.4.6-3.7.9v6.5c2.3 1.1 4.6 2.2 7.1 3.4 1.2.6 1.5 1.5 1.5 2.9v8.7c0 1.6-1.4 3.2-2.9 3.6-2.5.6-5 1.3-7.5 1.8-1.6.4-2.9-.6-2.9-2.2v-3.7c1.6-.4 3.2-.9 4.8-1.3v1.7c1.3-.3 2.4-.6 3.7-.9v-6.5c-2.3-1.2-4.6-2.2-7-3.3-1.2-.5-1.5-1.5-1.5-2.9v-8.7c0-1.6 1.4-3.3 2.9-3.7 2.5-.7 5-1.3 7.5-1.8 1.5-.3 2.8.8 2.8 2.3zm169.3-7.8c-2.5-.4-5.1-.9-7.6-1.3-1.6-.3-3 .9-3 2.5v25.4c0 1.6 1.4 3.1 3 3.4 2.5.4 5.1.8 7.6 1.3 1.6.3 3-.8 3-2.4v-25.4c0-1.7-1.3-3.2-3-3.5zm-1.9 26.1c-1.3-.2-2.5-.4-3.8-.6v-21.6c1.3.2 2.5.4 3.8.6v21.6zm65.9-10.3c4.4 1.5 8.7 3 13.1 4.5v4.8l-4.2-1.5v26.4c-1.5-.6-3.2-1.1-4.7-1.6v-26.4c-1.4-.5-2.8-1-4.2-1.4v-4.8zm25.4 15.9v-1.7l-3.6-1.5v6.5c2.2 2.6 4.5 5.1 6.8 7.7 1.1 1.3 1.5 2.5 1.5 3.9v8.7c0 1.6-1.3 2.4-2.8 1.7-2.4-1-4.8-1.9-7.3-2.9-1.5-.6-2.8-2.4-2.8-4.1v-3.7c1.5.6 3.2 1.2 4.7 1.8v1.7l3.6 1.5v-6.5c-2.2-2.6-4.5-5.1-6.8-7.7-1.1-1.3-1.5-2.5-1.5-3.9v-8.7c0-1.6 1.3-2.4 2.8-1.8 2.4 1 4.8 1.9 7.3 2.9 1.5.7 2.8 2.5 2.8 4.1v3.7c-1.5-.5-3-1.1-4.7-1.7zm-48-22.6c-1.6 4.7-3.4 9.6-5 14.3 1.6 5.6 3.4 11.3 5 17-1.7-.5-3.4-.9-5.1-1.4-1.4-4.5-2.7-9-4-13.4v12.5l-4.8-1.2v-31.3c1.6.4 3.3.8 4.8 1.2v12.5c1.4-3.9 2.7-7.6 4-11.4 1.7.2 3.5.7 5.1 1.2zm-19.4-2v3.8c-1.6-.4-3.3-.7-4.8-1.1v-1.8c-1.3-.3-2.5-.5-3.7-.8v21.6c1.3.3 2.5.5 3.7.8v-1.6c1.6.4 3.3.7 4.8 1.1v3.6c0 1.6-1.4 2.6-2.9 2.3-2.5-.6-5-1.1-7.6-1.5-1.6-.3-3-1.9-3-3.5v-25.4c0-1.6 1.4-2.7 3-2.3 2.5.5 5 1.1 7.6 1.5 1.5.1 2.9 1.8 2.9 3.3zm-38.6 5.5V148c0-1.6-1.4-3.1-3-3.3-3.6-.4-7.1-.8-10.6-1.2v31.3c1.6.2 3.3.3 4.9.5v-13.2c.7.1 1.4.2 2 .2.7 4.4 1.5 9 2.1 13.4 1.6.2 3.3.4 5 .6-.8-4.5-1.5-9.2-2.2-13.7 1.1-.2 1.8-1.2 1.8-2.4zm-4.9-2.5c-1.3-.2-2.5-.3-3.8-.4V149c1.3.1 2.5.3 3.8.4v8.3zm68.3.4c4.4 1.3 8.7 2.6 13.1 4v4.8c-2.7-.9-5.5-1.7-8.3-2.5v8.3c2 .6 4.1 1.3 6.2 1.8v4.8c-2-.7-4.1-1.3-6.2-1.8v8.3c2.8.8 5.5 1.6 8.3 2.5v4.8c-4.4-1.4-8.7-2.7-13.1-4v-31z"/></svg>