<svg version="1.1" id="Layer_1" xmlns="http://www.w3.org/2000/svg" x="0" y="0" viewBox="0 0 400 400" style="enable-background:new 0 0 400 400" xml:space="preserve"><style>.st0{fill:#bec0c2}.st1{fill:#002d62}.st2{fill:#fdbb30}</style><path class="st0" d="M349.8 200.2c0 82.7-67 149.8-149.8 149.8-82.7 0-149.8-67-149.8-149.8 0-82.7 67-149.8 149.8-149.8 82.8.1 149.8 67.2 149.8 149.8z"/><path class="st1" d="M341.2 200.2c0 77.9-63.1 141.2-141.2 141.2S58.8 278.2 58.8 200.2 122.1 59.1 200 59.1c78 0 141.2 63.1 141.2 141.1z"/><path class="st2" d="M200 65.6c-74.3 0-134.5 60.2-134.5 134.6 0 74.3 60.2 134.5 134.5 134.5s134.5-60.2 134.5-134.5C334.6 126 274.3 65.6 200 65.6z"/><path class="st1" d="M292.1 200.2c0 51.9-41.3 94-92.1 94-50.9 0-92.1-42.1-92.1-94s41.2-94 92.1-94c50.9 0 92.1 42.1 92.1 94z"/><path d="M286.2 200.2c0 48.6-38.6 87.9-86.2 87.9s-86.2-39.4-86.2-87.9 38.6-87.9 86.2-87.9c47.7 0 86.2 39.4 86.2 87.9z" style="fill:#fff"/><path class="st1" d="m105.5 173.9-.9 3.5-27.6-6.8 1-3.6zm3.8-42.3 11.9 9.1-2.1 2.7-22.4-17.2 1.1-1.6 16.3 4.3-12.3-9.4 2.1-2.8 22.4 17.2-1.1 1.7zm43.7-22.8 1.5-.8c1.5-.7 1.7-2.1 1.2-3.2-2.9-5.8-5.1-9.8-8-15.6-.6-1.2-1.9-1.6-3.1-1l-1.7.9 10.1 19.7zm-14.7-20.7 5.6-2.8c2.4-1.2 5.4-1.1 6.9 1.8 3.5 7 5.2 10 8.7 16.9 1.4 2.8-.2 5.3-2.4 6.4l-5.8 2.9-13-25.2zm58.2 12.1-3.6.2-1.6-28.3 3.7-.2zm45.2-11.8-.2-.1-5.8 9.5 3.8 1.4 2.2-10.8zm-4 19.3 1.2-5.5-4.8-1.8-2.8 4.9-3.3-1.3 15.1-24.6 3.5 1.3-5.4 28.3-3.5-1.3zm42.1 11.1L268.9 129l-2.3-2.4 20.6-19.5 1.2 1.3-6.7 15.5 11.3-10.6 2.3 2.4-20.6 19.5-1.3-1.5zm31.7 43.6-.1-.2-11 1.5 1.3 3.8 9.8-5.1zm-17.5 9.1 5-2.5-1.6-4.9-5.6.9-1.1-3.4 28.6-3.8 1.2 3.5-25.3 13.7-1.2-3.5zM99.6 252.9l2 3.8 10-5.3-2-3.8-10 5.3zm-12.3 6.4-1.7-3.2 25.1-13.1 4.1 8c.8 1.6.4 2.8-.8 3.4-4.5 2.3-6.8 3.5-11.2 5.9-1.3.7-2.5.3-3.3-1.1l-2.5-4.9-9.7 5zm47.1 27.8-.2-.2-8.3 7.3 3.1 2.5 5.4-9.6zm-9.7 17.3 2.7-4.9-4-3.2-4.1 3.7-2.8-2.2 21.8-18.9 2.9 2.3-13.5 25.5-3-2.3zM175 317l3.5.9-1.8 7.3c-.3 1.3-1.5 2-2.7 1.7-2.5-.6-4.3-1.1-6.9-1.7-1.3-.3-2-1.5-1.7-2.8 2.2-9 3.4-14 5.7-23 .3-1.3 1.5-2 2.7-1.7 2.5.6 4.4 1.1 7 1.7 1.2.3 1.9 1.5 1.6 2.8L181 308l-3.5-.8 1.2-5.1-4.3-1-5.3 21.6 4.3 1 1.6-6.7zm52.1 9.7-9.1 1.7-4.9-27.9 9-1.6.5 3-5.5.9 1.6 9.2 5.2-1 .5 3.1-5.1.9 1.7 9.7 5.5-.9zm41.7-17.8-3 2-16-23.5 7.8-5.3c1.4-1 2.6-.5 3.3.6 2.2 3.2 3.6 5.4 5.9 8.6.9 1.3.5 2.6-.6 3.3l-.4.3 10.3 8.9-3.3 2.3-11.7-10.1-.1-1.3 2.4-1.6-5.2-7.5-3.8 2.6 14.4 20.7zm28.9-42.7 5.7 3.5 1.6-2.6-5.5-3.4-10.5.5c-.7 0-1.4 0-1.9-.4-2-1.3-2.9-1.9-5.2-3.2-1-.6-1.4-2-.7-3.1 1.1-1.8 2-3.2 3.2-5.1.8-1.2 2-1.3 3.1-.6l5 3.1-1.9 3-4.4-2.7-1.6 2.6 4.3 2.6 10-.6c1 0 1.8 0 2.5.5 2.6 1.7 3.5 2.2 6.3 3.9 1.1.7 1.5 2 .8 3.1-1.1 1.8-2 3.2-3.2 5.1-.6 1-1.9 1.4-3.1.6l-6.3-3.9 1.8-2.9z"/><path class="st0" d="m172.5 146.8-23.3 105.9h46.1s5.2-21 5.6-23h20c15 .1 27.2-5 35.5-14.7 15.1-16.4 12.4-40.4 1.1-54-8.1-9.8-19.8-15.3-32.9-15.3h-51.9l-.2 1.1z"/><path class="st1" d="m197.6 225.5-5.6 23h-37.6l21.8-98.5h48.5c12 0 22.5 5 29.8 13.8 10.7 13 11.8 34.6-1.1 48.6-7.9 9.2-19.5 13.4-32.3 13.3l-23.5-.2z"/><path class="st2" d="M171.1 172.5h21.3c2.4 0 5.1 2 3.9 5.2-.7 1.9-1.2 4.1-1.5 6.3-.2 1.6 1.6 2.6 2.6 2.6h43.3c.8 0 1.2-.2 1.2-.6s0-1.8-.2-2.8c-.2-.9-.3-1.1-1.1-1.1-5.4 0-7.6-2.4-13.3-6.1s-14-5.8-21.2-5.8h-34.8l-.2 2.3zm26.3 28c-.8-1.6-1.4-3.5-1.9-5.3-.5-2.2-2.4-4-5.8-4h-22.8l.6-2.5 73.9.1c.7 0 .6.3.5 1.1 0 .8-.2 2.3-.3 3.2-.1.9-.8.7-1.5.7-1.7 0-4.8.4-6.6 1.8-3 2.3-9.6 6.4-13.3 7.5-3.9 1.2-18.6 5.7-22.8-2.6"/><path class="st2" d="M162.9 209.8h38.6c1.7 0 3.1.4 4.4 1.3 3.2 2.6 7.5 4.7 11.9 6 2 .6 5.5-.2 8.6-1.9 7.7-4.4 12.6-12.6 14.4-18 .4-1.4-.4-1.3-1.4-1.2-3.2.2-6.7 3.1-11.1 6.1-4.6 2.8-13.7 5.6-22.4 5.6h-42.3l-.7 2.1zm56.6-51.7c.5-.1 2.5-.2 3.5.2 7.4 2.9 14.3 10.5 17.2 18.6.6 1.6.7 2.5 0 2.6-3.3.4-4.9-1.3-8.9-3.9-3.9-2.6-7.6-4.5-12.5-6.1-5-1.5-14-1.8-15.1-1.8s-1-.5-.5-1c4.3-4.3 10.1-7.5 16.3-8.6zm35.1 27.9c0 .3-.3.7-.7.7h-8.5c-1.1 0-1.1-.5-1.1-1.1-.1-.6-.2-1.8-.2-2.6 0-.7-.3-1.5.6-1.9 2.3-1 4.6-3.3 5.6-5.3.3-.7.8-1.7 1.4-.8 2.1 3.1 2.7 7 2.9 11zm-3 15.1c-.1.3-.7.5-.8 0-1.2-3.3-4.1-5.6-6.2-6.7-.6-.3-.6-.7-.6-1.3.1-.6.3-2.5.4-3.3 0-.6.3-1.1.8-1.1h8.8c.3 0 .7.3.7.5-.1 4.2-1.3 8.4-3.1 11.9z"/><path class="st2" d="M228.7 217.6c-.6.1-2-.1.1-1.3 6.4-3.7 12.1-12.4 13.7-17.5.6-1.9.6-2 1.4-1.8 1 .3 2.5 1.6 3.7 3.2 1.2 1.6 1.7 4.9 1 5.7-4.6 6.3-11.9 10.6-19.9 11.7zm16.3-39.4c-1.5.8-1.8.6-2.1-.5-2.8-9.7-11-17-14.4-19.1-.6-.4-.5-.7 0-.6 8 1.1 15.9 5.5 19.8 11.4 2.4 3.4-1.9 8-3.3 8.8z"/></svg>