<svg version="1.1" id="Layer_1" xmlns="http://www.w3.org/2000/svg" x="0" y="0" viewBox="0 0 400 400" style="enable-background:new 0 0 400 400" xml:space="preserve"><style>.st0{fill:#fff}.st3{fill:#c8102e}</style><path class="st0" d="M21.9 181.8c-3.5 3.2-5.3 7.4-5.3 12.5v92.2c0 5.2 1.8 9.4 5.3 12.7 3.5 3.2 7.9 4.6 13 4.2 8.3-.7 16.5-1.3 24.8-1.9v-17.4c-8.3.4-16.5.9-24.8 1.4v-89.9c8.3.5 16.5 1 24.8 1.4v-17.4c-8.3-.6-16.5-1.2-24.8-1.9-5.1-.7-9.5.7-13 4.1m59.9-.9c-6.1-.4-12.3-.8-18.4-1.2v121.5c13.4-.9 26.8-1.7 40.2-2.4v-16.7c-7.3.3-14.5.5-21.8.8v-102zm25.5 117.7c6.3-.3 12.5-.6 18.8-.8V183c-6.3-.2-12.5-.5-18.8-.8v116.4zM160.9 184c-10.3-.2-20.7-.5-31-.9v114.6c6.2-.2 12.3-.4 18.5-.6v-48.6h12.5c5.1 0 9.4-1.6 13-4.7 3.7-3.1 5.5-6.9 5.5-11.4v-32.1c0-4.4-1.8-8.2-5.5-11.3-3.6-3.2-7.9-4.9-13-5m0 48.4h-12.5V200c4.2.1 8.4.1 12.5.2v32.2zm163 11.6c3.6-3.3 5.5-7.4 5.5-12.2v-34.4c0-4.8-1.8-8.7-5.5-11.8-3.6-3.2-7.9-4.6-13-4.3-10.3.6-20.6 1.1-31 1.5V298c6.2.2 12.3.5 18.5.8v-49.6c5.1 16.6 10.2 33.3 15.3 50.4 6.1.4 12.3.7 18.4 1.1-5.4-17.9-10.7-35.4-16.1-52.6 3-.6 5.6-2 7.9-4.1m-25.5-45.3c4.2-.1 8.3-.3 12.5-.5V232c-4.2 0-8.3.1-12.5.1v-33.4zm-84.3-14.3c-10.4.1-20.7.1-31.1 0v112.2c6.2-.1 12.3-.1 18.5-.1v-48h12.6c5.1 0 9.4-1.5 13-4.6 3.7-3.1 5.5-6.9 5.5-11.4v-32.2c0-4.4-1.8-8.2-5.5-11.2-3.5-3.3-7.9-4.8-13-4.7m0 48h-12.6v-32h12.6v32zm22.2 64.4c13.5.2 26.9.6 40.4 1.1v-16.4c-7.3-.2-14.6-.4-21.9-.5v-32.4c4.2 0 11.6 0 15.8.1v-16.3c-4.2 0-11.6 0-15.8.1v-32.4c7.3-.1 14.6-.3 21.9-.5v-16.4c-13.4.5-26.9.9-40.4 1.1v112.5m148.1-84.1v-18.4c0-5.1-1.8-9.3-5.4-12.5-3.5-3.3-7.8-4.7-12.9-4.3-5.2.4-10.3.8-15.5 1.2s-9.5 2.4-13.1 6.1c-3.5 3.6-5.3 7.7-5.3 12.5v34.5c0 4.9 1.8 8.9 5.3 12.3 3.5 3.4 7.9 5.1 13.1 5.2 5.2.1 10.3.1 15.5.2v36c-5.2-.3-10.3-.6-15.5-.9V267c-6.1-.2-12.3-.4-18.4-.6v17.3c0 4.9 1.8 9 5.3 12.6s7.9 5.6 13.1 6 10.3.8 15.5 1.2c5.1.4 9.4-.9 12.9-4.2 3.6-3.2 5.4-7.5 5.4-12.7v-36.9c0-5.1-1.8-9.4-5.4-12.9-3.5-3.6-7.8-5.3-12.9-5.3-5.2.1-10.3.1-15.5.2v-35.3c5.2-.3 10.3-.6 15.5-.9v18c6.1-.3 12.2-.5 18.3-.8"/><path d="M36 179.5c7.3.6 14.8 1.2 22.5 1.8v-.7l-23.7-1.8c-.6-.1-1.1-.1-1.7-.1-4.1 0-7.5 1.3-10.4 4-3.3 3-4.9 6.9-4.9 11.6v92.2c0 3.9 1.1 7.2 3.2 9.9-1.6-2.5-2.4-5.5-2.4-8.8v-92.2c0-4.8 1.7-8.8 5-11.8 2.9-2.8 6.4-4.1 10.6-4.1H36m44.6 3.3v-.8c-5.3-.3-10.7-.7-16-1v118.9l.8-.1v-118h.1c4.9.3 10 .6 15.1 1m44.3 2.2v-.8c-5.4-.2-10.8-.4-16.3-.7v113.8h.8v-113h.1c5 .2 10.2.5 15.4.7m37 1.1c3.7.1 7 1 9.9 2.9-3.1-2.4-6.8-3.6-11-3.7-9.9-.2-19.9-.5-29.8-.8v112h.8V185.2h.1c10 .4 20.1.7 30 .9m151.4-2.8c3.3 0 6.2.8 8.8 2.4-2.8-2.2-6.1-3.2-9.9-3.2H311c-9.8.5-19.8 1-29.8 1.4v112.8h.8v-112h.1c10.1-.4 20.2-.9 29.9-1.4.5.1.9 0 1.3 0m-111.7 3.1h13.8c3.8 0 7.1.9 9.9 2.7-3.1-2.4-6.7-3.5-11-3.5h-13.8c-5.3 0-10.8 0-16.2-.1v109.7h.8V186.4h16.5m73.8-2.2c-12.5.5-25.3.8-37.9 1.1v110.3h.8V186.1h.1c12.2-.2 24.6-.6 36.9-1l.1-.9zm91.8-4.7c.6 0 1.1-.1 1.6-.1 3 0 5.7.7 8 2.2-2.6-2-5.6-3-9.1-3-.5 0-1.1 0-1.6.1-5.1.4-10.4.9-15.5 1.2-4.8.4-9 2.3-12.3 5.7s-5 7.2-5 11.6v34.5c0 3.6 1 6.7 3.2 9.5-1.6-2.5-2.3-5.2-2.3-8.4v-34.5c0-4.5 1.7-8.4 5.1-11.8 3.4-3.5 7.6-5.4 12.5-5.8 5-.3 10.3-.7 15.4-1.2" style="fill:#bec0c2"/><path class="st0" d="M16.6 323.3c121.8-15.2 246-15.2 367.8 0v-6.4c-121.8-14.1-246-14.1-367.8 0v6.4z"/><path class="st0" d="M61 340.3c92.1-23.9 186.9-23.9 279 0v-6c-92.1-23.2-186.9-23.2-279 0v6m103-174c-49.3-1.2-98.5-4.9-147.4-11v6.4c52 6 104.3 9.4 156.7 10.3-3.3-1.6-6.4-3.5-9.3-5.7m73 0c-2.9 2.2-6.1 4.1-9.4 5.8 52.4-.9 104.8-4.3 156.7-10.3v-6.4c-48.8 6-98 9.7-147.3 10.9M151.7 154c-30.4-2.7-60.7-7.9-90.7-15.7v6c31.7 8 63.8 13.2 95.9 15.7-1.8-1.8-3.6-3.8-5.2-6m97.6 0c-1.6 2.1-3.3 4.1-5.2 6 32.2-2.5 64.2-7.7 95.9-15.7v-6c-30 7.8-60.3 13-90.7 15.7"/><path class="st0" d="M143.8 117.4c0-31.3 25.4-56.7 56.7-56.7s56.7 25.4 56.7 56.7-25.4 56.7-56.7 56.7-56.7-25.4-56.7-56.7"/><path d="M200.5 60.7c-31.3 0-56.7 25.4-56.7 56.7s25.4 56.7 56.7 56.7 56.7-25.4 56.7-56.7-25.4-56.7-56.7-56.7m41 25.2c6.5 8.4 10.2 18.4 10.7 29h-21.4c.5-10.6 4.2-20.6 10.7-29m-82 0c6.5 8.4 10.2 18.4 10.7 29h-21.4c.6-10.6 4.2-20.6 10.7-29m0 63c-6.5-8.4-10.2-18.4-10.7-29h21.4c-.5 10.5-4.2 20.6-10.7 29M203 169v-14.8h-5V169c-13.5-.6-25.9-6.4-35.2-16.3 7.6-9.5 11.8-20.8 12.4-32.9v-5c-.5-12.1-4.8-23.4-12.4-32.9 9.3-9.9 21.7-15.6 35.2-16.3v14.7h5V65.7c13.5.6 25.9 6.4 35.2 16.3-7.6 9.5-11.8 20.8-12.4 32.9v5c.5 12.1 4.8 23.4 12.4 32.9-9.3 9.8-21.8 15.6-35.2 16.2m38.5-20.1c-6.5-8.4-10.2-18.4-10.7-29h21.4c-.6 10.5-4.2 20.6-10.7 29" style="fill:#061922"/><path class="st3" d="M187.9 93.6v47.3h25.2v-6.5h-18.5V93.6z"/><path d="M221.7 109.5V90c0-2.9-1.2-4.1-4.1-4.1h-34.4c-2.8 0-4 1.2-4 4.1v54.8c0 2.9 1.2 4.1 4 4.1h34.4c2.9 0 4.1-1.2 4.1-4.1v-19.5h-6.8v17.6H186v-51h28.9v17.6h6.8z" style="fill:#1d428a"/><path class="st3" d="M213.1 132.6v-39h-16.4l-.2 39h6.6l.1-12.1h3.3v12.1h6.6zm-6.6-18.6h-3.3v-13.9h3.3V114z"/></svg>