<svg version="1.1" id="Layer_3" xmlns="http://www.w3.org/2000/svg" x="0" y="0" viewBox="0 0 400 400" style="enable-background:new 0 0 400 400" xml:space="preserve"><style>.st3{fill:#542c81}</style><path d="M93 134.8s33.1-54.1 100.8-54.1 99.3 52.5 99.3 52.5H385l-3.6 22.6s-2.7 9-6.8 9.9h6.3s2.1 7.9-10.5 35.2h26.8s1.1 47.8-56.7 70.4c0 0-29.9 9.5-45.2-6.8 0 0-30.4 56.7-101.3 56.7S90.9 262.9 90.9 262.9H8.4l13.1-23.6h-8.9l10.5-19.4H41l3.2-7.4h-8.4l20.5-37.8h11.5l4.7-11.5h-10l15.3-28.4H93z" style="fill:#fff"/><path d="M194.8 308.6c58 0 105-47.7 105-106.6s-47-106.6-105-106.6-105 47.7-105 106.6 47 106.6 105 106.6" style="fill:#fab624"/><path d="M277.3 133.1c-1.3-1.5-3.2-4.7-16.1-16-19-16.5-44.1-24.1-67.8-24.1-17.4 0-32.7 3.9-49.5 13.2-21.6 11.8-30.4 25.5-32.6 28.3-1.6 2.1-1.9 3.2-.8 3.8.8.4 2.2-1.2 3.5-3 6.4-8.5 14.8-16.8 23.6-21.8 2.8.4 6.6 4.2 8.1 6.3-5.7 3.1-15.1 10.2-18.6 13-3.1 2.4-4.1 3.7-3.3 4.7.7.8 3.1-.8 5-2.4 3.4-2.8 13.5-9.9 18.5-12.6 3.4 3.9 2.3 11.3 1.1 13-.7.9-.7 1.8 0 2.2.7.4 1.5-.6 2.5-2.1 2.4-3.3 1.4-11.5-.6-14.4 6.1-3.7 14.9-6.3 20.2-7.5.5.9 6.9 19.7 8.1 23 .7 1.9 1.4 4.1 2.7 3.6.9-.3.3-2.4-.5-4.4-1-2.6-5.8-18.3-7.3-23 1.8-1 12.3-3.1 15-3-1.3 6.9 3.5 9.7 9.1 13.3 3 1.9 21.5 12.6 25.4 15 2.2 1.4 3.9 2.3 4.4 1.6.5-.8-1-2.3-3.1-3.4-1.7-1-18.9-11-26.1-15.6-5.2-3.2-8-6.8-6.7-11.3 1.7-.5 6.9-.5 12.3-.5 36.8.3 66.4 21.5 69.7 24.8 1.7 1.7 4 3.2 4.9 2.5.7-.3-.3-2.3-1.1-3.2m-128.5-14.6c-1-1.7-5.7-5.9-8.2-6.8 5.9-4.3 19.6-10.6 24.8-11.7.9 1.5 3.3 7.9 4.1 10.5-4.5 1-16.7 5.5-20.7 8m40.3-11.8c-4.8.3-13.5 2.2-16.6 3.1-.8-2.1-3-8.6-3.7-10.6 8.9-2.5 19.1-3.3 27.1-2.7-2.3 1.6-6 8.2-6.8 10.2m23.9-.3c-8-.6-14.5-.8-20.2-.2 1.7-4.1 4.9-8.1 7.5-9.7 5.4.2 11 1 15.6 1.9 14.3 2.9 36.4 11.5 46 24.3-12.8-8.6-34-15.3-48.9-16.3m72.3 152.9c1.4-2.5 2.5-3.9 1.3-4.6-1.1-.6-2.1 1.8-3.4 3.9-4.3 7.5-9 13.7-19.6 23.3-11.7 10.7-25.3 16.9-30 18.5-4-11.2-19.3-59.2-19.7-60.6-.6-2.1-1.1-2.7-1.8-2.4-.8.3-.3 1.4.1 3.2.4 1.8 18.6 58.5 19.2 60.6-3.6 1.8-18.2 5.9-28.5 6.2-9.2.3-19.8 0-25.2-1.3-6.3-5.1-20.8-25.5-26.2-36.3-6.5-12.8-10.7-24.5-11.8-29.5-.5-2.4-1.2-4.1-2.4-3.8-1.3.3-.6 2.2.2 4.7 2 6.6 5.1 15.9 11.8 29.2 7.1 14.1 19.8 30.5 23.5 35.1-11.6-2.5-25.7-7.9-39.1-17.8-11.5-8.6-21.5-19.6-26.5-27.6-.9-1.4-1.9-3.3-3.1-2.5-.6.4.1 2 1 3.4 7.3 13 24.9 31.4 47.6 41.6 26.4 11.8 55.1 11.1 81 1.2 22.4-8.9 41.9-26.8 51.6-44.5" style="fill:#0b1a23"/><path class="st3" d="M242.7 213c-9.8 11.9-15.4 16-25.3 16-3.3 0-5.1-.8-4.2-2.4l11.8-23.7h4.5c5 0 4.3 4.2 3 9.9-.3.8.4.9 1 .2l11.2-19.7c.6-1.3-.9-1.5-1.6-.6-5.6 7.7-11.5 7.1-14.1 7.1h-2.1l12.6-24.1h5.1c6.4.4 9.4 5.8 7.6 18.9h2.7l9.3-18.3c.8-1.6-.9-3-2.6-3h-62.9c-3.6 0-3.8 2.8-.3 2.8 2.9 0 2.7 4 .1 6l-26.7 21.2 5.4 25c.4 1.9 1.6 2.8 3.7 2.8H233c2.2 0 3.1-.9 3.7-1.8l9.5-16.2c1.1-2.3-1.9-2.1-3.5-.1m-36.4-11.5h-4.6c-.3 0-.6.3-.6.6s.3.6.6.6h4.6c1.6 0 3.1.2 2.7.9l-12 22.8c-1.5 2.8-4.6 2.1-5.1-.1l-6-30.8 21-16.2c2.1-1.8 6.1-4.7 8.2-4.6h4.5c2.8 0 3.7 1.3 3.2 3l-.8 1.6c-.5.9-2.2 1-3.5 1h-2.7c-.3 0-.6.3-.6.6s.3.6.6.6h2.6c1.1 0 2.6 0 2 .9l-9.7 18.5c-.6.5-2.6.6-4.4.6"/><path class="st3" d="M163.2 228.4c-1.4 0-2.4-1-2.7-2-.5-1.4-.4-3.7.1-4.7l24.3-43c.4-.8 1.4-2.5 2.6-2.5 2.2 0 3.1-2.9-.6-2.9h-19.4c-3.6 0-3.6 2.8-.2 2.8 1.4 0 2 1.4 1.6 2.3l-5.4 9.7c-.7 1.1-2.2 1.2-3.7 1.2h-4.6c-.3 0-.6.3-.6.6s.3.6.6.6h4.6c1.3 0 2.3.4 1.5 1.9l-17.9 32.7c-1.3 1.8-3.8 2.2-3.7-1.3l6.4-47.9c.3-1.5-.1-2.5-1.8-2.5h-9.7c-1.2 0-1.9.6-2.4 1.3l-3.4 4.3c-.5.5-1.4.5-2.5.5h-8.1c-.3 0-.6.3-.6.6s.3.6.6.6h6.6c1.2 0 2.6.3 2.1.8l-9.3 11.6c-.3.3-1.2.4-1.8.4h-2.7c-.3 0-.6.3-.6.6s.3.6.6.6h2.2c.7 0 .7.3.4.6l-8.7 10.9c-.5.4-1.3.5-2.2.5h-7.7c-.3 0-.6.3-.6.6s.3.6.6.6h6.6c1 0 1.8.2 1.3.9l-12.3 15.5c-2.4 3-13.5 4.4-15.7 4.4l41.8-78.2c.4-.9 2-2.3 3.5-2.3h8.9c4.1 0 4-2.8.4-2.8H87.2c-3.6 0-3.7 2.8.4 2.8h8.3c2.4 0 3.1 1.4 2.5 2.6l-1.2 2.2c-.4.7-1 1-3.2 1H79.3c-.3 0-.6.3-.6.6s.3.6.6.6h14.6c.8 0 2 .2 1.3 1.7l-2.1 3.8c-.4.6-1.3.9-2.3.9h-6.6c-.3 0-.6.3-.6.6s.3.6.6.6h6.6c1 0 1 .6.4 1.5l-4.7 8.8c-.4.8-1.2.9-2.7.9h-2.7c-.3 0-.6.3-.6.6s.3.6.6.6h2.7c1 0 1.3.6.8 1.5l-3.8 7.2c-.6 1-1.4 1.5-3.9 1.5H62.3c-.3 0-.6.3-.6.6s.3.6.6.6h14.6c1.7 0 2.3.8 1.6 2L71 202.8c-.5.6-1.7.7-3.7.7H52.6c-.3 0-.6.3-.6.6s.3.6.6.6h14.5c1.8 0 2.9.1 2.3 1l-4.3 8.2c-.8 1.3-3.1 1.3-3.9 1.3h-4.6c-.3 0-.6.3-.6.6s.3.6.6.6h4.6c1.6 0 2.5.3 2.1 1.2l-5.8 10.9c-.5 1-2.8 1-4.5 1H30.3c-.3 0-.6.3-.6.6s.3.6.6.6h22.6c1.5 0 3.3.2 2.7 1.4l-3.7 7c-.4.6-1.6.6-3.4.6h-4.6c-.3 0-.6.3-.6.6s.3.6.6.6h4.6c1.1 0 2.5.1 2 1l-2.3 4.4c-.8 1.1-1.5 2.1-3.2 2.1H33.3c-4.1 0-4 2.8-.4 2.8h66.5c2 0 2-.3 3-1.7l9.8-17.2h50.4c3.7-1 2.7-3.8.6-3.9m-39.6-5.1c-.5 2.9-3.3 4.7-6.9 5.6l-3.7.9 3.1-5.5c.8-1.5-1-2.4-2.9-.2-12.9 15-16.9 22.2-36.8 22.3H71c-1.6 0-3.3-.6-2.3-2.2l7-13.1h26.7c3.6 0 2.7-2.8.6-2.9-1.4 0-3-.9-4-2.6-.3-.5-1-2.4.1-3.8l10.2-13.6h16.8l-2.5 15.1zm3.9-17.1H111l21-27.7-4.5 27.7zm252.1 8.5c-.3-1.4-.8-.5-1.7 1.2-.3.5-1.2.5-2 .5h-2.7c-.3 0-.6.3-.6.6s.3.6.6.6h2.7c1 0 1 .7.6 1.7-1.9 3.9-3.7 6.5-6.2 9.7-.4.5-1.4.9-2.2.9h-2.7c-.3 0-.6.3-.6.6s.3.6.6.6h2.7c1.3 0 0 .8-.2 1.1-4.6 6.2-7.9 9-11.2 11.7-.4.3-2.4.2-3.6.2h-2.7c-.3 0-.6.3-.6.6s.3.6.6.6h2.6c2 0 .5 1.2.2 1.4-7.3 6-18 8-22.9 7.4-16.1-2-19.3-14.2-20.5-19-.3-1-1-3.1-1.3-4.4-.5-2.6 6.7-3.2 8.8-2 3.1 2.1 10 4.1 15.7 4.1 5.1 0 15.7-3.7 18.7-12.5 3.2-9.1-4.7-19-8.2-22.6-4.4-4.4-8.6-11.4-6.8-16.6 1.3-3.8 3.5-5.6 8.3-5.6 6.1 0 10.6 3.9 10.6 9.6 0 .5-.3 1.1-.7 1.1h-2.2c-.3 0-.6.3-.6.6s.3.6.6.6h2.1c.6 0 .9.4.8 1.2-.4 1.9-.5 3.2-1 5-.2 1.1 1.4 1.9 1.9 1.1l9.7-17.2c.7-1.3-.9-1.7-2-1.3-2.7.9-6.9 1.6-8.5.5-3.6-2.6-6.9-4.2-11.9-4.2-8.6 0-14.6 2.1-18.4 9.2-.3.6-1.2.5-1.9.5h-1.7c-.3 0-.6.3-.6.6s.3.6.6.6h1.4c.6 0 1 .2.7.9-.3.6-.5 1.3-.7 2-1 3.1-.7 7.3.9 11.1.1.3-.2.4-.8.4h-2.7c-.3 0-.6.3-.6.6s.3.6.6.6h2.7c1.2 0 1.5.1 2 .8 1.4 1.9 2.8 3.3 4.4 5.5.6.7-1.8.9-3.1.9h-10.3c-.3 0-.6.3-.6.6s.3.6.6.6h10.5c1.7 0 4.6 0 4.9.3 2.6 3 5.6 7.5 6.1 11.2.1 1.1-.3 1.6-1.6 1.6h-1.4c-.3 0-.6.3-.6.6s.3.6.6.6h1.3c1.1 0 1.7.2 1.4 1-1.4 4.3-3.4 7.5-11.7 7.5-8.8 0-10.5-8.6-8-17.5.5-1.8 0-2.6-.8-1.2l-6.1 9.6c-.2.2-.7.8-1.7.8h-.9c-.3 0-.6.3-.6.6s.3.6.6.6c.8 0 1.1.4.8.8l-2.3 3.4c-3.6-8.4-9.8-18.7-13.1-22.5l.1-.2c8.1-.5 20-8.1 22-14.9 3.3-11.7-8.1-16.1-14.3-16.1h-27.4c-3.6 0-3.9 2.8-.4 2.8 1.9 0 3.5 1.7 2.7 3.3l-6.1 10.9c-.5.9-2.4.9-4.8.9h-2.7c-.3 0-.6.3-.6.6s.3.6.6.6h2.6c1.8 0 3.6.1 3.1 1.4l-7.2 12.9c-.4.6-1.3.7-3.7.7h-2.7c-.3 0-.6.3-.6.6s.3.6.6.6h2.6c2 0 2.7.3 2.1 1.3l-9.6 17.3c-1.2 1.3-2.5 1.5-4.8 1.5-3.4 0-3.4 2.8.2 2.8h23.4c3.6 0 2.8-2.9.6-2.9-1.3 0-2.6-2.4-1.8-3.7l11.9-22.7h1.2c5.3 0 6.6 8.8 7.6 18.2.1.7-1.2.7-3.8.7h-6.7c-.3 0-.6.3-.6.6s.3.6.6.6h6.6c1.8 0 4.1 0 4.2.6.5 4.1.8 7.9 1.6 11.2.3 1.1-1.6.9-3.6.9H278c-.3 0-.6.3-.6.6s.3.6.6.6h8.5c2.7 0 4 0 4.1.5 3.6 13.4 19.3 23.9 34.5 23.3 13-.5 24-7.6 29.6-12.1 7.5-6 18.5-18.6 23-27.8.8-2 2.2-4.2 1.9-5.7m-87.8-17.8c-1.9 1.5-4.7 3.2-5.2 2.7-.8-.8-3.2-2.5-4.5-3.1l10.8-19.8c.5-.7 1-1.1 2.2-1.1 4.2 0 5.6 4.6 3.6 10.3-1.4 4-3.6 8.4-6.9 11"/><path class="st3" d="M160 155.7c-2.2 2.9-5.1 3.5-8.4 3.5h-.9l5.8-11.4c.3-.5.9-.9 1.7-.9.7 0 .6-1.5-.3-1.5h-9.1c-.8 0-1.1 1.5-.3 1.5s.9.9.6 1.6l-5.1 10.1c-.4.6-.9.7-1.6.9-.8.2-1.3 1.6-.4 1.6h14.5c1.1 0 1.4-.4 1.7-.8l3-4.5c0-.5-.8-.6-1.2-.1m144.2-5.8 1.3-2.4c.6-1-.4-2.2-1.8-2.2h-16.9c-1.2 0-.9 1.3-.4 1.3 1.1 0 1.4 1.3.8 2.5l-5.1 9.4c-.8.9-1.3 1.3-2.4 1.3-.9 0-1.2 1.3 0 1.3h17.1c.7 0 1-.3 1.3-.6l2.4-3.1c.6-.8-.7-.8-1-.4-3 3-6.1 2.9-8.5 2.9h-2l2.4-5.2h.5c1.5 0 3.2 0 3.7 1.2.1.3.9.5 1.2 0l2-4c.3-.6-.6-.7-.8-.3-.8 1.4-4.2 1-5.2 1h-.5l3-5.8h3.2c2.1 0 3.7 1.5 4.3 3 .2.3 1.2.6 1.4.1m63.4-4c-.4.2-1.5.4-2 0-1.2-1-3.4-1.7-4.6-1.7-3.4 0-5.9.7-7.4 3.9-1.3 2.8 0 5 3.1 6.5 1.3.6 3.1 1.4 2.4 3-.5 1.2-1.9 1.3-3.1 1.3-1.6 0-4-1.2-4.4-3.5-.1-.8-1-.6-1.3-.2l-2.1 4.1c-.3.6.5 1.2.9.8.7-.8 2.3-.9 3-.4 1 .7 3.6 1.9 5.2 1.9 3.4 0 5.7-.9 7.7-3.8 1.8-2.8.7-5.4-2.5-6.9-1.7-.8-3.1-2.2-2.4-3.7.5-1 2-.8 2.8-.7 1.4.2 3.2 1.6 3.4 2.8.1.5.7.6 1 .1l1.1-2.6c.2-.7-.6-1.1-.8-.9m-45.4 9.8c-2.2 2.9-5.1 3.5-8.4 3.5h-.9l5.8-11.4c.3-.5.9-.9 1.7-.9.7 0 .6-1.5-.3-1.5H311c-.8 0-1.1 1.5-.3 1.5s.9.9.6 1.6l-5.1 10.1c-.4.6-.9.7-1.6.9-.8.2-1.3 1.6-.4 1.6h14.5c1.1 0 1.4-.4 1.7-.8l3-4.5c0-.5-.8-.6-1.2-.1m21.8-8.9c2.1 0 3.7 1.5 4.3 3 .1.4 1.2.7 1.5.2l1.3-2.4c.6-1-.4-2.2-1.8-2.2h-16.9c-1.2 0-.9 1.3-.4 1.3 1.1 0 1.4 1.3.8 2.5l-5.1 9.4c-.8.9-1.3 1.3-2.4 1.3-.9 0-1.2 1.3 0 1.3h17.1c.7 0 1-.3 1.3-.6l2.4-3.1c.6-.8-.7-.8-1-.4-3 3-6.1 2.9-8.5 2.9h-2l2.4-5.2h.5c1.5 0 3.2 0 3.7 1.1.1.3.9.5 1.2 0l2-4c.3-.6-.6-.7-.8-.3-.8 1.4-4.2 1-5.2 1h-.5l3-5.8h3.2zm-83.1-1.4h-6c-1.2 0-.9 1.3-.4 1.3 1.3 0 2.5 1.5 1.8 2.9l-2.5 4.5-5.5-8.1c-.4-.5-1.3-.8-2-.8h-5.9c-1.2 0-1 1.3-.4 1.3 1.3 0 .9 1 .6 1.6l-4.7 9.1c-.3.7-1.6.8-2-.1l-3.6-11.9c-.2-.5-2.3-.5-2.9 0l-9.2 7.6h-4.7c-1 0-1.3.4-1.3.9s.4 1 1.4 1h2.5l-2.5 2.1c-1.4 1-2.8 2.5-3.7 2.5h-.6c-.9 0-1.4.1-1.4.9 0 .7.4 1 1.2 1h7.4c1.4 0 1.1-1.8.4-1.8-.8 0-2.1-1-.9-2.4l2.3-2.2h4.4c2.7 0 4.4 3.1 3 4l-1.2.7c-.6.3-.8 1.7 0 1.7H239c1.1 0 .9-1.4.4-1.4-1.5 0-.8-2.2-.5-2.7l3.8-7.2 5.3 10.3c.4.7.7 1 1.3 1h2.1c.7 0 .9-.4 1.2-.9l6.1-10.9c1-2 1.8-2.6 3-2.6.1 0 .5-1.4-.8-1.4m-40.4 7.5 5.6-4.6v4.6h-5.6zm-45.1-8.1c-5.1 0-10.3 2.5-11.3 7.9-.9 4.6 2.3 9.5 8 9.5 5.4 0 10.3-3.5 11.4-8.7.9-5.2-3-8.7-8.1-8.7m1.4 9.8c-1.6 3.2-4.3 5.1-6 4.2-1.7-.9-1.8-4.1-.2-7.4 1.6-3.2 4.3-5.1 6-4.2 1.8.9 1.9 4.1.2 7.4m26.8-8.7c-.4.2-1.5.4-2 0-1.2-1-3.4-1.7-4.6-1.7-3.4 0-5.9.7-7.4 3.9-1.3 2.8 0 5 3.1 6.5 1.3.6 3.1 1.4 2.4 3-.5 1.2-1.9 1.3-3.1 1.3-1.6 0-4-1.2-4.4-3.5-.1-.8-1-.6-1.3-.2l-2.1 4.1c-.3.6.5 1.2.9.8.7-.8 2.2-.9 3-.4 1 .7 3.6 1.9 5.2 1.9 3.4 0 5.7-.9 7.7-3.8 1.8-2.8.7-5.4-2.5-6.9-1.7-.8-3.1-2.2-2.4-3.7.5-1 2-.8 2.8-.7 1.4.2 3.2 1.6 3.4 2.8.1.5.7.6 1 .1l1.1-2.6c.3-.7-.5-1.1-.8-.9m74.5 6.6h-6.5c-1.2 0-.9 1.3-.4 1.3s1 .3 1 1.1c0 2.7-1.1 3.6-3.3 3.6-2.5 0-3.3-3.1-1.7-6.7 1.1-2.4 3.9-4.5 7.3-4.5 2.1 0 3.7.5 4 2.4.1.5.8.5 1 0l1.6-2.8c.2-.3-.1-.7-.6-.7-.4 0-1.3.5-1.9.1-1.3-1-4.1-1.9-6.3-1.9-3.5 0-8.4.8-11.7 6.5-3 5.2 1.4 10.6 5.4 10.6 2.3 0 4.8-1.7 6.3-2.3l1.7 1.1c.3.3.8.7 1.3.7h.6c.6 0 .8-.8 1-1.3l2.6-6.2c.2-.5 0-1-1.4-1"/></svg>