<svg version="1.1" id="Layer_1" xmlns="http://www.w3.org/2000/svg" x="0" y="0" viewBox="0 0 400 400" style="enable-background:new 0 0 400 400" xml:space="preserve"><style>.st0{fill:#12173f}.st1{fill:#5d76a9}</style><path class="st0" d="M122.7 339.5c0-3.6-2.9-6.5-6.5-6.5H104v23h5.4v-7.2h5c1.6 0 2.9 1.3 2.9 2.9v4.2h5.4v-4.2c0-1.9-.6-3.6-1.7-5 1.2-1.2 1.9-2.8 1.9-4.7v-2.5h-.2zm-6.5-1.2c.6 0 1.2.5 1.2 1.2v2.6c0 .7-.6 1.4-1.4 1.4h-6.7v-5.1h6.9v-.1zM243.4 356h-19.1v-23h5.4v17.6h13.7zm53.1-17.7V333h-19.1v23h19.1v-5.4h-13.7v-3.7h11.8v-5.4h-11.8v-3.2zM175.9 356h-20.7l11.9-17.7h-10.6V333h20.6l-11.8 17.6h10.6zm33.3 0h-20.7l11.8-17.7h-10.6V333h20.7l-11.9 17.6h10.7zm47.5-23h5.4v23h-5.4zM137 333h5.4v23H137z"/><path class="st0" d="M137 333h5.4v23H137zm91.1-50.4h-19.6v42.1h9.7v-13.6h9.9c6.5 0 11.8-5.3 11.8-11.8v-5c0-6.4-5.3-11.7-11.8-11.7zm2.1 16.7c0 1.2-1 2.1-2.1 2.1h-9.9v-9.2h9.9c1.2 0 2.1 1 2.1 2.1v5z"/><path class="st1" d="M213.7 324.7h-.8V287H228c4.1 0 7.4 3.3 7.4 7.4v5c0 4.1-3.3 7.4-7.4 7.4h-14.3v17.9zm0-18.8H228c3.6 0 6.6-2.9 6.6-6.6v-5c0-3.6-2.9-6.6-6.6-6.6h-14.3v18.2z"/><path class="st0" d="M153.1 292.2v-9.6h-32v42.1h32V315h-22.3v-6.5h18.8v-9.7h-18.8v-6.6z"/><path class="st1" d="M153.1 287.8v-.8h-27.5v33.3h27.5v-.8h-26.7V304h23.2v-.8h-23.2v-15.4z"/><path class="st0" d="M191.5 282.6h-33.4v42.1h9.7v-32.4h8.1v32.4h9.7v-32.4h6c1.2 0 2.1 1 2.1 2.1v30.3h9.7v-30.3c-.1-6.5-5.4-11.8-11.9-11.8"/><path class="st1" d="M191.5 287h-29v37.7h.8v-36.8h17v36.9h.8v-36.9h10.4c3.6 0 6.6 2.9 6.6 6.6v30.3h.8v-30.3c0-4.2-3.4-7.5-7.4-7.5"/><path class="st0" d="M104.1 282.6H70.7v42.1h9.7v-32.4h8.1v32.4h9.7v-32.4h6c1.2 0 2.1 1 2.1 2.1v30.3h9.7v-30.3c-.1-6.5-5.4-11.8-11.9-11.8"/><path class="st1" d="M104.1 287h-29v37.7h.8v-36.8h17v36.9h.8v-36.9h10.4c3.6 0 6.6 2.9 6.6 6.6v30.3h.8v-30.3c0-4.2-3.3-7.5-7.4-7.5"/><path class="st0" d="M282.1 282.6h9.7v42.1h-9.7z"/><path class="st1" d="M286.5 282.6h.8v42.1h-.8z"/><path class="st0" d="M266.1 282.6v16.2h-12v-16.2h-9.7v42.1h9.7v-16.2h12v16.2h9.7v-42.1z"/><path class="st1" d="M270.5 282.6v20.6h-20.9v-20.6h-.8v42.1h.8V304h20.9v20.7h.9v-42.1z"/><path class="st0" d="M89.5 356H77.2c-3.6 0-6.5-2.9-6.5-6.5v-9.9c0-3.6 2.9-6.5 6.5-6.5h5.7c3.6 0 6.5 2.9 6.5 6.5v1.1H84v-1.1c0-.6-.5-1.2-1.2-1.2h-5.7c-.6 0-1.2.5-1.2 1.2v9.9c0 .6.5 1.2 1.2 1.2H84v-2.1h-3.2v-5.4h8.5V356h.2z"/><path class="st0" d="M89.5 356H77.2c-3.6 0-6.5-2.9-6.5-6.5v-9.9c0-3.6 2.9-6.5 6.5-6.5h5.7c3.6 0 6.5 2.9 6.5 6.5v1.1H84v-1.1c0-.6-.5-1.2-1.2-1.2h-5.7c-.6 0-1.2.5-1.2 1.2v9.9c0 .6.5 1.2 1.2 1.2H84v-2.1h-3.2v-5.4h8.5V356h.2zm233.1 0h-5.7c-3.6 0-6.5-2.9-6.5-6.5v-.8h5.4v.8c0 .6.5 1.2 1.2 1.2h5.7c.6 0 1.2-.5 1.2-1.2v-1l-9.9-2.6c-2.1-.6-3.5-2.5-3.5-4.7v-1.4c0-3.7 3-6.7 6.7-6.7h5.6c3.6 0 6.5 2.9 6.5 6.5v1.1h-5.4v-1.1c0-.6-.5-1.2-1.2-1.2h-5.6c-.7 0-1.3.6-1.3 1.3v1.1l9.9 2.6c2.1.6 3.5 2.5 3.5 4.7v1.3c0 3.7-3 6.6-6.6 6.6m-5.2-31.4h-19.9v-13.4h9.7v3.7h10.2c1.2 0 2.2-1 2.2-2.2v-1.9l-15.8-4.9c-3.7-1.2-6.3-4.6-6.3-8.5v-3c0-6.6 5.3-11.9 11.9-11.9h19.9v13.9h-9.7v-4.2h-10.2c-1.2 0-2.2 1-2.2 2.2v2.4l15.7 4.8c3.8 1.2 6.3 4.6 6.3 8.6v2.5c.1 6.6-5.2 11.9-11.8 11.9"/><path class="st1" d="M317.4 320.2H302v-9h.8v8.2h14.6c3.7 0 6.6-3 6.6-6.6v-2.5c0-1.6-1.1-3.1-2.6-3.6l-16.3-5c-1.9-.6-3.1-2.3-3.1-4.2v-3c0-4.1 3.3-7.5 7.5-7.5h15.4v9.5h-.8v-8.7h-14.6c-3.7 0-6.6 3-6.6 6.6v3c0 1.6 1 3 2.6 3.5l16.3 5c1.9.6 3.2 2.3 3.2 4.3v2.5c-.1 4.2-3.5 7.5-7.6 7.5"/><path d="M302.3 95.8c2.9-5.5 4.3-11 4.3-16.3 0-12-6.7-22.7-16.1-29.1-13.1-8.9-32.7-10.1-46.6 6.5-20.3-2.8-37.3 2.8-43.8 5.5-6.5-2.7-23.5-8.2-43.8-5.5-13.9-16.6-33.6-15.4-46.6-6.5-9.4 6.4-16.1 17.1-16.1 29.1 0 5.3 1.4 10.8 4.3 16.3-10.5 15.1-17.7 33.1-17.7 51.4 0 22 9.4 33.3 12.9 38.2l2.8-2.8c10 25.3 27 39 47.6 51.4 0 0 .5-2.5.9-4.7 22.2 19.2 32.7 14.5 55.7 40.5 22.9-25.9 33.8-21.5 55.7-40.5.4 2.2.9 4.7.9 4.7 9.2-5.5 35-19.4 47.6-51.4l2.8 2.8c2.2-3 12.9-15 12.9-38.2.1-18.3-7.2-36.2-17.7-51.4" style="fill:#707271"/><path class="st0" d="M296 96.2c21.1-32.4-26.8-66.2-50-33.5-23.5-4.2-43.2 4.4-45.9 5.6-2.6-1.2-22.4-9.8-45.9-5.6-23.2-32.7-71.1 1.1-50 33.5-24.1 33.1-21.6 65.7-10.5 81l4.6-4.6s6.6 31.9 41.2 52.8l1.2-6.9c21.3 22.8 40.8 22.3 59.3 43.1 18.4-20.8 37.9-20.3 59.3-43.1l1.2 6.9c34.7-20.9 41.2-52.8 41.2-52.8l4.6 4.6c11.4-15.4 13.8-48-10.3-81"/><path class="st1" d="M200.3 217.4s-16.7.3-19.1 1.8c0 0-2.9 5 19.1 4.9 20.9-.1 17.8-3.9 18-4.5 0 0-7.1-2.2-18-2.2m-14.4-19.3s2.6-7.5 5.4-5.1c3.8 3.3 8.9 10 8.9 10.7v9l-6.1.3c-3.5.1-14.7 2.8-14.7 2.8-15.5-38.3-6.9-67.4-2.8-77.7-15.3 3.3-17.8-15.1-17.8-15.1 1.6-.3 3.9.4 6.6 1.6 4.1 2 8.9 5.3 12.8 8.3 1.1.9 2.2 1.7 3.1 2.5 10.4 8.8 18.9 7 18.9 7v37.5c-.1 0-30.5-2.4-14.3 18.2m28.5 0c19.4-19.7-12.2-18.5-14.2-18.2 3.3.2 27.8.3 14.2 18.2"/><path class="st1" d="M227.3 138.6c17.4 47-4.7 77.2-4.8 77.4 13.7-35.9 4.9-65.8-1.1-76.9-3.1.3-6.8.1-6.8.1s4.6-2.9 7.6-5.6c.2-.2.4-.4.7-.6 2.5-2.2 7.3-6.1 13-8.4 2.1-.8 4.4-1.4 6.7-1.7.1 0-1.6 15.5-15.3 15.7"/><path class="st1" d="M254.9 77.8S262 60 283.8 64.3c0 0-20-13.2-33.9 10.6 0 0-20-9.4-49.8 3.5 0 0-28-9.8-49.3-4.3 0 0-12.4-21.5-29.9-12.7-17.5 8.9-8.4 29.4-5.3 34.7 0 0-29 29.5-18.1 66l5.8-7.3s8.3 39.7 29.8 52.3l1.3-9.8s22.4 27 48.8 38.5c2.5 1.2 16.5 8.1 16.9 11.5v-18.9s-18.3 1.5-23.1-6.9c-3.3-5.7-24.3-43.2-13.9-82.5 0 0-10.1-1.5-12-18.6 0 0-7.5-3.7-16.9-2.9 0 0 16.8-5.3 32.5.8s19.9 21.6 30.6 14.7l2.9-43.6 3.2 43.6c10.6 6.8 14.9-8.6 30.6-14.7 15.7-6.1 32.5-.8 32.5-.8s-6.7-4.7-17.5-6.9c-9-1.8-22.2 4-22.2 4s1.8-12.4 7.8-19c5.1-5.4 16.7-6.7 20.3-17.8zM119.4 92.9c-.6-5.9 6.9-11.8 6.9-11.8-3.1-3.2-8.5-.4-8.5-.4 4.9-9.6 15.9-4.9 15.9-4.9-4.2-5.1-13-4.8-13-4.8 10.9-10.8 24.1 5.7 24.1 5.7-11.8 2.6-25.4 16.2-25.4 16.2z"/><path d="M178.1 132.8c-1.7-.5-4.5 1.2-6 4.2-5.2-1.5-7-7.1-6.8-12.5 4.1 2 9 5.3 12.8 8.3m51.2 4.3c-1.6-3.2-4.6-4.9-6.3-4.1 2.5-2.2 7.3-6.1 13-8.4.3 5.4-1.6 11-6.7 12.5" style="fill:#fb2"/></svg>