<svg version="1.1" id="Layer_3" xmlns="http://www.w3.org/2000/svg" x="0" y="0" viewBox="0 0 400 400" style="enable-background:new 0 0 400 400" xml:space="preserve"><style>.st0{fill:#98002e}.st1{fill:#f9a01b}.st2{fill:none;stroke:#f9a01b;stroke-width:.174}</style><path d="M329.9 105.2C320 94.2 298 85.3 269.8 80c.1-3.2 2.1-4.6 5.6-7.1 1.8-1.3 3.9-2.7 6-4.7 9.1-8.7-1.6-21.9-2-22.5l-5.9-7.2 1.4 9.2c1 6.3-1.3 8.5-8.2 13.3-.9.6-1.6 1.3-2.3 2 .3-4.2.5-8.9-.9-14.7-1.4-5.9-4.3-8.2-4.3-8.2l-.7 8.5c0 .1-.7 6.7-9.5 14.6.8-.9 1.5-1.7 2.1-2.7 4.3-6.3 3.1-13.4 1.6-21.7l-.3-1.7c-1.5-8.6.8-14 2.3-14.9 1.4-1.8 4.3-4.7 4.3-4.7s-1.5-.7-5.8-.1c-5.5.8-14.8 4.1-14.5 11.6.1 3.3 1.2 6.5 2.1 9.2 1 3 2 5.8 1.1 7.2-.7 1.1-2.7 2.1-5.9 2.6-13 2.4-22.9 8.4-28 17.1-1.7 2.9-2.8 5.9-3.4 9.2-32.2.1-62.7 4.1-86.3 11.4-26.5 8.2-41.1 19.4-42.2 32.3-.6 6.8 2.5 16.6 19.5 26l-.1.1 4.8 2.3 2.5 1.2c7.8 3.5 17 6.5 27.3 9-3.7 2.1-7 4.4-10 7.1-16.5 13.5-26 33.6-26 55 0 19 7.4 36.9 20.9 50.4 13.5 13.5 31.3 20.9 50.4 20.9 33.7 0 63-23.9 69.7-56.8 5.7-17.2 5.1-35.6 4.8-42.6-.6-15.8 7.2-24.6 12.1-28.5 22.5-2.8 42.4-7.8 57.2-14.4l2.4-1.1 5.1-2.4-.1-.1c11.9-6.7 18.6-14.5 19.3-22.8.7-5.7-1.4-11.1-6-16.1M306.8 119c2 2.2 1.9 3.7 1.9 4.1-.2 2.6-3.4 5.7-8.8 8.5-11.3 5.9-30.8 10.4-53.9 12.8 1-.7 2.1-1.2 3.3-1.7l.4-.2c6.7-2.7 14.2-5.8 14.6-16.8.1-1.8.1-7.1 1.1-9 1.2-2.5 4.4-6.3 7.2-7.3l-4.7-.9h-.7c1.6-1.1 2.7-2.5 3.5-4 18.8 4 31.4 9.3 36.1 14.5m-203.2 2.7c.8-9.1 33.5-21.1 86.5-23-4.9 3.7-10.7 10.1-12.2 20.5l-.5 3.9c-.3 2.4-.8 4.9-1.7 7.3-2 5.3-7.8 9.8-13.9 13.1-21.3-2.7-39.1-7.2-49.5-12.8-5.9-3-9-6.3-8.7-9m36.8 217 9.1-37.1h-15.1l-9.1 37.1zm32.8-28 .9 15.2h-7.8l7.9 12.8h13.7l-2.1-37.1h-22.6s-18.5 37.1-18.4 37.1h14.5l13.9-28zm-34.8 62.1-3.1 12.7h14.1l9.1-37.1h-14.1l-3.4 14.4h-10.6l3.5-14.4h-14.1l-9.2 37.1h14.1l3.1-12.7zm33.7 4.3 1-5h17.4l2.2-8.2h-17.5l1.2-5.5h17.5l2.7-10h-31.8l-9.2 37.1h31.6l2.3-8.4zm90.5-38.4 9.1-37.1h-15l-9.1 37.1zm24.9-8.4c2 2.8 4.2 8.2-5.1 12.4-10.8 4.9 0 17.3-14.7 17.3h-6.1l-6.1 25.5h-15.1l6.1-25.5h-10.2l3.2-11.6h26.1c15.5 0 4.6-10.7 12.5-12.2 5.5-1 8.8-1.9 9.4-5.9m-188.1-9.6L97 301.6H78.5l-9.1 37.1h13.7l5-19.4h.1l2.7 19.4H99l11.2-19.4h.1l-4.4 19.4h12.9l9.1-37.1h-17.8l-10.6 19.1zm122.5 0-2.4-19.1h-18.6l-9.1 37.1h13.7l5-19.4h.1l2.8 19.4h8l11.2-19.4h.1l-4.4 19.4h12.9l9.2-37.1h-17.9L222 320.7zm-2.3 36.8.9 15.2h-7.8l7.9 12.8h13.7l-2.1-37.1h-22.6s-18.5 37.1-18.4 37.1h14.5l13.9-28z"/><path class="st0" d="M96.9 223.8c1.9 9.4 7.2 20.6 17.9 28.1 3.2 2.3 6.7 4.1 10.4 5.5-2.3-3.9-5-7.9-7.7-11.9-5.1-7.5-10.4-15.3-13.7-23.6-3.5-8.6-4.4-17.7-2.9-26.8-2.7 7.4-4.2 15.4-4.2 23.7 0 1.7.1 3.3.2 5"/><path class="st0" d="M108.4 220c3.2 7.9 8.3 15.4 13.2 22.7 3.8 5.6 7.6 11.1 10.4 16.7 3.1.7 6.4 1.2 9.7 1.4-3.4-4.9-6.4-10.4-8.9-16.8-9.9-24.6-8.5-54.9 3.8-72.5 6.3-9.1 13.9-15.2 23.6-20.5 8.4-4.6 13.6-5.9 19-9.1 5.8-3.5 8.9-9.2 5.1-22.2-1.1-3.8-1.3-6.8-1.1-9.1-1.3 2.6-2.4 5.5-2.8 9-.6 3.7-.9 7.7-2.4 11.8-5.1 13.4-30 20.9-33.2 21.9-9.4 2.9-17 7.2-22.9 12.4-17 15.1-20.1 37.8-13.5 54.3"/><path class="st0" d="M212 98.6c.3.8.4 1.7.6 2.5.6 4.7-.8 8.5-6.5 9.4-5.9 1-7.9-4.2-8.4-8.4 0-1.5.1-2.6.2-3.5-1 0-2 0-3 .1-1.9 1.1-4.4 2.8-6.8 5.2-1.2 2.5-2.6 6.1-.4 14.3 3.9 14.5 2.2 23.3-9.4 28.3-14.9 6.4-24.4 10.2-37.1 26.2-6.1 7.6-9.4 20.3-9.9 33-.5 12.4 2 25.6 6.4 36.4 2.9 7.2 6.3 13.5 10.3 18.9 4-.2 8-.7 12-1.6-4.4-5.2-7-11.5-7.4-18.6-1.5-23.6 11.2-33.5 30.7-49.1l8.7-7.3c34.9-29.6 24.7-59.7 28.5-85.5-2.8-.2-5.6-.2-8.5-.3"/><path class="st0" d="M226 99.1c-1.1 5.1-1.5 10.5-1.9 16-1.4 22.4-.7 47.8-29.1 73l-8.6 6.9c-19 15.2-29.8 24.7-29.1 45.4.2 6.8 3.1 12.8 7.9 17.5 5.3-1.6 10.6-3.8 15.6-6.7 24.7-14 40.2-34.9 46.1-61.8 3.8-17 3.7-30.8 3.6-41.9 0-5.6.7-16.6.7-16.6.8-6.9 1.9-16.7 10-29.4.3-.4.5-.8.8-1.2-5-.5-10.4-.9-16-1.2"/><path class="st0" d="M234.3 171.1c-.8 4.1-1 8.6-1.5 13.1-.2 1.7-.5 3.4-.7 5-.1.5-.2.9-.3 1.4-6.2 28.3-22.3 50.3-48.3 65-4.5 2.5-9 4.6-13.5 6.2 7.6 5 16.5 6.6 22.6 5.7 23.3-3.5 34.6-18.7 40.1-34.9 5.6-16.7 5-34.5 4.7-41.8-.9-24.6 18.1-33.7 18.1-33.7-14.7-.9-19.6 5.5-21.2 14"/><path class="st0" d="M218.8 261.9c-9.5 8-19.8 9.7-24.4 10.4-9.2 1.4-20-.8-29.6-8.3-.2-.1-.3-.3-.5-.4-4.1 1.1-8.2 1.8-12.3 2.2 9.4 10.1 21.8 15.8 38.3 16.9h.2c11.3-4.4 21.1-11.8 28.6-21.1l-.3.3m-86.7 16.9c.2-5.2-1.3-10.3-3.7-15.4-5.7-1.6-11.3-4.1-16.6-7.4-3-1.8-5.7-4.6-8.2-7.3 6.2 12.8 16.2 23.3 28.5 30.1zm47.5 7.1c-9.3-2.1-17.2-5.4-24.2-10.7-3.6-2.7-6.8-5.8-9.8-9.2-3.8 0-7.5-.4-11.2-1.1 2.1 5.3 3.1 10.7 2.4 16.4 8.7 4 18.3 6.2 28.5 6.2 4.9 0 9.7-.5 14.3-1.5.1-.1 0-.1 0-.1m79.8-168.7c-1.6 5.3-6.9 4.7-8.4 1.8-2.4-4.6-1.5-8.1 1-10.5 2.5-2.4 6.6-3.7 10.7-5.5h.1c-4.6-.8-9.6-1.5-14.8-2.1-.1.1-.1.2-.2.2-.5.5-.9 1.1-1.4 1.6-8.3 12.4-9.3 21.7-10.1 28.8l-.3 2.2c-.5 3.7-.4 8.4-.4 13.9v2.3c-.1 1.9-.1 3.8-.2 5.6h.1c.1-.8.1-1.1.1-.7 2.3-7.5 6.6-12 12.7-14.5 6.6-2.7 13-5.1 13.4-14.6.1-4 .4-8 1.3-10 1.7-3.7 4.6-4.7 4.6-4.7-3.2-.2-6.7 1.1-8.2 6.2"/><path class="st1" d="M267.3 79.5c.5-6.4 6.5-7.6 12.4-13.1 7.5-7.1-2.3-19-2.3-19 1.2 8-2.5 11-9.2 15.8-2.1 1.5-3.7 3.6-3.9 6.3-.2 3-.4 6.2-1.1 9.4 1.4.1 2.8.3 4.1.6"/><path class="st2" d="M267.3 79.5c.5-6.4 6.5-7.6 12.4-13.1 7.5-7.1-2.3-19-2.3-19 1.2 8-2.5 11-9.2 15.8-2.1 1.5-3.7 3.6-3.9 6.3-.2 3-.4 6.2-1.1 9.4 1.4.1 2.8.3 4.1.6z"/><path class="st1" d="M246.7 68.4c-1.8 1.3-3.5 2.7-5.1 4.1-1.1 1.1-2.2 2.1-3.2 3.2 6.6.6 13 1.3 19.2 2.2 3.9-7.2 5.8-15.3 3.5-29.2-.1 0-.6 9.4-14.4 19.7"/><path class="st2" d="M246.7 68.4c-1.8 1.3-3.5 2.7-5.1 4.1-1.1 1.1-2.2 2.1-3.2 3.2 6.6.6 13 1.3 19.2 2.2 3.9-7.2 5.8-15.3 3.5-29.2-.1 0-.6 9.4-14.4 19.7z"/><path class="st1" d="M209.8 74.3c7.5.1 14.9.4 22.2.9l.7-.7c4.8-5.2 12.3-9.6 16.3-15.4 4-5.8 2.4-12.9.9-21.6-2.6-14.9 3.7-17.6 3.7-17.6s-12.6 1.7-12.3 9c.3 9.8 10.4 18.9-4.8 21.7-16.6 3-27 12-29.2 23.8.9-.1 1.7-.1 2.5-.1"/><path class="st2" d="M209.8 74.3c7.5.1 14.9.4 22.2.9l.7-.7c4.8-5.2 12.3-9.6 16.3-15.4 4-5.8 2.4-12.9.9-21.6-2.6-14.9 3.7-17.6 3.7-17.6s-12.6 1.7-12.3 9c.3 9.8 10.4 18.9-4.8 21.7-16.6 3-27 12-29.2 23.8.9-.1 1.7-.1 2.5-.1z"/><path d="M209.8 78.2C140.1 77.5 82 95.5 80 118.3c-.8 9.1 7.4 17.6 22 24.6 9 4.3 20.4 8 33.7 11 2.7-1.2 5.4-2.2 8.3-3.1 2.3-.7 6.6-2.1 11.3-4.1-19.5-2.8-35.3-7.2-45-12.5-7.2-3.9-11-8.2-10.6-12.8 1.4-15.4 50.1-27.3 108.9-26.7 58.8.6 105.4 13.5 104 28.8-.4 4.2-4.3 8.1-10.9 11.6-12.3 6.5-34 11.4-60.3 13.7-.9 1.2-1.7 2.6-2.4 4.2 12-4.5 25.8 2.2 25.8 2.2s.9.4 1.6.8c17.5-3.1 32.5-7.6 43.8-12.9 13.3-6.3 21.4-14 22.1-22.2 1.9-22.9-52.9-42-122.5-42.7" style="fill:#fff"/><g id="Layer_2"/></svg>