<svg xmlns="http://www.w3.org/2000/svg" viewBox="0 0 400 400" style="enable-background:new 0 0 400 400" xml:space="preserve"><path d="M201 372.6c-80.4 0-145.8-65.4-145.8-145.8 0-39.3 15.5-76.2 43.6-103.9.2-.2.5-.4.7-.6-9.7-14.6-15.1-31.7-11-52.4 7.6-38.1 38.4-49.6 39.7-50.1.5-.2 1-.3 1.5-.3 1.6 0 3.2.9 4 2.4.5.9.6 2 .4 3 10.1-8.5 19.7-12.2 23.7-13.5.5-.1.9-.2 1.4-.2 1.7 0 3.4 1 4.1 2.6.9 2.1.2 4.5-1.8 5.7-9.2 5.5-17.2 13.1-23.2 21.7 7.3-1.7 12.1-1.9 13.8-1.9h.9c2.2.1 4 1.9 4.2 4.1.2 2.2-1.2 4.2-3.4 4.8-.1 0-12.2 3.1-25.5 12.6-2.5 7.7-3.8 15.7-3.8 23.8 0 15.4 4.9 31.3 13.5 43.4 2 2.8 3.9 5.3 6 7.5-.8-15.9 3.9-40.5 32.5-51.9.5-.2 1.1-.3 1.7-.3 1.7 0 3.2.9 4 2.5 1.1 2.1.3 4.6-1.7 5.9l-.2.1c-4.3 2.8-8 6.4-10.8 10.6 3-.9 5.6-1.2 7.3-1.4h.8c1.9 0 3.6 1.2 4.2 3 .7 2-.1 4.2-1.8 5.3l-.3.2c-9.1 5.3-14.2 11.4-15.1 18.2-1 7.4 3.1 14.4 6 18.4 7.7-8.9 12.6-24 14-29.7.5-2 2.3-3.4 4.4-3.4h.5c2.3.3 4 2.2 4 4.4.1 18.7-4.9 31.5-10 39.6 7.7 3.8 15.1 4.1 16.8 4.1h1c1.6 0 9.1-.2 16.8-4.1-5.1-8.2-10.1-21-10-39.6 0-2.3 1.7-4.2 4-4.4h.5c2 0 3.9 1.4 4.4 3.4 1.4 5.7 6.4 20.8 14 29.7 3-4 7-11 6-18.4-.9-6.8-6-13-15.1-18.2-.1 0-.3-.2-.3-.2-1.8-1.1-2.6-3.4-1.9-5.3.6-1.8 2.3-3 4.2-3h.8c1.8.2 4.3.5 7.3 1.4-2.8-4.2-6.5-7.8-10.8-10.6l-.2-.1c-2-1.2-2.7-3.8-1.7-5.9.8-1.6 2.4-2.5 4-2.5.6 0 1.1.1 1.7.3 28.5 11.4 33.2 36 32.5 51.9 2.1-2.2 4-4.7 6-7.5 8.6-12.2 13.5-28 13.5-43.4 0-8.1-1.3-16.1-3.8-23.8-13.4-9.6-25.3-12.6-25.5-12.6-2.2-.5-3.6-2.6-3.4-4.8.2-2.2 2-4 4.2-4.1h.9c1.7 0 6.6.2 13.8 1.9-6.1-8.7-14.1-16.2-23.2-21.7-2-1.2-2.7-3.6-1.8-5.7.7-1.6 2.4-2.6 4.1-2.6.5 0 .9.1 1.4.2 4 1.3 13.6 5 23.7 13.5-.2-1-.1-2 .5-3 .8-1.5 2.3-2.4 4-2.4.5 0 1 .1 1.5.3 1.3.5 32.1 12 39.7 50.1 4.1 20.7-1.3 37.8-11 52.4.3.2.5.4.7.6 28.1 27.7 43.6 64.6 43.6 103.9.4 80.4-65 145.8-145.4 145.8z" style="fill:#eee1c6"/><path d="m300.1 126.1-3.1 3.8c25 24.7 40.4 59 40.4 96.9 0 75.3-61.1 136.4-136.4 136.4-75.3 0-136.4-61.1-136.4-136.4 0-37.9 15.5-72.2 40.4-96.9l-3.1-3.8c-26 25.7-42.2 61.3-42.2 100.7 0 77.9 63.4 141.3 141.3 141.3s141.3-63.4 141.3-141.3c0-39.4-16.1-75-42.2-100.7zm-188 10.6c-22.9 22.9-37.6 55.3-37.6 90.1 0 8.1.8 15.9 2.2 23.6l38.1-10.3c6.3 41.6 42.3 73.5 85.6 73.5 43.5 0 79.5-32.2 85.7-74l39.1 10.8c1.4-7.6 2.2-15.5 2.2-23.6 0-34.9-14.5-66.8-37.4-89.7l3.4-3.6c24.1 23.8 39 56.8 39 93.3 0 72.5-59 131.4-131.4 131.4-72.5 0-131.4-59-131.4-131.4 0-36.5 15-69.6 39.1-93.5l3.4 3.4zM92.9 70.9c7.2-36 36.8-46.7 36.8-46.7-10.8 8-21.9 23.1-26.5 44.2 4.5-5.5 8.6-9.7 13.4-13 12-25.9 32.5-36.4 42.6-39.6-13 7.9-23.9 19.6-30.6 33.1 15.1-5.4 24.2-4.9 24.2-4.9s-13.5 3.3-28.2 14.2c-2.9 8.3-4.5 17.3-4.5 26.6 0 16.4 5.3 33.2 14.4 46 5.1 7.2 10.1 12.2 16.2 16.8-2-5.1-9.8-44.6 27.6-59.6l-.3.2c-8.8 5.7-15.3 14.6-18 25.1 6.8-6.5 14-7.2 17.8-7.7-.1 0-.1.1-.2.1-34.7 20-7.1 47.1-7.1 47.1 10.9-9.2 17.3-29.7 18.7-35.3.1 21.7-7.1 34.7-12 41 11.2 7.7 23.7 7.2 23.7 7.2s12.5.5 23.7-7.2c-4.9-6.3-12.1-19.3-12-41 1.4 5.6 7.8 26.1 18.7 35.3 0 0 27.6-27.1-7.1-47.1-.1 0-.1-.1-.2-.1 3.8.5 11 1.1 17.8 7.7a41.65 41.65 0 0 0-18-25.1l-.3-.2c37.4 15 29.6 54.5 27.6 59.6 6.1-4.6 11.1-9.6 16.2-16.8 9.1-12.9 14.4-29.7 14.4-46 0-9.3-1.6-18.2-4.5-26.6C262.5 47.3 249 44 249 44s9.1-.5 24.2 4.9c-6.6-13.5-17.5-25.2-30.6-33.1 10.1 3.2 30.5 13.7 42.6 39.6 4.9 3.3 9 7.5 13.4 13-4.6-21.2-15.6-36.2-26.5-44.2 0 0 29.6 10.7 36.8 46.7 8.4 41.9-25.1 68.1-52.2 90.6l20.6-8.4c1.4-.6 2.4.8 2.1 2.4l-.6 5.1c-.3 2.8-2.4 17-10.2 21.3-1.7.9-4.6 2-13.1 2.6l-15.5 1 2.6 8.7-15.2 24.3 7.8-8.2 15.9 56.5-43.6 35.9 13.6-61.7-20.1 24.7-20.3-24.7 13.6 61.7-43.6-35.9 15.9-56.5 7.8 8.2-15.2-24.3 2.6-8.7-15.5-1c-8.6-.6-11.5-1.7-13.1-2.6-7.8-4.3-9.9-18.5-10.2-21.3l-.6-5.1c-.3-1.6.7-3 2.1-2.4l20.6 8.4C118 139 84.5 112.8 92.9 70.9zM288.3 116s17.1-27 5.4-42.1c-1.2-1.5-2.5-3-3.8-4.3 4.9 17.2-1.6 46.4-1.6 46.4zm-174.6 0s-6.4-29.2-1.7-46.4c-1.3 1.4-2.6 2.8-3.8 4.3-11.6 15.1 5.5 42.1 5.5 42.1z" style="fill:#00471b"/><path d="m156.1 311.3.9-1.4.1-.1-13-8.3-.1.1-16.4 25.7 4 2.5 7.2-11.3 5 3.2-7.2 11.3 4 2.5 13.9-21.7 1.6-2.5zm-9.7 6.4-5-3.2 4-6.3 5 3.2-4 6.3zm-4.7-17.9-23.4 19.9-3.2-3.2 5.7-8.5-8.4 5.8-3.2-3.2 19.6-23.7 3.2 3.1-7.9 10 10.8-7.2 1.1 1.1-7.1 10.9 9.9-8.1 2.9 3.1zm-23.1-28.4-27.2 14.2-2.2-4.2 27.2-14.2 2.2 4.2zm-4.2-8.2-29 10-1.5-4.5 18.2-6.3-8.4-.3 6.5-5.4-18.3 6.3-1.5-4.5 29-10 1.5 4.5-6.5 5.4 8.4.3 1.6 4.5zm-11.8 31.2 5.8 8.2-4 2.9-8.6-12 24.9-17.9 2.8 3.9-20.9 14.9zm71.3 22.4-11 28.5-3.1-1.2-8.2-3.1-3.3-1.3 11.1-28.4 4.4 1.7-9.2 23.9 5.6 2.1 9.2-23.9 4.5 1.7zm125.8-20.6 2.7 2.1-7.5 9.4-2.1 2.6-21.1-16.9-2.7-2.2 9.6-12 2.7 2.2 4.6 3.6-2.9 3.7-3.4-2.7-3.7 4.7 16.2 12.9 3.7-4.7-3.5-2.8 2.9-3.7 4.5 3.8zm-5.1-21 19.5 2.6-2.3 4.4-14.2-1.8 11.8 6.3-2.2 4.2-27.1-14.4 2.2-4.2 7.5 4-5.6-7.6 2.4-4.4 8 10.9zm27.1-18.8-4.4 14.8-3.3-1-4.9-1.5 1.4-4.5 3.5 1.1 1.7-5.7-8.1-2.4-3.1 10.2-3.3-1-13.1-3.9 1-3.2 3.5-11.5 3.3 1 4.8 1.5-1.4 4.5-3.5-1-1.7 5.7 7 2.1 3.1-10.2 3.3 1 10.9 3.3 3.3.7zM266.4 294l19.7 23.3-2.5 2.1-6.7 5.6-2.7 2.3-19.5-23.5 3.6-3.1 16.5 19.6 4.6-3.8-16.7-19.5 3.7-3zm-34.9 48.4.9 4.8-14.5 2.8-5.9-29.9 14.5-2.8.9 4.8-9.8 1.9 1.4 7.2 9.8-1.9.9 4.7-9.8 1.9 1.7 8.4 9.9-1.9zm-22.4 3.6.1 4.9-14.7.2-.5-30.5 14.7-.2.1 4.9-10 .2.1 7.4 10-.2.1 4.8-10 .2.1 8.6 10-.3zm48-25.6.5-3-4.7-8.6-4.4-1.2-10.6 5.7 14.5 26.8 10.6-5.7 1.3-4.5-4.5-8.3-2.7-1.2zm-12.7-5 5.3-2.8 3.5 6.5-5.3 2.8-3.5-6.5zm9.8 18.2-4.1-7.5 5.3-2.8 4.1 7.5-5.3 2.8zM190.9 320l-7.9 11 3.6 19.3-4.9-.9-2.7-14-2.3 13.2-4.7-.8 5.3-30.2 4.7.8-1.5 8.4 5.5-7.7 4.9.9zm-4.1-135.5c-2.2-1-6.4-2.9-10.5-4.8-.8-.4-1.8.1-1.9 1-.3 1.8-.3 4.6 2.2 6.5 4.6 3.6 8.6 1.6 10.7-.5.6-.7.4-1.8-.5-2.2zm-57.1-24.1s1.5 12.7 6.8 15.6c3.6 2 12.3 1.8 20 2.4-8.5-3.3-21-12.3-26.8-18zm62.5 75.7 4.2 5.7h9.2l4.2-5.7zm80.1-75.7c-5.9 5.7-18.3 14.7-26.8 18 7.6-.6 16.4-.4 20-2.4 5.3-2.9 6.8-15.6 6.8-15.6zm-62.5 42.3-4.1-13.4-4.7 2.3-4.7-2.3-4.1 13.4s-1.4 5.3-7.2 9l-2.5 11 6.1 8.3h6.5l-6-8.9 1-5.5c2.7 2.9 6.6 4.8 10.9 4.8 4.3 0 8.2-1.8 10.9-4.8l1 5.5-6 8.9h6.5l6.1-8.3-2.5-11c-5.8-3.7-7.2-9-7.2-9zm15.9-23.1c-4.2 1.9-8.3 3.8-10.5 4.8-.9.4-1.1 1.6-.4 2.2 2.1 2.1 6 4.1 10.7.5 2.5-1.9 2.5-4.7 2.2-6.5-.2-.8-1.2-1.4-2-1z" style="fill:#fff"/></svg>