<svg version="1.1" id="Layer_2" xmlns="http://www.w3.org/2000/svg" x="0" y="0" viewBox="0 0 400 400" style="enable-background:new 0 0 400 400" xml:space="preserve"><style>.st0{fill:#a0a1a2}.st2{fill:#276092}.st3{fill:#77bc1f}.st4{fill:#fff}</style><path class="st0" d="m343.2 155.3-1.5-4.5C320.8 90.5 263.9 50 200 50c-16.7 0-33.3 2.8-49.2 8.3C72.7 85.5 31.2 171.1 58.3 249.2 79.3 309.5 136.2 350 200 350c16.7 0 33.3-2.8 49.2-8.3 76.6-26.6 118-109.5 94-186.4"/><path d="M200 344.8c-61.5 0-116.5-39.1-136.7-97.3-26.2-75.3 13.9-158 89.3-184.1 15.4-5.3 31.3-8 47.4-8 61.6 0 116.5 39 136.7 97.3l.7 2c24.8 74.8-15.2 156.3-89.9 182.2-15.4 5.2-31.3 7.9-47.5 7.9" style="fill:#0d2240"/><path class="st2" d="M215 135.1c-.8-.1-1.7-.1-2.7-.2-5.3-.4-13.7-1-23.8-4.5-2.1 2.2-3.7 4.7-5 6.7 2.6 2.7 7.5 7.8 10 10.6 4.2 2.5 8.5 5.3 12.7 8.3 6.7-7.5 12.7-13.7 18.5-19.8-2.9-.4-5.8-.7-8.9-1l-.8-.1zM152.2 160c-11.2 15.7-19.1 36.2-19.8 60.7 11.9-13.1 21.7-25.3 28.4-31.7 4.7-4.5 9.3-7.5 13.6-9.6-4.5-10.3-10.3-18.6-18.3-22.6-1.4 1-2.8 2.1-3.9 3.2m31.7-38.2c6.6-2.7 13.8-5.5 20.8-7.7 8.8-3.2 16.6-4.9 22.6-5.9-.2 0-.3-.1-.5-.2-4.3-1.2-8.7-2.2-13-2.8-11.8-1.8-23.7-1.2-34.9 1.3-.7 2.1-1.5 6.2-.1 9.9 1 2.2 2.7 4 5.1 5.4m-13.8 27c-2.6 1.2-5.5 2.7-8.3 4.3 7.8 5.1 13.6 13.8 18 23.9 6.2-2.1 10.5-2.2 10.5-2.2 4.2-5.3 8-10 11.6-14.2-4.2-2.9-8.4-5.7-12.6-8.1-4.5-1.7-15.4-3.3-19.2-3.7"/><path class="st2" d="M193.8 125.7c7.8 2.3 14.3 2.8 18.9 3.1 1.1.1 2.1.2 2.9.2l.7.1c3 .3 7.3.7 12.2 1.6 3.7-4.6 8.1-7.4 11.2-8 3.5 1.3 5.3 3.4 6.6 6.3 4.9 2.1 8.2 5.7 10.3 10 11.4 4.9 22.7 12.2 31.5 23.1-9.1-21.2-25.7-38.9-47.6-48.9v.1c-.3 0-20.4-.5-45.4 11.6-.5.2-.9.5-1.3.8"/><path class="st2" d="M295.6 192.1c-2.4-11.4-10.5-32.3-36.3-45.6 2.9 13-.4 27.9-.4 27.9s7.1 4.1 8.9 11.9c0 0 .9.4 1.7 1.6 2 2.4 4.5 8 .5 19 0 0-2.4-5.1-7.5.4-.5.7-.8 1.2-1.3 1.9 9.7 13.3 17.1 27.3 20.9 40.9 4.3-7.1 7.8-14.8 10.3-23.2 3.1-11.7 4.1-23.4 3.2-34.8M126 227.4c-.3-13.8 1.5-27 5.5-39.7 3.4-10.6 7.9-19.6 12.8-27.1.7-1.5 2-3.7 3.4-6.3-18.5-2-35.2 17.7-41.7 26.6-4.3 20.7-1.4 41.5 7 59.5 4.6-4.2 8.9-8.6 13-13m121.6 23.8c-.2 9.2 4.3 16.2 7.7 27.2 8.3-5.9 15.7-13 21.9-21.4-2.8-13.7-10-28.2-19.9-42.2-6.3 10.1-9.4 19.6-9.7 36.4m-81.4-121.8c3.1-1.4 6.9-3.1 11.1-4.8-1.9-1.7-3.3-3.7-4.1-6-1.4-3.6-1.4-7.4-.9-10.3-13.7 4.2-26.4 11.4-36.9 21h1.5c9-.6 21.9-.2 29.3.1"/><path class="st2" d="M150.9 148.7c1.3-2.3 2.6-4.6 3.8-6.6-5.1-3.4-8.3-5.8-17.1-6.5-3.6-.1-6.6 0-8.8.2-7.9 8.8-14.4 19.1-18.7 30.8 9.9-10.4 24.6-21.2 40.8-17.9"/><path class="st3" d="m181.3 128.1-6.6 9.6s5 3.4 9.1 8.2c-7.2-1.5-15.1-2.8-15.1-2.8l-12.6 6.8 5.9-9.8s-3.9-3.4-8.5-6.3c5 .2 14.5.9 14.5.9l13.3-6.6zm5.3 57.5s-1.8 4.8-2 9.3c0 0-10.9 1.6-16.2 5.2.1-.1 11-11 18.2-14.5"/><path class="st4" d="M260.2 185c1.2-.3 2.1-.4 2.8-.3-.2-.6-.6-1.4-1.2-2.2-.9-1.2-2.3-2.1-2.3-2.1.8 1.5.8 3.4.7 4.6m-9.8 5.1c1.4-.9 2.7-1.8 3.8-2.4-.2-.5-.6-1.2-1-2.1-.9-1.7-3.4-3.2-3.4-3.2 1 2.9.8 6 .6 7.7"/><path class="st0" d="M133.2 263.8c-9.3 3.8-31.2-1.4-31.2-1.4 22.2-1.3 43.9-17.1 43.9-17.1s0 .1-.1.1c-6.5 10-15.5 15.7-15.5 15.7 1.1 1.2 2.1 2 2.9 2.7"/><path class="st3" d="M243.9 131.4s-5.5-4.3-11.6 2.3c6.6-12.1 10.4-5.1 11.6-2.3"/><path class="st0" d="M265.5 189.9s-.6-.4-.7-.5c-3.4-1.9-9.7 3.5-13.7 5.8-4 2.2-10 7-12.8.5-2.9-6.5 3.7-16.8 6.1-23.2 5-14.3 5.2-22.6 4.2-27.1 4.7 5.3 6.2 15.4 6.2 15.4s1.8-19-7.5-23.9c.2.7 0 3.1-.2 4.9-4.3.7-13.9-.3-17-2-11.7 12.6-24.5 30.1-34.1 46.1-4.2 8.5-8.3 18.5-9.3 26.6 0 0-1.3-3.6-1.7-8.6-5.3 2.1-23.4 10.9-27.3 38.2 0 0 11.5-11.8 24.2-16.5 0 0-8 21.1 7.4 58.4 0 0 6.2-22.9 19.2-28.7 7.9 39.1 31 39.8 37.7 66.4 0 0 7.1-13.8-1.4-37.3 0 0 2.9.8 5.4 3.7 0 0-.4-6.9-6.8-21.6-4.2-7.9-5.5-18.6-5.5-18.6-3.7 3.4-4.8 14.9-4.8 14.9-11.5-31.1 21.1-62 27-66.5 2.9-2.2 4.7-2.2 5.8-1.8 1-2.1 1-3.6-.4-4.6"/><path class="st0" d="M286 134.8c-17.4-23-42.8-37.8-71.3-41.8-4.9-.7-10-1-14.9-1-53.6 0-99.5 40.1-106.9 93.3-3.1 22.1.7 44.1 10.6 63.6 1.2-1 2.4-2.1 3.7-3.2-9-18.4-12.5-39-9.6-59.7 7-50.9 51-89.2 102.2-89.2 4.8 0 9.5.4 14.3 1 27.3 3.7 51.5 18 68.2 40 16.7 22 23.8 49.2 20 76.5-4.2 30.1-21.2 55.8-45.2 71.8.3 1.6.7 3.3.8 5 25.9-16.6 44.5-44 49-76.2 4-28.7-3.3-57.1-20.9-80.1"/><path class="st4" d="M131.7 84.6c-5.2 0-9.4 4.2-9.4 9.4s4.2 9.4 9.4 9.4 9.4-4.2 9.4-9.4-4.2-9.4-9.4-9.4m0 14.6c-2.8 0-5.1-2.3-5.1-5.1s2.3-5.1 5.1-5.1 5.1 2.3 5.1 5.1-2.3 5.1-5.1 5.1m-21.1 8.9-2.2 1.2c-.8.5-1.3.5-1.8.1-.6-.5-.5-1.2.3-2s1.7-1.3 2.8-1.4h.4l-.3-4.2h-.4c-2.1.1-4 1-5.8 3-1.1 1.2-1.8 2.6-2 4-.2 1.7.5 3.2 1.8 4.3 2 1.9 4.4 2 7.2.4l2-1.1c1-.6 1.7-.8 2.2-.3.7.6.5 1.4-.5 2.5-1.3 1.4-2.7 1.5-3.7 1.5h-.4l-.5 4.6h.4c1.5.1 4.5-.3 7.4-3.4l.1-.1c1.4-1.6 2.2-3.2 2.3-4.8.1-1.6-.6-3-2-4.3-1.9-1.7-4.2-1.7-7.3 0m-46.248 93.315 18.394-.435.097 4.099-18.394.435zM99.6 139.6l7-10.5-3.5-2.2-4.6 6.9-2.6-1.7 4.1-6-3.5-2.2-4 6-2.5-1.7 4.6-7-3.3-2.2-6.9 10.3zM159.8 90l-5.3-13.3 4.7-1.9-1.6-3.7-13.2 5.4 1.5 3.7 4.7-2 5.4 13.4zm-75.4 60.1-13 5.9-.2.6 17.2 7 1.5-3.7-8.9-3.7 13-5.9.3-.7-17.2-7-1.6 3.8zM76 177.6l-11.3 8.6-.1.8 18.3 2.8.7-4-9.6-1.5 11.3-8.8.1-.6-18.3-2.9-.6 4.1zm155.954-89.913 5.229-17.641 3.93 1.165-5.228 17.641zM332.6 228l1-4-17.9-4.2-2.7 11.9 4 .9 1.9-7.8zm-6.4-36.7c-5.2 0-9.4 4.2-9.4 9.4s4.2 9.4 9.4 9.4 9.4-4.2 9.4-9.4c0-5.1-4.2-9.4-9.4-9.4m0 14.6c-2.8 0-5.1-2.3-5.1-5.1s2.3-5.1 5.1-5.1 5.1 2.3 5.1 5.1-2.2 5.1-5.1 5.1M289 124.2l7.8 9.8 3.2-2.6-5.2-6.6 2.4-1.8 4.5 5.7 3.2-2.7-4.5-5.5 2.4-1.9 5.1 6.5 3.2-2.5-7.7-9.8zm12.7 134.1-6.6 10.5 3.4 2.1 4.5-6.9 2.6 1.5-3.9 6.2 3.5 2.1 3.9-6 2.5 1.6-4.5 7 3.5 2.2 6.7-10.5zM218.1 84.6l1.9-14.2 5 .7.6-4-14.2-1.9-.6 4 5.1.6L214 84zm99.3 162.9 9.9-.5 1.7-4.2-20.3.8-.2.6 14.1 14.7 1.7-4.2zM258.8 88.8l-3.2-12.3v-.1l-.6-.3-8.6 16.4 3.7 2 3.9-7.7 1.9 7.1.4.2 6.9-2.4-4 7.5 3.6 1.9 8.6-16.4-.4-.3zM76.7 227.1l-7.5 10.3-.1.1.1.6 18.2-3.9-.9-4-8.4 1.8 4.2-5.9-.1-.5-6.2-3.7 8.4-1.7-.8-4-18.2 3.8.2.5zm247.6-51.2 7.7-6.4-.2-.7-9.9-2.3 7.9-5.2-1-4.2-16.4 10.9.2.5 11 2.6-8.7 7.3.2.7 19.6 2.2-1-4.3zm-11.8-27c1.6 1.7 4.2 1.9 6.4.7 3.4-1.7 4.5-5.1 2.6-8.9l-3.1-6.2-16.5 8.1 1.9 3.7 7.6-3.7-5.2 8.7 2.1 4.4c.2 0 3.9-6.4 4.2-6.8m.8-4.2-1.1-2.3 4.6-2.2 1.1 2.3c.8 1.7.5 2.9-1 3.6-1.6.6-2.8.3-3.6-1.4m-26-36.4c1-.3 2-.8 2.7-1.8 1.1-1.3 1.6-3 1.3-4.6-.3-1.3-.9-2.5-2.1-3.5l-2.3-2-3.1-2.7-2.7 3.1-1.9 2.1-.2.2-2.5 2.9-.2.2-2.1 2.3-2.7 3.1 3.1 2.7 2.7 2.3c1.2 1 2.5 1.6 4 1.6 1.7.1 3.4-.7 4.5-2 1.1-1 1.6-2.4 1.5-3.9m-3.1-8.7 2.3 2c.9.8 1.1 1.6.5 2.4-.8.9-1.9.4-2.5-.2l-2.1-1.9 1.8-2.3zm-4 10-2.7-2.3 2.1-2.5 2.5 2.2c1 .9 1.3 2 .7 2.7-.7.7-1.8.7-2.6-.1m4.3 171.1c.7-.7 1.7-1.4 2.7-2 2.1-.9 4.9-1 5.3-1v4.2c-.8 0-2.6.2-3.4.6-1.3.7-2.2 1.6-2.4 2.5-.2.7.1 1.1.4 1.4.3.3.7.4 1.1.2.4-.1 1-.5 1.7-.7 1.5-.7 3.2-1.6 4.7-1.7 1.6-.2 3 .3 4.1 1.4 1.3 1.2 1.8 3 1.7 4.2-.1 1.3-.7 3.6-3.7 5.5-1.8 1.1-4.3 1.4-4.6 1.5l-.6-4.1c.7-.1 2.1-.5 2.9-.8 2.1-1 2.2-3.4.5-3.4-.7 0-2.2.8-3.3 1.3-.8.5-1.6.7-2.2 1-2 .7-3.9.2-5.3-1.1-1.5-1.4-2.1-3.5-1.5-5.5.2-1.4.8-2.5 1.9-3.5m-107-204.5 5.6 8.2 4.4-.8-11.3-16.8-.6.2-5.1 19.6 4.5-.8z"/></svg>