<svg version="1.1" id="Layer_1" xmlns="http://www.w3.org/2000/svg" x="0" y="0" viewBox="0 0 400 400" style="enable-background:new 0 0 400 400" xml:space="preserve"><style>.st0{fill:#b4975a}.st1{fill:#0a2240}.st2{fill:#ce0e2d}.st3{fill:#fff}</style><path class="st0" d="m372.3 169.8 1.1.4v-19.7c0-3.1-.5-6.2-1.6-9.2-1.1-3-2.6-5.9-4.6-8.5-1.8-2.3-3.9-4.5-6.2-6.3-2.1-1.6-4.3-3-6.7-4.1-1.5-1-4.5-2.4-12.6-5.7-6.9-2.7-18-6.9-32.4-11.1-13.1-3.9-30-8.2-48.7-11.4-.1-.2-12.7-15.9-31.6-7.8-.6.3-1.3.6-1.9.9-2.8 1.4-5.3 2.6-10.1 1.3-2.8-.8-6.4-2.5-5-8.8.3-1.4 1.4-3.3 3.2-4.3 1.2-.7 2.5-.9 3.9-.5 2.5.7 3.6 2.1 3.2 4.2-.1.8-.7 1.6-1.5 1.9-.8.3-1.6.1-2.6-.5-.9-.6-2.1-.4-2.8.5-.6.9-.4 2.2.5 2.8 2.1 1.4 4.4 1.8 6.4.9 2-.8 3.5-2.7 3.8-4.9.3-1.6.7-6.8-6-8.7-2.4-.7-4.9-.4-7 .8-2.4 1.4-4.4 4.1-5 6.9v.2c-.8-1.1-1.6-2-2-2.4l-6.5-6.7-6.5 6.7c-.4.4-1.2 1.3-2 2.4v-.2c-.6-2.7-2.6-5.4-5-6.9-2.2-1.3-4.6-1.5-7-.8-6.7 2-6.3 7.2-6 8.7.4 2.1 1.9 4 3.8 4.9 2 .9 4.3.5 6.4-.9.9-.6 1.1-1.9.5-2.8-.6-.9-1.9-1.1-2.8-.5-1 .7-1.8.8-2.6.5-.7-.3-1.3-1.1-1.5-1.9-.4-2.1.7-3.5 3.2-4.2 1.4-.4 2.7-.2 3.9.5 1.7 1 2.8 2.9 3.2 4.3 1.5 6.3-2.1 8.1-5 8.8-4.8 1.3-7.3.1-10.1-1.3-.6-.3-1.3-.6-1.9-.9-18.9-8.1-31.5 7.6-31.7 7.8 0 0 0 .1-.1.1-18 3.1-34.3 7.2-47 10.9-24.4 7.2-44.1 16.1-44.9 16.5l-2.6 1.2v.4c-1.1.2-2.3.5-3.4 1.1-4.2 1.9-8.3 4-12.4 6L25 132v10.7c0 2.6.5 4.7 1.5 6.5.2.4.4.7.7 1v11.9c-1.4 2.6-2.1 5.3-2.1 7.9 0 2.6.7 4.9 2.1 6.7v24.8l.3.7c.2.6 4.1 11.1 15.9 15.4l-.3.2s6.2 10 15.8 12.1l-1.8.8s6.8 11 19.9 13.3l-1.9.9s8.5 9.1 21.7 10.8c14 43.5 54.8 75.1 102.9 75.1 48.1 0 88.9-31.6 102.9-75.1 13.2-1.7 21.7-10.8 21.7-10.8l-1.9-.9c13.1-2.3 19.9-13.3 19.9-13.3l-1.8-.8c9.6-2.1 15.8-12.1 15.8-12.1l.6-.8c11-4.7 17.4-15.4 17.4-25.5v-12.6c-.3-3.1-1-6.2-2-9.1zM253.8 93.2c-7.8-1.2-15.8-2.1-24-2.7.2-.1.5-.2.7-.3 10.7-4.6 18.9-.4 23.3 3zm-85.3-3c.3.1.5.2.7.4-8.2.6-16.3 1.6-24.1 2.8 4.5-3.5 12.8-7.8 23.4-3.2z"/><path class="st1" d="m363.2 161.4 5.8 2.3v-13.2c0-2.6-.5-5.2-1.3-7.7-.9-2.6-2.3-5.1-3.9-7.3-1.6-2.1-3.4-3.9-5.4-5.5-1.9-1.5-3.9-2.7-6.1-3.7-1.1-.8-4.1-2.3-12.1-5.4-6.8-2.7-17.8-6.8-32-11-23.3-7-58.4-15.2-95-15.7-.9-2.5-2.9-4.4-5.7-5.1-.3-4.8-3.8-8.5-4.5-9.3l-3.4-3.5-3.4 3.5c-.7.7-4.2 4.5-4.5 9.3-2.7.6-4.8 2.5-5.7 5-36 .6-70.4 8.6-93.3 15.4-24.4 7.2-44.3 16.3-44.3 16.3v2.7s-.3-.2-.5-.3c-.7-.3-1.4-.5-2.2-.5-1 0-2.1.3-3.3.8-4.1 1.9-8.2 3.9-12.2 5.9l-.7.3v8.1c0 1.8.3 3.2 1 4.3.3.6.8 1.1 1.3 1.5v14.7c-1.3 2.2-2.1 4.6-2.1 6.8s.7 3.9 2.1 5v25.7s3.9 10.7 16.1 13.5c.3.1.6.1.9.2h.1c1.9.4 4 .6 6.3.5-2.2 1.1-4.3 2.1-6.5 3.3 0 .1 6.5 10.7 21.9 9.2-2.6 1.2-5.1 2.5-7.7 3.7 0 .1 7.4 10.5 23.8 10.3-3.8 1.9-6 3.1-6 3.1 0 .1 7.4 7.2 19.7 8 12.8 42.7 52.4 73.9 99.3 73.9s86.5-31.1 99.3-73.9c12.4-.9 19.7-8 19.7-8s-2.3-1.2-6-3.1c16.3.3 23.7-10.1 23.8-10.3-2.6-1.3-5.1-2.5-7.7-3.7 15.5 1.5 21.9-9 21.9-9.2-2.2-1.1-4.3-2.2-6.5-3.3 5.3.4 9.6-1.1 12.9-3 8.3-4.5 12.7-13.1 12.7-20.5v-12.6c-.2-8.1-6.6-17.5-6.6-17.5z"/><path class="st2" d="M268.5 261.4c1.9 1.5 3.9 3 5.8 4.5 0-.2-23 6.3-39.5-.9l-1.8-.9c-4.1 14.7-17.6 25.6-33.6 25.6s-29.5-10.9-33.6-25.6c-.6.3-1.1.6-1.8.9-16.4 7.2-39.5.7-39.5.9 1.9-1.5 3.9-3 5.8-4.5-8 1.2-15.4-.3-20.5-1.9 14.5 35.2 49.1 60 89.5 60s75-24.8 89.5-60c-4.9 1.7-12.3 3.1-20.3 1.9z"/><path class="st3" d="M189.9 104.2c-1.8-.9-3.1-2.4-3.8-4.2-58 1.5-115.9 22.3-115.7 23.1-2.5.9-3.9 3.1-3.9 4.6v2.1c40-15.5 81.7-23.7 123.5-24.7l-.1-.9zm142.4 20.4c.1-.8-60.6-23.1-119.4-24.6-.7 1.8-2.1 3.3-3.8 4.2v.8c43 1.2 86 10 127.1 26.2v-2.1c0-1.4-1.4-3.6-3.9-4.5z"/><path class="st2" d="M205.9 93.7c-3.8-.5-4.4 4.9-4.5 6.7h-1.2c0-5.1 2.5-7.2 2.5-10.6 0-3.4-3.1-6.6-3.1-6.6s-3.1 3.2-3.1 6.6c0 3.4 2.4 5.5 2.4 10.6h-1.2c-.1-1.8-.7-7.2-4.5-6.7-4.1.5-3.6 6.1 0 6.6 0 0-.7-2.5 1.3-2.5 1.5 0 1.9 1.7 2 2.6h-1.8v2h4c-.5 1.9-1.8 2.5-1.8 2.5s.5 1.1 1.7 1.2c0 0 0 1.3 1 2.4 1-1 1-2.4 1-2.4 1.2-.1 1.7-1.2 1.7-1.2s-1.3-.6-1.8-2.5h3.9v-2h-1.7c.1-.9.5-2.6 2-2.6 2 0 1.3 2.5 1.3 2.5 3.5-.5 3.9-6.1-.1-6.6"/><path class="st3" d="M187.3 132.8v-12.5c0-1.7-.3-3.3-1-4.5-.6-1.3-1.5-2.3-2.6-3.1-1.1-.8-2.4-1.4-3.9-1.7-1.5-.3-3.1-.4-4.9-.3-1.7.1-3.4.4-4.9 1-1.5.5-2.8 1.3-4 2.2-1.1.9-2 2.1-2.6 3.5-.6 1.4-1 2.9-1 4.7v12.6c-1.3.3-2.3 1.6-2.3 2.9 0 1.4 1 2.3 2.3 2.4v14.1c0 1.7.3 3.2 1 4.5.6 1.2 1.5 2.3 2.6 3 1.1.8 2.4 1.3 4 1.6 1.5.3 3.1.4 4.9.3 1.7-.1 3.4-.4 4.9-.9 1.5-.5 2.8-1.2 3.9-2.1 1.1-.9 2-2 2.6-3.4.6-1.3 1-2.9 1-4.6v-14.1c1.4-.2 2.5-1.4 2.5-2.7 0-1.7-1.1-2.8-2.5-2.9zm-6.9 19.4c0 .9-.2 1.7-.5 2.3-.3.6-.8 1.2-1.3 1.6-.5.4-1.1.7-1.7 1-.6.2-1.3.4-1.9.4-.7 0-1.3 0-2-.1s-1.2-.4-1.8-.7c-.5-.3-.9-.8-1.3-1.4-.3-.6-.5-1.3-.5-2.3v-31.4c0-.9.2-1.7.5-2.3.3-.6.8-1.2 1.3-1.6.5-.4 1.1-.8 1.8-1 .7-.2 1.3-.4 2-.4s1.3 0 1.9.2c.6.1 1.2.4 1.7.8s.9.8 1.3 1.4c.3.6.5 1.4.5 2.3v31.2zM54.3 166.6c0 .1 0 .2-.1.1l-.2-.2c-.2-.6-8.4-28-8.9-29.2-.4-1.3-.7-1.9-.7-2-.1-.4-.3-.7-.6-.8-.3-.1-.7-.1-1.2.2-2.5 1.2-4.9 2.3-7.4 3.5v2.3c0 .8.1 1.4.3 1.7.2.4.5.6.8.8.3.2.7.2 1.1.2v20.9c-1.2.8-2.1 2.3-2.1 3.7 0 1.3.9 2 2.1 1.6v29.5c1.9-.9 3.8-1.8 5.8-2.7v-37c0-.3 0-.4.1-.4l.1.1s.2.7.7 1.9c.4 1.2 8.5 28.2 8.6 28.4.2.7.5 1.2.7 1.6.2.4.7.5 1.2.2 1.3-.5 2.6-1.1 3.9-1.6.5-.2.9-.6 1.2-1 .3-.5.4-.9.4-1.4v-27.7c1.1-.8 1.9-2.1 1.9-3.3 0-1.2-.8-1.9-1.9-1.8v-20.5c0-.4.1-.8.2-1 .1-.2.3-.5.4-.7.4-.4.7-1 1.1-1.6.4-.6.5-1.4.5-2.1v-2c-2.7 1.1-5.4 2.2-8.1 3.4v36.9zm273.9.5c0 .1 0 .1-.1 0s-.1-.2-.2-.3c-.2-.7-.5-2-1.1-4-.5-2-1.2-4.3-1.9-6.9-.7-2.6-1.4-5.4-2.2-8.2-.8-2.9-1.5-5.5-2.2-7.9-.7-2.4-1.3-4.4-1.7-6.1-.5-1.6-.7-2.5-.7-2.6-.1-.5-.3-.9-.6-1.3-.3-.3-.7-.6-1.2-.8-2.6-.8-5.1-1.7-7.7-2.5v2.3c0 .8.1 1.4.3 2 .2.6.5 1 .8 1.4.3.4.7.8 1.2 1.1v16.3c-1.2-.2-2.2.7-2.2 2s.9 2.7 2.2 3.3v23.9c2 .6 4 1.3 6 1.9V148c0-.3 0-.4.1-.3 0 .1.1.1.1.3 0 .1.2.9.7 2.5.5 1.6 1 3.6 1.7 6s1.4 5 2.2 7.8c.8 2.8 1.5 5.4 2.2 7.9.7 2.5 1.3 4.6 1.8 6.3.5 1.8.8 2.8.9 3 .2.9.5 1.6.7 2.2.3.6.7 1 1.2 1.2l3.9 1.5c.5.2.9.2 1.2-.1.3-.3.4-.6.4-1.1V163c1.1.1 1.9-.6 1.9-1.8 0-1.2-.8-2.6-1.9-3.3V142c0-.4.1-.7.2-.8l.4-.4c.4-.1.7-.4 1.1-.7.4-.4.5-.9.5-1.7v-2c-2.7-1.1-5.5-2.1-8.2-3.1v33.8zm34.2 5.2c-.8-1.8-1.9-3.6-3.1-5.3-1-1.4-2.1-2.8-3.3-4.2.1-.2.1-.4.1-.6 0-1.5-1.2-3.2-2.6-3.9-.6-.3-1.2-.3-1.6-.1-.2-.2-.4-.5-.6-.7-1.2-1.4-2.3-2.7-3.1-3.9-.8-1.2-1.3-2.2-1.3-3.2v-10.9c0-.5.2-.9.5-1.1.3-.3.7-.4 1.2-.5.5-.1 1 0 1.5 0 .5.1 1 .3 1.5.5.4.2.9.5 1.5.8.5.4 1.1.8 1.5 1.2.5.5.8 1 1.1 1.5.3.6.5 1.1.5 1.7v2.6c0 1.1.4 2.2 1.1 3.3.7 1.1 1.7 1.9 2.8 2.4 1 .5 2 .9 2.9 1.4v-5.1c0-1.7-.3-3.4-.8-5-.6-1.6-1.4-3-2.4-4.4-1-1.3-2.2-2.6-3.6-3.6-1.4-1.1-2.9-2-4.5-2.7-1.6-.7-3.1-1.2-4.5-1.4-1.4-.2-2.6-.1-3.6.3s-1.8 1.2-2.4 2.2c-.6 1.1-.9 2.5-.9 4.4v9c0 1.9.4 3.7 1.2 5.4.8 1.7 1.9 3.3 3.1 4.8 1.2 1.5 2.5 3 3.9 4.4-.1.3-.2.6-.2 1 0 1.5 1.2 3.2 2.6 3.8.8.4 1.5.3 2-.1 1.1 1.3 2.1 2.7 2.8 4 .8 1.5 1.2 2.9 1.2 4.5v12.9c0 .6-.2 1.1-.5 1.4-.3.3-.8.5-1.3.7-.5.1-1.1.1-1.7 0-.6-.1-1.2-.2-1.8-.5-.6-.3-1.2-.6-1.8-1.1-.6-.5-1.2-1-1.7-1.5s-.9-1.1-1.3-1.7c-.3-.6-.5-1.2-.5-1.8v-3c0-1.1-.3-2-.9-2.8-.6-.8-1.5-1.5-2.7-2-1.1-.4-2.1-.9-3.2-1.3v5.2c0 1.7.3 3.4 1 5 .6 1.6 1.5 3 2.6 4.3 1.1 1.3 2.4 2.5 3.8 3.5 1.5 1 3 1.9 4.6 2.7 1.6.7 3.2 1.2 4.6 1.5 1.5.3 2.7.2 3.8-.1 1.1-.3 2-1 2.6-2 .7-1 1-2.4 1-4.1v-12.4c.1-1.8-.3-3.6-1.1-5.4zM130 142.5c-.3 2.4-.6 4.8-.8 7.2-.3 2.4-.5 4.4-.8 6.3-.2 1.8-.4 3.3-.6 4.4-.1 1.1-.2 1.7-.3 1.7-.6-3.2-1.1-6.1-1.5-8.7-.4-2.6-.9-5.4-1.5-8.6-.5-3.2-1.1-6.3-1.6-9.4-.6-3.1-1.1-5.9-1.6-8.6-.5-2.6-.9-4.7-1.3-6.2-.1-.5-.5-.8-1.3-1-.8-.2-1.5-.1-2.3 0-.7.2-1.4.5-2.2.9-.8.4-1.2 1-1.3 1.6-.4 1.6-.8 3.8-1.3 6.7-.5 2.8-1 5.9-1.6 9.3-.5 3.3-1.1 6.7-1.6 10.1-.5 3.4-1 6.6-1.5 9.4-.4 2.8-.9 6-1.5 9.5 0 0-.1-.5-.3-1.6-.2-1.1-.3-2.5-.6-4.2-.2-1.7-.4-3.7-.7-5.9-.3-2.2-.6-4.5-.8-6.8-.6-5.4-2.9-25-2.9-25l-8.4 2.4v2.1c0 .8.2 1.4.5 1.8.3.4.7.7 1 .8.2.1.4.3.6.4.2.2.3.4.4.8.7 5.5 1.3 10.6 1.8 15.4-1 .7-1.7 1.8-1.7 3 0 1.3 1 2.2 2.3 2v.3c.3 2.6.6 5.2.9 7.7.3 2.5.6 4.7.8 6.7.3 2 .5 3.6.6 4.8.2 1.2.2 1.9.2 2 0 .4.2.7.4.9.3.3.6.4 1.1.2l7.8-2.1c.5-.1.9-.4 1.2-.7.3-.3.5-.8.8-1.5 2-11.7 3.9-23.3 5.9-34.9 1.9 10.7 3.8 21.5 5.8 32.3.2.5.5.9.8 1.1.3.2.7.3 1.2.2l7.8-1.5c.5-.1.8-.3 1.1-.7.3-.4.4-.8.5-1.1 0-.1.1-.8.3-2.1.2-1.3.4-3 .6-5.1.3-2.1.5-4.4.8-7.1.3-2.6.6-5.3.9-8.1v-.3c1.3-.4 2.3-1.7 2.3-3 0-1.1-.7-2-1.7-2.2.6-5 1.2-10.4 1.9-16.2.1-.4.2-.7.4-1 .2-.3.4-.5.6-.7.4-.3.7-.7 1-1.3.3-.6.5-1.2.5-2v-2.1c-2.9.5-5.7.9-8.5 1.5.4 0-1.9 20.5-2.6 26.2zm172.4 7.3c0-1.3-1-2.7-2.3-3.3-.3-1.9-.6-3.8-1-5.7-.4-2.6-.8-4.9-1.2-7-.3-2.1-.6-3.8-.9-5.2-.2-1.3-.4-2.1-.4-2.3-.1-.9-.5-1.7-1.1-2.5-.6-.8-1.5-1.3-2.6-1.6-3.1-.8-6.2-1.6-9.3-2.3v1.6c0 2 .6 3.3 1.7 4.1.2.1.3.4.3.7 0 .3 0 .6-.1 1 0 0-.1.6-.3 1.6-.2 1-.5 2.4-.8 4.1-.3 1.7-.7 3.6-1.1 5.8-.2 1.1-.4 2.1-.6 3.2-1.5-.3-2.7.6-2.7 2.1 0 1.1.7 2.2 1.7 2.9-1.3 6.7-4.5 23-4.5 23l6.6 1.5s1.9-11.2 2-11.4c.1-.9.5-1.3 1.2-1.1 2.6.6 5.3 1.3 7.9 2 .4.1.8.3 1 .5.3.3.5.7.5 1.3 0 .2 1.5 12.3 1.5 12.3 2.3.7 4.6 1.3 6.9 2 0 0-2.8-17-4.3-25.4 1.3-.2 1.9-.9 1.9-1.9zm-7 5.2c-.2.2-.4.2-.8.1-2.2-.6-4.3-1.1-6.5-1.7-.3-.1-.5-.2-.7-.5-.2-.2-.3-.5-.2-.8 0 0 .1-.4.2-1.1.1-.7.3-1.6.4-2.7.2-1.1.4-2.3.6-3.7.2-1.4.5-2.8.8-4.2.7-3.8 1.4-7.6 2.1-11.5h.1c.7 4.2 1.4 8.3 2.1 12.5.3 1.6.5 3.1.8 4.6.2 1.5.4 2.9.6 4 .2 1.2.3 2.2.5 3 .1.8.2 1.2.2 1.2.1.4 0 .7-.2.8zm-77.2 1.9c-.2-.2-.4-.3-.6-.4-.2-.1-.2-.4-.2-.9v-11.8c0-1.7-.3-3.3-.8-4.7-.5-1.4-1.3-2.5-2.4-3.3-.5-.5-.6-1-.1-1.4 1-.7 1.8-1.7 2.4-2.9.6-1.2.9-2.5.9-4v-5.4c0-1.7-.2-3.3-.6-4.7-.4-1.4-1.1-2.7-2-3.7-.9-1-2.1-1.9-3.5-2.5-1.4-.6-3.1-1-5.2-1-4.9-.1-9.7-.1-14.6 0v2c0 1 .2 1.7.5 2.2.4.5.7.9 1.1 1.1.2.1.4.2.5.4.1.2.2.5.2.9v15.7c-1.3.3-2.2 1.4-2.2 2.7 0 1.3.9 2.4 2.2 2.6v23.9h6.9V139c0-.6.3-1 .9-1 1.5 0 2.9 0 4.4.1 1.5 0 2.6.5 3.3 1.4.7.9 1 2.2 1 3.8v15.1c0 1 .3 1.8.9 2.5.6.6 1.5 1 2.7 1 2 .1 3.9.2 5.9.3v-2.7c0-.8-.2-1.4-.5-1.8-.3-.2-.7-.5-1.1-.8zm-7.8-29.5c0 1.6-.3 2.9-1 3.8-.7.9-1.8 1.4-3.3 1.4-1.5 0-3 0-4.5-.1-.2 0-.4-.1-.6-.2-.2-.1-.3-.3-.3-.5V117c0-.6.4-1 1.1-1 1.4 0 2.8 0 4.2.1 1.5 0 2.6.5 3.3 1.5.7 1 1 2.2 1 3.8v6zm29.9 16.4c-.7.2-1.1.9-1.1 1.9 0 .3.1 11.9-.1 12.2-.2.2-.4.3-.7.3-2.1-.2-4.1-.4-6.2-.6-.3 0-.6-.2-.7-.5-.1-.3-.2-.6-.2-1 0-12.6 0-25.2-.1-37.9 0-.5.1-.8.2-1 .1-.2.3-.3.5-.4.4-.2.7-.6 1.1-1.1.4-.5.6-1.1.6-1.9v-2.1c-3.9-.4-7.9-.7-11.8-.9v2.1c0 .8.2 1.4.6 2 .4.5.8.9 1.1 1.2.2.2.4.3.6.5.1.2.2.5.2 1v15.7c-1.3.2-2.2 1.2-2.2 2.5s1 2.5 2.2 2.8v23.9c6.2.4 12.4 1 18.6 1.7.5.1.9.1 1.4.2.4 0 .7-.1 1.1-.3.4-.3.6-.7.6-1.2V144c-1-.1-2-.2-3-.4-1-.1-2 0-2.7.2zM87 127.7c-.1 0-.2 0-.3.1h-.1c-7.2 2.3-14.4 4.8-21.5 7.6v2c0 .9.1 1.6.4 2 .2.4.6.6 1 .7l.6.3c.2.2.3.4.3.9v15.6c-1.2.7-2.1 2.1-2.1 3.5 0 1.3.9 2.1 2.1 1.8V186c.6-.2 1.2-.4 1.7-.7 3.1-1.2 6.2-2.3 9.2-3.3 1.3-.5 2.6-.9 4-1.3 1-.3 2-.7 3-1 .4-.1.8-.3 1.2-.4h.1c.2-.1.3-.1.5-.3.2-.2.4-.3.6-.6.3-.4.5-.9.5-1.4v-14.5c-1 .3-1.9.6-2.9.9-1 .3-2 .8-2.7 1.4-.7.5-1 1.3-1 2.4 0 .3.1 7.5-.1 7.8-.2.3-.4.5-.7.6-.9.3-1.7.6-2.6.9l-3.6 1.2c-.5.2-.8 0-.8-.7v-16c0-.6.3-1.1 1-1.3 2.7-1 5.4-1.9 8.1-2.8.7-.2 1-.7 1-1.3v-3.9c0-.4-.1-.6-.4-.7-.2-.1-.5-.1-.7 0-2.7.9-5.4 1.8-8.1 2.8-.7.2-1 0-1-.6v-14.4c0-.3.1-.6.3-.8.2-.3.4-.5.6-.5 2.2-.8 4.3-1.5 6.5-2.2.1 0 .2.1.3.2.2.2.1 7.5.1 7.8 0 1.1.3 1.6 1 1.7.7.1 1.7-.1 2.7-.4 1-.3 1.9-.6 2.9-.9v-14.8c0-.4-.2-.7-.5-.9 0-.2-.3-.3-.6-.3zm184.6-10.3c-.1-.1-.2-.1-.3-.1h-.1c-7.4-1.4-14.8-2.7-22.2-3.7v2c0 .9.1 1.6.4 2.2.3.5.6 1 1.1 1.2l.6.6c.2.2.3.6.3 1v15.6c-1.3.1-2.2 1-2.2 2.3 0 1.3 1 2.5 2.2 2.9v23.8l1.8.3 9.6 1.5c1.4.2 2.7.5 4.1.7 1 .2 2 .4 3.1.6.4.1.8.2 1.3.2h.6c.2 0 .5-.1.7-.3.3-.2.5-.6.5-1.1v-14.6c-1-.2-2-.4-2.9-.6-1-.2-2-.2-2.7 0-.7.2-1 .8-1 1.9 0 .3.1 7.6-.1 7.8-.2.2-.4.3-.7.2-.9-.2-1.8-.3-2.7-.5-1.2-.2-2.5-.4-3.7-.6-.6-.1-.8-.5-.8-1.1v-16c0-.6.4-.9 1.1-.8 2.8.5 5.6.9 8.4 1.5.7.1 1-.1 1-.8v-3.8c0-.4-.1-.7-.4-.9-.3-.2-.5-.3-.7-.4-2.8-.5-5.5-1-8.3-1.5-.7-.1-1.1-.5-1.1-1.1v-14.4c0-.3.1-.5.3-.7.2-.2.4-.2.7-.2 2.2.4 4.5.7 6.7 1.2l.3.3c.2.3.1 7.5.1 7.8 0 1.1.4 1.8 1 2.3.7.5 1.7.8 2.7 1 1 .2 2 .4 2.9.6v-14.8c0-.4-.2-.7-.5-1.1-.4-.1-.7-.3-1.1-.4zM143.1 274.2l4.9 4.7c.8.8 1.9 1.9 1.7 3.4-.1.7-.5 1.4-1.1 2-.7.8-1.5 1-2.1 1.1-1.4.2-2.4-.7-3.4-1.7l-2.8-2.7-2.9 3-2-1.9 7.7-7.9zm-1.5 5.4 2.5 2.4c.6.6 1.5 1.5 2.5.4.4-.4.5-.8.5-1.2 0-.5-.3-.8-1.2-1.6l-2.2-2.2-2.1 2.2zm14.6 6 8.8 5.3-1 1.7-6.4-3.9-1.3 2.1 6.2 3.7-1 1.7-6.2-3.7-1.4 2.3 6.7 4-1 1.7-9.1-5.4 5.7-9.5zm15.3 8.2 2.6.9-2.8 8.5 5.8 1.9-.6 1.9-8.4-2.8 3.4-10.4zm15.1 4.1 2.7.4-1.7 10.9-2.7-.4 1.7-10.9zm23.4 8c-.2.7-.4 1.5-1.3 2.4-.9.8-2.3 1.8-5.1 1.9-3.9.2-6.7-1.8-6.9-5.6-.2-4.1 3.1-6 6.5-6.1 1.3-.1 4.9.1 6.5 3.2l-3 .5c-.3-.5-1.2-1.7-3.4-1.6-2.5.1-3.8 1.9-3.8 4 .1 2.4 2 3.8 4.1 3.7 2.4-.1 3.1-1.5 3.4-2.2l3-.2zm9.8-9.6 2.9-.8 8.2 9.1-3 .9-1.5-1.7-5.4 1.6-.3 2.3-2.9.9 2-12.3zm2.6 2.7c-.1-.1-.2-.2-.3-.4-.1-.1-.2-.2-.2-.4v.9l-.6 4 3.7-1.1-2.6-3zm10.9-7.6 2.4-1.4 7.8 2.5c1 .3 1.1.4 2.2.8-.6-.9-.8-1.1-1.3-1.9l-2.9-4.8 2.3-1.4 5.7 9.5-2.5 1.3-7.9-2.5c-.8-.3-1.2-.4-2.1-.8.5.7.6.8 1 1.6l3.1 5.2-2.3 1.3-5.5-9.4zm22.7-6.7c1.4.5 2.8-.3 3.9-1.3.5-.5 1.9-2 1-3-.6-.6-1.2-.2-1.7.2-.4.2-2.3 1.6-2.7 1.9-.9.6-3 2-4.8.2-.4-.4-.7-.9-.8-1.4-.4-1.7.8-3.4 2.1-4.6 1.2-1.1 2.2-1.8 3.5-2.2 1.2-.3 2.1-.1 2.5 0l-1.4 2.3c-.2-.1-.6-.2-1.3 0-.8.3-1.5.9-1.9 1.2-.9.8-1.6 1.9-.9 2.6.5.5 1.1.2 1.8-.2.4-.2 2.3-1.5 2.7-1.8 1.1-.7 3-1.9 4.7-.2 2.5 2.5-.5 5.6-1.5 6.5-1.3 1.3-3.5 3-6.5 2l1.3-2.2zm-69.2-52.8s-39.5-13.2-22.3-55.3c0 0-41.8 1.7-99 24.8 0 0-4 1.7-6.4 2.5-2.3.8-6.1 2.3-11.5-.3 0 0 52.3-27.4 119.6-33.7 8.9-.8 10 .5 7.7 3.8-1.9 2.9-25.9 33.4 11.9 58.2z"/><path class="st0" d="M151.7 188.5c-33.8 4.4-66.9 16.2-66.9 16.2 5.6 10 20.9 5.8 20.9 5.8 28.7-8.1 41.5-10.9 45.6-11.7-.2-3.1-.1-6.6.4-10.3zm.2 16.5c-5.6 1.1-29.3 6-53.2 14.9 0 0 7.5 8.6 22.5 4.3 12.6-3.6 28.7-8.7 33.5-10.3-1.2-2.6-2.1-5.6-2.8-8.9zm5.3 13.7c-5.1 1.6-30.6 9.9-41.4 14.1 0 0 6.2 8.3 24 1.3 12.4-4.9 19.3-7.8 22.3-9-1.8-1.9-3.4-4-4.9-6.4zm8.9 9.9c-4.5 1.9-21 9.2-30.6 13.8 0 0 12.1 5.9 27.2-3.4l9.4-6.2c-2-1.2-4.1-2.6-6-4.2zm10.6 6.6c-3 1.9-15.6 9.8-21.7 14.3 0 0 10.4 4.3 21.1-5.8 3.5-3.3 5.4-5.1 6.4-6.2-1.9-.6-3.8-1.4-5.8-2.3z"/><path class="st3" d="M212.2 231.9s39.5-13.2 22.3-55.3c0 0 41.8 1.7 99 24.8 0 0 4 1.7 6.4 2.5 2.3.8 6.1 2.3 11.5-.3 0 0-52.3-27.4-119.6-33.7-8.9-.8-10 .5-7.7 3.8 1.9 2.9 25.9 33.4-11.9 58.2z"/><path class="st0" d="M247.3 188.5c33.8 4.4 66.9 16.2 66.9 16.2-5.6 10-20.9 5.8-20.9 5.8-28.7-8.1-41.5-10.9-45.6-11.7.2-3.1.1-6.6-.4-10.3zm-.2 16.5c5.6 1.1 29.3 6 53.2 14.9 0 0-7.5 8.6-22.5 4.3-12.6-3.6-28.7-8.7-33.5-10.3 1.2-2.6 2.1-5.6 2.8-8.9zm-5.3 13.7c5.1 1.6 30.6 9.9 41.4 14.1 0 0-6.2 8.3-24 1.3-12.4-4.9-19.3-7.8-22.3-9 1.8-1.9 3.4-4 4.9-6.4zm-8.9 9.9c4.5 1.9 21 9.2 30.6 13.8 0 0-12.1 5.9-27.2-3.4l-9.4-6.2c2-1.2 4.1-2.6 6-4.2zm-10.6 6.6c3 1.9 15.6 9.8 21.7 14.3 0 0-10.4 4.3-21.1-5.8-3.5-3.3-5.4-5.1-6.4-6.2 1.8-.6 3.8-1.4 5.8-2.3z"/><path class="st3" d="M231.8 254.8c0 17.9-14.5 32.3-32.3 32.3-17.9 0-32.3-14.5-32.3-32.3 0-17.9 14.5-32.3 32.3-32.3 17.9 0 32.3 14.5 32.3 32.3z"/><path class="st0" d="M225.1 261.5c0 14.2-11.5 25.7-25.6 25.7-14.2 0-25.6-11.5-25.6-25.7s11.5-25.6 25.6-25.6c14.2 0 25.6 11.5 25.6 25.6z"/><path class="st1" d="M199.5 220c-19.2 0-34.9 15.6-34.9 34.9 0 19.2 15.6 34.9 34.9 34.9 19.2 0 34.9-15.6 34.9-34.9 0-19.3-15.7-34.9-34.9-34.9zm29.3 29.2c-2.2 8.6-8.1 15.7-15.7 19.6.6-4.3 2.5-8.5 4.4-12.9 2.8-6.4 5.9-13.3 4.5-20.7 3.4 4 5.8 8.8 6.8 14zm-44.6-19.9c3.9-2.3 8.4-3.8 13.1-4.2V272c-2.4-.2-4.7-.6-6.9-1.3-.2-5.8-2.6-11.2-5-16.5-3.8-8.8-7.1-16.4-1.2-24.9zm6 45.8c2.3.6 4.7 1 7.2 1.2v8.3c-3.9-.3-7.6-1.3-11-3 1.6-1.5 3.3-3.7 3.8-6.5zm11.5 1.2c2.5-.1 4.9-.5 7.2-1.2.5 2.8 2.2 5 3.8 6.5-3.4 1.6-7.1 2.7-11 3v-8.3zm6.9-5.6c-2.2.7-4.5 1.2-6.9 1.3v-46.9c4.8.3 9.2 1.8 13.1 4.2 5.9 8.5 2.6 16.2-1.3 24.9-2.3 5.3-4.7 10.7-4.9 16.5zM177 235.3c-1.3 7.4 1.7 14.3 4.5 20.7 1.9 4.4 3.8 8.7 4.4 13-7.7-3.8-13.5-10.9-15.7-19.7 1-5.4 3.4-10.1 6.8-14zm-6.9 24.8c3.8 6.1 9.3 10.9 15.9 13.6 0 .2 0 .4-.1.6-.3 2.2-2.2 4-3.5 5-6.3-4.4-10.9-11.3-12.3-19.2zm46.4 19.2c-1.3-1-3.1-2.8-3.5-5 0-.2 0-.4-.1-.6 6.6-2.8 12.1-7.5 15.9-13.6-1.4 7.9-5.9 14.8-12.3 19.2z"/><path class="st1" d="M209.9 174.7s-.3 1.1-.9 1.1c-.7 0-4.9-2-6.9-3.1-.9-.5-2.1-1.2-2.5-1.4 0 0-1.8.9-2.6 1.4-2 1.1-6.2 3.1-6.9 3.1-.7 0-.9-1.1-.9-1.1s-11 6.6-11 24.9c0 13.6 7.1 19.8 7.1 19.8l1 3.9h26.6l1-3.9s7.1-6.2 7.1-19.8c-.2-18.2-11.1-24.9-11.1-24.9z"/><path class="st3" d="M215.1 195.1c0-5.7-2.3-10.3-4.8-13 0 0-.1 1.6-2.8-.2-2.3-1.6-5.1-2.5-8-2.5-3 0-5.7.9-8.1 2.5-2.6 1.8-2.7.2-2.7.2-2.5 2.7-4.8 7.4-4.8 13 0 4.7 1.2 7 1.6 7.7 2.3 6 7.7 10.2 14 10.2 6.2 0 11.6-4.1 13.9-10 .2-.3 1.7-2.5 1.7-7.9z"/><path class="st1" d="M205.4 207.8c-.1 0-.1 0 0 0-.1-.1-1.6-3 .9-5 0 0 5.8 1.2 5.9-6.4 0 0-.1-.8.7-2.4 0 0-1.5-1.3-4.7 1.1-3.2 2.4-4.9 9.2-6.7 7.6-1.7-1.6-1.1-10.5-2-10.8-.9.3-.3 9.2-2 10.8-1.7 1.6-3.5-5.2-6.7-7.6-3.2-2.4-4.7-1.1-4.7-1.1.8 1.6.7 2.4.7 2.4.1 7.6 5.9 6.4 5.9 6.4 2.5 2 1 4.9 1 4.9s0 .1-.1.1c-6.9-7.4-10.9-6.4-8.9 1.9 1.9 8.1 9.4 42.9 10.5 51-.2 7.3-1 9.9-1.2 10.4l-.7 1.5.8 1.7c1.3 1.9 2.2 4 2.5 4.8l2.8 7.2 2.8-7.2c.3-.8 1.2-3 2.5-4.9l.9-1.6-.8-1.6c-.2-.5-1-3-1.2-10 1-7.2 8.6-43.1 10.5-51.4 2.1-8.1-1.9-9.1-8.7-1.8z"/><path class="st2" d="M194.8 244.1c-2.5-13-4.4-22.5-6-29.5-1.2-5.3 2-3.2 3.7.1l2.3 29.4zm9.4 0c2.5-13 4.4-22.5 6-29.5 1.2-5.3-2-3.2-3.7.1l-2.3 29.4zM191 200.3a.8.8 0 0 1-.6-1.1c.1-.2.2-.3.3-.5-.3-.4-.7-.7-1.2-1.1 0 0-.8 3.7 2.5 3.3 0 0-.1-.3-.4-.8-.1.2-.4.2-.6.2zm18.5-2.7c-.5.3-.8.7-1.2 1.1.1.1.3.3.3.5.1.5-.2 1-.6 1.1-.2.1-.5 0-.7-.1-.3.5-.4.8-.4.8 3.4.4 2.6-3.4 2.6-3.4zm-8.4 51.3c1.1-20 2.7-34.2 2.7-36 0-.6-.1-1.4-.3-2.3l-1.2 3.8-.4-6.7c-.6-.8-1.4-1.5-2.4-2.2h-.1c-1 .7-1.7 1.5-2.3 2.2l-.4 6.7-1.2-3.8c-.3.9-.3 1.7-.3 2.3 0 1.8 1.6 15.9 2.7 36 1.1 20-1.4 23.7-1.4 23.7 1.4 2.1 3 5.8 3 5.8s1.6-3.7 3-5.8c0 .1-2.5-3.6-1.4-23.7z"/></svg>