<svg version="1.1" id="Layer_2_1_" xmlns="http://www.w3.org/2000/svg" x="0" y="0" viewBox="0 0 400 400" style="enable-background:new 0 0 400 400" xml:space="preserve"><style>.st1{fill:#bdbec0}.st2{fill:#006cb4}.st3{fill:#f38223}</style><g id="Layer_2_2_"><path d="m199.4 355-24.6-31.9c-31.3-10.3-52.9-38.5-54.9-71.3L104.7 232c-14.5 6.3-29 16.1-29 16.1L30 202.3l19.2-42.1L15 115.6h54.6l10.7-23.1 27.1-11 3-8.1 21.9 10 5.2-18.2 3.6-1.2c17.4-5.8 37.3-8.9 57.8-9 .6 0 7.1.1 7.3.1.8 0 3.9.2 3.9.2 17.4.9 33.6 3.7 48.5 8.6l3.6 1.2 4.9 17.4 7.9-6.3L319.4 92l10.7 23.4h55.1l-34.8 44.9 18.9 41.5-46.4 47.8s-17-12.4-28.6-17l-14 18.1c-1.5 33.6-24.5 63.1-56.6 73L199.4 355z" style="fill:#fff"/><path class="st1" d="m199.4 333 158.1-204H42.4z"/><path class="st2" d="m29.4 122.6 170.1 220.7 171.2-220.7H29.4zm328.1 6.4L199.4 332.9 42.4 129h315.1z"/><path class="st2" d="m334.7 143.1-.2-.2-10.1-6.8 3.8-7.2.1-.2-.1-.2L314.3 98l-.1-.3-.2-.1-37.4-13.1-.3-.1-.2.2L266 92l-.1.1-.1.1-1.7 4.2s-15.5-3.8-38.5-6.3c-2.3-.2-8.6-.8-18.4-1.5l-.9-.1-.9-.1h-.4l-.2.2-7.4 7.4v-7.5s-21.1 1.2-34.9 3.1c-13.8 1.9-27.4 5.2-27.4 5.2l-2.6-5.3-.1-.2-.2-.1-17.6-8.1-.5-.2-.2.5-2.1 5.7-.5-1.2-.2-.5-.5.2L85.4 98l-.2.1-.2.3-46.7 102.7 38.4 38.5 1.7-.9c1.2-.7 2.8-1.6 4.6-2.7 4.6-2.7 11-6.5 14-8l.6-.3c3.9-2 5.9-2.8 24.6-10.9l1.5-.6s2.1-.8 5.9-2.1c10.3-3.4 36.9-11.4 62.7-11.4h3.4c17.5.5 38 4.2 52.2 7.3 13.6 2.9 23.8 5.7 26.7 6.5l2 .6c12.9 5 28.5 13.1 43.1 22.4l1.9 1.2 38.8-40-25.7-57.6z"/><path class="st3" d="m330.5 146.7-37.3-24.9-6.5-18.2 11.6 4.1 4.6 11.4 17.6 5.7-10.3-22.7-33.2-12-6.1 4.8 11.1 35.8 35.5 25.2 9.2 22.7-14.7-6.7-5.1-14.1-18.2-5.3 9.7 32c3 1 5.9 2.2 8.9 3.4 8.1 3.2 15.9 6.8 23.6 10.9 5.3 2.7 10.5 5.7 15.8 8.7l7.8-8-24-52.8zM78.6 163.6 91 152.5l3 3.5-12.3 35.4c6.7-3 13.6-5.7 20.5-8.1l8.9-29.1-7.7-12.8 15.9-15.2 9.3-31-11.5-5.1-10.3 29.2-16.5 14.1 15.1-37.9-16.1 6.4-44.5 97.6 7 7c4.2-2.4 8.3-4.8 12.5-6.8l14.3-36.1zm112.8-69.4-13.6.7-6.4 73.1c5.8-.6 11.6-.9 17.5-1.2l2.5-72.6zm40.5 58.5-15.8-.9-2.6-44.9 13.4.7-1.5-12.3-18.1-1.3-8.1 8.1v56l8.5 8.7c8.7.3 17.4.9 26 2l-1.8-16.1zM142 122.9l5.7 27.7-3.7 21.1c5.6-1 11-2 16.7-2.7l8.8-73.4-12.6 1.9-4.2 24-4.6-22.6-14.8 3.7-20.6 77c5.9-1.9 12.1-3.5 18.2-5.1l11.1-51.6zm110.2 25.8 4.5-6 6.5 5.3 6 27.2c6.3 1.5 12.5 3.4 18.7 5.3l-11.1-40-11.6-9.4 6.6-8.7-5.4-20.3-14-3.1 5.4 20.5-8.7 11.6-6.4-33.6-13-1.6s6.5 49.3 9.5 73.7c5.8.8 11.6 1.9 17.4 3l-4.4-23.9z"/><path class="st1" d="M173.3 181.9s5.3-3.1 16.1-4.4l-.3-8.5c-5.9.2-11.7.6-17.6 1 .6 3.6 1.4 8.3 1.8 11.9m34.1-4.8c4.4.5 9 2 13.1 3.1 3.7.9 7.7 2.6 11 3.9l1.9-13c-8.7-1-16.8-1.7-25.6-2-.3 2.5-.3 6.1-.4 8M151 197.6c5-3.7 8-7.5 13.3-10.8-.9-4.8-2.3-10.9-3.2-15.5-5.7.8-11.4 1.6-17 2.8 1.9 7.1 4.7 16.4 6.9 23.5m84.8-10.9c4.9 2.8 8.7 6 13 10.3l.9.7 6.8-22.7c-5.9-1.3-11.6-2.3-17.6-3.1l-3.1 14.8zm21.8 19.7 16.5 3.8 13.8-27.1c-6.3-2.1-12.4-3.8-19-5.4l-11.3 28.7zm-131.7 3.8c4.3-1.5 10.2-3.7 15.8-5.2l-10.5-28.1c-6.4 1.5-12.1 3.2-18.2 5.1 3.8 9.4 8.2 19.2 12.9 28.2m-24.7 10.1c.9-.8 10.2-4.9 16.6-7.4-4.9-8.7-10.7-18.3-15.5-27.2-6.8 2.4-13.2 5.1-19.9 8.1l18.8 26.5zm-23.1 12.4c2.9-1.7 6.1-3.6 9.5-5.7l-21.7-25.6c-4.2 2.1-8.1 4.4-12.3 6.7l24.5 24.6zm204.4-19.1c13 5.1 31.3 15.2 38.5 20.1 3.2-3.2 21.4-22.3 24-24.8-15.1-8.8-30.8-16.5-47.4-22.4l-15.1 27.1zm-77.6-37.1-6.3-.1v-15.2l6.5 6.8z"/><path class="st2" d="M200.1 173.6c-40.5 0-73.1 32.8-73.1 73.1 0 40.5 32.8 73.1 73.1 73.1 40.5 0 73.1-32.8 73.1-73.1s-32.6-73.1-73.1-73.1"/><path class="st3" d="M204.5 179c-5.7 2-11 4.9-16.5 7.3-3.7-2.2-5.7-2.7-8.2-4.4 7.9-2.6 16.2-3.1 24.7-2.9m52.5 31.1c-17.3-17.4-43.1-16.1-65.1-22.4 0 0 12.9-6.1 19.6-7.9 18.1 3.3 35.5 14.1 45.5 30.3m-96.9 2.7c-16.6 25.4-18.8 56.8-5.7 84.3-17-14.4-27.1-42.1-19.6-69 6.4-8.8 14.4-16.6 25.3-15.3"/><path class="st3" d="M177.8 230.9c8.9 26.5 10.9 56 34.1 82.7-18.1 3.7-35.9-1.7-50.2-10.8-17.6-25.7-16-64.2 1.6-89.1 8.7 2.4 13.3 13.7 14.5 17.2"/><path class="st3" d="M165.5 210.9c2.7-3.8 5.7-7.4 9.2-10.7 37.4 10.5 73.3 49.5 79.4 87.8-1.7 2.9-6.1 6.8-8.9 9.9-9.3 8.3-19.6 12.8-29.4 15.1-17.5-18.2-23.3-41.7-29.6-65-4.9-18.1-8.1-31.5-20.7-37.1z"/><path class="st3" d="M253.1 210.7c-18.2-16-43.4-14-64.6-21.3-4.1 2.6-8.1 5.4-11.6 8.6 37.4 11.7 71.5 48.5 79.8 86.4 5.9-8.6 9.4-18.3 10.9-28.9.8-16.2.8-30.8-14.5-44.8m-81.6-11.6c-3.6 3.5-6.3 6.8-9.2 10.9h-.1c-9.9-2.2-17.7 2.9-24.1 9.3 3-7.5 9.3-16.6 15.9-22.4 6.2.1 10.7 0 17.5 2.2m2.5-2.3c3.6-3.2 7-5.9 11.2-8.5l-9.6-4.8c-6.4 2.7-13.3 6-18 10.3 7.5.8 10.5 1.2 16.4 3"/><path class="st2" d="m189.7 83.9-3 2.9-5.1.3-1.9-1.6-2.4 2.1-5.6.5-2.4-2.3 3.2-21.7 4.2-.6-2.2 19.1 3-.3 2.3-19.1 4.2-.3-1.7 19 2.9-.3 1.5-18.9c1.7-.2 2.7-.2 4.2-.3l-1.2 21.5zM203.4 62v13.6h2.7l-.2-13.4s2.8.1 4.1.2l.6 15.2-2.7 2.6h-.9l.1 6.5-4.5-.1-.1-6.5-.9-.1-2.7-2.8.2-15.2h4.3m-33.8 2.4-.7 4.5-5.1.9-.9 5.2c1.9-.3 3-.5 5.2-.8-.3 2-.3 2.7-.8 4.5l-5.1.7-.9 5.1 5.2-.8s-.5 3.4-.8 4.9c-3.7.5-7.3.9-10.8 1.5 0 0 3.8-18.2 4.9-23.8l9.8-1.9zm-19.1 26.7-5.2 1 2.4-9.9-1.6-3.6-4.2 14.3-5.1 1.2c2.1-7.7 4.4-15.4 6.5-23.1 1.7-.6 3.1-.9 4.6-1.5.6 1.3 2 3.8 2 3.8l1.3-4.9s3.2-.9 5-1.3l-5.7 24zm74.2-25c.5 6.3 1.5 12.2 2.1 18l-2.3 3.5-7.4-.5-2.7-2.9c-.5-6.3-.8-12.8-1.2-19 .7-.9 1.7-1.6 2.6-2.6l6.3.6 2.6 2.9zm-7 1.1 1.4 14.7 2.7.2-1.4-14.6-2.7-.3zm31.1 1.1c.9 3.6 2.7 10.9 2.7 10.9l1.7.3.9-1.2-2.2-9.2s2.2.6 4.5 1.4l2.3 8.8-1 1.5 2.1 2.2 3.1 10.8-5.1-1.2-2.1-7.5-3.2-.7 1.7 7.4-5.1-1c-1.9-8.1-5.1-24-5.1-24s2.7 1 4.8 1.5m-8 .8 1.7 8.8-.9 1.4 1.7 2.1 1.5 8.7-5-.9-1.4-7.3-3-.3 1 7.2-5-.6-3.2-24.2 9.5 1.6 3.1 3.5zm-7.2.5.9 6.1 2.8.3-1.2-6-2.5-.4z"/></g></svg>