<svg version="1.1" id="Layer_1" xmlns="http://www.w3.org/2000/svg" x="0" y="0" viewBox="0 0 400 400" style="enable-background:new 0 0 400 400" xml:space="preserve"><style>.st0{fill:#002d62}.st1{fill:#007ac1}.st2{fill:#f05133}.st3{fill:#fff}</style><path class="st0" d="m342.7 92-15.2 31.1 9.4 4.6 15.2-31.1-9.4-4.6zm-48.8 76.3 44-90.3 18.7 9.1c5.2 2.5 7.3 8.7 4.8 13.9l-16.2 33.3c-2.1 4.3-5.7 6.1-9.8 4.1L324.3 183l-9.4-4.6 11.1-44.7-3-1.5-19.7 40.5-9.4-4.4zm26.3-97.4-19.7-6.4c-5.5-1.8-11.3 1.2-13.1 6.7l-24.5 75.5c-1.8 5.5 1.2 11.3 6.7 13.1l19.7 6.4 3.2-9.9-19.8-6.4 10.7-32.8 14.8 4.8 3.2-9.9-14.8-4.8 10.7-32.8 19.8 6.4 3.1-9.9zm-73-8 10.3 1.6-12.5 78.4-10.2-1.6 12.4-78.4zm-24.3 87 20.5 3.2c5.7.9 11-2.9 11.9-8.6l12.4-78.4c.9-5.7-3-11-8.6-11.9L238.5 51l-15.6 98.9zm-38.8-.7 10.4.2.5-29c.2-8.8-.4-26.7-.8-35.1h.3c2.7 22.4 7.7 43.2 10.9 64.3l9.8.2L217 49.6l-10.4-.2-.5 29c-.2 8.8.4 26.7.8 35.1h-.3c-2.7-22.4-7.7-43.2-10.9-64.3l-9.8-.2-1.8 100.2zm-21.9-98.3-10.3 1.6 14.1 88.7-10.3 1.6-14.1-88.7-10.2 1.6 13.4 84.4c1.3 8.5 9.4 14.3 17.8 13 8.5-1.3 14.3-9.4 13-17.8l-13.4-84.4zM110 166l9.9-3.2-13.9-42.7 9.9-3.2 13.9 42.7 9.9-3.2-30.9-95.3-9.9 3.2 13.9 42.7-9.9 3.2-14-42.7-9.9 3.2 31 95.3zm-20.7 10.1 9.3-4.5-39.3-80.8 9.3-4.6-4.5-9.2-28 13.6 4.5 9.3 9.3-4.6 39.4 80.8z"/><path class="st1" d="M297.5 230.5c23-5.1 45.5-8.5 67.3-10.3-24.1 7.4-48.7 15.6-73.5 24.6 2.2-4.6 4.2-9.4 6.2-14.3M54.4 351.9c19.2-17 40.9-33.2 64.7-48.1 4.5-2.3 8.9-4.5 13.4-6.7 1.8-.9 5.5-2.7 10-4.8 3.1 3.4 6.2 6.8 9.5 10-34 15.9-66.7 32.5-97.6 49.6"/><path class="st2" d="M307 202.1c19.9-.8 39.2-.5 57.7.9-20 2.8-40.3 6.1-61 9.9 1.2-3.5 2.3-7.1 3.3-10.8M37.7 284.6c22.3-14.2 47-27.1 73.7-38.3.9 1.8 1.8 3.6 2.7 5.3-1.4 2.9-2.9 5.9-4.3 8.8-24.8 7.7-48.9 15.7-72.1 24.2"/><path class="st3" d="m180.9 274.1 3.3-1.5 8.3-6.7 1.9-5.1c1.2 2.5 1.9 3.4 3.1 5.8l2.7-1.2c.1 2.7.1 5.2.1 7.7-6 1.4-12.5 2.1-19.2 2.2l-.2-1.2zm24-10.8c3.5-1.5 6.9-3 10.4-4.5l1.6-1.7c.7.1 1.5.1 2.4.1 1.3-.2 3-.7 4.8-1.3-1.2 4.2-1.9 7.9-2.2 11.1-4.9 1.7-10.4 3.4-16.7 5-.1-2.9-.2-5.7-.3-8.7m-3.7-93c37.6 0 67.1 8.8 100.4 25.4-16.3 61.4-46.1 102.7-100.4 136.2-20.4-12.6-37.7-26.7-52.2-42.7 6.4-3.1 13.7-6.5 20.1-9.5 2.6.2 5 .4 7.4.4-.1 3.5-1.3 6.1-3.1 8 1 1.2 2.1 2.4 3.2 3.5 2.8-2.5 4.6-6.2 4.8-11.5 6.6-.1 13-.8 18.9-2.1-.3 9.7-1.7 16.8-4.4 19.6l-.2.2c-.7.8-1.3 1.3-1.8 1.8 2.6-.5 5.3-1.1 7.8-1.8 3.3-6.9 3.4-18.9 3.4-21 6.1-1.5 11.6-3.1 16.6-4.8.2 5.6 2.5 11 6.8 13 1.9-1.4 3.8-2.8 5.7-4.3-1.1.2-7.9.6-7.8-10.3 14.5-5.5 23.9-12 32.2-21.8 2.2-5 3.9-10.1 5.2-15.5-9.9 15.6-19 24.7-36.8 31.9.5-3.2 1.4-6.9 2.9-11.4 5.2-2.2 10.6-4.8 13.9-6.1l7.8-8.2c2-7.6 3.9-15.1 5.8-22.7l-6.1 1.9 7.2-7.5c1.5-5.9 3-11.9 4.5-17.8-3.6.5-7.2 1.1-10.8 1.6.6-3 1-5.9 1.3-8.8-1.7-.4-3.5-.9-5.2-1.2-.4 3.3-1 6.9-2 11l-.5.1c-3.4.6-6.8 1.7-9.8 4.2l1-2.9c-5.8 1-11.5 2.1-17.3 3.2l-5.7 6 .2-.5 1.9-4.8-17.1 3.6c-1.2-7.7-2.4-14.6-3.4-20.2l-4.8.6c1 5.7 2.3 12.8 3.5 20.6l-4 .9-5.1 5.4c-3.6-3.8-10.9-1.4-15.5-.2-5 1.3-9.9 2.6-14.9 3.9-1.5.4-3 .9-4.4 1.4-3.7-5.4-7.2-10.9-10.1-16.9l-.5-1.1c-1.5.6-3 1.2-4.5 1.9l.6 1.3c2.8 5.8 6.2 11.3 9.8 16.6-5.3 2.4-10.3 5.7-14.6 10.4 0 0-7 7.3-7.8 8.2-1.8 2.1-3.4 4.3-4.7 6.5-7.3-14.7-13.1-30.7-17.5-48.2 33-16.7 62.5-25.5 100.1-25.5"/><path class="st2" d="m180.9 274.1 3.3-1.5 8.3-6.7 1.9-5.1c1.2 2.5 1.9 3.4 3.1 5.9l2.7-1.2c.1 2.7.1 5.2.1 7.7-6 1.4-12.5 2.1-19.2 2.2l-.2-1.3zm24-10.8c3.5-1.5 6.9-3 10.4-4.5l1.6-1.7c.7.1 1.5.1 2.3.1 1.3-.2 3-.7 4.8-1.3-1.2 4.2-1.9 7.9-2.2 11.1-4.9 1.7-10.4 3.4-16.7 5 0-2.9-.1-5.7-.2-8.7m-65.6-64.2c16.6-6.8 33.6-11.5 51.1-14 1 5.7 2.3 12.8 3.5 20.6l-4 .9-5.1 5.4c-3.6-3.8-10.9-1.4-15.4-.2-5 1.3-9.9 2.6-14.9 3.9-1.5.4-3 .9-4.4 1.4-3.7-5.4-7.2-10.9-10.1-16.8l-.7-1.2zm-4.1 26c-2.7-6.8-5.1-13.8-7.1-21 2.2-1.1 4.5-2.1 6.8-3.1l.6 1.3c2.8 5.8 6.2 11.3 9.8 16.6-3.6 1.6-7 3.6-10.1 6.2m38.2 63c-2.1-2.5-4.2-5-6.2-7.5l1.9-.9c2.6.2 5.1.4 7.4.4-.2 3.5-1.3 6.1-3.1 8m20.4 11.6c-2.7.5-5.5.9-8.3 1.1-3.1-3-6.1-6.1-8.9-9.2 2.8-2.5 4.6-6.2 4.8-11.5 6.6-.1 13-.8 18.9-2.1-.3 9.7-1.7 16.8-4.4 19.6l-.2.2c-.8.9-1.4 1.5-1.9 1.9m34.6-14.5c-8 5.7-17.1 10-26.8 12.8 3.3-6.9 3.4-18.9 3.4-21 6.1-1.5 11.6-3.1 16.6-4.8.2 5.6 2.5 11 6.8 13m30-36.5c-5.6 12.5-13.9 23.5-24.3 32.2-1.1.2-7.9.6-7.8-10.3 14.4-5.6 23.8-12.1 32.1-21.9m-36.9-65.8c8 0 15.8.4 23.5 1.3 5.9 1.2 11.7 2.7 17.5 4.5 2.2 7.7 3.4 15.9 3.4 24.3 0 7-.8 13.7-2.3 20.2-9.9 15.6-19 24.7-36.8 31.9.5-3.2 1.4-6.9 2.9-11.4 5.2-2.2 10.6-4.8 13.9-6.1l7.8-8.2c2-7.6 3.9-15.1 5.8-22.7l-6.1 1.9 7.2-7.5c1.5-5.9 3-11.9 4.5-17.8-3.6.5-7.2 1.1-10.8 1.6.6-3 1-5.9 1.3-8.8-1.7-.4-3.5-.9-5.2-1.2-.4 3.3-1 6.9-2 11l-.5.1c-3.4.6-6.8 1.7-9.8 4.2l1-2.9c-5.8 1-11.5 2.1-17.3 3.2l-5.7 6 .2-.5 1.9-4.8-17.1 3.6c-1.2-7.7-2.4-14.6-3.4-20.2 8.4-1.2 17.2-1.7 26.1-1.7"/><path d="M127.5 232.6c-4.7-10.2-8.6-20.9-11.8-31.9 27.9-13.1 56.7-20.2 87.4-21.1 14.3.1 28.2 1.6 41.9 4.5-7.7-.8-15.6-1.3-23.5-1.3-8.9 0-17.7.5-26.3 1.6l-4.8.6c-17.5 2.5-34.5 7.2-51.1 14-1.5.6-3 1.2-4.5 1.9-2.3 1-4.5 2-6.8 3.1 2 7.2 4.4 14.2 7.1 21-1.5 1.3-3 2.7-4.4 4.2l-3.2 3.4zm75.4 89.1c-16-10.8-30.2-23.6-42.5-37.9l6.9-3.2c2 2.5 4.1 5.1 6.2 7.5 1 1.2 2.1 2.4 3.2 3.5 9.1 10 19.2 19.2 30.2 27.4-1.4 1-2.7 1.8-4 2.7" style="fill:#fdbb30"/><path class="st0" d="m180.9 274.1.2 1.2c6.7-.1 13.2-.8 19.2-2.2 0-2.5 0-5-.1-7.7l-2.7 1.2c-1.2-2.4-1.8-3.4-3.1-5.8l-1.9 5.1-8.3 6.7-3.3 1.5zm24-10.8c.1 3 .2 5.8.2 8.6 6.3-1.6 11.8-3.2 16.7-5 .3-3.2 1-6.9 2.2-11.1-1.8.6-3.4 1.1-4.8 1.3-.9.1-1.7.1-2.4-.1l-1.6 1.7c-3.4 1.6-6.8 3.1-10.3 4.6m-3.7-93c-37.6 0-67.1 8.8-100.5 25.4 4.4 17.5 10.1 33.5 17.5 48.2 1.4-2.3 2.9-4.5 4.7-6.5.8-.9 7.8-8.2 7.8-8.2 4.3-4.7 9.2-8 14.6-10.4-3.7-5.3-7-10.7-9.8-16.6l-.6-1.3c1.5-.6 3-1.3 4.5-1.9l.5 1.1c2.9 6 6.4 11.5 10.1 16.9 1.4-.5 2.9-.9 4.4-1.4 5-1.3 9.9-2.6 14.9-3.9 4.6-1.2 11.9-3.6 15.4.2l5.1-5.4 4-.9c-1.2-7.9-2.4-15-3.5-20.6l4.8-.6c1 5.6 2.2 12.6 3.4 20.2l17.1-3.6-1.9 4.8-.2.5 5.7-6c5.8-1.1 11.5-2.2 17.3-3.2l-.9 2.9c3-2.5 6.4-3.6 9.8-4.2l.5-.1c1-4.1 1.6-7.7 2-11 1.7.4 3.5.8 5.2 1.2-.2 2.9-.7 5.9-1.3 8.8 3.6-.6 7.2-1.1 10.8-1.6-1.5 5.9-3 11.9-4.5 17.8l-7.2 7.5 6.1-1.9c-2 7.5-3.9 15.1-5.8 22.7l-7.8 8.2c-3.3 1.4-8.7 4-13.9 6.1-1.5 4.5-2.4 8.3-2.9 11.4 17.8-7.2 26.9-16.3 36.8-31.9-1.3 5.4-3 10.5-5.2 15.5-8.3 9.8-17.7 16.4-32.2 21.8-.1 11 6.8 10.5 7.8 10.3-1.8 1.5-3.7 3-5.7 4.3-4.3-2-6.6-7.4-6.8-13-4.9 1.7-10.4 3.2-16.6 4.8-.1 2.1-.1 14.1-3.4 21-2.6.7-5.2 1.3-7.8 1.8l1.8-1.8c0-.1.1-.2.2-.2 2.8-2.8 4.1-9.9 4.4-19.6-5.9 1.3-12.3 1.9-18.9 2.1-.1 5.3-1.9 9-4.8 11.5-1.1-1.2-2.1-2.3-3.2-3.5 1.8-1.9 2.9-4.5 3.1-8-2.3-.1-4.8-.2-7.4-.4-6.4 3-13.7 6.5-20.1 9.5 14.5 16 31.8 30.1 52.2 42.7 54.3-33.5 84.1-74.8 100.4-136.2-32.9-16.5-62.4-25.3-100-25.3M92.8 192.1c36-18.5 67.6-28.6 108.5-28.6 40.8 0 72.5 10.1 108.5 28.6C293 259.5 261 304.2 201.2 340c-22.5-13.5-42.3-29.3-58.6-47.7-4.5 2.2-8.2 3.9-10 4.9-5.6 2.8-11.3 5.6-16.9 8.5-6.3 3.2-13.4 8.1-20.7 6.2-8-3.5-2.7-13.2-.3-18.7 6.2-14 12.7-27.8 19.4-41.6-8.1-15.2-14.5-31.8-18.9-49.7l-2.4-9.8z"/><path class="st3" d="M245.8 198.8c-3.5.6-6.6 1.7-9.2 4.3-2.1 2.3-3.2 5-4.2 7.9-2.8 8.6-5.5 17.3-8.3 25.9-1.1 3.4-2.9 9.6 2.6 9.2 1.9-.3 3.6-1.1 5.4-1.8 5.5-2.4 11.1-4.7 16.7-7 1.4-5.4 2.8-10.9 4.2-16.3-2.9.9-5.8 1.8-8.8 2.8-.7 2.5-1.4 4.9-2.1 7.4-2 .7-4.1 1.5-6.1 2.2 2.6-8.8 5.1-17.5 7.7-26.3l5.4-1.2c-.4 1.5-.9 3.1-1.3 4.6 2.6-.6 5.3-1.3 7.9-1.9 1-3.9 2-7.9 3-11.9-4.2.7-8.5 1.4-12.9 2.1m-24.9 4.2c-6.2 8.1-12.3 16.3-18.4 24.5 2.8-7.5 5.7-15 8.6-22.5-6.4 1.3-12.9 2.7-19.2 4.2-1.7 3.9-3.3 7.7-5 11.6 1.4-.4 2.8-.8 4.1-1.1-5 12.2-10 24.4-14.8 36.7-2 5-3.9 10-5.9 15 6.4-3 12.9-6 19.3-9 2.9-8.1 5.9-16.1 8.9-24.2l8.1 16.5c4.2-1.8 8.3-3.7 12.5-5.5-2.5-5.8-5.1-11.6-7.7-17.3 4.6-7 9.3-14 14-20.9 1.3-.3 2.7-.6 4-.9 1-3 2-6 3-9.1-3.8.6-7.7 1.3-11.5 2m-76.6 67.2c-4.5 2-8.9 4-13.4 6.1 6.5-15 13.2-29.9 20.2-44.7 3.9-1.2 7.9-2.5 11.8-3.7-6.5 14.1-12.7 28.2-18.6 42.3m10.7-51.7c-8.5 2.3-16 5.9-22.1 12.6-3.5 4-5.9 8.5-8.3 13.2-6.8 13.8-13.3 27.7-19.5 41.7-1.6 3.6-6.6 12.5-1.3 14.8 5.9 1.5 13.2-3.4 18.4-6 5.6-2.9 11.3-5.7 16.9-8.5 9.6-4.8 18.3-10.6 24.1-19.9 2.3-3.9 4.1-8.2 5.8-12.4 3.7-9.1 7.4-18.1 11.3-27.1 1.4-3.4 3.9-7.6 3.1-11.3-1.6-5-10-1.9-13.6-1-4.9 1.3-9.9 2.6-14.8 3.9"/><path class="st1" d="M269.6 191.3c2.5.8 5 1.7 7.4 2.6-2.4-.9-4.9-1.8-7.4-2.6m-.4-.6c2.6.9 5.1 1.7 7.6 2.7 6.2 2.3 11.6 4.6 16.2 6.8-13.9 47.9-42.5 88-82.8 116.6l-3.3 2.3c-11.8-8.9-18.8-15.8-18.8-15.8l5.6-.9c16.8-2.8 33.1-10.4 46.5-23 22.9-21.4 32.2-51.8 27.5-80.6-.1-.7-.2-1.3-.4-2l-.1-.3-.1-.3-.1-.2-.1-.3-.1-.3-.1-.3-.1-.3-.1-.3-.1-.3-.1-.3-.1-.4-.1-.3-.1-.3-.1-.2-.1-.3c-.2-1-.5-1.9-.7-2.7 1.7.3 2.9.6 4.1 1"/></svg>