<svg version="1.1" id="Layer_2" xmlns="http://www.w3.org/2000/svg" x="0" y="0" viewBox="0 0 400 400" style="enable-background:new 0 0 400 400" xml:space="preserve"><style>.st0{fill:#c2ccd2}.st1{fill:#fff}.st2{fill:#0b77bd}</style><path class="st0" d="M163.7 250.8c19.6-3 39.2-2.1 56.4 5.1l2.1-4.6c-27.8-8.9-62.7-8.5-88.6 5.8l7.4-17.2c-32.7 8.8-54.6 27.3-76.7 46.2 16.1-38.1 51.1-69.3 90.7-80.7l-2 6.3c34.7-11.3 72.8-13.5 103.6-8.4l-7.2-9.4 17.7 4.5 11.4-17 4.5 21 17.4 5.6s-12.7 5.3-12.1 5.6c65.9 27.1 44.8 117.3-17.8 117.7-31.7.3-56.3-28.4-55.2-58.3-16.3-10.5-32.4-15.6-51.6-22.2"/><path class="st0" d="M123.6 129.5c0-7.1 2-13.5 6.3-18.2 4.3-4.7 10.4-7.4 17.4-8 13.4-1.2 27-2 40.5-2.3l9.9-.2v114.4l-.2 9.8-9.9-.2c-1.7 0-15 .5-17.4.6h-.3l-10.7 1v-.2l-6.7.3c-.9 0-16.9 1.6-17.6 1.8l-11.3 1.8V129.5zm27.7 1.1v-.2c.1-2 1.2-4.6 3.2-6.1s4.1-1.9 6.1-2c0 0 1.8-.1 3.7-.2l5.7-.4v40.8l-5 .3c-3 .2-4.8.3-8.1.5l-5.7.4v-33.1zm217.8 121s-13.3-4.1-15.3-4.7c-.1 0-.1 0-.2-.1-6-1.7-11.4-3.2-15.3-4.3l-7.1-1.8c-6.8-1.6-12.5-4.9-16.4-9.8-3.9-4.9-5.8-11.2-5.8-18.1v-74.3c0-7.3 2.2-14 7.5-18.1 3.4-2.7 7.6-3.9 12-3.9 2.3 0 4.7.3 7.1.9.9.2 3.5.9 7.6 2.1 4 1.1 9.2 2.6 14.3 4.1 10.3 2.9 20.3 5.8 20.3 5.8l3.9 1.1V181l-32.4-10-.5-3.3s-.9-5.9-1.8-11.3V213c0 .1.1.3.1.4 0 0-.1.1.9.4 0 0 2.1.5 3.5.9.9-3.8 1.8-7.7 1.8-7.8l1.3-5.6 27.1 8.1.1 45.7-12.7-3.5z"/><path class="st0" d="M16.3 145.1c0-5.7 2.7-10.4 5.8-13.6 3.2-3.3 6.7-5.3 10-6.4 14.9-4.8 35.9-8 36.9-8.2l5.7-.9c2.4-1.3 5-2.4 7.7-2.9 7.3-1.5 29.5-5.7 30.5-5.9l11.5-2.2v116.3l-.2 8.7-8.6 1c-.7 0-16.8 2.8-17.6 3l-12 2.7v-18.8l-33.4 7.9v11.5l-.1 7.6-7.3 1.8c-.1 0-2.6.7-5.2 1.5-2.7.8-5.7 1.8-8 2.5-1.4.4-2.6.8-2.7.9l-13.2 4.8V145.1zm281.3 88.5h-.2c-.2 0-.4-.1-.6-.1-.5-.1-1.2-.2-2-.4-1.6-.3-3.7-.6-5.7-1-4-.7-8.4-1.4-8.7-1.4l-4-.4-4.7-.5V106.2l10.6.8c1.1.1 3.4.5 6.8 1 3.2.5 7 1.2 9.6 1.6 1.9.3 2.9.5 3.8.7l7.4 1.9v111.9l-.1 12.1-12.2-2.6zm-37.6-5.5c-1.1-.2-7.7-.9-14.7-1.4-6.6-.5-13.9-1-18.6-1.3l-5.1-.2c-7.1-.3-13.4-2.5-17.9-7.1-4.4-4.6-6.5-10.9-6.5-18v-77.4c0-6.2 1.8-11.9 6-15.9 5.3-5 11.8-5.5 15.8-5.5 1.1 0 2 0 2.7.1h1.5c1.4 0 3.1.1 5.6.2l2.9.1-.1.1c2.8.2 6.3.5 10.8.8 15.1 1.2 19.1 1.6 21.4 2.1.8.1 1.8.5 2.1.7l5.6 2.7v40.3l-32-4.1-.8-3.7s-.9-4.1-1.7-7.7c-.4 0-.9-.1-1.4-.1l.1 14.7v3.2l2-.1h.3c.9 0 2.1.1 4.1.3 1.9.2 4.3.4 6.8.6 5 .4 10.4 1 13.1 1.3.8.1 1.2.1 1.9.3l7.7 1.7-.1 75.5-11.5-2.2z"/><path d="M126.8 129.5c-.2-13 7.9-22 20.9-23 13.3-1.2 26.9-2 40.3-2.3l6.7-.1v111l-.1 6.7-6.7-.1c-1.7 0-16.9.5-18.1.7l-7.2.7v-43.4c-1.3.1-2.5.2-3.8.3v37l-.1 6.2-6.2.3c-1.2 0-16.8 1.6-17.9 1.8l-7.6 1.2-.2-97zm32 26.2c1.3-.1 2.5-.2 3.8-.3v-25.9c-.9.1-1.5.1-1.4.1-1.2.1-1.8.3-2 .5-.2.2-.3.2-.4.8v24.8zm211.3 92.8s-11.7-3.6-14.8-4.5c-.3-.1-.5-.1-.6-.2h-.1c-6.6-1.9-12.5-3.5-16.5-4.6l-6.2-1.5c-12.6-2.9-19.8-12-19.7-24.8v-74.3c0-6.8 2-12.2 6.2-15.6 2.8-2.2 6.2-3.2 10-3.2 2 0 4.2.3 6.4.8 2.1.5 42 11.9 42.1 11.9l1.5.4v43.8l-26.3-8.1-.2-1.3s-2-12.8-2.9-18.2c-1.6-.5-2.8-.8-3.6-1.1h-.1l-.7-.2-.9-.3V213c0 .2.1 1.1.5 1.8.5.9 1.3 1.6 2.9 2.1 0 0 3.5.9 6.7 1.8l2.5-11 .5-2.2 21.6 6.5.1 39.1-8.4-2.6zM19.5 145.1c.2-9.5 8.3-15.3 13.6-17 14.5-4.6 35.5-7.9 36.5-8.1l6.3-1c2.2-1.3 4.7-2.3 7.3-2.9 7.2-1.5 29.4-5.7 30.4-5.9l7.7-1.4v112.4l-.1 5.8-5.8.7c-1.2.1-16.8 2.8-17.9 3.1l-8.1 1.8v-91h-.2c-2.3.7-2.7 1.2-3.2 3.7v69.2L54.3 222v-72.5c-.2.1-.4.1-.5.1-1.1.3-2.3.9-3.1 1.5-.8.7-1.1 1.2-1.1 2.2V237l-.1 5.1-4.9 1.2c-1.1.3-15.1 4.6-16.1 5l-8.9 3.3V145.1zm278.8 85.3c-1.1-.3-16.6-2.8-17.7-2.9l-4-.4-1.9-.2V109.7l7.1.6c1.8.2 18 2.9 19.7 3.3l5 1.3v109.3l-.1 8.1-8.1-1.9zm-37.7-5.5c-3.1-.6-24.1-2.2-33.6-2.8l-5.2-.2c-6.6-.3-12-2.3-15.7-6.1-3.7-3.8-5.6-9.3-5.6-15.8v-77.3c0-5.6 1.6-10.3 5-13.6 4.3-4.1 9.9-4.6 13.6-4.6 1 0 1.9 0 2.6.1h1.5c2.8 0 7.9.4 19 1.2 15.1 1.2 19.2 1.6 21 2 .6.1 1.1.3 1.4.5l3.8 1.8v34.7l-26.2-3.4-.3-1.5s-1.4-6.2-2.2-10c-.5 0-1-.1-1.4-.1-.2 0-4.2-.3-4.2-.3h-.6c-.4 0-.7 0-1 .1v1.8l.1 16.3v6.5l5.4-.2h.2c1.3 0 7 .5 12.8 1 5.8.5 11.2 1.1 12.4 1.3l5.1 1.1-.1 69.1-7.8-1.6zm-28-28.6c0 .1.1.9.3 1.3.2.3.5.6 2 .7 0 0 .7 0 1.6.1v-22c-1.3-.1-2.9-.2-2.9-.2l-1.1-.1.1 20.2zm-4.4-66.7"/><path class="st1" d="M188 108.8v-1.1c-13.3.3-26.7 1-40 2.2-11.3 1-17.7 8-17.6 19.5v92.7l3.5-.6c1-.2 17.4-1.8 18.3-1.9h2.8v-43.2c2.7-.2 8-.6 11-.8V219l3.3-.4c.9-.1 16.1-.7 18.3-.7h.1l2 .1h1.1V107.7l-3 .1.2 1zm-21.9 17v33c-2.7.2-8 .5-11 .7v-28.8c.3-2 1-4.2 5.7-4.6 0 0 2.9-.2 5.3-.3m208.8 88.9-15.3-4.6-.2 1.1s-1.9 8.4-2.7 12.1c-6.1-1.8-8.8-2.6-10.3-2.9-3.1-.9-4.5-2.6-5.2-3.9-.8-1.5-.9-3.1-.9-3.5v-66c0-.3.1-1.7.6-2.4.3-.5.8-.7 1.8-.7.5 0 1.2.1 2 .3h.3c.2 0 2.8.8 7.3 2.1.6 3.8 2.9 18.8 2.9 18.8l.1.7 19.5 6v-36.1l-.8-.2s-38.1-10.9-40.1-11.3c-2-.5-3.9-.8-5.6-.8-3.1 0-5.7.8-7.8 2.4-3.3 2.6-4.9 7-4.9 12.8v74.3c-.1 11.1 5.8 18.6 16.8 21.2l.2.1h.4c1.3.2 11.8 3.1 22.4 6.1l15.5 4.7 3.8 1.2.2-31.5zm-291-95c-4 .8-7.6 2.9-10.4 5.7V123l-3.4.5c-.9.1-21.8 3.4-35.9 8-4.6 1.5-11 6.5-11.1 13.6v101.5l4-1.6c.8-.3 15.6-4.8 16.5-5.1l1.4-.3.8-.2v-86c0-4.4 4.1-6.3 6.8-7.2.9-.3 3.1-.7 5.1-1v72.3l24.5-5.8V145c.6-4 2.3-5.9 6-6.9h.1c.6-.1 2.6-.4 4.5-.7v90.8l3.7-.9c.9-.2 17.4-3 18.4-3.1l1.7-.1 1-.1V113.2l-3.5.6c.1 0-23 4.3-30.2 5.9m197.6-5.9-2.1-.2-1.1-.1v110.1l1 .1 1.7.2c.9.1 17.3 2.8 18.2 3l3.7.9V117.5l-2.2-.6c-1.5-.3-17.8-3-19.2-3.1m-43.3 43.6h-.2l-1.8.1h-1v15.3l1 .1s2.3.2 3.9.3v29.2c-2.4-.2-5.4-.4-5.5-.4-2.5-.2-4-1.1-4.9-2.5-.7-1.2-.8-2.6-.8-3.2v-48.8l-.1-16.2v-1.7c0-.9.2-1.9.8-2.6.6-.7 1.8-1.2 3.8-1.2h1.2c.5 0 3.3.2 8 .6.7 3 2.4 10.9 2.4 10.9l.2.7 19.6 2.5v-28.2l-1.7-.9c-.8-.3-1.6-.6-21.2-2.1-11.8-.9-16.7-1.2-18.9-1.2h-1.5c-.7 0-1.5-.1-2.5-.1-3.3 0-7.7.5-11 3.6-2.7 2.5-3.9 6.3-3.9 11V200c-.1 11.3 6.4 18 17.8 18.3h.5c2.9 0 34.4 2.2 38.8 3l3.5.7.1-61.9-2.3-.5c-1.6-.3-22.1-2.2-24.3-2.2"/><path class="st2" d="M238.2 170.1c1 .1 4.9.3 4.9.3v35.1c-2.9-.2-5.8-.4-8.6-.6-4.2-.3-6.3-2.3-7.2-4-1.1-1.9-1.2-3.9-1.2-4.6v-48.8c0-9.3-.1-16.3-.1-16.8v-1.1c0-1.2.3-3 1.6-4.5 1.4-1.6 3.8-2.4 7-2.2 0-.1 4.9.3 10.6.8l2.6 11.7 14.2 1.9v-23c-1.2-.5-39.7-3.5-39.7-3.1h-.7c-3.1-.1-8.1-.3-11.3 2.7-2 1.9-3 4.9-3 8.9V200c0 10 5 15 15 15.4 0-.3 34.7 2.1 39.7 3.1 0-1.2.1-54.7.1-55.9-1.2-.2-22.5-2.2-23.7-2.2v9.7zm-86-39.5c.2-2 1.3-6.9 8.4-7.4 2.8-.2 5.6-.4 8.4-.5v39c-5.6.3-11.3.7-16.9 1.1v-32.2zm-18.8-1.1v89.2c1.2-.2 17.6-1.9 18.8-1.9v-43.1c5.6-.5 11.3-.9 16.9-1.2v43.2c1.2-.1 17.8-.7 19-.7V110.7c-13.3.3-26.6 1-39.8 2.2-9.9 1-14.9 6.7-14.9 16.6M281.2 221c1.2.1 17.5 2.8 18.6 3.1V119.9c-1.1-.3-17.5-3-18.6-3.1V221zM70.6 137.5v-11s-21.4 3.4-35.5 7.9c-3.7 1.2-9 5.4-9 10.8v97.2c1.1-.4 15.7-4.9 16.9-5.2v-83.7c0-5.9 4.8-8.8 8.9-10 2.3-.7 9-1.7 9-1.7v72l18.6-4.4v-64.6c.6-5 3.3-8.4 8.3-9.5 4.7-.8 8.2-1.3 8.2-1.3v90.4c1.1-.3 17.7-3.1 18.8-3.2V116.7s-23 4.3-30.3 5.8c-6.9 1.5-12.4 7.1-13.9 15m301.3 79.4-10.2-3-3 13.2c-6.6-2-13.3-3.9-13.3-3.8-4.1-1.1-6.1-3.6-7.1-5.4-1.1-2.1-1.2-4.1-1.2-4.9v-66c0-.8.1-2.7 1.2-4.2 1-1.3 3-2.7 7-1.5 0-.1 4.3 1.2 9.5 2.7l3 19.5 14 4.3V138s-36.8-10.6-38.5-11c-9.7-2.4-14.7 1.6-14.7 11.6v74.3c0 10 5 16 14.7 18.4 0-.2 12.3 3.2 23 6.2l15.6 4.7v-25.3z"/><path class="st2" d="M238.2 170.1c1 .1 4.9.3 4.9.3v35.1c-2.9-.2-5.8-.4-8.6-.6-4.2-.3-6.3-2.3-7.3-4-1.1-1.9-1.2-3.9-1.2-4.6v-48.8c0-9.3-.1-16.3-.1-16.8v-1.1c0-1.2.2-3 1.5-4.5 1.4-1.6 3.8-2.4 7-2.2 0-.1 4.9.3 10.6.8l2.6 11.7 14.2 1.9v-23c-1.2-.5-39.7-3.5-39.7-3.1h-.7c-3-.1-8.1-.3-11.3 2.7-2 1.9-3 4.9-3 8.9V200c0 9.9 5 15 15 15.4 0-.3 34.7 2.1 39.7 3.1 0-1.2.1-54.7.1-55.9-1.2-.2-22.5-2.2-23.7-2.2v9.7zm43 50.9c1.2.1 17.5 2.8 18.6 3.1V119.8c-1.1-.3-17.5-3-18.6-3.1V221zM70.6 137.5v-11s-21.4 3.4-35.5 7.9c-3.7 1.2-9 5.4-9 10.8v97.2c1.1-.4 15.7-4.9 16.9-5.2v-83.7c0-5.8 4.8-8.8 8.9-10 2.3-.7 9-1.7 9-1.7v72l18.6-4.4v-64.6c.6-5 3.3-8.3 8.3-9.5 4.7-.8 8.2-1.3 8.2-1.3v90.4c1.1-.3 17.7-3.1 18.8-3.2V116.7s-23.1 4.3-30.3 5.8c-6.9 1.5-12.4 7.1-13.9 15"/><path d="M141.9 73.3c-.5-.6-1.2-1.1-2-1.3-.6-.2-1.1-.2-1.7-.2-.9 0-1.7.1-2.4.2-2 .4-4 .8-6 1.1-1.5.3-2.8.8-3.8 1.4-.7.5-1.4 1.1-1.8 1.8-.5.9-.8 1.9-.8 2.9v19.4c0 1 .2 2 .8 2.8.5.6 1.2 1 2 1.2.5.1 1 .1 1.4.1.9 0 1.8-.2 2.6-.3 2-.4 4-.8 6-1.1 1.5-.3 2.8-.7 3.8-1.3.8-.5 1.4-1 1.8-1.7.6-.9.8-1.9.8-2.9V76.1c.1-1.1-.1-2.1-.7-2.8m-6.5 22.5s0 .2-.3.5c-.2.2-.6.4-1.2.5-.5.1-1.6.3-2.4.5h-.4c-.3 0-.3-.1-.3-.1s0-.2-.1-.2V78.8s0-.2.2-.5c.2-.2.6-.4 1.3-.6.7-.1 1.4-.3 2.1-.4.2 0 .4-.1.5-.1.3 0 .4.1.5.1.1 0 .1.2.1.2v18.3zm97.7-26.3c-.5-.7-1.1-1.2-1.9-1.6-1.4-.7-2.9-.9-3.9-.9-4-.3-8-.5-11.9-.6h-1.2v29.4h1.1c1.7.1 3.5.1 5.2.2h1.2V71.5c.8 0 1.6.1 2.4.1 2.8.3 2.4 1.2 2.5 1.5v23.1l1 .1c1.7.1 3.4.2 5.1.4l1.2.1V72.3c.1-1-.2-2-.8-2.8m23.7 2.7c-.5-.7-1.1-1.3-1.8-1.7-1.1-.6-2.3-1-3.9-1.2-1.6-.3-9.7-1.2-11.9-1.4l-1.2-.1v29.5l1 .1c3.9.4 7.9.9 11.8 1.4.7.1 1.3.1 1.8.1.8 0 1.5-.1 2.1-.3.8-.2 1.5-.7 2-1.3.6-.8.9-1.8.9-2.8V75.1c0-1-.3-2-.8-2.9M250 93.3c-.2.1-.6.2-1.1.2-.3 0-.7 0-.9-.1l-2.7-.3V73.6l2.4.3c.8.1 1.5.3 2 .6.4.3.6.5.6 1.2v16.9c-.1.6-.2.6-.3.7m-83.8 3v-9.9c0-1-.6-2-1.5-2.6-.1-.1-.2-.2-.4-.2.8-.6 1.7-1.5 1.7-3.1V73c0-1-.3-2-.9-2.8-.5-.6-1.2-1.1-2-1.3-.7-.2-1.5-.3-2.4-.3-.5 0-1 0-1.6.1l-11.7 1.5-1 .1v29.5l1.3-.2c1.7-.3 3.4-.5 5.1-.7l1-.1V87.3c.9-.1 1.7-.2 2.6-.3h.9c.7 0 1 .1 1.2.2.2.1.2.3.2.7v10.2l1.3-.1c1.7-.2 3.4-.4 5.1-.5l1-.1.1-1.1zm-7.5-15.9c0 .2 0 .5-.4.9-.4.3-1.1.6-2.1.8-.7.1-1.5.2-2.2.3v-8.2c.8-.1 1.7-.2 2.5-.3.4-.1.8-.1 1.1-.1.7 0 1 .1 1.1.2.1.1 0 0 .1.3v4.9c-.1.6-.1 1.1-.1 1.2m28 9.2v-3.8l-1.2.1-4.5.3-1.7 5.2c-.7 0-1.3.1-2 .1V66.9l-1.2.1c-1.7.1-3.5.3-5.2.4l-1 .1V97l1.2-.1c4.8-.4 9.7-.7 14.5-.9h1.1v-6.4zm22.4-23.4c-1.4 0-5.4-.1-8.5-.1h-3.5c-1.6 0-2.9.2-4 .7-.8.3-1.5.9-2 1.5-.6.8-.9 1.8-.9 2.9v24.5h1.2c1.7 0 3.4-.1 5.1-.1h1.1v-11h5v10.9h1.1c1.7 0 3.5 0 5.2.1h1.2V66.2h-1zm-6.4 13.5h-5V72c0-.1 0-.3.3-.5.3-.3 1-.5 2.2-.5h2.5v8.7zm76.9-3.3c-.4-.7-1-1.3-1.7-1.8-1.3-.9-2.8-1.2-3.9-1.5l-6-1.2c-.8-.1-1.5-.2-2.2-.2-.6 0-1.2.1-1.8.2-.8.2-1.5.6-2 1.2-.7.9-1 1.9-1 2.9v19.4c0 1 .2 2 .8 2.9.4.7 1.1 1.3 1.8 1.7 1.3.8 2.8 1.1 3.9 1.3 2 .4 4 .7 5.9 1.2.9.2 1.7.3 2.5.3.5 0 1 0 1.4-.1.8-.2 1.6-.6 2.1-1.2.6-.8.9-1.7.9-2.8V79.3c0-1-.2-2-.7-2.9m-6.5 20.7s0 .1 0 0v.1c-.1 0-.2.1-.5.1-.2 0-.4 0-.6-.1-.5-.1-1.5-.3-2.4-.4-.6-.1-1-.4-1.1-.7-.1-.2-.1-.4-.1-.4V77.4c.1 0 .2-.1.5-.1.2 0 .4 0 .6.1.7.1 1.4.3 2.1.4.6.1 1 .3 1.2.5.4.3.3.6.3.6v18.2z"/><path class="st1" d="m157.4 236.6 3.7-1.8 3.1 2.7-.6-4 3.5-2.1-4-.7-.9-4-1.9 3.6-4.1-.4 2.9 3z"/><path d="M281.7 213.7c3.6-1.6 10.4-4.5 10.4-4.5l.5-.2-.5-.2s-10.9-3.6-13.2-4.3c-.4-2.5-2.1-14.3-2.1-14.3l-.1-.6-4 6.4s-2.3 3.7-3.5 5.6c-2.6-.7-13.8-3.5-13.8-3.5l-.6-.2.4.5s4.6 5.9 7.3 9.5c-11.3-2.5-24.4-3.8-39.3-3.8-4.9 0-10 .1-15.4.5-20.4 1.2-40.5 5-59.7 11.9l2.2-6.6-.4.1c-30.1 9.4-63.1 37.7-77.7 65.6l.3.2C93.1 256.5 121 241 146 235.4l-6.6 15.3.5-.2c11.6-5.6 26.9-8.1 42.3-8.1 15.8 0 31.7 2.6 44 7.1l-4.7 10.3c-11.2-5.1-27.4-8.6-40.9-8.6-2.4 0-4.7.1-6.9.3v.4c15.9 4.5 32.3 9.6 45.4 20-.1 1.1-.1 2.2-.1 3.3 0 27.5 23.7 52.4 51.6 52.4h.6c30.7-.4 53.5-28.5 53.5-57.9-.1-21.5-12.4-43.7-43-56"/><path class="st0" d="M264.9 264.1c-11.3 0-22.7-4.2-34.1-8.3-3 6.3-4.5 13-4.5 19.8 0 3.6.4 7.2 1.3 10.9h2.8c22 0 45.4-6.1 64.2-17.3-2.2-4-4.9-7.8-7.7-11.5-7.3 4.6-14.6 6.4-22 6.4"/><path class="st0" d="M229.6 290.7h-.7c6.9 17.8 22.7 29.6 41.9 29.9 6.2-15.2 13-31.8 28.6-39.5-.8-2.7-1.8-5.4-2.9-8-20.1 11.7-43.6 17.6-66.9 17.6m47.6-55.8c-6.8-2.6-11.2-3.4-11.6-3.5-1.9.3-4.5.5-6.6.9 11.6 4.6 20.2 10.2 28.8 19.9 4.4-3.5 8.3-7.5 11-12.3-7.9-7.7-22.8-17.1-60-20 15.7 3.7 30.1 8.8 38.5 14.7l-.1.3zM173 229.7c2.3 0 4.8-.1 7.4-.1 26.4 0 67.1 3.1 82.9 21.9l-.3.3c-5.5-3-16.4-8.1-23.2-8.1h-.6c-2.3 2.6-4.4 5.4-6.3 8.4 10.6 3.9 21.3 7.8 31.8 7.8 6.7 0 13.3-1.5 19.8-5.5-18.3-20-49.3-28.7-78.5-28.7-11.5.1-22.8 1.4-33 4m124.9 37.4c5.1-3.5 9.5-7.1 13.5-11.8-2.5-4.8-6.9-10.2-10-12.9-2.9 5.1-6.6 9.4-11.2 13.1 2.8 3.5 5.6 7.6 7.7 11.6"/><path class="st0" d="M275.3 320.4c9.3-1.1 17.8-4.3 25-10.4 1.1-4.1 1.6-8.4 1.6-12.6 0-4.1-.4-8.1-1.2-12.1-14 6.7-19.8 21.5-25.4 35.1m30.6-20.3c0 1.4 0 2.8-.1 4.2 5.4-7.4 8.4-13.8 10-23.2-4 .4-7.9 1-11.7 2.3 1.3 5.6 1.8 11.1 1.8 16.7m-6-29.2c1.2 2.8 2.3 5.7 3.3 8.6 4.4-1.4 8.6-2.2 13.1-2.4v-1c0-6-.9-10.7-2.9-16.4-4.2 4.3-8.6 7.9-13.5 11.2"/><path class="st0" d="M316.2 277.1c-4.5.3-8.8 1-13.1 2.4-1-2.9-2-5.8-3.3-8.6 5-3.3 9.4-7 13.5-11.2 2 5.8 2.8 10.4 2.9 16.4v1"/><path class="st0" d="M316.2 277.1c-4.5.3-8.8 1-13.1 2.4-1-2.9-2-5.8-3.3-8.6 5-3.3 9.4-7 13.5-11.2 2 5.8 2.8 10.4 2.9 16.4v1m-14.8-34.8c3.1 2.8 7.5 8.2 10 12.9-4 4.7-8.4 8.3-13.5 11.8-2.2-3.9-5-8.1-7.6-11.6 4.5-3.7 8.2-7.9 11.1-13.1"/><path class="st0" d="M301.4 242.3c3.1 2.8 7.5 8.2 10 12.9-4 4.7-8.4 8.3-13.5 11.8-2.2-3.9-5-8.1-7.6-11.6 4.5-3.7 8.2-7.9 11.1-13.1m-62.5-22.5c37.2 2.9 52.1 12.4 60 20-2.7 4.9-6.6 8.8-11 12.3-8.6-9.6-17.2-15.2-28.8-19.9 2.1-.4 4.7-.7 6.6-.9.4.1 4.8.9 11.6 3.5l.2-.4c-8.5-5.9-22.9-10.9-38.6-14.6"/><path class="st0" d="M238.9 219.8c37.2 2.9 52.1 12.4 60 20-2.7 4.9-6.6 8.8-11 12.3-8.6-9.6-17.2-15.2-28.8-19.9 2.1-.4 4.7-.7 6.6-.9.4.1 4.8.9 11.6 3.5l.2-.4c-8.5-5.9-22.9-10.9-38.6-14.6m-8.5 66.6h-2.8c-.9-3.6-1.3-7.3-1.3-10.9 0-6.8 1.5-13.4 4.5-19.8 11.4 4.2 22.7 8.3 34.1 8.3 7.4 0 14.7-1.8 22.1-6.4 2.8 3.6 5.5 7.4 7.7 11.5-18.9 11.2-42.3 17.3-64.3 17.3"/><path class="st0" d="M230.4 286.4h-2.8c-.9-3.6-1.3-7.3-1.3-10.9 0-6.8 1.5-13.4 4.5-19.8 11.4 4.2 22.7 8.3 34.1 8.3 7.4 0 14.7-1.8 22.1-6.4 2.8 3.6 5.5 7.4 7.7 11.5-18.9 11.2-42.3 17.3-64.3 17.3"/><path class="st0" d="M270.8 320.6c-19.2-.3-35-12.1-41.9-29.9h.7c23.3 0 46.7-5.9 66.9-17.7 1.1 2.6 2.1 5.3 2.9 8-15.6 7.8-22.5 24.4-28.6 39.6"/><path class="st0" d="M270.8 320.6c-19.2-.3-35-12.1-41.9-29.9h.7c23.3 0 46.7-5.9 66.9-17.7 1.1 2.6 2.1 5.3 2.9 8-15.6 7.8-22.5 24.4-28.6 39.6m35-16.3c.1-1.4.1-2.8.1-4.2 0-5.6-.6-11.1-1.8-16.7 3.7-1.2 7.7-1.9 11.6-2.3-1.5 9.5-4.4 15.9-9.9 23.2"/><path class="st0" d="M305.8 304.3c.1-1.4.1-2.8.1-4.2 0-5.6-.6-11.1-1.8-16.7 3.7-1.2 7.7-1.9 11.6-2.3-1.5 9.5-4.4 15.9-9.9 23.2m-21.2-49.9c-6.5 4-13.2 5.5-19.8 5.5-10.6 0-21.3-3.9-31.8-7.8 1.9-3 3.9-5.8 6.3-8.4h.6c6.8 0 17.7 5 23.2 8.1l.3-.3c-15.8-18.8-56.5-21.9-82.9-21.9-2.6 0-5.1 0-7.4.1 10.1-2.6 21.5-3.9 33.1-3.9 29.1 0 60.1 8.7 78.4 28.6"/><path class="st0" d="M284.6 254.4c-6.5 4-13.2 5.5-19.8 5.5-10.6 0-21.3-3.9-31.8-7.8 1.9-3 3.9-5.8 6.3-8.4h.6c6.8 0 17.7 5 23.2 8.1l.3-.3c-15.8-18.8-56.5-21.9-82.9-21.9-2.6 0-5.1 0-7.4.1 10.1-2.6 21.5-3.9 33.1-3.9 29.1 0 60.1 8.7 78.4 28.6m15.6 55.6c-7.2 6.1-15.7 9.3-25 10.4 5.6-13.6 11.4-28.4 25.4-35.1.7 4 1.2 8 1.2 12.1 0 4.2-.5 8.5-1.6 12.6"/><path class="st0" d="M300.2 310c-7.2 6.1-15.7 9.3-25 10.4 5.6-13.6 11.4-28.4 25.4-35.1.7 4 1.2 8 1.2 12.1 0 4.2-.5 8.5-1.6 12.6m-36.7-92.3 8.1-2.8 6.1 6.9-.7-9.1 7.9-3.4-8.6-2.8-1.3-9-4.5 7.3-8.6-2.2 5.7 7.4z"/><path class="st1" d="m220.5 224.2 5.6-2.8 4.7 4.2-.9-6.2 5.4-3.1-6.2-1.1-1.3-6.1-2.9 5.6-6.3-.7 4.4 4.5zm-63.1 12.4 3.7-1.8 3 2.7-.5-4 3.5-2.1-4.1-.7-.8-4-1.9 3.6-4.1-.4 2.8 3z"/><path class="st2" d="M297.1 292.4v-.7l-5.2 8.7 1.5-7.7-.4-.2c-7.6 9.3-10.5 15.9-12.9 24.1l-.1.4.4-.1c8.6-3 13-6.4 14.8-7.8 1.3-2.8 1.9-8.4 1.9-15.2v-1.5m-17.4-20.2c-8.3 1.7-18.1 2.7-27 2.7-1.3 0-2.7 0-3.9-.1l19.1-5.7v-.4c-12.6-.6-22.4-.8-34.7-6.6l-.2-.1-.1.2c-1.8 3.3-2.9 7.9-2.9 12.6 0 2.7.3 5.3 1.1 7.8v.1h1.4c5.5 0 28.2-.6 47.3-10.2l-.1-.3zm4.2 15.5c-9.6 7.2-16.9 13-31.1 15.6 13.2-6.8 22-11.6 30.3-20l-.3-.3c-14.7 8.6-33.9 12.2-47.4 12.8h-.4l.2.3c11.1 17.6 25.2 19.2 29.8 19.2 1 0 1.5-.1 1.5-.1h.1l.1-.1c6-9.4 9.8-18.5 17.5-27.2l-.3-.2z"/><path d="M308.8 254.1c-1.3 1.4-2.5 2.6-3.7 3.7-1.4-3-3-5.8-4.9-8.5 1-1.2 1.9-2.4 2.8-3.7 2.4 2.7 4.4 5.8 5.8 8.5m5 18.7c-1.5.2-2.9.4-4.2.7-.3-2.2-.7-4.4-1.3-6.5 1.5-1.2 2.9-2.5 4.3-3.9.9 3.2 1.2 6.2 1.2 9.7m-4.7 20v-.7c.6-3.1 1-6.1 1.1-9.2.8-.2 1.6-.4 2.5-.5-1 3.7-2.1 7.1-3.6 10.4M274 229c-.7-.4-1.4-.7-2.1-1 11.4 3.4 19.1 7.8 23.4 11.1-.7 1-1.4 1.9-2.2 2.8-5.3-5.4-11.7-9.9-19.1-12.9" style="fill-rule:evenodd;clip-rule:evenodd;fill:#fff"/></svg>