<svg version="1.1" id="Layer_1" xmlns="http://www.w3.org/2000/svg" x="0" y="0" viewBox="0 0 400 400" style="enable-background:new 0 0 400 400" xml:space="preserve"><style>.st0{fill:#fff}.st1{fill:#006bb5}</style><path class="st0" d="M350 200c0 82.9-67.1 150-150 150S50 282.9 50 200 117.1 50 200 50s150 67.1 150 150"/><path class="st1" d="M344.5 200c0 79.8-64.7 144.5-144.5 144.5S55.5 279.7 55.5 200 120.2 55.5 200 55.5 344.5 120.2 344.5 200"/><path class="st0" d="m77.8 224.6 3 9.4h10l-8.1 6 3 9.2-7.9-5.7-7.9 5.7 3-9.2-8.2-6h10.1zm244.5 0 2.9 9.4h10.1l-8.2 6 3 9.2-7.8-5.7-8 5.7 3-9.2-8.1-6h10zm-209.4 50.5 3 9.4h10l-8.1 6 2.9 9.2-7.8-5.7-7.9 5.7 3-9.2-8.2-6h10zm177.6 0 2.9 9.4h10l-8.1 6 2.9 9.2-7.7-5.7-8 5.7 3-9.2-8.1-6h9.9zM167.6 308l3 9.4h10l-8.1 6 3 9.2-7.9-5.6-7.8 5.6 2.9-9.3-8.2-5.9h10.1zm66.6 0 2.9 9.4h10l-8 6 2.9 9.2-7.8-5.6-7.9 5.6 3-9.3-8.2-5.9h10z"/><path class="st0" d="M308.3 200.7c0 59.8-48.5 108.3-108.3 108.3S91.7 260.5 91.7 200.7 140.2 92.4 200 92.4c59.8-.1 108.3 48.4 108.3 108.3"/><path class="st1" d="M98.1 222c5.7 27.3 21.7 50.6 44.9 65.8s51 20.5 78.3 14.8c27.2-5.7 50.9-21.5 65.8-44.9 14.9-23.3 20.2-51.1 14.8-78.3-5.4-27.3-21.6-50.5-44.9-65.8s-51.1-20.5-78.2-14.8c-27.2 5.7-50.6 21.7-65.9 44.9C97.7 167 92.4 194.8 98.1 222"/><path class="st0" d="M235.4 119.6c.4 4-1.6 8-5.6 11.8-19.5-14.4-38.1-21.4-56.3-21.4-3.9 0-7.8.3-11.4.9 5.8-2.4 11.8-4.3 18-5.6 16.3-3.4 32.8-2.6 48.3 2.2 3.3 3 6.6 7.3 7 12.1m-20.3 168.1c20.5-18.8 30-59.2 35.7-83.3l.9-3.8c2.9-12.3 8.1-21.4 13.6-27 20.6 32 17.8 65 12.6 85.7-14.3 18.9-34.6 31.9-58 36.8-6.7 1.4-13.4 2.1-20 2.1 4.9-2.3 10-5.7 15.2-10.5m37.2-137c8.3-7 15-12.3 19.8-15.7 10.2 11.3 17.7 24.7 22 39.6-3.8-5.1-8.8-10.1-14.1-11.2-4.6-.9-9.3.4-13.7 3.5-4-5.4-8.6-10.9-14-16.2m-148 45.6c9.5-25.4 44.2-35.9 57.3-39.7l.5-.2c4.3-1.3 10.4-2.3 17.6-3.6 16.8-2.8 37.6-6.4 50.1-15.7 5.1 3.8 10.3 8.3 15.6 13.4-28.4 24.1-72.3 64.6-119.1 114.4-10.9-12.4-18.5-27.6-22-44.3-1.4-6.6-2.1-13.3-2.1-19.9 1.3-2.5 2.1-4.4 2.1-4.4"/><path class="st0" d="M249 147.5c-5.3-4.9-10.5-9.4-15.6-13.4 4.8-4.7 7-9.6 6.5-14.9-.3-3.2-1.6-6.2-3.2-8.9 5.8 2.4 11.3 5.3 16.7 8.8 5.7 3.8 10.9 8 15.5 12.5-4.9 3.7-11.6 9-19.9 15.9m-22.8-13.2c-11.8 8.1-31.3 11.4-47.1 14.1-7.3 1.3-13.5 2.3-18.1 3.7l-.5.2c-12.5 3.8-44.1 13.2-57.1 35.9 1.8-14.5 7-28.4 15.2-40.9 7-10.5 16.1-20.3 26.2-27.3 22.8-9.8 48.7-9.2 81.4 14.3m52.8 33.5c6.8 1.4 14.2 12.8 17.7 19.5 3 21.4-1.1 42.9-11.9 61.6.5-3.3.9-6.8 1.2-10.4 1.4-18.3-1.1-43.2-17.2-67.8 3.5-2.5 7.1-3.5 10.2-2.9m-30.1-14.2c5.4 5.3 10 10.7 13.8 16.2-6.7 6.4-12.3 16.8-15.4 29.7l-.9 3.8c-5.6 23.6-14.9 63.2-34.4 81-8 7.4-15.9 11.2-23 13.3-15-1.6-29.5-6.9-42.4-15.4-6.3-4.1-12-8.9-17-14.1 47.3-50.2 91.3-90.7 119.3-114.5"/><path class="st0" d="m226.9 229.6 2.7-.7c1.6-.5 2.7-1 2.7-3.3 0-1.9-.5-5.4-2.8-5.4-2.5 0-2.5 4.1-2.5 6.4l-.1 3zm-31.7-1.4c0-8.3-.3-15.5-5.9-15.5-4.6 0-5.4 7.2-5.4 15.5s-.3 15.5 5.4 15.5c4.8 0 5.9-7.2 5.9-15.5"/><path class="st0" d="m226.9 229.6 2.7-.7c1.6-.5 2.7-1 2.7-3.3 0-1.9-.5-5.4-2.8-5.4-2.5 0-2.5 4.1-2.5 6.4l-.1 3zm-43.7-20.5c2.8-4.2 8-6.2 13-6.2 11.4 0 18.5 9.9 18.5 23.1 0 15.7-10.7 25.1-23.9 25.1-20.3 0-27.6-16.4-27.6-35.3 0-21.9 9.5-39.9 33.1-39.9 9.2 0 16.7 5.9 16.7 15 0 5.9-4.6 8.8-8.9 8.8-6.4 0-8.4-5.3-9.3-10-.4-2 .4-6.4-2.9-6.4-6.9 0-8 13.4-8.2 18.4l-.5 7.4z"/><path class="st0" d="M195.2 228.2c0-8.3-.3-15.5-5.9-15.5-4.6 0-5.4 7.2-5.4 15.5s-.3 15.5 5.4 15.5c4.8 0 5.9-7.2 5.9-15.5M72.3 176.8c3.8.5 5.4 3.2 4.8 8.2l-.5 3.7 2.1.3c2.7.3 3.7.3 3.9-1.9l2.5.3-1.2 9.9-2.5-.3c.2-2.2-.7-2.5-3.4-2.7l-7.7-.9c-2.7-.3-3.7-.3-3.9 1.9l-2.5-.3 1.3-10.9c.8-5.4 3.2-7.8 7.1-7.3zm2.1 10.5c.4-3.3-.5-5-2.9-5.3-2-.3-3.5 1-3.8 3.5-.2 1.7.4 2.1 2.3 2.3l4.3.5c0-.4 0-.6.1-1zm12.5-21.4c.8-2-.1-2.6-2.6-3.6l-7.1-3c-2.5-1-3.5-1.3-4.3.7l-2.3-.9 3.8-9.1 2.2.9c-.8 2 .1 2.6 2.6 3.6l1.8.7 2.8-6.9-1.8-.7c-2.5-1-3.5-1.3-4.3.7l-2.2-.9 3.8-9.1 2.3.9c-.8 2 .1 2.6 2.6 3.6l7.1 3c2.5 1 3.5 1.3 4.3-.7l2.3.9-3.8 9.1-2.2-.9c.8-2-.1-2.6-2.6-3.6l-3.1-1.3-2.8 6.9 3.1 1.3c2.5 1 3.5 1.3 4.3-.7l2.2.9-3.8 9.1-2.3-.9zm9.6-48.8c-1.3 1.7-.5 2.5 1.6 4.1l6.2 4.7c2.1 1.6 3 2 4.4.4l2 1.5-5.9 8-2-1.5c1.3-1.7.5-2.5-1.6-4.1l-6.2-4.7c-2.1-1.6-3-2.1-4.4-.4l-2-1.5 5.9-8 2 1.5zm22.3 1.2-1.6-1.9c1.6-1.5 1.1-2.3-.6-4.3l-4.9-5.9c-1.7-2-2.5-2.7-4.2-1.4l-1.6-1.9 7.6-6.4 1.6 1.9c-1.6 1.5-1.1 2.3.5 4.4l5.6 6.6c1.3 1.6 1.8 1.7 3.5.5 2.1-1.7 3-4.9 2.2-8.9l2.2-.5 2.2 7.3-12.5 10.5zm23.6-18.2-1-2.3c1.8-1.2 1.7-2.4 1.7-4.6l-.5-15.4 4.1-1.9 11.4 11.2c1.3 1.3 2 1.9 3.8 1.3l1 2.3-9.1 4.1-1-2.2c.1 0 .1-.1.2-.1 1.3-.5 1.7-1.1 1.4-1.9-.1-.3-.3-.5-.5-.7l-2.1-2.1-5.9 2.7.4 2.8c0 .2.1.5.2.6.4.8 1.3.9 2.7.4l1 2.2-7.8 3.6zm7.4-14-4.3-4.6.4 6.4 3.9-1.8zm23.2-.8c2.1-.4 2.2-1.4 1.8-4l-1.1-7.7c-.4-2.7-.7-3.6-2.8-3.4l-.4-2.5 10.1-1.5c7.7-1.1 12.3 1.9 13.2 8.3.9 6.4-2.7 10.5-10.3 11.6l-10.1 1.5-.4-2.3zm7.2-3.6c.3 2 .6 2.5 2.7 2.2 4-.5 6.1-3.7 5.4-8.5-.6-4.8-3.6-7.2-7.6-6.6-2.1.3-2.3.9-2 2.8l1.5 10.1zm27.8.7c2.2.3 2.5-.7 2.8-3.4l1.1-7.7c.4-2.7.4-3.7-1.8-4l.4-2.5 16.6 2.4 1.8 6.4-2 .7c-1.6-3.3-3.9-5.2-7-5.7-2-.3-2.3.3-2.6 2.2l-.5 2.8.9.2c2.1.3 2.7-.3 3.2-2.7l2.1.3-1.3 9-2.1-.3c.1-2.4-.6-3.5-2.3-3.8l-.9-.2-.6 4.7c-.3 1.9-.1 2.6 1.9 2.8 2.9.5 6.4-1 9.1-4.2l1.7 1.3-4 6.4-16.9-2.5.4-2.2zm31.1 8.8 1-2.3c2 .8 2.6 0 3.7-2.5l3.1-7c1.1-2.5 1.4-3.4-.6-4.3l1-2.3 9.1 3.9-1 2.3c-2-.8-2.6 0-3.7 2.5l-3.5 7.9c-.8 1.8-.7 2.5 1.1 3.3 2.5 1.1 5.8.5 8.9-1.9l1.4 1.7-5.6 5.2-14.9-6.5zm51 14.7c-2.5 3-5.6 2.9-9.5-.3l-2.8-2.3-1.3 1.6c-1.6 2.1-2.2 2.9-.5 4.4l-1.6 1.9-7.8-6.2 1.6-1.9c1.7 1.3 2.5.6 4.2-1.4l4.8-6c1.6-2.1 2.2-2.9.5-4.4l1.6-1.9 8.5 6.9c4 3.2 4.8 6.5 2.3 9.6zM280 102c2.6 2.1 4.6 2.2 6 .4 1.3-1.6 1-3.5-.9-5-1.4-1.1-2-.7-3.2.7l-2.7 3.4c.4.1.6.3.8.5zm11.6 21.9c1.3 1.7 2.2 1.4 4.4-.2l6.3-4.5c2.2-1.6 2.9-2.3 1.7-4l2-1.4 5.7 8.1-2 1.4c-1.3-1.7-2.2-1.4-4.4.2l-1.6 1.2 4.3 6.1 1.6-1.2c2.2-1.6 2.9-2.3 1.7-4l2-1.4 5.7 8.1-2 1.4c-1.3-1.7-2.2-1.4-4.4.2l-6.3 4.5c-2.2 1.6-2.9 2.3-1.7 4l-2 1.4-5.7-8.1 2-1.4c1.3 1.7 2.2 1.4 4.4-.2l2.7-1.9-4.3-6.1-2.7 1.9c-2.2 1.6-2.9 2.3-1.7 4l-2 1.4-5.7-8.1 2-1.4zm36.1 34.1c-.8-2-1.8-1.8-4.3-.8l-7.2 2.7c-2.5 1-3.4 1.5-2.7 3.6l-2.3.9-3.6-9.2 2.3-.9c.8 2 1.8 1.8 4.3.8l7.2-2.7c2.5-1 3.4-1.5 2.7-3.5l2.3-.9 3.6 9.2-2.3.8zm-12.9 17.2 2.5-.4c.5 2.1 1.8 2.4 3.8 3l14.8 4 .5 4.5-14.1 7.7c-1.6.8-2.4 1.4-2.4 3.2l-2.5.4-1.3-9.9 2.4-.3v.2c.2 1.4.5 2 1.4 1.8.3 0 .5-.1.8-.3l2.7-1.4-.8-6.4-2.8-.5c-.2 0-.5-.1-.6 0-.9.1-1.3.9-1.1 2.5l-2.4.3-.9-8.4zm11.2 11.3 5.7-2.7-6.2-1.6.5 4.3zm-65.2 26.9c-2.3 0-3.9 1-5.2 2.4-.1-.3-.3-.6-.5-.9l-1.1-2.1-15.5 4.6v8.5h3.3c.1.3.4 1 .4 3.7v9.9l-2.8.4v9.3H261v-9.3l-2.8-.4v-2.9c0-1.6.4-4.8.8-6.7.8.3 1.7.5 2.8.5 3.8 0 6.6-3.5 6.6-8.4 0-5.3-3-8.6-7.6-8.6z"/><path class="st0" d="M287.9 223.3c-.2-.7-.3-1-.3-1.4 0-2.6-1-8.5-10.4-8.5-5.2 0-15.5 4-15.5 13.4 0 3.5 1 5.9 2.5 7.9-2 1.2-3.3 3.6-3.3 6.4 0 3.4 1.6 9 13 9 9.7 0 15.2-5 15.2-13.7 0-8.5-.7-11.2-1.2-13.1zm-114-50.1c-.5-.6-1.5-1.1-2.4-1.1-1.5 0-2.6.9-3.9 2.4-4.6 4.8-10.8 7.4-18 7.4-9.4 0-19.3-4.3-27.2-11.9-.6-.6-1.5-.9-2.3-.9-3.8 0-4.8 6.1-4.8 6.2v30.9l2.5.4c9.3 1.4 17.4 1.1 24.7-.9-7.9 7-25.7 26.3-25.4 44.7 0 3.4 2.1 3.8 3 3.8 1.1 0 1.8-.6 2.4-1 .1-.1.3-.3.5-.4 2.6-1.9 6.7-2.9 11.3-2.9 3.8 0 7.7.7 10.5 2.1.5.3 1.2.5 1.9.5.9 0 1.7-.4 2.3-1 1-1.1.9-2.5.8-3.4-1.3-13.4 1.6-27.9 7.3-36.3l.8-1.3c4.8-7.1 14.9-22 16.7-34.3.2-1.2.1-2.3-.7-3zm71.7 59-.2-2.4c-.1-1.6-.4-3-.6-4.4l-.1-2.7-.5.7c-2.3-6.3-7.6-10.2-14.3-10.2-10 0-17 7.9-17 19.2 0 8.7 5.1 17.5 16.5 17.5 6.5 0 12.4-3.3 15.5-8.5l.5-.7-.4-8.4.6-.1zm-12 5.4c-1.1 0-1.8-.7-2.3-1.6l5.6-1.5c-1.7 2-2.9 3-3.3 3.1z"/><path class="st0" d="M208.5 204.8c-.5-.8-1.2-1.7-1.7-2.5 4.9-1 9.2-4.8 9.2-11.3 0-10.2-8.4-17.9-19.7-17.9-22.5 0-35.9 16-35.9 42.7 0 24.2 11.2 38.1 30.5 38.1 15.7 0 26.7-11.5 26.7-28 0-8.1-5.5-15.8-9.1-21.1z"/><path class="st1" d="M233.6 240.5c-3.5 0-5.6-3.2-5.9-6.4l15-4c-.5-7.3-4.7-13.8-12.6-13.8-8.5 0-14.1 6.6-14.1 16.4 0 7.6 4.4 14.5 13.5 14.5 5.2 0 10.3-2.5 13.1-7.1l-2.9-3.6c-1.6 2.3-3.2 4-6.1 4zm-6.6-13.8c0-2.3 0-6.4 2.5-6.4 2.3 0 2.8 3.5 2.8 5.4 0 2.3-1.1 2.8-2.7 3.3l-2.7.7.1-3z"/><path class="st1" d="M258.3 246.3h-15.8v-4l2.8-.4v-12.4c0-4.4-.5-6.6-3.8-6.6v-3.5l11.3-3.3c1.3 2.5 1.6 5.4 1.8 8.2h.1c1.1-3.4 2.6-8.1 6.2-8.1 3.2 0 4.7 2.5 4.7 5.5 0 3.1-1.4 5.6-3.7 5.6-1.6 0-3-.6-3.8-.9-2-.7-2.7 8.2-2.7 10.1v5.4l2.8.4v4h.1z"/><path class="st1" d="M284.8 222c0 2.5-2.1 3.7-4.4 3.7-2.7 0-4.7-2.2-5.1-4.8-1.2 0-2 .6-2 2.6 0 4.6 13 1.3 13 12.9 0 8.7-6.3 10.9-12.3 10.9-3.7 0-10.2-.5-10.2-6.1 0-2.6 1.4-4.5 3.9-4.5 3.9 0 4.6 3.6 5.3 6.1.2.6.7.8 1.3.8 2.1 0 3.6-.8 3.6-2.2 0-5.2-13.3-3.2-13.3-14.5 0-7.2 8.5-10.4 12.6-10.4 4.7-.1 7.6 1.4 7.6 5.5m-88.5-19.2c-5 0-10.2 2-12.9 6.2h-.2.1l.5-7.3c.3-4.9 1.4-18.4 8.2-18.4 3.3 0 2.6 4.4 2.9 6.4.9 4.7 2.9 10 9.3 10 4.3 0 8.9-2.8 8.9-8.8 0-9.1-7.6-15-16.7-15-23.6 0-33.1 18-33.1 39.9 0 18.9 7.3 35.3 27.6 35.3 13.2 0 23.9-9.3 23.9-25.1 0-13.3-7-23.2-18.5-23.2zm-7 40.9c-5.7 0-5.4-7.2-5.4-15.5s.8-15.5 5.4-15.5c5.7 0 5.9 7.2 5.9 15.5s-1.1 15.5-5.9 15.5z"/><path d="M118.3 175.7v28.1c15.7 2.3 34.6.8 47.8-18.7.5-.8.9-.3.5.5-3.8 7.6-12.5 14.5-20.1 20.5-7.3 5.8-26.9 26.3-26.6 44.3 0 1.4.1 1 1.3.1 5.9-4.4 17.6-4.6 24.7-1.1 1 .5 1.1.4.9-1-1.4-14 1.7-29.3 7.8-38.1 4.1-6.1 15.3-22 17.2-34.4.2-1.3-.5-1.1-2.1.6-12.6 13.4-35.4 13-50.1-1.1-.8-1-1.2-.6-1.3.3" style="fill:#ec174c"/><circle class="st0" cx="145.6" cy="158.7" r="27"/><path class="st1" d="m145.6 132.8.9 2.8h3.1l-2.6 1.8 1 2.8-2.4-1.7-2.4 1.7.9-2.8-2.5-1.8h3.1zm18 10.4.9 2.8h3l-2.4 1.9.9 2.8-2.4-1.7-2.5 1.7 1-2.8-2.5-1.9h3.1zm-7.8-8 .9 2.8h3.1l-2.4 1.8.9 2.9-2.5-1.8-2.4 1.8 1-2.9-2.5-1.8h3zm10.7 17.9.9 2.8h3.1l-2.5 1.8.9 2.9-2.4-1.8-2.4 1.8 1-2.9-2.6-1.8h3zm-1.3 10.4 1 2.9h3l-2.5 1.9.9 2.7-2.4-1.7-2.3 1.7.8-2.8-2.5-1.8h3.1zm-5.7 8.4.8 2.9h3.1l-2.5 1.8 1 2.7-2.4-1.7-2.5 1.7.9-2.7-2.4-1.8h3.1zm-9.2 4.7 1 2.8h3.1l-2.5 1.9.9 2.8-2.5-1.8-2.3 1.8.9-2.8-2.5-1.9h3zm-23-34.3-.9 2.8h-3l2.4 1.9-.9 2.8 2.4-1.8 2.5 1.8-1-2.8 2.5-1.9h-3.1zm7.6-7.1-.9 2.8h-3.1l2.4 1.8-.9 2.9 2.5-1.8 2.4 1.8-1-2.9 2.5-1.8h-3zm-11.1 16.6-.9 2.8h-3l2.4 1.9-.9 2.8 2.4-1.7 2.4 1.7-.8-2.8 2.4-1.9h-3.1zm.9 10.4-.9 3h-3l2.5 1.7-1 2.8 2.4-1.7 2.5 1.7-.9-2.8 2.5-1.7h-3.2zm5.8 8.6-.8 2.9h-3.1l2.4 1.8-.9 2.7 2.4-1.7 2.5 1.7-1-2.7 2.5-1.8h-3zm9.1 5.4-.9 2.9h-3.1l2.5 1.8-.8 2.8 2.2-1.7 2.5 1.7-.9-2.8 2.5-1.8h-3.1z"/></svg>