<svg xmlns="http://www.w3.org/2000/svg" viewBox="0 0 400 400" style="enable-background:new 0 0 400 400" xml:space="preserve"><path d="M261.1 82.9c-2.4-3.6-5.2-7-8.3-10-1.3-1.3-2.7-2.6-4.2-3.8L278.8 39h-87.7l-33.9 33.9-.1.1c-3.1 3.1-5.8 6.4-8.3 10-2.4 3.6-4.5 7.5-6.2 11.5-3.5 8.3-5.3 17.2-5.3 26.3 0 9.1 1.8 18 5.3 26.3 1.7 4 3.8 7.9 6.2 11.5 2.4 3.6 5.2 7 8.3 10 1.3 1.3 2.7 2.6 4.2 3.8l-30.1 30.1h87.7l34-34c3-3 5.8-6.4 8.2-9.9 2.4-3.6 4.5-7.5 6.2-11.5 3.5-8.3 5.3-17.2 5.3-26.3 0-9.1-1.8-18-5.3-26.3-1.6-4.1-3.7-7.9-6.2-11.6"/><path d="M248.9 76.8c-1.3-1.3-2.7-2.6-4.1-3.8L208 109.9c1.8.5 3.5 1.5 5 2.9 4.4 4.4 4.4 11.7 0 16.1l-68.2 68.2h8l64.2-64.2c6.6-6.6 6.7-17.4.1-24l4-4c8.8 8.9 8.8 23.2-.1 32l-60.2 60.2h8l56.2-56.2c11-11 11.1-28.9.1-40l4-4c13.2 13.3 13.2 34.7-.1 48l-52.2 52.2h8l48.2-48.2c15.5-15.5 15.5-40.5.1-56l4-4c17.6 17.7 17.6 46.3-.1 64l-44.2 44.2h8l40.2-40.2c19.9-19.9 19.9-52.1.1-72l4-4c22.1 22.1 22 57.9-.1 80l-36.2 36.2h8l32.2-32.2c24.2-24.4 24.2-63.8-.1-88.1" style="fill:#fff"/><path d="M161.2 164.8c1.3 1.3 2.7 2.6 4.1 3.8l36.8-36.8c-1.8-.5-3.5-1.5-5-2.9-4.4-4.4-4.4-11.7 0-16.1l68.3-68.3h-8l-64.3 64.3c-6.6 6.6-6.7 17.4-.1 24l-4 4c-8.8-8.9-8.8-23.2.1-32l60.3-60.3h-8l-56.3 56.3c-11 11-11.1 28.9-.1 40l-4 4c-13.2-13.3-13.2-34.7.1-48l52.3-52.3h-8l-48.3 48.3c-15.5 15.5-15.5 40.5-.1 56l-4 4c-17.6-17.7-17.6-46.3.1-64l44.3-44.3h-8l-40.3 40.3c-19.9 19.9-19.9 52.1-.1 72l-4 4c-22.1-22.1-22-57.9.1-80l36.3-36.3h-8l-32.3 32.3c-24.2 24.3-24.2 63.7.1 88" style="fill:#cf0a2c"/><path d="M95.1 339.8h-4.3v-4.3h13.4v4.3h-4.4V361h-4.7zm23.1 7.1 1-1.1v-5.6l-1-1.1h-3.1v7.8h3.1zm-7.9-11.4h10.6l3.1 3.1v8.9l-2.6 2.5 2.8 10.9h-4.8l-2.6-10.4H115V361h-4.8v-25.5zm25 15.6h3.1l-1.5-12.6-1.6 12.6zm-1.7-15.6h6.9l3.9 25.5h-4.7l-.7-5.9h-4.1l-.7 5.9h-4.5l3.9-25.5zm16.2 21.8h2.8v-18.2h-2.8v-3.6h10.4v3.6h-2.8v18.2h2.8v3.7h-10.4zm17-21.8h4.8v21.3h5.4v4.2h-10.2zm34.3 21.7 1-1V351l-1.2-1.2h-2.8v7.3h3zm-.2-11.1 1.2-1.2v-4.5l-1-1h-2.9v6.8h2.7zm-7.5-10.6h10.4l3.1 3.1v6.8l-2.5 2.5 2.5 2.5v7.4l-3.1 3.1h-10.4v-25.4zm20.6 0h4.7v21.3h5.5v4.2H214zm21.1 15.6h3.1l-1.6-12.6-1.5 12.6zm-1.8-15.6h6.9l3.9 25.5h-4.7l-.7-5.9h-4.1l-.7 5.9h-4.5l3.9-25.5zm16.2 22 6.5-17.7h-6.4v-4.3h11.6v3.4l-6.5 17.7h6.5v4.4h-11.7zm18.3-22H279v4.2h-6.4v6.2h5.8v4.2h-5.8v6.7h6.5v4.2h-11.3zm26.1 11.4 1-1.1v-5.6l-1-1.1h-3.1v7.8h3.1zm-7.9-11.4h10.6l3.1 3.1v8.9l-2.5 2.5 2.8 11h-4.8l-2.6-10.4h-1.8V361H286v-25.5zm20 22.4v-4.6h4.7v2.7l1.1 1.1h1.7l1-1.1v-4.9l-.8-.8h-5l-2.6-2.7v-9l3.1-3.1h7l3.1 3.1v4.5h-4.8v-2.6l-1-1.1h-1.6l-1.1 1.1v4.7l.9.8h5l2.6 2.6v9.3l-3.1 3.1h-7.1zM37.5 230.3h3.4c3.4 0 5.7 1.1 5.7 5v21.9c0 3.7-1.1 5.6-6.4 5.6h-2.6v-32.5zm24.2 7.5c0-14.8-8-19.7-23.6-19.7H10.2l12.2 12.2v89h15.1v-44.4h.8c15.2 0 23.1-4.7 23.5-18.7v-18.4zm26 81.4c9.4 0 19.7-3.8 19.7-17v-67.1c0-13.2-10.4-17-19.7-17-9.2 0-19.6 3.8-19.6 17v67.1c0 13.2 10.4 17 19.6 17m-4.5-82.8c0-5.1 1.6-6.2 4.7-6.2 3 0 4.5 1.1 4.5 6.2v64.5c0 5.1-1.6 6.2-4.5 6.2-3.1 0-4.7-1.1-4.7-6.2v-64.5zm179.7 50.5h9.9l3.2 32.3h15.2l-11.5-101.1h-22.6l-11.5 101.1h13.6l3.7-32.3zm4.8-51h.9l2.9 38.9h-7.2l3.4-38.9zm120.1 65V241c0-17.8-6.3-22.9-21.2-22.9h-18.2v101.1h21.4c11.8 0 18-8.7 18-18.3m-15-1.3c0 6.5-1.8 7.5-5.7 7.5h-3.6v-76.8h3.6c3.8 0 5.7 1 5.7 7.5v61.8zm-243.7-24.9c7-.3 9.3 2.1 9.3 8.2v36.3H153s.3-10.9 0-40.1c-.1-9.1-5.8-10.5-5.8-10.5 6.6-2.8 5.8-6.1 5.8-13.6l-.1-19.6c0-13.1-7.1-17.3-19.2-17.3h-19.9v101.1H129v-44.5zm-.2-44.5h3.6c3.4 0 5.7 1.1 5.7 5v20.9c0 3.7-1.1 6.5-6.4 6.5h-2.9v-32.4zm110.3 76.9H220v-89h-15.1v101.1h34.3z"/><path d="M170.4 230.3v88.9h15.1v-88.9h13v-12.2H149l12.2 12.2zm140.9 32.8 17 56.1H342V218.1h-13.6v56.7l-17.1-56.7h-13.7v101.1h13.7z"/></svg>