<svg version="1.1" id="Layer_2_1_" xmlns="http://www.w3.org/2000/svg" x="0" y="0" viewBox="0 0 400 400" style="enable-background:new 0 0 400 400" xml:space="preserve"><style>.st0{fill:#fff}.st1{fill:#63717a}</style><g id="Layer_2_2_"><path class="st0" d="m340 39-40.1 40.3-33.6-33.4-33.6 33.4-33.6-33.6-33.4 33.4-33.4-33.4-33.4 33.6L60 39.8v178.1c0 77.5 62.2 140.5 139.6 140.5S340 295.4 340 217.9V39z"/><path class="st1" d="M72.5 242.3c3.3 16.8 9.9 32.5 19.5 47 5.9-10.3 17.5-22.8 40.4-28.3-1.7-5.9-3.3-12.1-4.6-18.6l-55.3-.1zm28.6 59c24.7 29 60.4 45.6 97.8 45.9-3.6-1.8-6.9-3.8-10.4-6-15.9-10.3-37.8-30.3-51.9-67.4-22.1 4.9-31.6 17.5-35.5 27.5m49.4-29.3c10.1 25.2 25.2 44.6 45 57.6 13.1 8.6 25.8 12.4 34 14.3 20.8-4.7 40.2-14.8 56.3-29-12.6-1.4-25.8-8.6-39.3-16.3-21.5-12-48.1-26.9-84.1-26.9-3.9-.2-7.9-.1-11.9.3"/><path d="M204.5 176.7h-46.2v55.1h19.2v-44.3H192v44.3h18.3v-47.3c0-4.1-2.6-7.8-5.8-7.8m13.8 0V224c0 4.2 2.6 7.8 5.7 7.8h46.3v-33.6h-18.4v22.5h-14.4v-33.6h32.9v-10.6l-52.1.2zm-111.3 0-10.4 22.4h-6v-22.4H71.4v55.2h19.2v-22.2h6l10.4 22.2h19.2l-13.4-27.4 13.4-27.8zm24.2 0H151v55.1h-19.8zm197.4 15v-14.9h-50.8V202c0 4.2 2.6 7.6 5.7 7.6h25.9v12h-31.7V232h50.8v-25.3c0-3.9-2.2-7.6-5-7.6h-26.7v-11.6h13.4v4.2h18.4zm-54.1-70.8h-16.1l33.3-33.5L266.4 62l-33.6 33.5L199.3 62l-58.7 58.9h-16.3l33.5-33.6L132.5 62 99.1 95.5 71.4 68v98.7h257.2V66.8z" style="fill:#592d81"/><path class="st0" d="M127.6 156.1c0 1.4 1.1 2.6 2.6 2.6h14.3v-3.8h-11.8v-12.5h11.8v-3.9h-17v17.6h.1zM104 138.4v20.3h5.2v-5.3h6.6v5.3h5.2v-17.8c0-1.5-1.2-2.6-2.9-2.6h-14v.1zm11.7 11.1h-6.6v-7.3h6.6v7.3zm200.6-11.1h-11.9c-1.4 0-2.6 1.1-2.6 2.6v15.1c0 1.4 1.1 2.6 2.6 2.6h11.9c1.4 0 2.6-1.2 2.6-2.6V141c.2-1.5-1-2.6-2.6-2.6m-2.5 16.3h-6.5v-12.5h6.5v12.5zm-233.4-6.8c0 1.4 1.1 2.6 2.6 2.6h9.2v4.4H80.4v3.9h17v-9.6c0-1.3-.9-2.5-2.4-2.6h-9.5v-4.4h11.8v-3.9H80.4v9.6zm108.3-9.5h-14.4v20.3h5.2v-5.3h6.6v5.3h5.2v-17.8c.1-1.4-1.2-2.5-2.6-2.5m-2.7 11.1h-6.6v-7.3h6.6v7.3zm93-7.3h6v16.5h5.1v-16.5h5.9v-3.8h-17zm-54.5-3.8h-26.2v20.3h5.2v-16.4h6.5v16.4h5.3v-16.4h6.5v16.4h5.2v-17.8c0-1.4-1.1-2.5-2.5-2.5m46.6 0h-14.5v20.3h5.2v-16.4h6.6v16.4h5.2v-17.8c.1-1.4-1-2.5-2.5-2.5m-36.9 17.7c0 1.4 1.1 2.6 2.6 2.6h14.4v-3.8h-11.8v-4.4h11.8v-3.9h-11.8v-4.5h11.8v-3.8h-17v17.8zm-69.3-4.9h2.8v-10.4c0-1.5-1.2-2.6-2.9-2.6h-14.2v20.3h5.2v-7.4h3.8l3.2 7.4h5l-2.9-7.3zm-2.3-3.9H156v-5.2h6.6v5.2z"/><path class="st1" d="M159.4 257.9c27.3-.5 54.6 6.4 89.1 26 25.6 14.5 36.8 18.9 44.5 17.1 7-1.7 13.7-6 25.2-30.3 4.4-9.4 7.6-20.3 9-28.4H141.4c1.3 5.7 2.6 11.3 4.3 16.3 4.4-.4 9.2-.7 13.7-.7"/></g></svg>