<svg xmlns="http://www.w3.org/2000/svg" viewBox="0 0 400 400" style="enable-background:new 0 0 400 400" xml:space="preserve"><path d="m144.3 252.2-13.2 19.7 21.7-7.1 8.8 21.2 6.6-22.8 24.4 6.3-15.8-18.3 19.1-15.7-17 1 11.2-12.6H212l25-44.4v-29.2h-17.8l-8.5 15.1-1.6 11.4-12.8 22.7h-11.8l11.5-20.4v-28.9h-18.4l-8.2 15-1.5 11.5-19.9 36 3.1 7.9-3.9-4.2 1.6 21.6-23.4 1 18.9 13.2zm10-28.3h8.3l-2.5 6.3-5.8-6.3zM49.4 199.4c-7.3 1.8-14.5 3.8-21.7 5.9-.8.2-1.6.5-2.3.7v-18.2c1.1-.3 2.1-.6 3.2-.9 5.9-1.7 11.8-3.3 17.7-4.8 1-.3 2.1-.5 3.1-.8v9.8c5.5-1.4 11-2.7 16.5-3.9v-12c-1.9-2.9-3.9-5.9-5.8-8.8-1.4.3-2.8.7-4.2 1h-.2c-11.8 2.8-23.5 6-35.2 9.5-.4.1-.8.3-1.3.4-1.5.4-2.9.9-4.4 1.4-2 4.1-3.9 8.2-5.9 12.3v24.4c2.9 2 5.8 4 8.8 6.1 2.4-.7 4.8-1.5 7.2-2.2 7.4-2.2 14.8-4.2 22.2-6.1l2.4-.6v18.9c-1 .3-2.1.5-3.1.8-6.1 1.6-12.3 3.2-18.4 5-1 .3-2.1.6-3.1.9v-10c-5.5 1.6-10.9 3.3-16.3 5.1v12.1c1.9 2.7 3.8 5.5 5.7 8.3 1.4-.4 2.8-.9 4.3-1.3.5-.1.9-.3 1.4-.4 11.8-3.6 23.8-6.8 35.7-9.7 1.5-.4 2.9-.7 4.4-1 2-3.9 3.9-7.8 5.9-11.6v-25c-2.9-2.3-5.9-4.7-8.8-7-2.5.4-5.1 1.1-7.8 1.7m341 20.7-8.7-11.7c-2.6-.8-5.2-1.6-7.9-2.4-7.2-2.1-14.4-4.1-21.7-6l-2.4-.6v-18.2c1.1.3 2.1.5 3.2.8 5.9 1.5 11.8 3.1 17.7 4.8 1 .3 2.1.6 3.1.9v9.8c5.5 1.6 10.9 3.3 16.3 5v-12c-1.9-4-3.8-7.9-5.7-11.9-1.4-.4-2.8-.9-4.2-1.3-.1 0-.1 0-.2-.1-11.6-3.6-23.4-6.8-35.1-9.6-.4-.1-.9-.2-1.3-.3-1.5-.4-3-.7-4.5-1.1l-6 9v24.4c3 3.6 6 7.3 8.9 10.9 2.4.6 4.9 1.2 7.3 1.8 7.4 1.9 14.8 3.9 22.2 6 .8.2 1.6.5 2.3.7v18.8c-1-.3-2.1-.6-3.1-.9-6.1-1.8-12.2-3.4-18.4-5-1-.3-2.1-.5-3.1-.8v-9.9c-5.5-1.4-11-2.7-16.6-3.9v12.1c1.9 3.8 3.9 7.6 5.8 11.4 1.4.3 2.9.7 4.3 1 .5.1.9.2 1.4.3 12 2.9 23.9 6.1 35.7 9.8 1.5.4 2.9.9 4.4 1.3 1.9-2.8 5.7-8.5 5.7-8.5.6.4.6-16.3.6-24.6m-259.6-65.8c-.5.1-.9.1-1.4.2-15.6 1.8-31.1 4.2-46.6 7.1v74.7c5.6-1.1 11.1-2.1 16.7-3v-26c9.9-1.6 19.9-3 29.9-4.2.5-.1.9-.1 1.4-.2 1.5-.2 3-.3 4.6-.5 2.1-3.9 4.2-7.7 6.4-11.6v-26.9c-2.1-3.4-4.2-6.9-6.4-10.3-1.6.4-3.1.5-4.6.7m-5.9 16.4v21.1c-1.3.2-2.5.3-3.8.5-7.2.9-14.4 2-21.5 3.1v-24.9c7.2-1.2 14.3-2.2 21.5-3.1 1.3-.2 2.5-.3 3.8-.5v3.8zm185.6 29.4c2-.8 3.9-1.5 5.9-2.3V172l-10.5-12.3c-16.2-2.8-32.5-5-48.8-6.5v74.7c5.6.5 11.2 1.1 16.8 1.8v-29.2c4.3.5 8.6 1.1 12.9 1.7 1.4.2 2.9.4 4.3.6 2.9.4 5.7.9 8.6 1.3v29.2c.3 0 .6.1.9.1 5.3.9 10.6 1.8 15.8 2.8v-31.7c-2-1.4-3.9-2.9-5.9-4.4m-14.7-8.4c-7.3-1.1-14.6-2.2-21.9-3v-22c7.4.9 14.7 1.9 22.1 3.1 1.2.2 2.5.4 3.7.6v22c-1.3-.3-2.6-.5-3.9-.7m-216.3-57c-2.4.4-4.7.9-7.1 1.4-.3.1-.5.1-.8.2v-5.9c.3-.1.7-.1 1-.2 1.9-.4 3.8-.7 5.8-1.1.3-.1.7-.1 1-.2v3.2c1.8-.3 3.6-.7 5.4-1v-3.9c-.6-1-1.2-2-1.9-2.9-.5.1-.9.2-1.4.2h-.1c-3.8.7-7.6 1.4-11.4 2.2-.1 0-.3.1-.4.1-.5.1-1 .2-1.4.3-.6 1.3-1.3 2.5-1.9 3.8v7.9c1 .8 1.9 1.5 2.9 2.3.8-.2 1.6-.3 2.4-.5 2.4-.5 4.8-.9 7.2-1.4.3 0 .5-.1.8-.1v6c-.3.1-.7.1-1 .2-2 .4-4 .8-6 1.1-.3.1-.7.1-1 .2v-3.2c-1.8.4-3.6.7-5.3 1.1v3.9c.6 1 1.2 1.9 1.9 2.9.5-.1.9-.2 1.4-.3.2 0 .3-.1.5-.1 3.9-.8 7.8-1.5 11.6-2.2.5-.1 1-.2 1.4-.3.6-1.2 1.3-2.5 1.9-3.7v-8.1c-1-.8-1.9-1.6-2.9-2.4-.9.2-1.8.4-2.6.5m18.5-13c-2.2 8.4-4.4 16.8-6.7 25.3 1.7-.3 3.4-.6 5.1-.8.5-1.9.9-3.8 1.4-5.6 2.6-.4 5.2-.8 7.9-1.2.5 1.7.9 3.5 1.4 5.2 1.8-.3 3.7-.5 5.5-.8-2.2-7.8-4.5-15.5-6.7-23.3-2.6.4-5.3.8-7.9 1.2m.8 14.5c1-4 2-8.1 2.9-12.1 1 3.7 1.9 7.5 2.9 11.2-1.9.3-3.8.6-5.8.9m34.4-3c-2.8-5.1-5.7-10.1-8.5-15.2-1.9.2-3.8.4-5.7.7v24.2l4.8-.6v-16.2l8.4 15.3c1.9-.2 3.8-.4 5.8-.6v-24.2c-1.6.2-3.2.3-4.8.5v16.1zm28.9-18.3c-2.2 8.2-4.5 16.4-6.7 24.6 1.7-.1 3.4-.2 5.2-.3.5-1.8.9-3.7 1.4-5.5 2.6-.2 5.3-.3 7.9-.4.5 1.8.9 3.6 1.4 5.4 1.9-.1 3.7-.2 5.6-.2-2.2-8-4.5-16-6.7-23.9-2.8 0-5.4.1-8.1.3m.9 14.6c1-3.9 2-7.9 3-11.8 1 3.8 1.9 7.7 2.9 11.5-2 .1-4 .2-5.9.3m36 .4c-2.8-5.4-5.7-10.7-8.5-16-1.9 0-3.8.1-5.7.1v24.2c1.6 0 3.2-.1 4.8-.1v-16.2c2.8 5.4 5.6 10.8 8.5 16.2h5.8v-24.2h-4.8v16zm12.7-11.6c2.2 0 4.4.1 6.6.2v19.8c1.8.1 3.6.1 5.4.2v-19.8l6.6.3v-4.3c-6.2-.3-12.4-.5-18.7-.6v4.2zm68.1 16.5c-2.8-5.7-5.7-11.4-8.5-17.1l-5.7-.6v24.2c1.6.2 3.2.3 4.8.5v-16.2c2.8 5.7 5.6 11.4 8.4 17.2 1.9.2 3.8.5 5.7.7v-24.2l-4.8-.6v16.1zm12.7-10.7c1.4.2 2.7.4 4.1.6v16.7c-1.4-.2-2.7-.4-4.1-.6v3.8c4.5.6 9 1.3 13.6 2.1v-3.8c-1.4-.2-2.7-.4-4.1-.7v-16.7c1.4.2 2.7.4 4.1.7v-3.8c-4.5-.7-9-1.4-13.6-2.1v3.8m-36.9-7.9c-.5 0-1-.1-1.5-.1-3.9-.3-7.7-.6-11.6-.9h-.5c-.5 0-1-.1-1.5-.1-.7 1.1-1.4 2.3-2.1 3.4v17c.7 1.2 1.4 2.5 2.1 3.7.5 0 1 .1 1.5.1h.5c3.9.3 7.8.5 11.6.9.5 0 1 .1 1.5.1.7-1.1 1.4-2.3 2.1-3.4v-17c-.7-1.2-1.4-2.5-2.1-3.7m-3.3 5.1V136c-.5 0-.9-.1-1.4-.1-1.9-.2-3.8-.3-5.7-.4-.5 0-.9-.1-1.4-.1v-16.1c.5 0 .9.1 1.4.1 1.9.1 3.8.3 5.7.4.5 0 .9.1 1.4.1v1.4zM333 131c-.7-1.3-1.4-2.7-2-4l-1.5-.3c-3.8-.8-7.7-1.5-11.5-2.2-.2 0-.4-.1-.5-.1l-1.5-.3c-.7 1.1-1.4 2.1-2 3.2v17c.7 1.3 1.4 2.6 2 3.9l1.5.3c.2 0 .4.1.5.1 3.8.7 7.7 1.4 11.5 2.2l1.5.3c.7-1.1 1.4-2.1 2-3.2V131zm-5.3.8v14.7c-.5-.1-.9-.2-1.4-.3-1.9-.4-3.8-.7-5.7-1.1-.5-.1-.9-.2-1.4-.3v-16.1c.5.1.9.2 1.4.3 1.9.4 3.8.7 5.7 1.1.5.1.9.2 1.4.3v1.4" style="fill:#fff"/><path d="M170.7 177.8 151 212.9l3.3 8.3h12.3l-5.6 14.1-10.4-11.3 1.2 16.6-18.1.8 14.4 10.1-10.2 15.3 16.6-5.4 6.8 16.4 5.2-17.9 18.5 4.8-12-13.9 14.7-12.1-15.1.9 16.4-18.5h21.6l23.9-42.3v-25.7h-13.4l-7.7 13.7-1.3 11-14.1 24.6h-18.1l13.5-23.9v-25.4h-14l-7.4 13.6-1.3 11.1z"/><path d="M229.1 156.8h-6.3l-4.8 8.6h6.6zm-40.7 0h-6.8l-4.7 8.6h7zM175.7 211l-14 32-6.3-6.8.6 8.6-9.4.4 7.5 5.3-5.3 7.9 8.6-2.8 3.5 8.5 2.7-9.3 9.6 2.5-6.2-7.2 7.6-6.3-10.7.7h-.7l22.2-33.5h19.2l17-30.5H215l-14.3 25.2h-34.3l14.3-25.2H174L156.5 211h19.2zm6.5-42.2H176l-.8 7.3h6.4zm41 0H217l-.8 7.3h6.4z" style="fill:#c4ced4"/><path d="M158.7 252.6c1.6 0 2.8-1.2 2.8-2.8 0-1.6-1.3-2.8-2.8-2.8-1.6 0-2.8 1.3-2.8 2.8-.1 1.5 1.2 2.8 2.8 2.8"/></svg>