<svg version="1.1" id="Layer_1" xmlns="http://www.w3.org/2000/svg" x="0" y="0" viewBox="0 0 400 400" style="enable-background:new 0 0 400 400" xml:space="preserve"><style>.st0{fill:#fff}.st1{fill:#bd1b21}</style><path class="st0" d="M350 200c0 82.8-67.2 150-150 150S50 282.8 50 200 117.2 50 200 50s150 67.2 150 150"/><path d="M200 342.2c-37.7 0-73.1-14.6-99.9-41.1-26.8-26.5-41.8-61.9-42.2-99.6-.4-38 14-73.9 40.5-101 26.6-27.2 62.1-42.3 100.1-42.8h1.6c37.7 0 73.1 14.6 99.9 41.1 26.8 26.5 41.8 61.9 42.2 99.6.4 38-14 73.9-40.5 101-26.6 27.2-62.1 42.3-100.1 42.8H200"/><path class="st0" d="m214 102.4-4.9 5h-13.9l-5-5V74.9l5-5H209l5 5v27.5zM199.6 78l-1.5 1.5v18.1l1.5 1.5h5.1l1.5-1.5V79.5l-1.5-1.5h-5.1zm94.6 89.1-6.6-2.3-6-12.5 2.3-6.6 24.8-11.9 6.6 2.3 6 12.5-2.3 6.6-24.8 11.9zm15.8-23.5-2-.7-16.3 7.8-.7 2 2.2 4.6 2 .7 16.4-7.8.7-2-2.3-4.6zm-169.5-20.5.1 7-9.7 9.9-7 .1-19.7-19.1-.1-7 9.6-9.9 7-.1 19.8 19.1zm-27.5-6.6v2.1l13 12.6h2.1l3.5-3.6v-2.1l-13-12.6h-2.1l-3.5 3.6zm151.9-30.7-14.5 34.4-6-2.6-1.6-24.4-8.5 20.1-6.6-2.7 14.6-34.4 8.1 3.4.1 21.4 7.7-18.1zm-96.1 7.8-1.7 5.8 10.4 10.3-7.3 3.2-9.7-9.3-3.5 1.6 4.9 11.3-6.7 2.9L140.5 85l16-7 6.8 2.7 5.5 12.9zM153.5 97l5.9-2.6c.1 0 .8-1.9.8-1.9l-2-4.7-2-.8-5.9 2.6 3.2 7.4zm140.7 22.3-4.9-4.8-20.6 20.9-5.5-5.5 20.6-20.9-4.9-4.8 5.6-5.7 15.3 15zM94.8 140.6l-2.8 6.2 26.8 12-3.2 7.2-26.8-12-2.8 6.2-7.4-3.3 8.8-19.6zM299.7 236l-3.7 7-2.6-1.4-.7 1.4-2.3 4.4.6 2 3.7 1.9-.5-.3 2-.6 4.4-8.4 6.9-2.1 11.2 5.9 2.1 6.7-6.4 12.3s-6.8 2.1-6.8 2l-5.6-3 3.7-7 2.8 1.5 3-5.8-.6-2-3-1.6-2 .6-4.3 8.2-7 2.1-11.2-5.9-2.2-6.9 6.4-12.3 6.8-2 5.3 3.3zm-192.1 25.8-5.9-1.3-9.5 11.1-3.7-7 8.6-10.3-1.8-3.4-11 5.7-3.4-6.4 33.2-17.2 8.1 15.5-2.3 6.9-12.3 6.4zm-4.5-15 3 5.7 2 .6 4.5-2.4.6-2-3-5.7-7.1 3.8zm53.4 60.2-5.4 12.9-6.5-2.7 14.4-34.6 15.8 6.6 2.6 6.8-5.2 12.6-5.2 2.8-10.5-4.4zm2.8-6.7 5.3 2.2 1.9-.8 2-4.7-.8-1.9-5.3-2.2-3.1 7.4zm53.9.2-6.8.1.3 29.4-7.8.1-.3-29.4-6.8.1-.1-8.1 21.5-.2zm43.5 12.3-2.8 6.4-13 4.9-6.4-2.9-9.7-25.7 2.9-6.4 12.9-4.9 6.4 2.9 9.7 25.7zm-22.1-17.7-.9 1.9 6.4 17 1.9.9 4.7-1.8.9-1.9-6.4-16.9-1.9-.9-4.7 1.7zm49.5-18.5.1 6 13 6.8-6 5.1-12-6.1-2.9 2.5 8 9.4-5.5 4.7-24.2-28.5 13.3-11.3 7.3.7 8.9 10.7zm-13.6 7.6 4.9-4.2.2-2.1-3.3-3.9-2.1-.2-4.9 4.2 5.2 6.2zm-144.9 23.1-5.8-5.4 2.7-5.5-8-7.4-5.3 3.2-5.9-5.4 33.8-20.3 5.9 5.4-17.4 35.4zm.2-17.8 5.1-10.4-9.9 5.9 4.8 4.5z"/><path class="st1" d="M229.1 275.2c.1.2.2.3.3.3.4 0 1.3-.2 1.3-.2l.8-.4 2.4-.9 5.9-2.8 1-.5.5-.2.6-.4 1-.6 1.2-.7 1.6-1 2.8-2 1.4-1.1 1.9-1.4 1.8-1.3.8-.6 1.2-1.1 1.2-1.2 2-2.1 2.3-2.2 2.6-3 1.4-1.9.5-.7 1.6-1.9 3-4.4.8-1.4 2-4 1.1-2.2 2-4 1.1-2.4 1.2-3.7s1.4-4.9 2.1-7.5c.1-.3.1-.6-.1-.8-.4-.6-.7-1.3-1.1-2-.2-.3-.5-.7-.7-1-.2-.3-.7-.9-.9-1.2l-.7-.7c-.6-.6-1.2-1.2-1.7-1.6-.3-.1-.5-.3-.7-.5-1.7-1.3-3.3-2.3-5.2-3.1l-2.4-.9c-.6-.2-1.5-.4-2.1-.5-.3-.1-.6-.1-.9.1-.3.2-.3.6-.3 1-.1 1-.1 2.1-.2 3.2s-.2 2.1-.3 3.2c-.1 1-.1 1.9-.2 2.9-.1 1.3-.3 2.5-.6 3.8-.4 2.3-.9 4.7-1.4 7-.1.6-.2 1.3-.5 1.9-.4 1-.7 2-.9 3.1-.4 2.2-1.2 4.3-2 6.4-.6 1.7-1.2 3.4-2.2 5-.1.1-.1.2-.1.3-.5 1.1-.9 2.2-1.4 3.2-.3.7-.8 1.3-1 2-.4.9-.9 1.7-1.4 2.5-.8 1.3-1.7 2.5-2.4 3.8-.5.9-1.1 1.8-1.7 2.6-.2.2-.3.4-.4.7-.5.7-.9 1.5-1.5 2.1-1 1.3-2.1 2.6-3.2 3.9-.7.8-1.4 1.5-2.1 2.3-.6.7-1.3 1.4-2 2.1-.1.1-.3.3-.5.4-.4.3-.8.6-1.2 1-.8.8-1.7 1.7-2.7 2.3-.4.3-.9.6-1.3.9-.8.7-2 1.4-3.4 2.1m52.6-62.9s.1-.1.1-.2c0-.2.1-.6.1-.6l.6-5.1.3-4.8v-5.4l-.6-5.4s-.7-4.9-1.2-7.3c-.2-.9-.7-1.3-1.4-1.7-.2-.1-.5-.2-.8-.3-.5-.2-1.1-.4-1.6-.6-1.2-.3-2.4-.7-3.6-.9-1.5-.2-2.9-.4-4.4-.5-1.2-.1-2.4-.2-3.6-.2h-2.5c-.5 0-1.1 0-1.3.3-.2.3-.1.9 0 1.5.2 1.2.4 1.8.6 2.9.6 3.5 1.2 6.9 1.3 10.4.1 1.6.2 3.2.2 4.7v1.2c0 .3.1.6.2.8.1.2.4.3.6.3.3.1.6.1.9.2.3.1.9.2 1.2.3 1.4.5 2.9 1 4.2 1.5 1 .4 1.9.9 2.8 1.4.1.1.2.1.3.2.5.4 1.1.8 1.6 1.2 1.3.9 2.6 1.8 3.6 3.1.2.2.4.5.6.7.4.3 1 1.6 1.5 2.1.2.1.2.2.3.2m-36.1-57.5c.5 0 .9 0 1.3-.1.3 0 .5 0 .7-.3.1-.3-.1-.6-.2-.7-.1-.2-1-1.9-1-1.9l-.9-1.4-3.8-5.5-.8-.9-.7-1-1.2-1.4-3.1-3.4-1.3-1.3-4.8-4.4-3.9-3-1.4-.7-4.6-2.8-3.2-1.7-.6-.3-2.6-1-3.9-1.4-.3-.1-1.2-.3-.3-.1-1.1-.3-2.3-.4h-1.1l-2.1-.4-2.5-.2-.9-.1h-1.5l-2.6.1-2.5.3h-2l-1.7.2-1.8.4-1.4.4-2.2.4h-.5l-2.1.7-1.2.3-.7.4-1.8.5-.9.5-1.1.4-2.7 1.1-3.4 1.3-1.1.5-2.4 1.3-2.1 1.4-1.9 1-.7.4-2.1 1.1-.3.2-2.4 1.9-2 1.3-.4.3-2.2 1.8-.8.7s-1.2 1-1.2 1.2l.8-.3s1.5-.6 1.6-.6h.3l2.2-.9h.3l2.4-1 1.3-.4 1.3-.5 1.8-.6 4.4-1.7h.4l2.2-.8 1.8-.7.2.2 3.4.1 2.2.2h.1l4.4.3 6.1.3v.1l2.2 1.9h.2l2.2 2.1.2-.1 3 .1.1-.1 7.6.4v.2l3.4 2h.1l6 2.9v.3l3.4-1.3 5 1.7.8 1.4 1.8.1 1.8 2h.2l1.4 1.6v.1h.2l3.9.9 1.5 2.2 3.6 1.3s3.9 1 5.9 1.2c2.3.6 4.4.5 5.8.4m34 23.1c-.1-.6-.5-1.8-.5-1.8l-.2-.6-.2-.8-.6-1.9-.6-1.7-1.9-4.2-.8-2-1.1-2.4-1.3-2.1-.3-.6-.9-1.7-.8-1.3-.3-.4-5.5-7.4s-.5-.6-.8-.9c-.1-.2-.2-.3-.3-.3 0 0-1.7 2.7-2.4 3.5-.7.8-2.1 2.1-2.1 2.1s-1.2 1-1.4 1.1c-.2.2-1.1.7-1.1.7l-1.2.7s-.9.4-1.1.5c-.2.1-.3.1-.4.2-.1.1-.1.2-.1.4s.1.3.2.5c.5 1.1 1 2.1 1.5 3.2.8 1.5 1.4 3.2 2 4.8.2.5.5 1.1.6 1.6.5 1.4.9 2.8 1.3 4.2.2.6.4 1.2.6 1.9.2.6.3 1.3.5 1.9.1.4.4.6.8.6h1.2c1.5 0 2.9-.1 4.4-.1.4 0 3.3.3 3.3.3s1 .1 1.5.2c1.1.2 2.2.5 3.3.7.9.2 1.9.5 2.7.9.4.2.9.3 1.3.4.1 0 .4.1.4.1.2-.1.3-.2.3-.3"/><path class="st1" d="M260.5 145.4c0-.2-.4-.8-.4-.8l-.3-.5-.8-.9-.5-.8-1-1-.3-.3c-1.7-1.4-5.2-4.2-5.2-4.2l-1-.8-1.8-1.6-9-5.4-7.1-3.4-3.8-1.5-1.4-.5-4.7-1.6-3.3-.8-3.2-.7h-.5l-.3.3.1.1s.3.2.5.2l3 1.2c.6.3 1.3.6 1.9.8.5.1.9.3 1.3.5l4.5 2.7c.9.5 1.7 1.2 2.5 1.9.6.5 1.2 1.1 1.9 1.4.3.2.6.5.9.7.2.1.3.3.5.4.9.7 1.8 1.4 2.6 2.2.8.9 1.7 1.8 2.6 2.6.8.8 1.7 1.6 2.4 2.6.6.8 1.2 1.5 1.9 2.2 1.3 1.3 2.3 2.8 3.5 4.2.1.2.2.4.4.6.8 1.2 1.5 2.5 2.4 3.6.6.8 1.2 1.6 1.7 2.5.3.5.6 1.1 1 1.6.2.3.5.4.7.4.2 0 .5-.2.5-.2l.6-.3s.8-.4 1.1-.5c.3-.1.8-.4 1.1-.6.2-.2 1.1-.8 1.5-1.2.5-.4 1.4-1.6 1.4-1.6l.7-.9 1.2-2s.2-.4.2-.6m-3.8 30c-.5-1.5-.9-2.9-1.4-4.4-.4-1.2-.8-2.5-1.3-3.6-.3-.7-.5-1.5-.8-2.2-.1-.4-.3-.7-.4-1.1-.7-1.9-1.6-3.4-2.5-5.2 0-.1-.1-.2-.2-.3-.1-.2-.2-.3-.4-.4-.2-.1-.4 0-.8 0-.8.1-1.7.2-2.1.2-.4 0-1.9.1-3.1.2l-.3-.1h-1.5l-3.9-.5c-1.4-.2-4.7-1-4.7-1l-2.4-.8-2.9-1-.2.1-4.6-.4-.1.1-2.6-2h-.3l-1.6-1.5-.1-.3-1.8-.3-.2.1-1.5-.5-.2-.2-3.4.2-3.1-1.2-10.6.6-.2-.1-2 .1-.2.2-5.2.4-.1-.1-7.4 4.3-.1.3-.3.3-.2-.1-3.7-.4-.2.1h-6.6l-.1-.1-1.9-.1-.6-.3-6.9 5.4v.1l-2.4 1.9-2.7-1.3-.2.1-1-.3s-5 1.3-4.9 1.3l-4.7-.7-.3-.3-.9.9-1.9.9v.2l-3.7 2.8-5.3 3.8-6 4.4-2.7 2-.1 1.1-1.1 2.6-.5 2.2-.7 4.5-.4 2-.2 2.4-.6 4.9-.3 10.8.3.6.2 3s0 .5.2.5l13.2-13.6 4.3-1.7 3.6-.2 2.2-2.5.2-.5.3.1 5.9-.7.3-.2h2.2l.3.1.7-.9 2.7-1.6 2.8-2 8 .1.1.2 3.1.3 2.4-.5 4.5-4.6h.1l3.6-3.4 5.3-.7.2-.1.2.2 2.8 1.3.2-.2 2.5-.3.1-.1 2.3-.4.2-.1 2.5 2.1.1-.2 5.2-.1.4-.3 4.1.2.2.1.6-.2.1-.2 1.7-.7h.2l1.9-.9.2-.2 2-.8.1-.2 5.6-2.2v-.1l1-.3.2-.2.3.3 1.6.8h.5l1.8 1 .1-.2.6-.3h.1l.9-.4v-.1l1.3-.3 3.4.9.7-.2.6.4 2.5.4 2.4.9 1.4-.1.5.3.4-.2s4.8-.6 7.2-.8c1.6-.1 3.1-.3 4.7-.4.9-.1 1.8-.2 2.6-.3.6.5.8.3.6-.3"/><path class="st1" d="M260.2 199.9c0-.3-.1-.5-.1-.9-.1-.9-.1-1.8-.1-2.8 0-.3-.1-.6-.1-.9-.1-1.1-.1-2.3-.2-3.4-.1-1.5-.4-2.9-.6-4.3l-.6-3.3c-.2-1.2-.4-2.2-.7-3.4-.3-1.2-.5-1.3-1.7-1.2-.1 0-.2 0-.3.1-.4.1-1.1.1-1.5.2-2.3.3-4.5.4-6.9.7l-6.7 2.3-9.7-.3-1.1-.3v.2l-2.9 2.1h-.4l-2.3 2.1-.1.3-5.8.8-5.3 4.1h-.6l-2.8 1.7-1.1.1-1.1.9-.3-.2-5.4-.4-.9 1.1v.2l-4.7 5.1-.1.3h-.2l-6 6.8h-1.6l-.1.2-4.9.8h-.4l-.1.2-8.1 4.5-3.6-.4-.8.3-3.6-.2-3.6 3.9-2.1.4-1.2-.1-1.3.5-.8-.1v.2l-4.4 3.4-.4.1-6.9 5.4.1.3-4.3 10.4.2.4-7.1.6-2.3 2-.2.8 3.2 4.4 2.3 3.6 2 2.6 3.3 3.6s0 .2.1.3c.1 0 .4 0 .4.1l2 .7 2.4.8s0 .1.1.1h.2l4 1.6h.3l.2.3h.4l.9.6 1.7-.9h.1l.8-.5 6.1 1.5 4.5-2.3 9.9-1 4.1-6.5 1.8-1.8h.2l1.4-1.3v-.2l2.5-2.3 1.2-1.2.3-.2 1.4-1.4 1.1-1.1.3-.1-.3-1 1.1-4.2 2.2-.7.1-.1.7-.1v-.4l3-4.8.3-.1 1.2-2.4 2-1.1.3-.3.4.1 1.2-.7h.1l2.2-1 .2-.3 7.3-3.3h.4l.1-.4.3-.2.7-2.5 2.3-1 2.7-.3 2.4-1.7 3.4.1.3.3.2-.2 4.8-2.1v-.6l1.2-2.2 2.4-.6.1-.2 3.2-.7 1.2-1.5h.2s.7-.7.8-.7l2.2.3.1.1 1.2.2.8.1s3.3-1.5 4.6-2.1c.6-.2 1.1-.4 1.7-.6.8-.3 1.5-.5 2.3-.8.4-.1.8-.2 1.1-.3l1.5-.3 1.8-.3 1.1-.1s.5-.1.7-.1c.2 0 .5 0 .7-.2.2-.2.2-.4.3-.6-.2-.7-.2-.8-.2-1.1"/><path class="st1" d="M260.1 206.3c0-.3 0-.7-.2-.9-.2-.2-.5-.3-.6-.3-.2 0-1 .1-1 .1l-1.4.2c-.2 0-.3 0-.5.1-.8.2-1.7.4-2.5.6-.9.3-1.9.5-2.7.9-.9.4-2 .7-2.9 1.2-.3.2-3.5 1.7-4.9 2.4l-1.8 1.9-.1.4-.2-.1-1.1.1-.1.1-3.7 1.2v.4l-.4.4v.2l-1.7 3h-.2v.3s-.4.6-.7 1.2l-7.8 5h-.2l-1.2 1-.8 3.3-.8.7-3 11.3.4 1.3-4.5 2.2h-.7l-.9 3.9-.1.1-1.1 3.6.1.2-.5 3.1-.2.2.1.3-4.3 6.9-.3.1-1.1 1.7v.3l-3.7 5.2-3.9 2.3.2.3-.2 1.6.3.6-.6.2-2.8 1.7-.3-.1-4.2 2.5-.5.8c0 .1 1.6.2 1.6.2l2.7.2 1.8.1h6.3l5.8-.7 3.5-.6 2.6-.7 2.8-.8 3.6-1.4.3-.2 1-.6s2.9-1.5 4.2-2.5c2.2-1.7 4.5-3.4 6.6-5.3.7-.7 1.4-1.3 2.1-2 .7-.6 1.3-1.3 2-2 .1-.1.3-.2.3-.4.2-.5.6-.9 1-1.3.3-.3.6-.6.8-.9.4-.7 1.1-1.2 1.7-1.8.5-.5.9-1 1.3-1.5.7-1 1.3-2 2-3 .9-1.3 1.8-2.6 2.6-4 .8-1.5 1.6-3 2.4-4.4.7-1.2 1.4-2.5 2-3.8.9-2.2 1.9-4.3 2.7-6.6.9-2.3 1.6-4.7 2.2-7.2.5-1.8.8-3.7 1.4-5.4.1-.2.1-.5.2-.7.3-1.5.5-3 .7-4.4l.6-4.2c.1-1 .3-1.9.4-2.9.1-1.3.2-2.7.2-4v-.4s-.1-.3-.1-.5"/></svg>