<svg xmlns="http://www.w3.org/2000/svg" viewBox="0 0 512 512" style="enable-background:new 0 0 512 512" xml:space="preserve"><path d="M162 410.8h-19.6l-23.6 94.5h16.6l5.1-21.3h23.4l5.2 21.3h16.6L162 410.8zm-17.6 56.7 7.8-31.8 7.6 31.8h-15.4zm103-56.7v94.5h-16.5v-39.7h-21.5v39.7h-16.5v-94.5h16.5v38.3h21.5v-38.3zm-122.5 16.6h-18v77.9H90.4v-77.9h-18v-16.6h52.5zm-60-16.6v74.8c0 5.6-2.1 10.8-5.9 14.7-3.8 3.8-9 5.9-14.7 5.9H30c-5.6 0-10.8-2.1-14.7-5.9-3.8-3.8-5.9-9-5.9-14.7v-74.8h16.5v78.9h22.6v-78.9h16.4zm261.1.5v74.8c0 5.6-2.1 10.8-5.9 14.7-3.8 3.8-9 5.9-14.7 5.9H291c-5.6 0-10.8-2.1-14.7-5.9-3.8-3.8-5.9-9-5.9-14.7v-18.8h16.5v23.1h22.5l.1-79.1H326zm48.5 0h-19.6l-23.6 94.5h16.6l5.1-21.3h23.4l5.2 21.3h16.6l-23.7-94.5zm-2.2 56.6h-15.4l7.8-31.8 7.6 31.8zm79.5-40.4-30.4 61.8h30.5v16.5h-49.2v-16.1l.1-.1 30.5-61.8h-30.6v-16.5h49.2v16.1zm57.3 0-30.4 61.8h30.5v16.5H460v-16.1l.1-.1 30.5-61.8H460v-16.5h49.2v16.1zm3.1-419.7-49.9 107H262.6l-62.9 134.9h-56.4c.4-6.7 1.8-13.5 4-20.1 5.4-16.3 15.6-29.7 28.4-39.3 3.4 3.8 6.4 8 9.1 12.4.4.7 1.3.6 1.6 0L277.3 7.8h234.9zM49.8 291.5C44.1 302.9 36 312.6 26.1 320c-8.3-9.5-14.8-20.8-19.1-33.6-2.8-8.5-4.4-17.2-4.9-25.7h56.1c-.7 10.6-3.5 21-8.4 30.8m45.5-30.8V354c-22.9-1.3-44.7-10.6-61.4-26.1 10.7-8.3 19.5-19 25.8-31.5 5.7-11.3 8.9-23.4 9.6-35.7h26zm-41-31.1c2.2 6.6 3.5 13.3 4 20.1H2.2c1.2-21.9 9.7-42.8 23.9-59.2 12.7 9.5 22.8 22.9 28.2 39.1m41-73.2v93.3h-26c-.5-7.9-2-15.8-4.5-23.5-6-18-17-32.8-30.9-43.6 10-9.3 22.1-16.6 35.9-21.2 8.4-2.9 17-4.5 25.5-5m37 93.3h-26v-93.3c23 1.3 44.8 10.5 61.5 25.9-14.4 11.1-25.2 26.2-31 43.8-2.5 7.8-4.1 15.7-4.5 23.6m35.6 78.4c-10 9.2-22 16.5-35.7 21-8.6 2.8-17.2 4.5-25.8 4.9v-93.3h25.9c.8 12.3 4 24.4 9.7 35.7 6.2 12.6 15.1 23.3 25.9 31.7m31.8-67.4c-1.2 22-9.8 42.9-24.1 59.4-10-7.4-18.1-17.1-23.9-28.6-4.9-9.8-7.7-20.2-8.4-30.8h56.4z" style="fill:#fff"/></svg>