<svg version="1.1" id="Layer_1" xmlns="http://www.w3.org/2000/svg" x="0" y="0" viewBox="0 0 400 400" style="enable-background:new 0 0 400 400" xml:space="preserve"><style>.st0{fill:#8b8d8d}.st1{fill:#cf0a2c}.st2{fill:#fff}.st3{fill:#0d2240}</style><path class="st0" d="M200 50c-82.9 0-150 67.1-150 150s67.1 150 150 150 150-67.1 150-150S282.9 50 200 50"/><path class="st1" d="M344.4 199.4c0-77.6-66.4-144.4-144-144.4S55.5 122.2 55.5 199.8c0 71.3 56.6 134.2 125.9 144 5.8.7 11.8 1.1 17.8 1.1h.2c13.1 0 25.9-1.8 38-5.1 60.7-17.3 107-75.5 107-140.4z"/><path class="st2" d="M344.3 192.5H55.8c-.1 2.4-.2 5-.2 7.4 0 13.1 2 26.1 5.5 38.3h277.8c3.6-12.4 5.5-25.4 5.5-38.6 0-2.4 0-4.8-.1-7.1z"/><path class="st3" d="M181.5 343.8c5.8.7 11.8 1.1 17.8 1.1h.2c13.1 0 25.9-1.8 38-5.1 37.9-10.9 70.2-37.8 89.2-72.3H73.3c22.1 40.1 62.4 69.8 108.2 76.3z"/><path class="st2" d="M199.3 87.3S198.2 67 198.2 66s1-1.9 1-1.9c-.8 0-3.6.2-6.5.3-.8.2-2.1.2-1.8 3.2l1.2 22.5 7.2-.4.6-.2c.1.1-.4-.8-.6-2.2m72.9 4 2.6-4.6-10.7-6.2-.1-.1-6.1-3.5c-.8-.5-1.5.2-1.7.5-.2.4-2.4 4.2-2.4 4.2l-.9 1.7s1.5-1.4 3.2-.5l3.8 2.2-9.8 17 6.8 3.9s0-1.1.7-2.3c0 0 5.3-9.3 8.5-14.7l2.9 1.7c1.7.9 1.6 3.7 1.6 3.7l1.6-3zM251.3 74l-9.9-3.5c-3.2-1.1-5.5-1.4-6.8-.9-1.3.5-2.5 2.2-3.5 5l-3.7 10.6c-.5 1.2-.8 2.3-.8 3.1-.2 1.7.2 2.9 1.1 3.8s2.7 1.8 5.3 2.7l4.5 1.6c3.3 1.1 5.5 1.4 6.9.9 1.3-.6 2.5-2.2 3.5-5 0 0 1.8-5 2-5.7.4-1.4-.6-2.3-1.2-2.4l-8.4-2.9c-1-.4-1.6.4-2 1s-1.6 4.2-1.6 4.2l-.5 1.1s.9-.9 2.3-.5l3.1 1.1c-.5 1.1-1 1.8-1.5 2s-1.5 0-3.1-.6c0 0-1.1-.4-1.4-.6-.8-.5-1.1-1.1-.9-1.9.1-.5.2-1.1.5-1.9l2.1-5.8c.6-1.6 1.1-2.4 1.7-2.6.6-.2 1.6 0 3.2.6l7.7 2.6c1.4.5 1.7 2.3 1.7 2.3l.6-1.5 1.4-3.9c-.1-1.6-1-2.4-2.3-2.9m-76.4-7.3s2.2.8 2.7 2.5v.1l1.3 6.4-5.1 1c-1.5.3-1.8 1.8-1.8 1.8l-2.2-10.8-8.7 1.8s1.8.8 2.2 2.6v.1l4.6 22 5.1-1c1-.2 1.7-.5 1.9-1.2l-1.9-8.8 7-1.5 2 9.7 5.1-1c1-.2 1.7-.5 1.9-1.2l-5.1-24.3-9 1.8zm117.4 39.2c.8-1.5.8-2.8.1-4-.6-1.1-1.9-2.5-4-4.2l-3.8-2.9c-2.7-2.1-4.8-3.1-6.2-3.1s-3.1 1.2-4.9 3.6l-6.8 8.8c-.8 1-1.4 2-1.8 2.7-.8 1.5-.8 2.8-.2 3.9.6 1.1 2 2.5 4.1 4.2l3.8 2.9c2.7 2.2 4.8 3.2 6.2 3.1 1.4 0 3.1-1.2 4.9-3.6l6.9-8.8c.8-.9 1.4-1.9 1.7-2.6m-9 .2-3.8 4.9c-1 1.3-1.9 2-2.5 2-.5 0-1.4-.5-2.7-1.5l.6.5c-.9-.8-1.5-1.2-1.7-1.5-.6-.7-.7-1.4-.3-2.2.2-.4.6-.9 1.1-1.6l3.8-4.9c1-1.3 1.9-2 2.4-2s1.6.6 2.9 1.6l-.6-.4c.9.8 1.5 1.2 1.7 1.5.6.7.7 1.4.3 2.2-.2.1-.6.7-1.2 1.4M163.1 84.8c-1.7-3.2-5.1-4.2-8.6-2.8l-3.9 1.7c-1.4.6-2.4.5-3-.3l-.2-.4c-.2-.6-.7-1.6 1.5-2.5l7.1-3c1.5-.7 3.8.8 3.8.8s-1.4-3.4-2.2-5.4c-.5-1.2-2.1-2-3.3-1.5l-8.7 3.7c-3.2 1.3-5.1 2.6-5.7 3.8-.7 1.3-.4 3.3.8 6.1l1 2.3c.2.4.4.7.6 1 .8 1.1 1.9 2 3.4 2.3 1.7.5 3.7.2 5.9-.8l3.4-1.4c1.3-.6 2.3-.4 2.8.5.2.2.2.5.3.8 0 0 .4 1.2-2.3 2.3l-6.8 2.8c-1.5.6-3.8-.9-3.8-.9s1.4 3.4 2.3 5.4c.5 1.2 2.1 2 3.3 1.4l.7-.3 4.7-2 3.4-1.4c3.2-1.3 5.1-2.6 5.7-3.8.7-1.3.4-3.2-.8-5.9-.2.1-1.2-2-1.4-2.5m145.6 35.4-1.2-1.5s.4 2.3-1 3.4l-7.6 5.9 4.9-13.4c.1-.4.1-.7-.2-1-.6-.8-3.8-4.9-3.8-4.9l-1.3-1.7s.4 2.4-1 3.5l-17.8 13.9 3.2 4.1c.7.8 1.1 1.3 2 1.1 0 0 4.5-3.5 9.5-7.4l-4.5 11.7c-.8 1.9-2.1.8-2.1.8l.9 1.2 3.2 4c.7.8 1.1 1.3 1.9 1.1l19.5-15.3-4.6-5.5zm-89.1-54.4-2-.2s1.8 1.3 1.6 3.1v-.1l-1.1 9.6-6.1-12.9c-.2-.3-.5-.5-.8-.6-.9-.1-6.1-.7-6.1-.7l-2.2-.2s2 1.4 1.8 3.2l-2.5 22.4 5.2.6c1 .1 1.8.1 2.2-.6 0 0 .7-5.6 1.3-12l5.2 11.4c.8 1.9-.9 2-.9 2l1.5.2 5.2.6c1 .1 1.8.1 2.2-.6l2.7-24.7-7.2-.5zM111.7 94.6l-.8.9-4 4.6-.1.1c-.6.7-.9 1.1-.8 1.7l10.2 15.8-14.4-7.8c-1.9-.8-1-2.7-1-2.7l-1.4 1.6-3 3.4-.1.1c-.8.8-1.1 1.7-.8 2.6l10.3 14.5-14.5-7.4c-1.9-.9-1-3.1-1-3.1l-1.5 1.7-3.4 3.8-.1.1c-.8.8-.9 2.2-.2 2.8.1.1 0 .1 0 .1l22.5 10.5 5.3-6c.8-.8.9-1.2.6-2.1l-4.2-7.9 8.7 4.3 5.6-6.4c.7-.8.8-1.9.5-2.7l-11.9-20c-.9-1.3-.5-2.5-.5-2.5m12.4-7.3-4.3 3c-.8.6-1.2 1.2-1.1 2.1l7.2 21.9c.5 1.4-1.2 3.8-1.2 3.8l7.5-5.3c.7-.5.8-1.3.6-2.1l-1-3.1 5.7-4 2.2 1.4c1.3 1 .4 2.3.4 2.3l8.3-5.8-24.3-14.2zm5.3 14.5L128 98l3.5 2.3-2.1 1.5zm-46.7 45.1 3.4 10.4h11l-8.9 6.5 3.4 10.4-8.9-6.4-8.8 6.4 3.4-10.4-8.9-6.5h10.9zm234.6 1.4-3.4 10.5h-11l8.9 6.4-3.4 10.4 8.9-6.4 8.8 6.4-3.4-10.4 8.9-6.4h-10.9zM200.8 309.7h-5.3c-1 0-1.7.3-2.2 1l-6.7 22.1c-.4 1.4-3.2 2.4-3.2 2.4h9.2c.8 0 1.4-.6 1.7-1.3l.9-3.2h6.9l1 2.4c.5 1.6-1 2.1-1 2.1h10l-11.3-25.5zm-3.7 15 1.1-3.8 1.4 3.8h-2.5zm40.2 3.8-5.5-6.1c1.3-.3 2.3-1 2.7-1.6.7-1 .7-3 .1-5.9 0 0-1-5.1-1.2-5.9-.4-1.5-1.2-2.4-2.2-2.8-.9-.4-2.3-.4-4.3 0l-18.1 3.4s2.2.8 2.7 2.5l4 22.1 5.1-.9c1-.2 1.7-.4 1.9-1.1l-1.4-7.5 3.6-.8 6.1 7.4 9-1.7c0 .2-1.6-.2-2.5-1.1m-9.8-14.8c.2.6.5 2.3.3 2.9-.2.5-.5.7-1 .8l-4.2.8c-.9.2-1.7 1.1-2.3 2.3L219 314l6.8-1.3c.8-.2 1.4.2 1.7 1m30.2-15.6c-.8-1.4-1.8-2.2-2.7-2.3-.9-.2-2.3.2-4.2.9l-17.1 7.4s2.3.5 3.2 2l7.9 18.3c.4 1.3-.1 2.7-.4 3l16.6-7.1c2.3-.9 3.6-2.1 3.9-3.2.4-1.1 0-3.1-1.2-5.8l-5-10.8c-.4-1.3-.7-1.7-1-2.4m-4.8 5.9c.3.5 4.5 9.9 4.5 10.4s-.3.8-.7 1.1l-6.6 2.8-3.8-8.8c-.3-.6-.8-1.9-1.5-3.5l6.4-2.8c.6-.3 1.2 0 1.7.8m-66.4 10.8 1-4.9s-18.9-4.1-19.2-4.2c-1.6-.2-2.2.8-2.5 2.1l-.8 3.4-.4 1.4s1.4-1 2.9-.8l8.7 2-14.5 12.2-.8 4.1 19 4.2c1.2.3 2.1.3 2.5-.9l1.4-6.3s-1.4 1.4-3 1.1l-9.2-2.1 14.9-11.3zm-30.9 11.1s6.7-19.3 7-20.2c.4-.8 1.7-1.3 1.7-1.3-.7-.3-3.4-1.1-6.1-2.2-.8-.1-2-.6-2.8 2.3l-7.4 21.3 6.8 2.3.6.1c-.1.1-.2-.9.2-2.3m-1.3-24.3-1-.6-5.2-3.3h-.1c-.7-.5-1.3-.8-1.9-.6l-11.3 11 4.1-13.3c.3-1.3 2.3-1.3 2.3-1.3l-1.9-1.1-3.8-2.4h-.1c-.9-.6-1.9-.8-2.7-.3l-11.6 10.8 5.1-12.9c.7-2 2.8-1.5 2.8-1.5l-2-1.2-4.3-2.7h-.1c-1-.7-2.3-.7-2.8.2l-.1.1-8 23.1 6.8 4.2c.9.6 1.4.8 2.2.3l7.1-5.4-2.8 9.3 7.2 4.5c.8.6 2 .5 2.8.1l16.7-15.7c1.4-1.4 2.6-1.3 2.6-1.3m129.9-9.1c-2.3-2.7-5.9-3.1-9-.9l-3.6 2.4c-1.3.8-2.3.9-3 .3 0 0-.3-.3-.3-.4-.3-.6-.9-1.4.9-2.7l6.4-4.4c1.4-.9 3.9.1 3.9.1s-2.1-3-3.4-4.8c-.8-1-2.4-1.5-3.6-.7l-7.8 5.3c-2.8 2-4.4 3.6-4.8 5s.3 3.3 2 5.8l1.5 2.1c.2.3.5.6.7.8 1 .9 2.3 1.5 3.8 1.6 1.8.1 3.7-.6 5.6-2l3-2.1c1.1-.8 2.2-.8 2.8-.2.2.2.3.4.4.7 0 0 .7 1.1-1.8 2.7l-6.1 4.2c-1.4.8-3.8-.1-3.8-.1s2.1 3 3.4 4.8c.7 1 2.4 1.5 3.6.7l.6-.4 4.2-2.9 3-2.1c2.8-2 4.4-3.6 4.8-5s-.3-3.2-2-5.6c.3.2-1-1.6-1.4-2.2"/><path class="st0" d="M288.5 152.1c-6.2-11.4-14.5-21.5-24.4-29.6-1.9-1.5-3.8-3-5.7-4.4-16.4-11.7-36.5-18.6-58.1-18.7h-.2c-53.7 0-97.7 42.2-100.5 95.2-.1 1.7-.1 3.5-.2 5.2v.2c0 13.9 2.8 27.1 7.9 39.1.7 1.5 1.3 3 2 4.5 5.6 11.7 13.5 22.2 23 30.8 2.3 2.2 4.9 4.2 7.4 6.2 16.8 12.6 37.6 20 60.1 20.1h.2c12.2 0 23.8-2.2 34.6-6.1 38.5-14.1 66-51 66-94.4v-.2c0-13.9-2.8-27.1-7.9-39.1-1.3-3-2.7-6-4.2-8.8"/><path class="st2" d="M290.2 161.9c-1.2-2.9-2.6-5.8-4.1-8.5-6-11.1-14.2-20.9-23.8-28.9-1.8-1.5-3.7-2.9-5.6-4.3-15.9-11.3-35.4-18.1-56.5-18.2h-.2c-52.3 0-95.1 41.1-97.8 92.7-.1 1.7-.1 3.4-.1 5.1v.2c0 13.5 2.7 26.3 7.7 38.1.7 1.5 1.3 2.9 2 4.3 5.5 11.4 13.1 21.6 22.4 30 2.3 2.2 4.7 4.1 7.2 6 16.3 12.2 36.6 19.5 58.5 19.5h.2c11.8 0 23.2-2.1 33.7-5.9 37.5-13.7 64.2-49.7 64.2-91.9v-.2c-.1-13.4-2.8-26.2-7.8-38z"/><path class="st3" d="m181.7 155.1 2.3-8.3.6-2-10.4-5.8s-6.1-4.2-19.7 3.7c-15.9 9.4-28.9 21.6-35.5 34.4-3.8 7.1-6.7 15.4-8.2 24.7.5 17.6 6.1 34 15.4 47.7-2.6-25.5 21.9-53.3 41.3-72.4 9.9-10.1 14.2-22 14.2-22m64-12.3c-13.6-7.9-19.7-3.7-19.7-3.7l-10.4 5.8.6 2 2.2 8.3s4.3 11.9 14.4 22c19.2 19 43.7 46.8 41.3 72.2 9.4-13.9 14.9-30.5 15.2-48.3-1.6-9-4.4-17-8.1-23.9-6.7-12.9-19.6-25-35.5-34.4"/><path class="st1" d="M213 127.5c35.7 4 59.2 24.3 71.3 42.3-9.1-26-29.9-46.4-56-55.1-5.8 1.7-12.2 5.2-15.3 12.8m-25.8 0c-3.2-7.6-9.7-11.2-15.4-12.8-26.3 8.7-47.2 29.4-56.2 55.6 11.9-18.2 35.6-38.7 71.6-42.8m5.8-1 7.1-10.4 7.1 10.4c2.8-7.8 7.3-12.1 11.8-14.4-6.1-1.3-12.4-2.1-18.9-2.1s-12.8.8-19 2.1c4.5 2.3 9 6.6 11.9 14.4"/><path class="st3" d="M200.1 156.8c-1 .8-34 24.5-48.6 48-19.6 31.7-17.1 50-12 60.5 12.7 11.6 28.6 19.6 46.3 22.4l7.6-108.4 6.4-6.4.1-.1.1.1 6.4 6.4 7.7 108.3-.1.1c17.9-2.8 33.9-10.9 46.7-22.7 5-10.5 7.4-28.7-12.1-60.2-14.6-23.5-47.5-47.3-48.5-48"/><path class="st0" d="m206.5 179.4-6.4-6.4v122.5l14-7.8.1-.1zm12.6-45.6c-3.8-.7-7.8-1.2-11.7-1.4l-2.8-.2-.1-.1-.1-.1-1.1-2.3-.1-.2-3.2-6.5-1 2.2-2.1 4.2-.1.2-.1.2-1.1 2.3-.1.2-2.8.2c-3.9.3-7.9.8-11.7 1.4-1.7.3-3.5.6-5.2.9l5.4 2.9 5.4 3 1.7.9 1.7.9-1 3.8-.1.2-.5 1.7-3.1 11.1 6.9-5.2 4.7-3.5 1.4-1 1.4-1v-.1.1l1.4 1 1.4 1 11.9 8.6-3.1-11.1-.3-.9-.3-.9-1-3.8 1.1-.6 2.2-1.2 7.4-4 3.6-1.9c-1.4-.4-3.2-.6-4.9-1"/></svg>